<?xml version="1.0" encoding="UTF-8" standalone="no"?>
<!-- Created with Inkscape (http://www.inkscape.org/) -->

<svg
   xmlns:dc="http://purl.org/dc/elements/1.1/"
   xmlns:cc="http://creativecommons.org/ns#"
   xmlns:rdf="http://www.w3.org/1999/02/22-rdf-syntax-ns#"
   xmlns:svg="http://www.w3.org/2000/svg"
   xmlns="http://www.w3.org/2000/svg"
   xmlns:sodipodi="http://sodipodi.sourceforge.net/DTD/sodipodi-0.dtd"
   xmlns:inkscape="http://www.inkscape.org/namespaces/inkscape"
   width="128mm"
   height="80mm"
   viewBox="0 0 128 80"
   version="1.1"
   id="svg8"
   inkscape:version="0.92.4 (5da689c313, 2019-01-14)"
   sodipodi:docname="felinae-felices.inkscape.svg"
   inkscape:export-filename="D:\ns-stuff\share\meme\emoji\FlagFelinaeFelices.png"
   inkscape:export-xdpi="101.6"
   inkscape:export-ydpi="101.6">
  <defs
     id="defs2">
    <mask
       maskUnits="userSpaceOnUse"
       id="mask903">
      <rect
         ry="19.84375"
         rx="19.84375"
         y="201.23415"
         x="133.87091"
         height="99.21875"
         width="158.75"
         id="rect905"
         style="fill:#ffffff;fill-opacity:1;fill-rule:nonzero;stroke:none;stroke-width:1.74999976;stroke-linecap:round;stroke-linejoin:round;stroke-miterlimit:4;stroke-dasharray:none;stroke-dashoffset:0;stroke-opacity:1;paint-order:normal" />
    </mask>
  </defs>
  <sodipodi:namedview
     id="base"
     pagecolor="#ffffff"
     bordercolor="#666666"
     borderopacity="1.0"
     inkscape:pageopacity="0.0"
     inkscape:pageshadow="2"
     inkscape:zoom="1.979899"
     inkscape:cx="262.3287"
     inkscape:cy="206.33935"
     inkscape:document-units="mm"
     inkscape:current-layer="layer1"
     showgrid="false"
     inkscape:snap-nodes="false"
     inkscape:snap-bbox="true"
     inkscape:snap-bbox-edge-midpoints="true"
     inkscape:snap-bbox-midpoints="true"
     inkscape:bbox-nodes="true"
     fit-margin-top="0"
     fit-margin-left="0"
     fit-margin-right="0"
     fit-margin-bottom="0"
     inkscape:window-width="1920"
     inkscape:window-height="1017"
     inkscape:window-x="-8"
     inkscape:window-y="-8"
     inkscape:window-maximized="1" />
  <metadata
     id="metadata5">
    <rdf:RDF>
      <cc:Work
         rdf:about="">
        <dc:format>image/svg+xml</dc:format>
        <dc:type
           rdf:resource="http://purl.org/dc/dcmitype/StillImage" />
        <dc:title />
      </cc:Work>
    </rdf:RDF>
  </metadata>
  <g
     inkscape:label="Layer 1"
     inkscape:groupmode="layer"
     id="layer1"
     transform="translate(0,-217)">
    <g
       id="g856"
       transform="matrix(0.80629921,0,0,0.80629921,-107.94001,54.745069)"
       style="stroke-width:1.24023438"
       mask="url(#mask903)">
      <rect
         id="rect2"
         y="201.23415"
         x="133.87096"
         height="99.21875"
         width="158.75"
         style="fill:#553322;stroke-width:0.32814533" />
      <polygon
         transform="matrix(0.26458333,0,0,0.26458333,133.87096,205.5996)"
         id="polygon4"
         points="85.714,85.5 85.714,256.5 257.143,171 "
         style="fill:#ffffff;stroke-width:1.24023438" />
      <polygon
         transform="matrix(0.26458333,0,0,0.26458333,133.87096,205.5996)"
         id="polygon6"
         points="107.143,117.563 107.143,245.813 235.714,181.688 "
         style="fill:#ff77bb;stroke-width:1.24023438" />
      <polygon
         transform="matrix(0.26458333,0,0,0.26458333,133.87096,205.5996)"
         id="polygon8"
         points="514.286,85.5 514.286,256.5 342.857,171 "
         style="fill:#ffffff;stroke-width:1.24023438" />
      <polygon
         transform="matrix(0.26458333,0,0,0.26458333,133.87096,205.5996)"
         id="polygon10"
         points="492.857,117.563 492.857,245.813 364.286,181.688 "
         style="fill:#ff77bb;stroke-width:1.24023438" />
    </g>
    <path
       style="fill:#000000;fill-opacity:0.33333333;fill-rule:nonzero;stroke:none;stroke-width:1.74999988;stroke-linecap:round;stroke-linejoin:round;stroke-miterlimit:4;stroke-dasharray:none;stroke-dashoffset:0;stroke-opacity:1;paint-order:normal"
       d="m 16.000088,216.99972 c -8.8639991,0 -16.000056560368,7.13605 -16.000056560368,16.00005 v 48.00017 C 3.1439632e-5,289.86394 7.1360889,297 16.000088,297 h 95.999822 c 8.864,0 16.00006,-7.13606 16.00006,-16.00006 v -48.00017 c 0,-8.864 -7.13606,-16.00005 -16.00006,-16.00005 z m 0,4.00027 h 95.999822 c 6.648,0 12.0003,5.35178 12.0003,11.99978 v 48.00017 c 0,6.648 -5.3523,11.99979 -12.0003,11.99979 H 16.000088 c -6.648,0 -11.9997842,-5.35179 -11.9997842,-11.99979 v -48.00017 c 0,-6.648 5.3517842,-11.99978 11.9997842,-11.99978 z"
       id="rect815-8"
       inkscape:connector-curvature="0" />
  </g>
</svg>
