<?xml version="1.0" encoding="UTF-8" standalone="no"?>
<!-- Created with Inkscape (http://www.inkscape.org/) -->

<svg
   width="128mm"
   height="80mm"
   viewBox="0 0 128 80"
   version="1.1"
   id="svg8"
   inkscape:version="1.2 (dc2aedaf03, 2022-05-15)"
   sodipodi:docname="mjolnir-energy.inkscape.svg"
   xmlns:inkscape="http://www.inkscape.org/namespaces/inkscape"
   xmlns:sodipodi="http://sodipodi.sourceforge.net/DTD/sodipodi-0.dtd"
   xmlns="http://www.w3.org/2000/svg"
   xmlns:svg="http://www.w3.org/2000/svg"
   xmlns:rdf="http://www.w3.org/1999/02/22-rdf-syntax-ns#"
   xmlns:cc="http://creativecommons.org/ns#"
   xmlns:dc="http://purl.org/dc/elements/1.1/">
  <defs
     id="defs2">
    <clipPath
       clipPathUnits="userSpaceOnUse"
       id="clipPath904">
      <g
         inkscape:label="Clip"
         id="use906">
        <g
           style="stroke-width:1.19062495"
           transform="matrix(0.22222222,0,0,0.22222222,-2.666666,217)"
           id="g941">
          <rect
             style="fill:#ffcc33;stroke-width:1.19062495"
             width="600"
             height="360"
             x="0"
             y="0"
             id="rect921" />
          <polygon
             style="fill:#ffffff;stroke-width:1.19062495"
             points="540,360 600,360 600,324 60,0 0,0 0,36 "
             id="polygon923" />
          <polygon
             style="fill:#ffffff;stroke-width:1.19062495"
             points="60,360 0,360 0,324 540,0 600,0 600,36 "
             id="polygon925" />
          <circle
             style="fill:#ffffff;stroke-width:1.19062495"
             r="150"
             cx="300"
             cy="180"
             id="circle927" />
          <polygon
             style="fill:#000000;stroke-width:1.19062495"
             points="566.25,360 600,360 600,339.75 33.75,0 0,0 0,20.25 "
             id="polygon929" />
          <polygon
             style="fill:#000000;stroke-width:1.19062495"
             points="33.75,360 0,360 0,339.75 566.25,0 600,0 600,20.25 "
             id="polygon931" />
          <circle
             style="fill:#000000;stroke-width:1.19062495"
             r="135"
             cx="300"
             cy="180"
             id="circle933" />
          <circle
             style="fill:#ffffff;stroke-width:1.19062495"
             r="105"
             cx="300"
             cy="180"
             id="circle935" />
          <g
             style="stroke-width:1.19062495"
             transform="matrix(3,0,0,3,300,191.25)"
             id="g939">
            <path
               style="fill:#000000;stroke-width:1.19062495"
               inkscape:connector-curvature="0"
               d="m -1.266704,23.778129 c -1.537976,-1.75464 -1.571822,-2.10765 -0.459874,-4.79639 0.150439,-0.36377 -0.112142,-0.23308 -0.896696,0.44631 -0.655233,0.56739 -1.482703,1.0189 -2.021186,1.10286 -1.654672,0.25799 -2.182575,0.67965 -2.182575,1.74329 0,0.52345 -0.06805,0.95164 -0.15123,0.95156 -0.428121,-4.8e-4 -0.992507,-1.04979 -0.992507,-1.84528 0,-1.1674 0.625845,-1.73918 2.625496,-2.39874 1.199991,-0.3958 1.692435,-0.71591 2.135763,-1.38835 0.9526,-1.44489 0.737478,-1.65152 -0.827451,-0.79473 -1.59832,0.87506 -2.889925,0.98115 -4.417046,0.36282 -0.816105,-0.33045 -1.111578,-0.34717 -1.593667,-0.0901 -1.194321,0.63682 -1.292751,1.56673 -0.282539,2.66923 0.492449,0.53743 0.559391,0.70267 0.233375,0.57608 -0.251428,-0.0977 -0.502036,-0.17753 -0.55691,-0.17753 -0.264693,0 -0.875311,-1.60855 -0.875311,-2.30584 0,-1.28964 1.130372,-1.80725 3.949337,-1.80843 3.214575,-9.8e-4 4.518877,-0.71753 5.37184,-2.94962 0.514679,-1.34684 0.417693,-1.9089 -0.361909,-2.09737 -1.058648,-0.25592 -1.334359,-0.5868 -1.334359,-1.60137 0,-0.91139 0.0062,-0.91696 0.395657,-0.35432 0.524909,0.75837 1.273265,0.72378 1.795654,-0.083 0.536373,-0.8284 0.203861,-2.14266 -0.871739,-3.44558 l -0.730766,-0.8852 -0.910443,0.92134 c -0.500745,0.50672 -1.159057,1.41447 -1.46292,2.01721 -0.419085,0.8313 -0.607728,1.00888 -0.781316,0.73548 -0.179494,-0.28268 -0.418748,-0.13852 -1.109415,0.66841 -1.245472,1.45514 -1.173036,1.67116 0.561783,1.67533 1.908554,0.005 2.605178,0.20957 2.605178,0.76659 0,0.24911 0.17156,0.597 0.381245,0.77311 0.393009,0.33007 0.496885,1.19619 0.228384,1.90426 -0.128845,0.33978 -0.226073,0.31277 -0.618855,-0.17186 -0.406156,-0.50115 -0.534723,-0.53258 -1.001214,-0.24477 -0.693773,0.42803 -1.063835,0.1817 -0.874407,-0.58205 0.16074,-0.64811 -0.435325,-1.16479 -1.339031,-1.1607 -0.69083,0.003 -4.834261,3.20771 -5.043154,3.90042 -0.263135,0.87259 -0.874101,1.48601 -1.311067,1.31632 -0.223827,-0.0869 -0.643121,0.13894 -1.018492,0.5486 -0.350927,0.38298 -0.684181,0.64963 -0.74057,0.59258 -0.05639,-0.0571 0.110739,-0.78519 0.371396,-1.61807 0.38267,-1.22273 0.639827,-1.60655 1.335522,-1.99332 0.92742,-0.51562 2.826745,-2.26031 2.652543,-2.4366 -0.05827,-0.059 -0.678917,0.0853 -1.379209,0.32075 -0.876661,0.29466 -1.231426,0.53828 -1.138963,0.78211 0.179599,0.47361 -1.752024,1.02066 -2.387924,0.67627 -0.49312,-0.26707 -1.768107,-0.10382 -1.986878,0.25439 -0.221918,0.36337 -0.870818,0.26078 -0.870818,-0.13766 0,-0.2003 0.502089,-0.90975 1.115757,-1.57658 0.997309,-1.08368 1.206424,-1.19821 1.969769,-1.07883 0.9164,0.14333 3.522728,-0.27954 3.522728,-0.57155 0,-0.097 -0.862372,-0.36584 -1.916381,-0.5973 -1.488659,-0.32691 -2.057472,-0.35578 -2.548531,-0.12938 -0.47568,0.21933 -0.705935,0.21681 -0.930252,-0.0102 -0.431062,-0.43622 -0.908137,-0.3733 -1.745723,0.23025 -0.736879,0.53098 -0.738186,0.531 -0.738186,0.0119 0,-0.28595 0.296444,-0.72786 0.658762,-0.98201 0.36232,-0.25417 0.845234,-0.66466 1.07314,-0.91223 0.552514,-0.60014 1.355241,-0.56825 2.177826,0.0865 0.663698,0.52832 3.725539,1.23626 5.427071,1.25482 0.701903,0.008 0.98832,-0.20506 1.956005,-1.45274 1.07998,-1.39246 1.273001,-2.07907 0.500097,-1.77893 -0.579444,0.22501 -0.404513,-0.24671 0.216332,-0.58337 0.660262,-0.35804 2.342474,-2.69467 2.018619,-2.80391 -0.119284,-0.0403 -1.122656,0.3838 -2.229717,0.9423 -2.211425,1.11566 -4.871725,1.90831 -5.916734,1.76296 l -0.671046,-0.0933 0.63541,-0.28094 c 0.889191,-0.39313 1.913097,-1.56793 2.390912,-2.74323 0.530007,-1.30368 0.521897,-1.32705 -0.276782,-0.79748 -3.054432,2.02528 -6.373977,2.84353 -8.785927,2.16568 -0.902324,-0.25359 -1.320233,-0.75432 -0.635409,-0.76135 1.074988,-0.0109 6.287241,-3.55212 6.289602,-4.27303 7.63e-4,-0.19664 -0.835486,-0.28617 -2.604229,-0.27882 -2.790155,0.0115 -4.074726,-0.34134 -5.225823,-1.43566 l -0.594273,-0.56497 2.125693,-0.28507 c 1.704551,-0.2286 2.387189,-0.4582 3.44558,-1.15888 0.725936,-0.48059 1.321941,-0.9606 1.324452,-1.06671 0.0025,-0.10609 -0.471469,-0.1929 -1.053291,-0.1929 -1.594373,0 -3.67165,-0.76481 -4.854596,-1.78737 l -1.056507,-0.91325 2.153165,-0.1318 c 1.704149,-0.10431 2.324786,-0.25546 2.976151,-0.72482 1.02149,-0.73605 1.032642,-0.96567 0.0565,-1.16323 -1.428742,-0.28917 -3.505191,-1.46364 -4.441095,-2.51196 -0.512524,-0.5741 -0.871622,-1.10476 -0.797996,-1.17927 0.07363,-0.0745 0.499895,-0.007 0.947261,0.15148 0.911187,0.32144 3.790274,0.39302 3.782458,0.094 -0.0028,-0.10609 -0.584779,-0.54011 -1.293347,-0.96449 -1.430677,-0.85689 -3.258274,-2.70744 -3.884906,-3.9337 L -25,-19.702331 l 1.080326,0.49624 c 0.594181,0.27294 1.637607,0.49879 2.318725,0.50189 1.072296,0.005 1.195961,-0.046 0.921994,-0.38016 -0.174024,-0.21219 -0.451524,-0.3858 -0.616673,-0.3858 -0.706905,0 -3.791295,-4.36994 -3.378928,-4.78725 0.07293,-0.0738 0.689595,0.15145 1.370367,0.50053 0.680772,0.34911 1.635729,0.67518 2.122124,0.72461 l 0.884355,0.0899 -0.08755,-1.00113 -0.08755,-1.00113 0.812825,0.93682 c 0.447057,0.51527 0.921769,0.93683 1.054917,0.93683 0.515268,0 3.330207,1.56724 3.806264,2.11917 0.840323,0.97425 1.227358,2.11052 1.064599,3.12548 -0.113992,0.71085 -0.034,1.07045 0.32826,1.47581 0.337896,0.37811 0.473581,0.90308 0.460667,1.78236 -0.0166,1.12914 0.04838,1.27434 0.690522,1.54351 0.982104,0.41167 1.309934,0.88494 1.474012,2.12795 0.13808,1.04605 0.16143,1.06828 1.041156,0.99149 0.621202,-0.0542 1.113125,0.0912 1.588357,0.46945 0.627195,0.49925 0.724151,0.51188 1.089679,0.14199 0.220675,-0.22332 0.639729,-0.5352 0.93123,-0.69307 l 0.530002,-0.28705 -0.520074,-0.41858 c -0.639267,-0.51452 -1.018939,-1.24254 -1.090154,-2.0904 -0.107567,-1.28065 -0.02255,-1.35286 0.784253,-0.66587 0.430093,0.36623 0.895758,0.66587 1.034807,0.66587 0.597264,0 0.979,-0.79285 0.979,-2.03332 0,-1.09612 -0.09758,-1.36316 -0.626211,-1.71367 -0.563649,-0.37373 -0.703105,-0.3764 -1.395877,-0.0266 -0.729528,0.36829 -0.756518,0.3637 -0.517525,-0.0881 0.541348,-1.02361 0.09246,-1.03403 -1.354128,-0.0314 -1.381115,0.95723 -1.989939,1.13451 -2.81115,0.81856 -0.982644,-0.37807 -1.32557,-1.30022 -0.82871,-2.22848 l 0.396665,-0.74107 0.01016,0.69827 c 0.01972,1.35306 1.428725,1.53466 3.614715,0.46588 0.586239,-0.28663 1.330339,-0.52114 1.653556,-0.52114 0.86923,0 0.718091,-0.41557 -0.46712,-1.2844 -1.383946,-1.01451 -2.597661,-1.05089 -3.093759,-0.0928 l -0.352328,0.68049 -0.545362,-0.55189 c -1.191382,-1.20562 -0.300048,-3.48292 1.443327,-3.68759 0.438365,-0.0514 0.709091,-0.25999 0.770799,-0.59372 0.208201,-1.12599 1.039687,-1.15758 3.594604,-0.13651 2.209083,0.88284 2.923957,0.95456 3.283769,0.3294 0.230767,-0.40094 0.259908,-0.38618 0.266792,0.13503 0.006,0.44851 -0.172409,0.6216 -0.763771,0.74128 -0.735253,0.14881 -0.751313,0.17873 -0.341853,0.63659 0.488398,0.54613 1.372827,0.62938 1.825012,0.17178 0.237218,-0.24005 0.304997,-0.18491 0.304997,0.24816 0,0.30624 -0.222073,0.67707 -0.4935,0.82406 -0.48424,0.26226 -0.482566,0.29234 0.0894,1.60386 0.584587,1.34045 1.166584,1.8972 1.166584,1.11599 0,-0.22962 0.237159,-0.88792 0.527021,-1.46288 l 0.52702,-1.04541 -0.540298,-0.38295 c -0.77022,-0.54594 -0.513934,-0.94114 0.623161,-0.96095 1.131549,-0.0197 1.477517,-0.52124 0.526228,-0.76286 -0.444296,-0.11284 -0.646467,-0.3389 -0.646467,-0.72285 0,-0.54302 0.01001,-0.54482 0.357354,-0.0642 0.398556,0.55157 0.747119,0.48963 3.871809,-0.68814 1.30873,-0.49329 1.667474,-0.53883 2.223932,-0.28224 0.396691,0.1829 0.663487,0.51498 0.663487,0.82582 0,0.35638 0.167559,0.51993 0.532653,0.51993 1.936674,0 3.004446,2.64601 1.527211,3.78458 -0.577665,0.44523 -0.670037,0.41376 -1.011447,-0.34451 -0.267889,-0.59499 -0.411389,-0.65755 -1.208161,-0.5267 -0.914235,0.15013 -2.636057,1.27972 -2.636057,1.72936 0,0.13427 0.200155,0.24466 0.444787,0.24531 0.244633,7.8e-4 1.131028,0.28727 1.969768,0.63691 0.83874,0.34963 1.764598,0.63845 2.057458,0.6418 0.637918,0.008 1.367498,-0.74267 1.389861,-1.42875 0.01326,-0.40597 0.06033,-0.38218 0.263786,0.13328 0.58031,1.4701 -0.515276,2.78981 -2.010064,2.42126 -0.376413,-0.0928 -1.162488,-0.49843 -1.746836,-0.90141 -1.473995,-1.01648 -2.122894,-0.96506 -1.17648,0.0932 0.416566,0.46581 0.406794,0.46845 -0.317705,0.0861 -0.969212,-0.51146 -1.213456,-0.499 -1.739,0.0887 -0.320828,0.35874 -0.414486,0.84085 -0.357097,1.83822 0.100256,1.74249 0.576384,2.10748 1.69639,1.30045 l 0.795951,-0.57356 v 0.95775 c 0,0.62532 -0.220546,1.25035 -0.635409,1.80077 -0.713209,0.94625 -0.768657,1.13455 -0.334086,1.13455 0.165728,0 0.557762,0.24379 0.871187,0.54176 l 0.569863,0.54175 0.590254,-0.56328 c 0.459744,-0.43874 0.800997,-0.5355 1.543368,-0.43764 0.907997,0.11971 0.953117,0.0909 0.953117,-0.60937 0,-1.16666 0.532961,-2.04751 1.559537,-2.57749 0.88369,-0.45621 0.94084,-0.55458 0.80703,-1.389 -0.0967,-0.60323 -0.009,-1.10777 0.26969,-1.53696 0.26219,-0.40493 0.41371,-1.18599 0.41371,-2.1326 0,-2.07439 0.88031,-3.13487 3.68599,-4.4404 1.19814,-0.55751 2.3108,-1.27517 2.6408,-1.70327 l 0.57027,-0.73986 -0.16401,0.76681 c -0.0902,0.42176 -0.18377,0.88472 -0.20794,1.02881 -0.081,0.48291 1.71608,0.12041 3.18787,-0.64304 l 1.45265,-0.75352 -0.26114,0.70069 c -0.52623,1.41189 -2.15837,3.65034 -3.08082,4.22529 -0.52116,0.32484 -0.95066,0.67743 -0.95442,0.78352 -0.0138,0.38962 2.18639,0.16653 3.2716,-0.33172 0.61492,-0.28232 1.16265,-0.46817 1.21719,-0.41299 0.15037,0.15218 -1.65653,2.51142 -2.55755,3.33935 -0.43688,0.40144 -1.36574,1.0944 -2.06412,1.53988 -0.98326,0.62723 -1.15999,0.83139 -0.78322,0.90483 0.69374,0.13519 3.48992,-0.1032 4.04845,-0.34517 0.44687,-0.19359 0.45031,-0.16436 0.0686,0.58258 -0.68065,1.33198 -2.78283,2.64068 -4.88182,3.03917 -1.1287,0.21428 -1.01159,0.59748 0.40621,1.32918 0.86678,0.44732 1.55268,0.5787 3.02127,0.5787 h 1.89993 l -0.71284,0.75295 c -0.97017,1.02474 -2.87667,1.80838 -4.8542,1.99525 -0.90456,0.0854 -1.64465,0.22997 -1.64465,0.32109 0,0.0911 0.6284,0.55106 1.39646,1.02212 1.09273,0.67019 1.87601,0.92078 3.60142,1.15216 l 2.20498,0.2957 -0.81718,0.69584 c -1.14819,0.97769 -2.56859,1.31639 -5.43256,1.29541 -1.36295,-0.0101 -2.4781,0.0698 -2.4781,0.17724 0,0.72369 3.5531,3.27814 5.5914,4.01987 0.69906,0.25439 1.27102,0.54166 1.27102,0.63838 0,0.26366 -2.11779,0.75133 -3.26282,0.75133 -1.44559,0 -4.01372,-0.86968 -5.63291,-1.90755 -1.30429,-0.83603 -1.40345,-0.8615 -1.480949,-0.38032 -0.128713,0.79929 1.892589,3.2867 2.688229,3.30812 0.17474,0.005 0.3177,0.13921 0.3177,0.29889 0,0.76887 -4.586921,-0.55263 -7.307201,-2.10518 -0.753489,-0.43005 -1.33436,-0.63123 -1.33436,-0.46215 0,0.4055 1.182598,2.01533 2.002436,2.72583 0.536631,0.46506 0.579732,0.57767 0.221496,0.5787 -0.244632,7.8e-4 -0.444787,0.12649 -0.444787,0.27951 0,0.27169 1.655539,2.4801 2.160392,2.88187 0.621355,0.49447 5.451034,-0.36138 6.451904,-1.14332 0.72652,-0.5676 1.24516,-0.59948 1.78709,-0.10985 2.26327,2.0448 2.75998,2.86931 1.14921,1.90757 -0.79597,-0.47525 -0.98223,-0.49902 -1.54067,-0.19657 -0.5085,0.27539 -0.73547,0.28068 -1.13762,0.0265 -0.40653,-0.25692 -0.86429,-0.23229 -2.39888,0.12899 -1.04306,0.24558 -1.89648,0.5291 -1.89648,0.63004 0,0.30185 2.34936,0.69912 3.26857,0.5527 0.76451,-0.12177 0.97093,-0.009 1.96977,1.07637 1.1585,1.25884 1.48788,2.1488 0.67097,1.81286 -1.17436,-0.48293 -1.93923,-0.60955 -2.3472,-0.3886 -0.61786,0.33462 -2.20545,-0.15237 -2.35256,-0.72164 -0.1165,-0.45087 -2.129518,-1.26029 -2.415235,-0.97116 -0.193584,0.1959 2.183665,2.46647 2.582345,2.46647 0.63681,0 1.13581,0.9231 1.8075,3.34364 0.17205,0.61999 0.14739,0.61308 -0.68893,-0.1929 -0.47705,-0.45976 -1.11708,-0.83592 -1.42229,-0.83592 -0.38032,0 -0.60523,-0.20282 -0.71479,-0.6446 -0.18308,-0.73813 -2.222473,-2.68265 -3.687353,-3.5158 -0.545369,-0.31018 -0.991578,-0.6584 -0.991578,-0.77381 0,-0.11541 -0.325397,-0.20984 -0.723099,-0.20984 -0.711643,0 -1.717144,0.78847 -1.406448,1.10289 0.08747,0.0884 0.08637,0.35258 -0.0025,0.5868 -0.1276,0.3365 -0.237458,0.36206 -0.523481,0.12185 -0.400361,-0.33624 -1.411139,0.0416 -1.411139,0.52752 0,0.51303 -0.449535,-0.0267 -0.574877,-0.69024 -0.169766,-0.89868 0.574993,-2.61469 1.210286,-2.78863 0.27958,-0.0766 1.223162,-0.14076 2.096851,-0.1427 0.873687,-0.002 1.588522,-0.10028 1.588522,-0.2185 0,-0.11824 -0.415962,-0.75528 -0.924357,-1.41563 C 6.82362,7.950469 6.661677,7.845789 6.404016,8.202389 6.14876,8.555639 6.04253,8.468859 5.648902,7.585509 5.396961,7.020119 4.744554,6.116549 4.199107,5.577559 3.21611,4.606219 3.203123,4.602039 2.723247,5.102349 c -0.664852,0.69325 -1.544126,2.35087 -1.544126,2.91117 0,0.58146 1.029401,1.58023 1.628699,1.58023 0.248709,0 0.511682,-0.23018 0.584382,-0.51152 0.170525,-0.65986 0.582719,-0.40647 0.582719,0.35823 0,0.70047 -0.626239,1.3069 -1.588523,1.53825 -0.779659,0.18746 -0.876666,0.74941 -0.361908,2.09645 0.862707,2.2576 1.824224,2.7778 5.456682,2.95226 2.805009,0.13472 2.925524,0.16461 3.529986,0.87574 0.461952,0.54347 0.584681,0.912 0.468705,1.40737 -0.191557,0.81814 -0.925978,1.88128 -1.413109,2.04559 -0.197125,0.0665 -0.0472,-0.25337 0.33317,-0.71082 0.768612,-0.92437 0.811706,-1.11334 0.421964,-1.85028 -0.432408,-0.81762 -1.347633,-1.03458 -2.551342,-0.6048 -1.590052,0.5677 -2.730124,0.46097 -4.273825,-0.40009 -0.756854,-0.42216 -1.422935,-0.72017 -1.480181,-0.66225 -0.201973,0.20439 0.694012,1.65752 1.338157,2.17027 0.358833,0.28563 1.010125,0.59883 1.447314,0.69601 2.197685,0.48846 3.131103,1.79975 2.394229,3.36346 -0.482178,1.02322 -0.907654,1.14645 -0.73108,0.21172 0.167138,-0.88477 -0.791073,-1.91587 -1.780435,-1.91587 -0.919183,0 -1.616216,-0.3568 -2.671245,-1.36734 -0.716485,-0.68627 -0.824837,-0.72481 -0.817024,-0.29064 0.005,0.27531 0.17246,0.78991 0.372238,1.14356 0.694296,1.22907 0.483693,2.13045 -0.832813,3.56445 -0.667731,0.72733 -1.268193,1.31063 -1.334359,1.29624 -0.06617,-0.0144 -0.591866,-0.56416 -1.168225,-1.22171 z"
               id="path937" />
          </g>
        </g>
        <rect
           ry="16"
           rx="16"
           y="217"
           x="-8.8817842e-16"
           height="80"
           width="128"
           id="rect943"
           style="fill:#ffffff;fill-opacity:1;fill-rule:nonzero;stroke:none;stroke-width:1.74999988;stroke-linecap:round;stroke-linejoin:round;stroke-miterlimit:4;stroke-dasharray:none;stroke-dashoffset:0;stroke-opacity:1;paint-order:normal" />
      </g>
    </clipPath>
    <clipPath
       clipPathUnits="userSpaceOnUse"
       id="clipPath5937">
      <rect
         style="fill:#ffffff;fill-opacity:1;fill-rule:nonzero;stroke:none;stroke-width:0.291666;stroke-linecap:round;stroke-linejoin:round;stroke-miterlimit:4;stroke-dasharray:none;stroke-dashoffset:0;stroke-opacity:1;paint-order:normal"
         id="rect5939"
         width="128"
         height="80"
         x="-2.7999999e-07"
         y="217"
         rx="16"
         ry="16" />
    </clipPath>
  </defs>
  <sodipodi:namedview
     id="base"
     pagecolor="#ffffff"
     bordercolor="#666666"
     borderopacity="1.0"
     inkscape:pageopacity="0.0"
     inkscape:pageshadow="2"
     inkscape:zoom="1.4"
     inkscape:cx="212.14286"
     inkscape:cy="93.571429"
     inkscape:document-units="mm"
     inkscape:current-layer="layer1"
     showgrid="false"
     inkscape:snap-nodes="false"
     inkscape:snap-bbox="true"
     inkscape:snap-bbox-edge-midpoints="true"
     inkscape:snap-bbox-midpoints="true"
     inkscape:bbox-nodes="true"
     fit-margin-top="0"
     fit-margin-left="0"
     fit-margin-right="0"
     fit-margin-bottom="0"
     inkscape:window-width="2560"
     inkscape:window-height="1529"
     inkscape:window-x="-8"
     inkscape:window-y="-8"
     inkscape:window-maximized="1"
     inkscape:showpageshadow="2"
     inkscape:pagecheckerboard="0"
     inkscape:deskcolor="#d1d1d1" />
  <metadata
     id="metadata5">
    <rdf:RDF>
      <cc:Work
         rdf:about="">
        <dc:format>image/svg+xml</dc:format>
        <dc:type
           rdf:resource="http://purl.org/dc/dcmitype/StillImage" />
        <dc:title />
      </cc:Work>
    </rdf:RDF>
  </metadata>
  <g
     inkscape:label="Layer 1"
     inkscape:groupmode="layer"
     id="layer1"
     transform="translate(0,-217)">
    <g
       id="g5935"
       clip-path="url(#clipPath5937)">
      <rect
         style="fill:#224488;fill-opacity:1;stroke:#ffdd77;stroke-width:0.157112"
         id="rect1003"
         width="127.84289"
         height="79.842888"
         x="0.078555778"
         y="217.07855" />
      <g
         id="g1012"
         transform="matrix(0.62499999,0,0,0.62499999,-54.707703,149.6051)">
        <circle
           style="fill:none;fill-opacity:1;fill-rule:evenodd;stroke:#ffdd77;stroke-width:16;stroke-linecap:square;stroke-linejoin:miter;stroke-miterlimit:4;stroke-dasharray:none;stroke-dashoffset:0;stroke-opacity:1;paint-order:normal"
           id="path4779"
           cx="189.93304"
           cy="171.7858"
           r="40" />
        <path
           style="color:#000000;font-style:normal;font-variant:normal;font-weight:normal;font-stretch:normal;font-size:medium;line-height:normal;font-family:sans-serif;font-variant-ligatures:normal;font-variant-position:normal;font-variant-caps:normal;font-variant-numeric:normal;font-variant-alternates:normal;font-feature-settings:normal;text-indent:0;text-align:start;text-decoration:none;text-decoration-line:none;text-decoration-style:solid;text-decoration-color:#000000;letter-spacing:normal;word-spacing:normal;text-transform:none;writing-mode:lr-tb;direction:ltr;text-orientation:mixed;dominant-baseline:auto;baseline-shift:baseline;text-anchor:start;white-space:normal;shape-padding:0;clip-rule:nonzero;display:inline;overflow:visible;visibility:visible;isolation:auto;mix-blend-mode:normal;color-interpolation:sRGB;color-interpolation-filters:linearRGB;solid-color:#000000;solid-opacity:1;fill:#ffdd77;fill-opacity:1;fill-rule:evenodd;stroke:#224488;stroke-width:4.5;stroke-linecap:round;stroke-linejoin:round;stroke-miterlimit:100;stroke-dasharray:none;stroke-dashoffset:0;stroke-opacity:1;paint-order:markers stroke fill;color-rendering:auto;image-rendering:auto;shape-rendering:auto;text-rendering:auto;enable-background:accumulate"
           d="m 188.55023,126.61391 -0.42774,0.76758 -14.07812,25.20508 16.68164,-4.89062 -16.05274,28.11914 h 9.00782 l -26.74414,41.81445 46.60156,-49.21484 h -9.54102 l 21.95508,-28.51953 6.11133,-13.28126 z"
           id="path4847"
           inkscape:connector-curvature="0" />
        <path
           style="fill:#ffdd77;fill-opacity:1;stroke:#224488;stroke-width:1.5;stroke-linecap:round;stroke-linejoin:round;stroke-miterlimit:4;stroke-dasharray:none;stroke-opacity:1"
           d="m 195.30975,197.90207 c -4.08902,-3.24689 -9.18039,-5.13178 -14.36652,-5.75471 -2.15597,-0.87405 -7.20662,0.41357 -6.62455,-3.24695 0.61156,-3.39319 1.08471,-6.84934 2.04759,-10.15518 1.7344,-2.14625 4.81698,-0.5811 7.14006,-0.68415 2.76085,0.92263 4.6533,-1.39424 4.83564,-3.88993 0.70073,-3.47142 2.13582,-7.02807 1.35375,-10.58628 -1.24864,-2.46403 -4.07464,-3.49892 -6.08878,-5.17134 -2.45388,-0.18511 -4.26516,-1.72741 -3.65893,-4.30066 -0.63719,-2.05452 0.50214,-4.70113 2.95434,-3.41807 2.47292,0.26564 4.58535,-1.16913 6.88494,-1.68647 2.55691,-0.16375 5.1025,0.37158 7.67195,-0.01 2.85391,-0.0124 5.81452,-0.47051 8.50868,0.7691 1.87865,1.05114 3.81553,1.35309 5.76839,1.31584 1.11612,1.50234 2.61421,4.85622 0.26354,5.94484 -2.23374,0.86901 -3.57532,2.95293 -5.70939,4.037 -2.60135,1.30494 -4.0464,3.91857 -3.00345,6.75098 0.27367,3.43931 0.47818,6.98976 1.88907,10.19911 2.2659,1.61993 5.15676,0.23177 7.69464,0.7119 2.59637,-0.88834 3.978,1.24748 4.11336,3.54042 0.68965,2.58363 1.31988,5.20554 1.45034,7.88372 -1.26728,2.70393 -4.88158,1.19251 -7.19335,2.11033 -4.73651,0.85881 -9.39497,2.42154 -13.44728,5.02027 -0.75353,0.30255 -1.65116,0.89989 -2.48404,0.61995 z"
           id="path4748"
           inkscape:connector-curvature="0" />
        <g
           aria-label="MJOLNIRI"
           id="text4800"
           style="font-weight:bold;font-size:22.4004px;line-height:1.25;font-family:'Comic Sans MS';-inkscape-font-specification:'Comic Sans MS Bold';letter-spacing:0px;word-spacing:0px;fill:#ffffff;stroke-width:0.264583">
          <path
             id="path936"
             style="font-size:14.1111px;font-family:Orbitron;-inkscape-font-specification:'Orbitron Bold';fill:#224488;fill-opacity:1"
             d="m 175.86169,139.72484 -3.83807,-9.40715 1.71158,-0.69832 3.83807,9.40716 z m -2.25187,0.94809 -4.55125,-1.42127 2.05431,-1.31884 3.92482,1.20298 0.28207,0.43936 z m -6.81606,4.37581 -5.48119,-8.53788 6.8873,-4.42155 q 0.45123,-0.28969 0.97607,-0.30802 0.52483,-0.0183 0.9944,0.21682 0.46194,0.22327 0.75163,0.67451 l 1.47893,2.30368 q 0.28969,0.45124 0.30802,0.97607 0.0183,0.52483 -0.21682,0.9944 -0.24277,0.45769 -0.69401,0.74738 l -5.31222,3.42714 1.87535,2.92116 z m -1.18692,-5.61014 5.1061,-3.27804 q 0.0594,-0.0381 0.084,-0.10424 0.0246,-0.0661 -0.0135,-0.12549 l -1.4027,-2.18493 q -0.0381,-0.0594 -0.10848,-0.0645 -0.078,-0.017 -0.13737,0.0211 l -5.1061,3.27805 q -0.0594,0.0381 -0.0764,0.11611 -0.0127,0.0585 0.0254,0.11787 l 1.40269,2.18493 q 0.0381,0.0594 0.0966,0.0721 0.0704,0.005 0.12975,-0.033 z m -0.30027,7.45963 -6.95393,-7.4073 1.34771,-1.26523 6.95394,7.4073 z m -6.60888,8.29737 -8.19508,-6.00552 1.20945,-1.65039 9.67367,-0.64351 -5.98696,-4.38736 1.10936,-1.51381 8.19507,6.00551 -1.20944,1.6504 -9.6934,0.64654 5.99834,4.39571 z m -3.26517,9.05787 -9.56343,-3.47178 0.63561,-1.75086 7.7993,2.83135 2.83135,-7.7993 1.76413,0.64042 z m -0.62853,8.37893 q -0.0347,0.5351 -0.33142,0.96837 -0.29584,0.4192 -0.74971,0.65846 -0.46794,0.23835 -1.00304,0.20368 l -6.22406,-0.4033 q -0.53509,-0.0347 -0.95429,-0.33051 -0.43327,-0.29675 -0.67253,-0.75062 -0.23836,-0.46794 -0.20368,-1.00304 l 0.4033,-6.22406 q 0.0347,-0.5351 0.33051,-0.95429 0.29675,-0.43327 0.76469,-0.67162 0.45387,-0.23927 0.98897,-0.20459 l 6.22405,0.4033 q 0.5351,0.0347 0.96838,0.33142 0.41919,0.29584 0.65754,0.76378 0.23926,0.45387 0.20459,0.98897 z m -1.86829,-0.19176 0.39235,-6.05508 q 0.005,-0.0704 -0.034,-0.12947 -0.0527,-0.06 -0.12308,-0.0645 l -6.05508,-0.39235 q -0.0704,-0.005 -0.1163,0.049 -0.06,0.0527 -0.0645,0.12308 l -0.39235,6.05507 q -0.005,0.0704 0.0481,0.13039 0.0395,0.045 0.10992,0.0495 l 6.05507,0.39236 q 0.0704,0.005 0.12947,-0.034 0.0459,-0.0536 0.0505,-0.12399 z m 3.58893,10.34722 q 0.11641,0.52344 -0.0473,1.02243 -0.16675,0.48521 -0.53557,0.84189 -0.38258,0.35974 -0.90602,0.47614 l -1.12951,0.25119 -0.40435,-1.81825 1.04687,-0.2328 q 0.0689,-0.0153 0.11478,-0.0689 0.0291,-0.0643 0.0137,-0.13316 l -1.3172,-5.92308 q -0.0153,-0.0689 -0.0689,-0.11478 -0.0674,-0.0428 -0.13622,-0.0275 l -7.9204,1.76138 -0.40741,-1.83203 8.00304,-1.77975 q 0.52343,-0.1164 1.02242,0.0473 0.48522,0.16676 0.84496,0.54934 0.35668,0.36881 0.47308,0.89225 z m 5.89801,11.38896 -8.81606,5.05001 -1.01702,-1.77545 1.97742,-5.37715 -5.63166,-1.00225 -1.02403,-1.7877 8.81606,-5.05001 0.93285,1.62852 -6.46511,3.70334 5.89427,1.06324 -2.04542,5.6275 6.45286,-3.69632 z" />
        </g>
        <g
           aria-label="ENERGIA"
           id="text4840"
           style="font-weight:bold;font-size:18.2269px;line-height:1.25;font-family:'Comic Sans MS';-inkscape-font-specification:'Comic Sans MS Bold';letter-spacing:0px;word-spacing:0px;fill:#ffffff;stroke-width:0.264583">
          <path
             id="path952"
             style="font-size:14.1111px;font-family:Orbitron;-inkscape-font-specification:'Orbitron Bold';fill:#224488;fill-opacity:1"
             d="m 216.84009,194.74473 5.40811,6.16186 q 0.35372,0.40301 0.44077,0.90865 0.0964,0.51623 -0.0556,1.0063 -0.16252,0.49937 -0.56554,0.85308 l -4.67707,4.10495 q -0.40302,0.35372 -0.91925,0.45008 -0.51624,0.0964 -1.01561,-0.0662 -0.49007,-0.15191 -0.84378,-0.55493 l -5.40811,-6.16186 1.41054,-1.238 2.25261,2.56656 4.82555,-4.23527 -2.2526,-2.56656 1.39994,-1.22869 z m 2.08136,5.19519 -4.82556,4.23527 1.87097,2.13173 q 0.0465,0.053 0.11689,0.0476 0.0796,0.005 0.13268,-0.0414 l 4.56041,-4.00256 q 0.053,-0.0465 0.0582,-0.1262 0.004,-0.0597 -0.0427,-0.11277 l -1.87096,-2.13173 z m -0.88779,-7.26719 7.99679,6.26713 -1.14027,1.45497 -7.99678,-6.26713 z m 4.36498,-7.44147 q 0.2483,-0.47526 0.69503,-0.75134 0.4402,-0.26357 0.95207,-0.29864 0.52437,-0.0285 0.99964,0.21977 l 5.52812,2.88815 q 0.47527,0.2483 0.73883,0.6885 0.27608,0.44673 0.31115,0.9586 0.0285,0.52438 -0.21977,0.99965 l -2.88162,5.51561 q -0.2483,0.47526 -0.69503,0.75134 -0.44673,0.27607 -0.97111,0.30461 -0.51187,0.0351 -0.98714,-0.21323 l -0.70039,-0.36592 0.86906,-1.66344 0.62535,0.32671 q 0.0625,0.0327 0.12619,0.002 0.0762,-0.0239 0.10884,-0.0864 l 2.80974,-5.37803 q 0.0327,-0.0625 0.009,-0.1387 -0.0179,-0.0571 -0.0804,-0.0898 l -5.37803,-2.80974 q -0.0625,-0.0327 -0.13217,-0.0213 -0.0637,0.0304 -0.0963,0.093 l -2.80974,5.37803 q -0.0327,0.0625 -0.0213,0.13217 0.0239,0.0762 0.0864,0.10883 l 1.62592,0.84946 1.06508,-2.03865 1.66344,0.86906 -1.93415,3.70209 -3.36439,-1.75773 q -0.47527,-0.2483 -0.75134,-0.69503 -0.26357,-0.4402 -0.29211,-0.96457 -0.0285,-0.52438 0.21977,-0.99965 z m 1.33651,-3.84506 4.16502,-2.32087 -0.45868,2.39774 -3.57532,2.01704 -0.51281,-0.0981 z m 1.52186,-7.95551 9.96519,1.9063 -1.53777,8.03868 q -0.10075,0.52667 -0.44893,0.91981 -0.34818,0.39314 -0.84207,0.57163 -0.48003,0.18114 -1.0067,0.0804 l -2.6888,-0.51435 q -0.52667,-0.10075 -0.91981,-0.44893 -0.39313,-0.34818 -0.57163,-0.84207 -0.16463,-0.49124 -0.0639,-1.01791 l 1.17393,-6.21183 -3.4095,-0.65223 z m 4.88493,3.00331 -1.14007,5.95971 q -0.0133,0.0693 0.0177,0.13269 0.031,0.0634 0.10027,0.0767 l 2.5502,0.48785 q 0.0693,0.0132 0.12148,-0.0342 0.066,-0.0448 0.0793,-0.11414 l 1.14007,-5.9597 q 0.0133,-0.0693 -0.0316,-0.13535 -0.0336,-0.0495 -0.10293,-0.0628 l -2.5502,-0.48784 q -0.0693,-0.0133 -0.11883,0.0204 -0.0522,0.0475 -0.0654,0.11678 z m -5.77366,-12.40874 10.11755,-0.92776 0.85431,9.31658 -1.86894,0.17137 -0.68293,-7.44763 -2.24834,0.20616 0.54892,5.98622 -1.88299,0.17266 -0.54892,-5.98621 -2.24834,0.20617 0.68293,7.44764 -1.86894,0.17137 z m -3.69338,-9.73526 9.46161,-3.70179 0.7455,1.90546 -4.63975,8.51275 6.91224,-2.70437 0.6838,1.74777 -9.46162,3.70179 -0.7455,-1.90546 4.64775,-8.53103 -6.92537,2.70951 z m -5.7794,-7.46266 8.05423,-6.19313 5.70283,7.41661 -1.48779,1.14401 -4.55883,-5.92881 -1.78983,1.37625 3.66427,4.76542 -1.49898,1.15261 -3.66427,-4.76542 -1.78983,1.37625 4.55883,5.92881 -1.4878,1.144 z" />
        </g>
      </g>
    </g>
    <path
       style="fill:#000000;fill-opacity:0.33333333;fill-rule:nonzero;stroke:none;stroke-width:1.74999988;stroke-linecap:round;stroke-linejoin:round;stroke-miterlimit:4;stroke-dasharray:none;stroke-dashoffset:0;stroke-opacity:1;paint-order:normal"
       d="m 16.000088,216.99972 c -8.8639991,0 -16.000056560368,7.13605 -16.000056560368,16.00005 v 48.00017 C 3.1439632e-5,289.86394 7.1360889,297 16.000088,297 h 95.999822 c 8.864,0 16.00006,-7.13606 16.00006,-16.00006 v -48.00017 c 0,-8.864 -7.13606,-16.00005 -16.00006,-16.00005 z m 0,4.00027 h 95.999822 c 6.648,0 12.0003,5.35178 12.0003,11.99978 v 48.00017 c 0,6.648 -5.3523,11.99979 -12.0003,11.99979 H 16.000088 c -6.648,0 -11.9997842,-5.35179 -11.9997842,-11.99979 v -48.00017 c 0,-6.648 5.3517842,-11.99978 11.9997842,-11.99978 z"
       id="rect815-8"
       inkscape:connector-curvature="0" />
  </g>
</svg>
