<?xml version="1.0" encoding="UTF-8" standalone="no"?>
<svg
		width="256px"
		height="160px"
		viewBox="0 0 128 80"
		version="1.1"
		xmlns="http://www.w3.org/2000/svg">
	<defs>
		<clipPath
				id="clipPath5447">
			<rect
					style="fill:#ffffff;fill-opacity:1;fill-rule:nonzero;stroke:none;stroke-width:0.291666;stroke-linecap:round;stroke-linejoin:round;stroke-miterlimit:4;stroke-dasharray:none;stroke-dashoffset:0;stroke-opacity:1;paint-order:normal"
					id="rect5449"
					width="128"
					height="80"
					x="152.5134"
					y="194.6994"
					rx="16"
					ry="16"/>
		</clipPath>
		<filter id="colorShadow">
			<feGaussianBlur in="SourceAlpha" stdDeviation="1.5"/>
			<feColorMatrix values="0 0 0 0 0.733 0 0 0 0 0.467 0 0 0 0 1 0 0 0 0.867 0" result="underlay"/>
			<feMerge>
				<feMergeNode in="underlay"/>
				<feMergeNode in="underlay"/>
				<feMergeNode in="SourceGraphic"/>
			</feMerge>
		</filter>
	</defs>
	<g
			id="layer1"
			transform="translate(0,-217)">
		<g
				id="g5445"
				transform="translate(-152.51339,22.300598)"
				clip-path="url(#clipPath5447)">
			<rect
					id="rect964"
					y="194.6994"
					x="152.5134"
					height="80"
					width="127.99999"
					style="fill:#330066;fill-opacity:1;stroke-width:0.23665"/>
			<path
					style="fill:#663399;fill-opacity:1;fill-rule:nonzero;stroke:none;stroke-width:1.03125;stroke-linecap:round;stroke-linejoin:round;stroke-miterlimit:4;stroke-dasharray:none;stroke-dashoffset:0;stroke-opacity:1;paint-order:markers stroke fill"
					d="m 214.89494,201.73943 a 32.99988,32.99988 0 0 0 -9.66808,1.94993 l 0.70558,1.93819 a 30.937389,30.937389 0 0 1 21.1619,0 l 0.70558,-1.93819 a 32.99988,32.99988 0 0 0 -12.90498,-1.94993 z m 18.11791,4.3816 -4.74131,2.02559 1.78579,1.03118 -10.13118,17.54825 a 13.406371,8.2499701 0 0 0 -3.41277,-0.27658 13.406371,8.2499701 0 0 0 -3.40955,0.2819 l -10.13492,-17.55357 1.78579,-1.03118 -4.74184,-2.02506 -0.61659,5.11861 1.78579,-1.03118 9.80557,16.98228 a 13.406371,8.2499701 0 0 0 -7.75918,6.47701 h -15.59032 v -2.06236 l -4.12474,3.09407 4.12474,3.09356 v -2.06237 h 15.58658 a 13.406371,8.2499701 0 0 0 7.76452,6.47434 l -9.80717,16.98495 -1.78579,-1.03119 0.61712,5.11915 4.74131,-2.0256 -1.78579,-1.03118 10.13225,-17.54877 a 13.406371,8.2499701 0 0 0 3.41222,0.27658 13.406371,8.2499701 0 0 0 3.40957,-0.28191 l 10.13438,17.5541 -1.78579,1.03118 4.74185,2.02506 0.61658,-5.11861 -1.78579,1.03119 -9.80504,-16.98282 a 13.406371,8.2499701 0 0 0 7.75813,-6.47647 h 15.59085 v 2.06237 l 4.12527,-3.09409 -4.12527,-3.09354 v 2.06236 h -15.58659 a 13.406371,8.2499701 0 0 0 -7.76399,-6.47435 l 9.80664,-16.98494 1.78579,1.03118 z m -37.71146,3.29871 a 32.999886,32.999886 0 0 0 -11.28653,19.54933 l 2.03092,0.35811 a 30.937389,30.937389 0 0 1 10.58149,-18.32735 z m 42.424,0 -1.32588,1.58009 a 30.937389,30.937389 0 0 1 10.58095,18.32735 l 2.03146,-0.35811 a 32.999886,32.999886 0 0 0 -11.28653,-19.54933 z m -21.21201,19.09262 c 6.26513,5e-5 11.34371,2.77037 11.34356,6.18763 1.5e-4,3.41727 -5.07843,6.18705 -11.34356,6.1871 -6.2653,1e-4 -11.34423,-2.76972 -11.34408,-6.1871 -1.5e-4,-3.41737 5.07878,-6.18774 11.34408,-6.18763 z m 0,1.54705 c -2.56317,-2.8e-4 -4.64111,2.07746 -4.64112,4.64058 0,2.56313 2.07795,4.64036 4.64112,4.64007 2.56297,-1e-5 4.6406,-2.07715 4.6406,-4.64007 0,-2.56291 -2.07763,-4.64057 -4.6406,-4.64058 z m 0,1.03118 c 0.8542,5.4e-4 1.54652,1.61634 1.54651,3.6094 1e-5,1.99307 -0.6923,3.60894 -1.54651,3.60941 -0.85439,2.1e-4 -1.54704,-1.61585 -1.54703,-3.60941 -1e-5,-1.99356 0.69264,-3.60963 1.54703,-3.6094 z m -30.4676,8.98116 -2.03092,0.35811 a 32.999886,32.999886 0 0 0 11.28653,19.54879 l 1.32588,-1.58009 a 30.937389,30.937389 0 0 1 -10.58149,-18.32681 z m 60.93468,0 a 30.937389,30.937389 0 0 1 -10.58095,18.32681 l 1.32588,1.58009 a 32.999886,32.999886 0 0 0 11.28653,-19.54879 z m -41.04802,23.69909 -0.70558,1.93819 a 32.999886,32.999886 0 0 0 22.57306,0 l -0.70558,-1.93819 a 30.937389,30.937389 0 0 1 -21.1619,0 z"
					id="path4661"
					filter="url(#colorShadow)"/>
		</g>
		<path
				style="fill:#000000;fill-opacity:0.33333333;fill-rule:nonzero;stroke:none;stroke-width:1.74999988;stroke-linecap:round;stroke-linejoin:round;stroke-miterlimit:4;stroke-dasharray:none;stroke-dashoffset:0;stroke-opacity:1;paint-order:normal"
				d="m 16.000088,216.99972 c -8.8639991,0 -16.000056560368,7.13605 -16.000056560368,16.00005 v 48.00017 C 3.1439632e-5,289.86394 7.1360889,297 16.000088,297 h 95.999822 c 8.864,0 16.00006,-7.13606 16.00006,-16.00006 v -48.00017 c 0,-8.864 -7.13606,-16.00005 -16.00006,-16.00005 z m 0,4.00027 h 95.999822 c 6.648,0 12.0003,5.35178 12.0003,11.99978 v 48.00017 c 0,6.648 -5.3523,11.99979 -12.0003,11.99979 H 16.000088 c -6.648,0 -11.9997842,-5.35179 -11.9997842,-11.99979 v -48.00017 c 0,-6.648 5.3517842,-11.99978 11.9997842,-11.99978 z"
				id="rect815-8"/>
	</g>
</svg>
