<?xml version="1.0" encoding="UTF-8" standalone="no"?>
<!-- Created with Inkscape (http://www.inkscape.org/) -->

<svg
   width="128mm"
   height="80mm"
   viewBox="0 0 128 80"
   version="1.1"
   id="svg8"
   inkscape:version="1.2 (dc2aedaf03, 2022-05-15)"
   sodipodi:docname="coleman-sf-base-vestigium.inkscape.svg"
   xmlns:inkscape="http://www.inkscape.org/namespaces/inkscape"
   xmlns:sodipodi="http://sodipodi.sourceforge.net/DTD/sodipodi-0.dtd"
   xmlns="http://www.w3.org/2000/svg"
   xmlns:svg="http://www.w3.org/2000/svg"
   xmlns:rdf="http://www.w3.org/1999/02/22-rdf-syntax-ns#"
   xmlns:cc="http://creativecommons.org/ns#"
   xmlns:dc="http://purl.org/dc/elements/1.1/">
  <defs
     id="defs2">
    <clipPath
       clipPathUnits="userSpaceOnUse"
       id="clipPath904">
      <g
         inkscape:label="Clip"
         id="use906">
        <g
           style="stroke-width:1.19062495"
           transform="matrix(0.22222222,0,0,0.22222222,-2.666666,217)"
           id="g941">
          <rect
             style="fill:#ffcc33;stroke-width:1.19062495"
             width="600"
             height="360"
             x="0"
             y="0"
             id="rect921" />
          <polygon
             style="fill:#ffffff;stroke-width:1.19062495"
             points="540,360 600,360 600,324 60,0 0,0 0,36 "
             id="polygon923" />
          <polygon
             style="fill:#ffffff;stroke-width:1.19062495"
             points="60,360 0,360 0,324 540,0 600,0 600,36 "
             id="polygon925" />
          <circle
             style="fill:#ffffff;stroke-width:1.19062495"
             r="150"
             cx="300"
             cy="180"
             id="circle927" />
          <polygon
             style="fill:#000000;stroke-width:1.19062495"
             points="566.25,360 600,360 600,339.75 33.75,0 0,0 0,20.25 "
             id="polygon929" />
          <polygon
             style="fill:#000000;stroke-width:1.19062495"
             points="33.75,360 0,360 0,339.75 566.25,0 600,0 600,20.25 "
             id="polygon931" />
          <circle
             style="fill:#000000;stroke-width:1.19062495"
             r="135"
             cx="300"
             cy="180"
             id="circle933" />
          <circle
             style="fill:#ffffff;stroke-width:1.19062495"
             r="105"
             cx="300"
             cy="180"
             id="circle935" />
          <g
             style="stroke-width:1.19062495"
             transform="matrix(3,0,0,3,300,191.25)"
             id="g939">
            <path
               style="fill:#000000;stroke-width:1.19062495"
               inkscape:connector-curvature="0"
               d="m -1.266704,23.778129 c -1.537976,-1.75464 -1.571822,-2.10765 -0.459874,-4.79639 0.150439,-0.36377 -0.112142,-0.23308 -0.896696,0.44631 -0.655233,0.56739 -1.482703,1.0189 -2.021186,1.10286 -1.654672,0.25799 -2.182575,0.67965 -2.182575,1.74329 0,0.52345 -0.06805,0.95164 -0.15123,0.95156 -0.428121,-4.8e-4 -0.992507,-1.04979 -0.992507,-1.84528 0,-1.1674 0.625845,-1.73918 2.625496,-2.39874 1.199991,-0.3958 1.692435,-0.71591 2.135763,-1.38835 0.9526,-1.44489 0.737478,-1.65152 -0.827451,-0.79473 -1.59832,0.87506 -2.889925,0.98115 -4.417046,0.36282 -0.816105,-0.33045 -1.111578,-0.34717 -1.593667,-0.0901 -1.194321,0.63682 -1.292751,1.56673 -0.282539,2.66923 0.492449,0.53743 0.559391,0.70267 0.233375,0.57608 -0.251428,-0.0977 -0.502036,-0.17753 -0.55691,-0.17753 -0.264693,0 -0.875311,-1.60855 -0.875311,-2.30584 0,-1.28964 1.130372,-1.80725 3.949337,-1.80843 3.214575,-9.8e-4 4.518877,-0.71753 5.37184,-2.94962 0.514679,-1.34684 0.417693,-1.9089 -0.361909,-2.09737 -1.058648,-0.25592 -1.334359,-0.5868 -1.334359,-1.60137 0,-0.91139 0.0062,-0.91696 0.395657,-0.35432 0.524909,0.75837 1.273265,0.72378 1.795654,-0.083 0.536373,-0.8284 0.203861,-2.14266 -0.871739,-3.44558 l -0.730766,-0.8852 -0.910443,0.92134 c -0.500745,0.50672 -1.159057,1.41447 -1.46292,2.01721 -0.419085,0.8313 -0.607728,1.00888 -0.781316,0.73548 -0.179494,-0.28268 -0.418748,-0.13852 -1.109415,0.66841 -1.245472,1.45514 -1.173036,1.67116 0.561783,1.67533 1.908554,0.005 2.605178,0.20957 2.605178,0.76659 0,0.24911 0.17156,0.597 0.381245,0.77311 0.393009,0.33007 0.496885,1.19619 0.228384,1.90426 -0.128845,0.33978 -0.226073,0.31277 -0.618855,-0.17186 -0.406156,-0.50115 -0.534723,-0.53258 -1.001214,-0.24477 -0.693773,0.42803 -1.063835,0.1817 -0.874407,-0.58205 0.16074,-0.64811 -0.435325,-1.16479 -1.339031,-1.1607 -0.69083,0.003 -4.834261,3.20771 -5.043154,3.90042 -0.263135,0.87259 -0.874101,1.48601 -1.311067,1.31632 -0.223827,-0.0869 -0.643121,0.13894 -1.018492,0.5486 -0.350927,0.38298 -0.684181,0.64963 -0.74057,0.59258 -0.05639,-0.0571 0.110739,-0.78519 0.371396,-1.61807 0.38267,-1.22273 0.639827,-1.60655 1.335522,-1.99332 0.92742,-0.51562 2.826745,-2.26031 2.652543,-2.4366 -0.05827,-0.059 -0.678917,0.0853 -1.379209,0.32075 -0.876661,0.29466 -1.231426,0.53828 -1.138963,0.78211 0.179599,0.47361 -1.752024,1.02066 -2.387924,0.67627 -0.49312,-0.26707 -1.768107,-0.10382 -1.986878,0.25439 -0.221918,0.36337 -0.870818,0.26078 -0.870818,-0.13766 0,-0.2003 0.502089,-0.90975 1.115757,-1.57658 0.997309,-1.08368 1.206424,-1.19821 1.969769,-1.07883 0.9164,0.14333 3.522728,-0.27954 3.522728,-0.57155 0,-0.097 -0.862372,-0.36584 -1.916381,-0.5973 -1.488659,-0.32691 -2.057472,-0.35578 -2.548531,-0.12938 -0.47568,0.21933 -0.705935,0.21681 -0.930252,-0.0102 -0.431062,-0.43622 -0.908137,-0.3733 -1.745723,0.23025 -0.736879,0.53098 -0.738186,0.531 -0.738186,0.0119 0,-0.28595 0.296444,-0.72786 0.658762,-0.98201 0.36232,-0.25417 0.845234,-0.66466 1.07314,-0.91223 0.552514,-0.60014 1.355241,-0.56825 2.177826,0.0865 0.663698,0.52832 3.725539,1.23626 5.427071,1.25482 0.701903,0.008 0.98832,-0.20506 1.956005,-1.45274 1.07998,-1.39246 1.273001,-2.07907 0.500097,-1.77893 -0.579444,0.22501 -0.404513,-0.24671 0.216332,-0.58337 0.660262,-0.35804 2.342474,-2.69467 2.018619,-2.80391 -0.119284,-0.0403 -1.122656,0.3838 -2.229717,0.9423 -2.211425,1.11566 -4.871725,1.90831 -5.916734,1.76296 l -0.671046,-0.0933 0.63541,-0.28094 c 0.889191,-0.39313 1.913097,-1.56793 2.390912,-2.74323 0.530007,-1.30368 0.521897,-1.32705 -0.276782,-0.79748 -3.054432,2.02528 -6.373977,2.84353 -8.785927,2.16568 -0.902324,-0.25359 -1.320233,-0.75432 -0.635409,-0.76135 1.074988,-0.0109 6.287241,-3.55212 6.289602,-4.27303 7.63e-4,-0.19664 -0.835486,-0.28617 -2.604229,-0.27882 -2.790155,0.0115 -4.074726,-0.34134 -5.225823,-1.43566 l -0.594273,-0.56497 2.125693,-0.28507 c 1.704551,-0.2286 2.387189,-0.4582 3.44558,-1.15888 0.725936,-0.48059 1.321941,-0.9606 1.324452,-1.06671 0.0025,-0.10609 -0.471469,-0.1929 -1.053291,-0.1929 -1.594373,0 -3.67165,-0.76481 -4.854596,-1.78737 l -1.056507,-0.91325 2.153165,-0.1318 c 1.704149,-0.10431 2.324786,-0.25546 2.976151,-0.72482 1.02149,-0.73605 1.032642,-0.96567 0.0565,-1.16323 -1.428742,-0.28917 -3.505191,-1.46364 -4.441095,-2.51196 -0.512524,-0.5741 -0.871622,-1.10476 -0.797996,-1.17927 0.07363,-0.0745 0.499895,-0.007 0.947261,0.15148 0.911187,0.32144 3.790274,0.39302 3.782458,0.094 -0.0028,-0.10609 -0.584779,-0.54011 -1.293347,-0.96449 -1.430677,-0.85689 -3.258274,-2.70744 -3.884906,-3.9337 L -25,-19.702331 l 1.080326,0.49624 c 0.594181,0.27294 1.637607,0.49879 2.318725,0.50189 1.072296,0.005 1.195961,-0.046 0.921994,-0.38016 -0.174024,-0.21219 -0.451524,-0.3858 -0.616673,-0.3858 -0.706905,0 -3.791295,-4.36994 -3.378928,-4.78725 0.07293,-0.0738 0.689595,0.15145 1.370367,0.50053 0.680772,0.34911 1.635729,0.67518 2.122124,0.72461 l 0.884355,0.0899 -0.08755,-1.00113 -0.08755,-1.00113 0.812825,0.93682 c 0.447057,0.51527 0.921769,0.93683 1.054917,0.93683 0.515268,0 3.330207,1.56724 3.806264,2.11917 0.840323,0.97425 1.227358,2.11052 1.064599,3.12548 -0.113992,0.71085 -0.034,1.07045 0.32826,1.47581 0.337896,0.37811 0.473581,0.90308 0.460667,1.78236 -0.0166,1.12914 0.04838,1.27434 0.690522,1.54351 0.982104,0.41167 1.309934,0.88494 1.474012,2.12795 0.13808,1.04605 0.16143,1.06828 1.041156,0.99149 0.621202,-0.0542 1.113125,0.0912 1.588357,0.46945 0.627195,0.49925 0.724151,0.51188 1.089679,0.14199 0.220675,-0.22332 0.639729,-0.5352 0.93123,-0.69307 l 0.530002,-0.28705 -0.520074,-0.41858 c -0.639267,-0.51452 -1.018939,-1.24254 -1.090154,-2.0904 -0.107567,-1.28065 -0.02255,-1.35286 0.784253,-0.66587 0.430093,0.36623 0.895758,0.66587 1.034807,0.66587 0.597264,0 0.979,-0.79285 0.979,-2.03332 0,-1.09612 -0.09758,-1.36316 -0.626211,-1.71367 -0.563649,-0.37373 -0.703105,-0.3764 -1.395877,-0.0266 -0.729528,0.36829 -0.756518,0.3637 -0.517525,-0.0881 0.541348,-1.02361 0.09246,-1.03403 -1.354128,-0.0314 -1.381115,0.95723 -1.989939,1.13451 -2.81115,0.81856 -0.982644,-0.37807 -1.32557,-1.30022 -0.82871,-2.22848 l 0.396665,-0.74107 0.01016,0.69827 c 0.01972,1.35306 1.428725,1.53466 3.614715,0.46588 0.586239,-0.28663 1.330339,-0.52114 1.653556,-0.52114 0.86923,0 0.718091,-0.41557 -0.46712,-1.2844 -1.383946,-1.01451 -2.597661,-1.05089 -3.093759,-0.0928 l -0.352328,0.68049 -0.545362,-0.55189 c -1.191382,-1.20562 -0.300048,-3.48292 1.443327,-3.68759 0.438365,-0.0514 0.709091,-0.25999 0.770799,-0.59372 0.208201,-1.12599 1.039687,-1.15758 3.594604,-0.13651 2.209083,0.88284 2.923957,0.95456 3.283769,0.3294 0.230767,-0.40094 0.259908,-0.38618 0.266792,0.13503 0.006,0.44851 -0.172409,0.6216 -0.763771,0.74128 -0.735253,0.14881 -0.751313,0.17873 -0.341853,0.63659 0.488398,0.54613 1.372827,0.62938 1.825012,0.17178 0.237218,-0.24005 0.304997,-0.18491 0.304997,0.24816 0,0.30624 -0.222073,0.67707 -0.4935,0.82406 -0.48424,0.26226 -0.482566,0.29234 0.0894,1.60386 0.584587,1.34045 1.166584,1.8972 1.166584,1.11599 0,-0.22962 0.237159,-0.88792 0.527021,-1.46288 l 0.52702,-1.04541 -0.540298,-0.38295 c -0.77022,-0.54594 -0.513934,-0.94114 0.623161,-0.96095 1.131549,-0.0197 1.477517,-0.52124 0.526228,-0.76286 -0.444296,-0.11284 -0.646467,-0.3389 -0.646467,-0.72285 0,-0.54302 0.01001,-0.54482 0.357354,-0.0642 0.398556,0.55157 0.747119,0.48963 3.871809,-0.68814 1.30873,-0.49329 1.667474,-0.53883 2.223932,-0.28224 0.396691,0.1829 0.663487,0.51498 0.663487,0.82582 0,0.35638 0.167559,0.51993 0.532653,0.51993 1.936674,0 3.004446,2.64601 1.527211,3.78458 -0.577665,0.44523 -0.670037,0.41376 -1.011447,-0.34451 -0.267889,-0.59499 -0.411389,-0.65755 -1.208161,-0.5267 -0.914235,0.15013 -2.636057,1.27972 -2.636057,1.72936 0,0.13427 0.200155,0.24466 0.444787,0.24531 0.244633,7.8e-4 1.131028,0.28727 1.969768,0.63691 0.83874,0.34963 1.764598,0.63845 2.057458,0.6418 0.637918,0.008 1.367498,-0.74267 1.389861,-1.42875 0.01326,-0.40597 0.06033,-0.38218 0.263786,0.13328 0.58031,1.4701 -0.515276,2.78981 -2.010064,2.42126 -0.376413,-0.0928 -1.162488,-0.49843 -1.746836,-0.90141 -1.473995,-1.01648 -2.122894,-0.96506 -1.17648,0.0932 0.416566,0.46581 0.406794,0.46845 -0.317705,0.0861 -0.969212,-0.51146 -1.213456,-0.499 -1.739,0.0887 -0.320828,0.35874 -0.414486,0.84085 -0.357097,1.83822 0.100256,1.74249 0.576384,2.10748 1.69639,1.30045 l 0.795951,-0.57356 v 0.95775 c 0,0.62532 -0.220546,1.25035 -0.635409,1.80077 -0.713209,0.94625 -0.768657,1.13455 -0.334086,1.13455 0.165728,0 0.557762,0.24379 0.871187,0.54176 l 0.569863,0.54175 0.590254,-0.56328 c 0.459744,-0.43874 0.800997,-0.5355 1.543368,-0.43764 0.907997,0.11971 0.953117,0.0909 0.953117,-0.60937 0,-1.16666 0.532961,-2.04751 1.559537,-2.57749 0.88369,-0.45621 0.94084,-0.55458 0.80703,-1.389 -0.0967,-0.60323 -0.009,-1.10777 0.26969,-1.53696 0.26219,-0.40493 0.41371,-1.18599 0.41371,-2.1326 0,-2.07439 0.88031,-3.13487 3.68599,-4.4404 1.19814,-0.55751 2.3108,-1.27517 2.6408,-1.70327 l 0.57027,-0.73986 -0.16401,0.76681 c -0.0902,0.42176 -0.18377,0.88472 -0.20794,1.02881 -0.081,0.48291 1.71608,0.12041 3.18787,-0.64304 l 1.45265,-0.75352 -0.26114,0.70069 c -0.52623,1.41189 -2.15837,3.65034 -3.08082,4.22529 -0.52116,0.32484 -0.95066,0.67743 -0.95442,0.78352 -0.0138,0.38962 2.18639,0.16653 3.2716,-0.33172 0.61492,-0.28232 1.16265,-0.46817 1.21719,-0.41299 0.15037,0.15218 -1.65653,2.51142 -2.55755,3.33935 -0.43688,0.40144 -1.36574,1.0944 -2.06412,1.53988 -0.98326,0.62723 -1.15999,0.83139 -0.78322,0.90483 0.69374,0.13519 3.48992,-0.1032 4.04845,-0.34517 0.44687,-0.19359 0.45031,-0.16436 0.0686,0.58258 -0.68065,1.33198 -2.78283,2.64068 -4.88182,3.03917 -1.1287,0.21428 -1.01159,0.59748 0.40621,1.32918 0.86678,0.44732 1.55268,0.5787 3.02127,0.5787 h 1.89993 l -0.71284,0.75295 c -0.97017,1.02474 -2.87667,1.80838 -4.8542,1.99525 -0.90456,0.0854 -1.64465,0.22997 -1.64465,0.32109 0,0.0911 0.6284,0.55106 1.39646,1.02212 1.09273,0.67019 1.87601,0.92078 3.60142,1.15216 l 2.20498,0.2957 -0.81718,0.69584 c -1.14819,0.97769 -2.56859,1.31639 -5.43256,1.29541 -1.36295,-0.0101 -2.4781,0.0698 -2.4781,0.17724 0,0.72369 3.5531,3.27814 5.5914,4.01987 0.69906,0.25439 1.27102,0.54166 1.27102,0.63838 0,0.26366 -2.11779,0.75133 -3.26282,0.75133 -1.44559,0 -4.01372,-0.86968 -5.63291,-1.90755 -1.30429,-0.83603 -1.40345,-0.8615 -1.480949,-0.38032 -0.128713,0.79929 1.892589,3.2867 2.688229,3.30812 0.17474,0.005 0.3177,0.13921 0.3177,0.29889 0,0.76887 -4.586921,-0.55263 -7.307201,-2.10518 -0.753489,-0.43005 -1.33436,-0.63123 -1.33436,-0.46215 0,0.4055 1.182598,2.01533 2.002436,2.72583 0.536631,0.46506 0.579732,0.57767 0.221496,0.5787 -0.244632,7.8e-4 -0.444787,0.12649 -0.444787,0.27951 0,0.27169 1.655539,2.4801 2.160392,2.88187 0.621355,0.49447 5.451034,-0.36138 6.451904,-1.14332 0.72652,-0.5676 1.24516,-0.59948 1.78709,-0.10985 2.26327,2.0448 2.75998,2.86931 1.14921,1.90757 -0.79597,-0.47525 -0.98223,-0.49902 -1.54067,-0.19657 -0.5085,0.27539 -0.73547,0.28068 -1.13762,0.0265 -0.40653,-0.25692 -0.86429,-0.23229 -2.39888,0.12899 -1.04306,0.24558 -1.89648,0.5291 -1.89648,0.63004 0,0.30185 2.34936,0.69912 3.26857,0.5527 0.76451,-0.12177 0.97093,-0.009 1.96977,1.07637 1.1585,1.25884 1.48788,2.1488 0.67097,1.81286 -1.17436,-0.48293 -1.93923,-0.60955 -2.3472,-0.3886 -0.61786,0.33462 -2.20545,-0.15237 -2.35256,-0.72164 -0.1165,-0.45087 -2.129518,-1.26029 -2.415235,-0.97116 -0.193584,0.1959 2.183665,2.46647 2.582345,2.46647 0.63681,0 1.13581,0.9231 1.8075,3.34364 0.17205,0.61999 0.14739,0.61308 -0.68893,-0.1929 -0.47705,-0.45976 -1.11708,-0.83592 -1.42229,-0.83592 -0.38032,0 -0.60523,-0.20282 -0.71479,-0.6446 -0.18308,-0.73813 -2.222473,-2.68265 -3.687353,-3.5158 -0.545369,-0.31018 -0.991578,-0.6584 -0.991578,-0.77381 0,-0.11541 -0.325397,-0.20984 -0.723099,-0.20984 -0.711643,0 -1.717144,0.78847 -1.406448,1.10289 0.08747,0.0884 0.08637,0.35258 -0.0025,0.5868 -0.1276,0.3365 -0.237458,0.36206 -0.523481,0.12185 -0.400361,-0.33624 -1.411139,0.0416 -1.411139,0.52752 0,0.51303 -0.449535,-0.0267 -0.574877,-0.69024 -0.169766,-0.89868 0.574993,-2.61469 1.210286,-2.78863 0.27958,-0.0766 1.223162,-0.14076 2.096851,-0.1427 0.873687,-0.002 1.588522,-0.10028 1.588522,-0.2185 0,-0.11824 -0.415962,-0.75528 -0.924357,-1.41563 C 6.82362,7.950469 6.661677,7.845789 6.404016,8.202389 6.14876,8.555639 6.04253,8.468859 5.648902,7.585509 5.396961,7.020119 4.744554,6.116549 4.199107,5.577559 3.21611,4.606219 3.203123,4.602039 2.723247,5.102349 c -0.664852,0.69325 -1.544126,2.35087 -1.544126,2.91117 0,0.58146 1.029401,1.58023 1.628699,1.58023 0.248709,0 0.511682,-0.23018 0.584382,-0.51152 0.170525,-0.65986 0.582719,-0.40647 0.582719,0.35823 0,0.70047 -0.626239,1.3069 -1.588523,1.53825 -0.779659,0.18746 -0.876666,0.74941 -0.361908,2.09645 0.862707,2.2576 1.824224,2.7778 5.456682,2.95226 2.805009,0.13472 2.925524,0.16461 3.529986,0.87574 0.461952,0.54347 0.584681,0.912 0.468705,1.40737 -0.191557,0.81814 -0.925978,1.88128 -1.413109,2.04559 -0.197125,0.0665 -0.0472,-0.25337 0.33317,-0.71082 0.768612,-0.92437 0.811706,-1.11334 0.421964,-1.85028 -0.432408,-0.81762 -1.347633,-1.03458 -2.551342,-0.6048 -1.590052,0.5677 -2.730124,0.46097 -4.273825,-0.40009 -0.756854,-0.42216 -1.422935,-0.72017 -1.480181,-0.66225 -0.201973,0.20439 0.694012,1.65752 1.338157,2.17027 0.358833,0.28563 1.010125,0.59883 1.447314,0.69601 2.197685,0.48846 3.131103,1.79975 2.394229,3.36346 -0.482178,1.02322 -0.907654,1.14645 -0.73108,0.21172 0.167138,-0.88477 -0.791073,-1.91587 -1.780435,-1.91587 -0.919183,0 -1.616216,-0.3568 -2.671245,-1.36734 -0.716485,-0.68627 -0.824837,-0.72481 -0.817024,-0.29064 0.005,0.27531 0.17246,0.78991 0.372238,1.14356 0.694296,1.22907 0.483693,2.13045 -0.832813,3.56445 -0.667731,0.72733 -1.268193,1.31063 -1.334359,1.29624 -0.06617,-0.0144 -0.591866,-0.56416 -1.168225,-1.22171 z"
               id="path937" />
          </g>
        </g>
        <rect
           ry="16"
           rx="16"
           y="217"
           x="-8.8817842e-16"
           height="80"
           width="128"
           id="rect943"
           style="fill:#ffffff;fill-opacity:1;fill-rule:nonzero;stroke:none;stroke-width:1.74999988;stroke-linecap:round;stroke-linejoin:round;stroke-miterlimit:4;stroke-dasharray:none;stroke-dashoffset:0;stroke-opacity:1;paint-order:normal" />
      </g>
    </clipPath>
    <g
       id="8678bbc6-65b3-4689-9846-4e9c5ce16b24">
      <g
         id="g1069"
         transform="translate(0,0) rotate(0) scale(0.115)">
        <path
           id="path1067"
           fill="#ffffff"
           d="m 0,-100 24,68 H 96 L 40,12 60,80 0,40 -60,80 -40,12 -96,-32 h 72 z" />
      </g>
    </g>
    <clipPath
       clipPathUnits="userSpaceOnUse"
       id="clipPath987">
      <rect
         style="fill:#ffffff;fill-opacity:1;fill-rule:nonzero;stroke:none;stroke-width:0.463021;stroke-linecap:round;stroke-linejoin:round;stroke-miterlimit:4;stroke-dasharray:none;stroke-dashoffset:0;stroke-opacity:1;paint-order:normal"
         id="rect989"
         width="142.66333"
         height="89.164589"
         x="67.574585"
         y="134.05313"
         rx="17.832916"
         ry="17.832916" />
    </clipPath>
  </defs>
  <sodipodi:namedview
     id="base"
     pagecolor="#ffffff"
     bordercolor="#666666"
     borderopacity="1.0"
     inkscape:pageopacity="0.0"
     inkscape:pageshadow="2"
     inkscape:zoom="1.4"
     inkscape:cx="283.57143"
     inkscape:cy="164.28571"
     inkscape:document-units="mm"
     inkscape:current-layer="layer1"
     showgrid="false"
     inkscape:snap-nodes="false"
     inkscape:snap-bbox="true"
     inkscape:snap-bbox-edge-midpoints="true"
     inkscape:snap-bbox-midpoints="true"
     inkscape:bbox-nodes="true"
     fit-margin-top="0"
     fit-margin-left="0"
     fit-margin-right="0"
     fit-margin-bottom="0"
     inkscape:window-width="2560"
     inkscape:window-height="1529"
     inkscape:window-x="-8"
     inkscape:window-y="-8"
     inkscape:window-maximized="1"
     inkscape:showpageshadow="2"
     inkscape:pagecheckerboard="0"
     inkscape:deskcolor="#d1d1d1" />
  <metadata
     id="metadata5">
    <rdf:RDF>
      <cc:Work
         rdf:about="">
        <dc:format>image/svg+xml</dc:format>
        <dc:type
           rdf:resource="http://purl.org/dc/dcmitype/StillImage" />
        <dc:title />
      </cc:Work>
    </rdf:RDF>
  </metadata>
  <g
     inkscape:label="Layer 1"
     inkscape:groupmode="layer"
     id="layer1"
     transform="translate(0,-217)">
    <g
       id="g985"
       transform="matrix(0.89721726,0,0,0.89721726,-60.629085,96.725221)"
       clip-path="url(#clipPath987)">
      <rect
         width="158.75"
         height="6.8587937"
         x="59.53125"
         y="134.05313"
         fill="#b22234"
         id="rect2"
         style="stroke-width:0.264583" />
      <rect
         width="158.75"
         height="6.8587937"
         x="59.53125"
         y="140.91193"
         fill="#ffffff"
         id="rect4"
         style="stroke-width:0.264583" />
      <rect
         width="158.75"
         height="6.8587937"
         x="59.53125"
         y="147.77072"
         fill="#b22234"
         id="rect6"
         style="stroke-width:0.264583" />
      <rect
         width="158.75"
         height="6.8587937"
         x="59.53125"
         y="154.62952"
         fill="#ffffff"
         id="rect8"
         style="stroke-width:0.264583" />
      <rect
         width="158.75"
         height="6.8587937"
         x="59.53125"
         y="161.48831"
         fill="#b22234"
         id="rect10"
         style="stroke-width:0.264583" />
      <rect
         width="158.75"
         height="6.8587937"
         x="59.53125"
         y="168.34711"
         fill="#ffffff"
         id="rect12"
         style="stroke-width:0.264583" />
      <rect
         width="158.75"
         height="6.8587937"
         x="59.53125"
         y="175.20589"
         fill="#b22234"
         id="rect14"
         style="stroke-width:0.264583" />
      <rect
         width="158.75"
         height="6.8587937"
         x="59.53125"
         y="182.06496"
         fill="#ffffff"
         id="rect16"
         style="stroke-width:0.264583" />
      <rect
         width="158.75"
         height="6.8587937"
         x="59.53125"
         y="188.92374"
         fill="#b22234"
         id="rect18"
         style="stroke-width:0.264583" />
      <rect
         width="158.75"
         height="6.8587937"
         x="59.53125"
         y="195.78253"
         fill="#ffffff"
         id="rect20"
         style="stroke-width:0.264583" />
      <rect
         width="158.75"
         height="6.8587937"
         x="59.53125"
         y="202.64133"
         fill="#b22234"
         id="rect22"
         style="stroke-width:0.264583" />
      <rect
         width="158.75"
         height="6.8587937"
         x="59.53125"
         y="209.50012"
         fill="#ffffff"
         id="rect24"
         style="stroke-width:0.264583" />
      <rect
         width="158.75"
         height="6.8587937"
         x="59.53125"
         y="216.35892"
         fill="#b22234"
         id="rect26"
         style="stroke-width:0.264583" />
      <circle
         cx="132.80046"
         cy="178.63542"
         fill="#ffffff"
         id="ellipse28"
         r="37.207031"
         style="stroke-width:0.264583" />
      <circle
         cx="132.80046"
         cy="178.63542"
         fill="#3c3b6e"
         id="ellipse30"
         r="35.298855"
         style="stroke-width:0.264583" />
      <g
         transform="matrix(0.26458333,0,0,0.26458333,132.80046,151.92256)"
         id="g41">
        <g
           id="use39">
          <g
             transform="scale(0.16)"
             id="g771">
            <path
               d="m 0,-100 24,68 H 96 L 40,12 60,80 0,40 -60,80 -40,12 -96,-32 h 72 z"
               fill="#ffffff"
               id="path769" />
          </g>
        </g>
      </g>
      <g
         transform="matrix(0.23427756,0.12295675,-0.12295675,0.23427756,145.21445,154.98247)"
         id="g45">
        <g
           id="use43">
          <g
             transform="scale(0.16)"
             id="g777">
            <path
               d="m 0,-100 24,68 H 96 L 40,12 60,80 0,40 -60,80 -40,12 -96,-32 h 72 z"
               fill="#ffffff"
               id="path775" />
          </g>
        </g>
      </g>
      <g
         transform="matrix(0.150299,0.21774882,-0.21774882,0.150299,154.78469,163.46077)"
         id="g49">
        <g
           id="use47">
          <g
             transform="scale(0.16)"
             id="g783">
            <path
               d="m 0,-100 24,68 H 96 L 40,12 60,80 0,40 -60,80 -40,12 -96,-32 h 72 z"
               fill="#ffffff"
               id="path781" />
          </g>
        </g>
      </g>
      <g
         transform="matrix(0.03189164,0.26265426,-0.26265426,0.03189164,159.31832,175.41544)"
         id="g53">
        <g
           id="use51">
          <g
             transform="scale(0.16)"
             id="g789">
            <path
               d="m 0,-100 24,68 H 96 L 40,12 60,80 0,40 -60,80 -40,12 -96,-32 h 72 z"
               fill="#ffffff"
               id="path787" />
          </g>
        </g>
      </g>
      <g
         transform="matrix(-0.09382155,0.24739009,-0.24739009,-0.09382155,157.77739,188.10777)"
         id="g57">
        <g
           id="use55">
          <g
             transform="scale(0.16)"
             id="g795">
            <path
               d="m 0,-100 24,68 H 96 L 40,12 60,80 0,40 -60,80 -40,12 -96,-32 h 72 z"
               fill="#ffffff"
               id="path793" />
          </g>
        </g>
      </g>
      <g
         transform="matrix(-0.19804488,0.17544961,-0.17544961,-0.19804488,150.51431,198.63025)"
         id="g61">
        <g
           id="use59">
          <g
             transform="scale(0.16)"
             id="g801">
            <path
               d="m 0,-100 24,68 H 96 L 40,12 60,80 0,40 -60,80 -40,12 -96,-32 h 72 z"
               fill="#ffffff"
               id="path799" />
          </g>
        </g>
      </g>
      <g
         transform="matrix(-0.25689519,0.06331825,-0.06331825,-0.25689519,139.19332,204.57199)"
         id="g65">
        <g
           id="use63">
          <g
             transform="scale(0.16)"
             id="g807">
            <path
               d="m 0,-100 24,68 H 96 L 40,12 60,80 0,40 -60,80 -40,12 -96,-32 h 72 z"
               fill="#ffffff"
               id="path805" />
          </g>
        </g>
      </g>
      <g
         transform="matrix(-0.25689519,-0.06331825,0.06331825,-0.25689519,126.4076,204.572)"
         id="g69">
        <g
           id="use67">
          <g
             transform="scale(0.16)"
             id="g813">
            <path
               d="m 0,-100 24,68 H 96 L 40,12 60,80 0,40 -60,80 -40,12 -96,-32 h 72 z"
               fill="#ffffff"
               id="path811" />
          </g>
        </g>
      </g>
      <g
         transform="matrix(-0.19804488,-0.17544961,0.17544961,-0.19804488,115.08661,198.63025)"
         id="g73">
        <g
           id="use71">
          <g
             transform="scale(0.16)"
             id="g819">
            <path
               d="m 0,-100 24,68 H 96 L 40,12 60,80 0,40 -60,80 -40,12 -96,-32 h 72 z"
               fill="#ffffff"
               id="path817" />
          </g>
        </g>
      </g>
      <g
         transform="matrix(-0.09382155,-0.24739009,0.24739009,-0.09382155,107.82353,188.10777)"
         id="g77">
        <g
           id="use75">
          <g
             transform="scale(0.16)"
             id="g825">
            <path
               d="m 0,-100 24,68 H 96 L 40,12 60,80 0,40 -60,80 -40,12 -96,-32 h 72 z"
               fill="#ffffff"
               id="path823" />
          </g>
        </g>
      </g>
      <g
         transform="matrix(0.03189164,-0.26265426,0.26265426,0.03189164,106.2826,175.41544)"
         id="g81">
        <g
           id="use79">
          <g
             transform="scale(0.16)"
             id="g831">
            <path
               d="m 0,-100 24,68 H 96 L 40,12 60,80 0,40 -60,80 -40,12 -96,-32 h 72 z"
               fill="#ffffff"
               id="path829" />
          </g>
        </g>
      </g>
      <g
         transform="matrix(0.150299,-0.21774882,0.21774882,0.150299,110.81623,163.46077)"
         id="g85">
        <g
           id="use83">
          <g
             transform="scale(0.16)"
             id="g837">
            <path
               d="m 0,-100 24,68 H 96 L 40,12 60,80 0,40 -60,80 -40,12 -96,-32 h 72 z"
               fill="#ffffff"
               id="path835" />
          </g>
        </g>
      </g>
      <g
         transform="matrix(0.23427756,-0.12295675,0.12295675,0.23427756,120.38648,154.98247)"
         id="g89">
        <g
           id="use87">
          <g
             transform="scale(0.16)"
             id="g843">
            <path
               d="m 0,-100 24,68 H 96 L 40,12 60,80 0,40 -60,80 -40,12 -96,-32 h 72 z"
               fill="#ffffff"
               id="path841" />
          </g>
        </g>
      </g>
      <g
         transform="matrix(0.54504166,0,0,0.54504166,132.03714,181.68369)"
         id="g93">
        <path
           d="m 4.8258284,26.910796 c -0.389024,-0.599649 -0.449538,-0.611915 -1.283258,-0.260087 -0.807916,0.340938 -0.895381,0.33074 -1.141132,-0.133038 -0.146385,-0.27625 -0.266149,-0.697846 -0.266149,-0.936874 0,-0.314152 -0.124771,-0.381158 -0.450189,-0.241773 -1.13403403,0.485746 -1.47563103,0.301625 -1.55768103,-0.839612 -0.07613,-1.059061 -0.09775,-1.08325 -0.714403,-0.799483 -0.96929297,0.446052 -1.31535297,-0.04198 -0.96630897,-1.362708 l 0.275687,-1.043171 -0.836559,0.158505 c -0.460107,0.08718 -0.899144,0.05622 -0.975642,-0.0688 -0.07652,-0.125017 0.208162,-0.958059 0.632597,-1.851207 0.747664,-1.57334 2.04798597,-3.1718 3.24571297,-3.98992 C 1.3015404,15.192195 1.3454674,15.023898 1.1565364,14.13257 0.94888937,13.152982 0.91009537,13.122443 -0.04994163,13.182897 c -0.545569,0.03436 -1.23209697,0.27334 -1.52563497,0.53108 -1.063146,0.933508 -3.24408,1.430608 -5.4506821,1.24238 -5.8094693,-0.495567 -5.5014743,-0.500475 -5.5014743,0.08768 0,0.338972 0.379768,0.791093 1.028981,1.225011 0.889616,0.5946 1.028981,0.816785 1.028981,1.640516 0,1.141096 -0.369336,1.576321 -1.337676,1.576321 -0.893573,0 -1.749276,-0.826116 -1.749276,-1.688792 0,-0.549447 -0.119706,-0.649536 -0.776852,-0.649536 -1.00378,0 -2.824586,-1.153974 -2.824586,-1.790145 0,-0.266507 -0.173645,-0.630103 -0.385872,-0.807995 -0.535753,-0.449074 -0.481944,-1.105636 0.157949,-1.92725 0.874521,-1.122867 0.352092,-1.084097 -1.019402,0.07565 -0.697354,0.589685 -1.38867,1.072158 -1.536256,1.072158 -0.395294,0 -1.392025,-1.511 -1.201797,-1.821867 0.0897,-0.14659 0.733706,-0.558564 1.43112,-0.915499 0.697414,-0.356936 1.268024,-0.751125 1.268024,-0.875979 0,-0.124853 -3.599381,-6.1559031 -7.998626,-13.4023341 -4.399244,-7.2464299 -8.160433,-13.5664539 -8.358197,-14.0444949 -0.519954,-1.25685 0.05004,-1.50012 0.901639,-0.384812 0.361649,0.47364 4.462565,6.602591 9.113146,13.6198859 4.650581,7.017299 8.501019,12.807483 8.556526,12.867079 0.05552,0.0596 0.59286,-0.281516 1.194121,-0.758028 0.60126,-0.476513 1.221917,-0.964627 1.37923,-1.084698 0.183662,-0.140173 0.530353,0.154561 0.968623,0.823441 l 0.68259,1.041757 -1.676054,0.83475 c -0.921827,0.4591101 -1.676045,0.9975361 -1.676045,1.1965011 0,0.245395 0.1448,0.29921 0.45018,0.167304 1.564185,-0.67563 2.430379,-0.262505 2.481112,1.18336 0.02927,0.834207 -0.17041,0.793205 2.6326012,0.540552 0.1596854,-0.01439 0.4290037,-0.364271 0.5984798,-0.777499 0.1694761,-0.41323 1.3411275,-1.747219 2.6036674,-2.9644201 2.296789,-2.214299 2.531096,-2.629047 2.024885,-3.584338 -0.268463,-0.50665 -0.27595,-0.506541 -0.930588,0.01353 -0.80077,0.636176 -1.113976,0.48907 -1.113976,-0.523211 0,-0.903565 -0.09733,-0.928861 -0.9543306,-0.248021 -0.7684809,0.610524 -1.1036315,0.479388 -1.1036315,-0.431817 0,-0.508616 -0.1056078,-0.634351 -0.4501894,-0.535967 -1.1931969,0.340685 -1.2212079,0.329193 -1.3034129,-0.534606 -0.07127,-0.749257 -0.151752,-0.833769 -0.643107,-0.675554 -1.32844,0.427762 -1.52406,0.220981 -1.090535,-1.152771 0.179237,-0.56796902 0.128932,-0.60325702 -0.797494,-0.55940802 -1.452044,0.06873 -1.457294,0.06395 -0.860185,-0.78298600059 L -13.26444,-0.77961712 h -0.875002 c -1.169027,0 -1.302043,-0.200053 -0.670973,-1.00909598 l 0.530188,-0.679697 -0.860166,-0.222392 c -1.694527,-0.438113 -1.683278,-0.425449 -0.924481,-1.041494 0.822714,-0.667928 0.893612,-0.944533 0.242105,-0.944533 -0.255931,0 -0.671546,-0.152298 -0.923587,-0.338438 -0.416666,-0.307715 -0.421129,-0.369565 -0.0492,-0.681348 0.54904,-0.460209 0.51644,-0.798913 -0.07691,-0.798913 -0.267296,0 -0.753469,-0.21875 -1.080382,-0.486113 l -0.594388,-0.486114 0.848831,-0.443329 0.848827,-0.443328 -0.846421,-0.434584 c -1.104735,-0.567208 -1.198552,-0.965461 -0.335076,-1.4223989 l 0.702446,-0.371723 -0.691026,-0.457299 c -0.542864,-0.359248 -0.628153,-0.533813 -0.397784,-0.814163 0.161283,-0.196273 0.452709,-0.356861 0.647614,-0.356861 0.591396,0 0.398041,-0.357265 -0.544018,-1.005212 -1.080363,-0.743071 -0.957576,-1.073301 0.399078,-1.073301 0.557591,0 1.013015,-0.08769 1.012042,-0.194861 -9.72e-4,-0.107173 -0.407269,-0.473783 -0.902896,-0.814688 -0.70997,-0.488336 -0.839346,-0.695026 -0.609858,-0.974302 0.160204,-0.194963 0.595448,-0.355884 0.967209,-0.357605 0.605709,-0.0028 0.555677,-0.07213 -0.481679,-0.667376 -1.36684,-0.784305 -2.865734,-2.178194 -2.675892,-2.488433 0.07359,-0.120255 0.416365,-0.218646 0.761729,-0.218646 0.824653,0 0.795384,-0.306824 -0.07949,-0.833307 -0.389085,-0.234143 -1.110145,-0.84788 -1.602358,-1.363861 -0.870904,-0.91296 -0.879537,-0.942211 -0.321557,-1.089583 0.712358,-0.188146 0.738504,-0.522511 0.05792,-0.740677 -0.733974,-0.23528 -3.149385,-2.673754 -2.958102,-2.986346 0.248935,-0.406809 3.380342,-0.307201 4.446494,0.141438 0.526025,0.221353 1.593094,0.81589 2.371263,1.321194 0.778166,0.505305 2.653973,1.719409 4.168446,2.698013 2.607847,1.685109 7.1490904,5.705641 7.1514814,6.331474 5.16e-4,0.158927 0.347392,0.815083 0.77064,1.458124 0.939182,1.426911 1.029087,2.802004 0.230904,3.531561 -0.842199,0.769786 -1.2447083,1.7609799 -1.2947315,3.1882579 -0.040738,1.162651 0.062614,1.445068 0.9122705,2.49229 1.232602,1.519242 1.819571,1.844556 2.643811,1.465264 0.441536,-0.203188 0.602777,-0.460324 0.546259,-0.871129 -0.07175,-0.52115 0.04327,-0.590982 1.086325,-0.659748 1.15636797,-0.07623 1.17426697,-0.09193 2.05797197,-1.804909 0.490295,-0.950401 1.49918903,-2.4489009 2.24199203,-3.3299949 1.598273,-1.895848 1.714216,-2.452708 0.510684,-2.452708 -0.461925,0 -1.277979,-0.237159 -1.813446,-0.527019 -0.53547703,-0.289862 -1.08443903,-0.457826 -1.21992403,-0.373254 -0.351806,0.219594 -0.583808,-0.545638 -0.395344,-1.304003 0.186413,-0.750145 1.201792,-1.347146 2.70379103,-1.589724 0.583934,-0.09431 1.123835,-0.273025 1.199798,-0.397153 0.184858,-0.302092 1.490507,-0.285679 2.714661,0.03413 0.546988,0.142898 1.453804,0.380286 2.015143,0.527529 1.26704,0.33235 1.7127666,1.208271 1.8863656,3.707 0.07729,1.111991 0.27626,1.937655 0.537207,2.228878 0.227968,0.254419 0.414497,0.585208 0.414497,0.735082 0,0.149871 0.172413,0.417014 0.383142,0.5936479 0.338291,0.283567 0.333751,0.405594 -0.03879,1.042543 -0.383434,0.655571 -0.385942,0.812881 -0.02742,1.724218 0.343415,0.873067 0.521836,1.01964 1.378861,1.132738 0.77867,0.102757 1.01497,0.261638 1.130583,0.760179 0.08041,0.346649 0.27311,0.673007 0.428245,0.725238 0.400098,0.134698 1.759786,-1.08084 2.424973,-2.167892 0.51997,-0.849716 0.541719,-1.051187 0.283456,-2.62532 -0.199529,-1.2161089 -0.467555,-1.9029779 -0.934788,-2.3955299 -0.845932,-0.891776 -0.86422,-2.178247 -0.04822,-3.394811 0.333741,-0.497589 0.684963,-1.155474 0.780488,-1.461966 0.31134,-0.998877 4.486931,-4.760844 7.306577,-6.582804 1.514473,-0.978603 3.390271,-2.192709 4.168445,-2.698013 2.185893,-1.419409 3.186707,-1.757075 4.951442,-1.670576 0.922226,0.0452 1.609065,0.204076 1.66849,0.385939 0.123303,0.377379 -1.798307,2.301363 -2.877389,2.880941 -0.685585,0.368235 -0.719508,0.434193 -0.269727,0.52445 0.282969,0.05678 0.607853,0.192033 0.721968,0.300559 0.211468,0.201124 -2.261224,2.610201 -2.679134,2.610201 -0.126181,0 -0.229426,0.132214 -0.229426,0.293808 0,0.190387 0.315277,0.242136 0.895653,0.147015 0.4926,-0.08074 0.956469,-0.0474 1.030809,0.07409 0.190292,0.31098 -1.808721,1.997365 -3.341307,2.818752 l -1.286234,0.689351 0.90036,0.08553 c 1.367106,0.129869 1.413377,0.412317 0.203321,1.24113 l -1.103681,0.755959 0.90036,0.07496 c 1.608404,0.133918 1.705145,0.270508 0.757494,1.069536 l -0.87404,0.736962 0.82706,0.183468 c 1.15384,0.255953 1.254985,0.592407 0.336765,1.120214 -0.961418,0.552636 -0.987135,0.779147 -0.126006,1.109815 0.809199,0.31073 0.702571,0.7714839 -0.298788,1.2910419 -0.413107,0.214347 -0.807255,0.426948 -0.875887,0.472443 -0.06864,0.0455 0.162893,0.310024 0.514495,0.587833 0.625557,0.49427 0.628562,0.513397 0.139919,0.891579 -0.274637,0.212561 -0.689445,0.386473 -0.921798,0.386473 -0.701793,0 -0.794577,0.32019 -0.212168,0.732192 0.528262,0.373704 0.531335,0.40286 0.07778,0.737794 -0.259702,0.191792 -0.681579,0.348712 -0.93751,0.348712 -0.658556,0 -0.576798,0.433882 0.175582,0.93178 0.814353,0.538912 0.661337,0.776374 -0.635202,0.98577 -1.190815,0.192317 -1.237221,0.29945 -0.481662,1.11174 0.605004,0.650421 0.47996,0.778406 -0.900486,0.92170298 l -0.733333,0.07612 0.531967,0.679697 c 0.663534,0.847787 0.528204,0.991703 -0.767489,0.81618 -1.021708,-0.138408 -1.025792,-0.135477 -0.851163,0.61150202 0.09655,0.412815 0.189573,0.867493 0.206811,1.01039 0.0351,0.290644 -0.768607,0.298647 -1.430002,0.01424 -0.348131,-0.149705 -0.448333,-0.01738 -0.514495,0.679365 -0.08391,0.883697 -0.166375,0.927055 -1.175444,0.617883 -0.493076,-0.151075 -0.578801,-0.08082 -0.578801,0.47437 0,0.901866 -0.287937,0.99774 -1.240099,0.412915 l -0.817872,-0.502342 v 0.760289 c 0,0.940099 -0.290591,1.147352 -0.926776,0.66099 -0.739274,-0.565176 -1.053521,-0.468875 -1.359105,0.416493 -0.244146,0.707326 -0.207802,0.865521 0.296387,1.290427 0.316055,0.266351 0.670661,0.488161 0.788014,0.492916 0.253985,0.01029 3.045659,2.8994271 3.962372,4.1007171 0.592044,0.77582 0.762015,0.844347 2.093002,0.843803 1.42871,-5.19e-4 1.449011,-0.01119 1.47567,-0.772417 0.04006,-1.142371 0.535876,-1.610242 1.536349,-1.449656 0.801393,0.128635 0.862743,0.07847 1.291931,-1.0565921 0.340226,-0.899745 0.381859,-1.302801 0.169972,-1.645471 -0.154347,-0.249613 -0.315929,-1.026636 -0.359078,-1.726721 -0.07146,-1.160247 -0.02576,-1.280514 0.517188,-1.359145 0.461682,-0.06686 0.564179,-0.207781 0.455741,-0.626588 -0.07691,-0.297175 -0.03345,-0.741192 0.09664,-0.986701 0.282084,-0.532338 2.145932,-1.335395 2.647875,-1.14086 0.205519,0.07965 0.640852,-0.243235 1.039297,-0.77083102 0.653306,-0.865089 0.670525,-0.964979 0.365067,-2.11843698 -0.315394,-1.191013 -0.308423,-1.220321 0.432543,-1.817039 0.74152,-0.597172 1.422429,-0.618386 0.953756,-0.02971 -0.369685,0.46434 -0.160181,3.34444998 0.310096,4.26295 0.559929,1.093597 0.528855,1.64447 -0.102147,1.811127 -0.378115,0.09987 -0.478229,0.276142 -0.363735,0.640486 0.187463,0.596528 -0.536614,2.2601 -1.074444,2.468544 -0.326945,0.126714 -0.323163,0.206999 0.0282,0.599148 0.374576,0.41803 0.335199,0.51539 -0.512337,1.266969 -0.504948,0.447777 -1.201111,0.81414 -1.547025,0.81414 -0.477228,0 -0.758603,0.256706 -1.166508,1.064237 l -0.537567,1.0642371 0.714568,1.041403 c 0.698915,1.018603 0.704934,1.058332 0.275084,1.814772 -0.241706,0.425355 -0.439465,0.918506 -0.439465,1.095889 0,0.493234 -2.06642,1.749941 -2.732657,1.66188 -0.340178,-0.04496 -0.731273,0.118117 -0.925026,0.385723 -0.296066,0.408903 -0.394848,0.41993 -0.836968,0.09341 -0.41964,-0.309912 -0.454924,-0.472966 -0.21667,-1.001113 0.156545,-0.346997 0.222553,-0.958855 0.146686,-1.359681 -0.137566,-0.726795 -0.142194,-0.72832 -1.709656,-0.562611 -0.864434,0.09139 -2.052633,0.335262 -2.640428,0.541941 -1.623746,0.570943 -5.931605,-0.04197 -7.005669,-0.996746 -0.228104,-0.202772 -0.776921,-0.446322 -1.219604,-0.541224 -0.763153,-0.163608 -0.813779,-0.124589 -0.976741,0.752767 -0.1630486,0.877766 -0.08507,1.01295 1.516505,2.630556 1.867961,1.886609 2.780736,3.424217 2.659835,4.480608 -0.06913,0.603767 -0.184809,0.686684 -0.883578,0.633183 -0.80393,-0.06155 -0.804056,-0.06136 -0.677759,1.070354 0.149671,1.341065 -0.172451,1.653452 -1.083369,1.050639 l -0.65038,-0.4304 v 1.207197 c 0,1.364689 -0.487991,1.790593 -1.2517556,1.092495 -0.629923,-0.575761 -0.718419,-0.539836 -0.897462,0.364343 -0.195796,0.988722 -0.800916,1.238713 -1.484965,0.613478 -0.518083,-0.473534 -0.537781,-0.469214 -1.040862,0.228305 -0.629971,0.873446 -0.858338,0.886949 -1.380776,0.08165 z M 28.74639,1.0164419 c -0.265098,-0.43321902 0.331135,-0.93000702 0.686004,-0.57159102 0.296843,0.299804 0.111062,0.85404302 -0.286275,0.85404302 -0.124791,0 -0.30466,-0.127105 -0.399729,-0.282452 z"
           fill="#ffffff"
           id="path91" />
      </g>
    </g>
    <path
       style="fill:#000000;fill-opacity:0.33333333;fill-rule:nonzero;stroke:none;stroke-width:1.74999988;stroke-linecap:round;stroke-linejoin:round;stroke-miterlimit:4;stroke-dasharray:none;stroke-dashoffset:0;stroke-opacity:1;paint-order:normal"
       d="m 16.000088,216.99972 c -8.8639991,0 -16.000056560368,7.13605 -16.000056560368,16.00005 v 48.00017 C 3.1439632e-5,289.86394 7.1360889,297 16.000088,297 h 95.999822 c 8.864,0 16.00006,-7.13606 16.00006,-16.00006 v -48.00017 c 0,-8.864 -7.13606,-16.00005 -16.00006,-16.00005 z m 0,4.00027 h 95.999822 c 6.648,0 12.0003,5.35178 12.0003,11.99978 v 48.00017 c 0,6.648 -5.3523,11.99979 -12.0003,11.99979 H 16.000088 c -6.648,0 -11.9997842,-5.35179 -11.9997842,-11.99979 v -48.00017 c 0,-6.648 5.3517842,-11.99978 11.9997842,-11.99978 z"
       id="rect815-8"
       inkscape:connector-curvature="0" />
  </g>
</svg>
