<?xml version="1.0" encoding="UTF-8" standalone="no"?>
<svg
		width="256px"
		height="160px"
		viewBox="0 0 128 80"
		version="1.1"
		xmlns="http://www.w3.org/2000/svg">
	<defs
			id="defs2">
		<clipPath
				id="clipPath987">
			<rect
					style="fill:#ffffff;fill-opacity:1;fill-rule:nonzero;stroke:none;stroke-width:0.463021;stroke-linecap:round;stroke-linejoin:round;stroke-miterlimit:4;stroke-dasharray:none;stroke-dashoffset:0;stroke-opacity:1;paint-order:normal"
					id="rect989"
					width="142.66333"
					height="89.164589"
					x="67.574585"
					y="134.05313"
					rx="17.832916"
					ry="17.832916"/>
		</clipPath>
	</defs>
	<g
			id="layer1"
			transform="translate(0,-217)">
		<g
				id="g985"
				transform="matrix(0.89721726,0,0,0.89721726,-60.629085,96.725221)"
				clip-path="url(#clipPath987)">
			<rect
					width="158.75"
					height="6.8587937"
					x="59.53125"
					y="134.05313"
					fill="#b22234"
					id="rect2"
					style="stroke-width:0.264583"/>
			<rect
					width="158.75"
					height="6.8587937"
					x="59.53125"
					y="140.91193"
					fill="#ffffff"
					id="rect4"
					style="stroke-width:0.264583"/>
			<rect
					width="158.75"
					height="6.8587937"
					x="59.53125"
					y="147.77072"
					fill="#b22234"
					id="rect6"
					style="stroke-width:0.264583"/>
			<rect
					width="158.75"
					height="6.8587937"
					x="59.53125"
					y="154.62952"
					fill="#ffffff"
					id="rect8"
					style="stroke-width:0.264583"/>
			<rect
					width="158.75"
					height="6.8587937"
					x="59.53125"
					y="161.48831"
					fill="#b22234"
					id="rect10"
					style="stroke-width:0.264583"/>
			<rect
					width="158.75"
					height="6.8587937"
					x="59.53125"
					y="168.34711"
					fill="#ffffff"
					id="rect12"
					style="stroke-width:0.264583"/>
			<rect
					width="158.75"
					height="6.8587937"
					x="59.53125"
					y="175.20589"
					fill="#b22234"
					id="rect14"
					style="stroke-width:0.264583"/>
			<rect
					width="158.75"
					height="6.8587937"
					x="59.53125"
					y="182.06496"
					fill="#ffffff"
					id="rect16"
					style="stroke-width:0.264583"/>
			<rect
					width="158.75"
					height="6.8587937"
					x="59.53125"
					y="188.92374"
					fill="#b22234"
					id="rect18"
					style="stroke-width:0.264583"/>
			<rect
					width="158.75"
					height="6.8587937"
					x="59.53125"
					y="195.78253"
					fill="#ffffff"
					id="rect20"
					style="stroke-width:0.264583"/>
			<rect
					width="158.75"
					height="6.8587937"
					x="59.53125"
					y="202.64133"
					fill="#b22234"
					id="rect22"
					style="stroke-width:0.264583"/>
			<rect
					width="158.75"
					height="6.8587937"
					x="59.53125"
					y="209.50012"
					fill="#ffffff"
					id="rect24"
					style="stroke-width:0.264583"/>
			<rect
					width="158.75"
					height="6.8587937"
					x="59.53125"
					y="216.35892"
					fill="#b22234"
					id="rect26"
					style="stroke-width:0.264583"/>
			<circle
					cx="132.80046"
					cy="178.63542"
					fill="#ffffff"
					id="ellipse28"
					r="37.207031"
					style="stroke-width:0.264583"/>
			<circle
					cx="132.80046"
					cy="178.63542"
					fill="#3c3b6e"
					id="ellipse30"
					r="35.298855"
					style="stroke-width:0.264583"/>
			<g
					transform="matrix(0.26458333,0,0,0.26458333,132.80046,151.92256)"
					id="g41">
				<g
						id="use39">
					<g
							transform="scale(0.16)"
							id="g771">
						<path
								d="m 0,-100 24,68 H 96 L 40,12 60,80 0,40 -60,80 -40,12 -96,-32 h 72 z"
								fill="#ffffff"
								id="path769"/>
					</g>
				</g>
			</g>
			<g
					transform="matrix(0.23427756,0.12295675,-0.12295675,0.23427756,145.21445,154.98247)"
					id="g45">
				<g
						id="use43">
					<g
							transform="scale(0.16)"
							id="g777">
						<path
								d="m 0,-100 24,68 H 96 L 40,12 60,80 0,40 -60,80 -40,12 -96,-32 h 72 z"
								fill="#ffffff"
								id="path775"/>
					</g>
				</g>
			</g>
			<g
					transform="matrix(0.150299,0.21774882,-0.21774882,0.150299,154.78469,163.46077)"
					id="g49">
				<g
						id="use47">
					<g
							transform="scale(0.16)"
							id="g783">
						<path
								d="m 0,-100 24,68 H 96 L 40,12 60,80 0,40 -60,80 -40,12 -96,-32 h 72 z"
								fill="#ffffff"
								id="path781"/>
					</g>
				</g>
			</g>
			<g
					transform="matrix(0.03189164,0.26265426,-0.26265426,0.03189164,159.31832,175.41544)"
					id="g53">
				<g
						id="use51">
					<g
							transform="scale(0.16)"
							id="g789">
						<path
								d="m 0,-100 24,68 H 96 L 40,12 60,80 0,40 -60,80 -40,12 -96,-32 h 72 z"
								fill="#ffffff"
								id="path787"/>
					</g>
				</g>
			</g>
			<g
					transform="matrix(-0.09382155,0.24739009,-0.24739009,-0.09382155,157.77739,188.10777)"
					id="g57">
				<g
						id="use55">
					<g
							transform="scale(0.16)"
							id="g795">
						<path
								d="m 0,-100 24,68 H 96 L 40,12 60,80 0,40 -60,80 -40,12 -96,-32 h 72 z"
								fill="#ffffff"
								id="path793"/>
					</g>
				</g>
			</g>
			<g
					transform="matrix(-0.19804488,0.17544961,-0.17544961,-0.19804488,150.51431,198.63025)"
					id="g61">
				<g
						id="use59">
					<g
							transform="scale(0.16)"
							id="g801">
						<path
								d="m 0,-100 24,68 H 96 L 40,12 60,80 0,40 -60,80 -40,12 -96,-32 h 72 z"
								fill="#ffffff"
								id="path799"/>
					</g>
				</g>
			</g>
			<g
					transform="matrix(-0.25689519,0.06331825,-0.06331825,-0.25689519,139.19332,204.57199)"
					id="g65">
				<g
						id="use63">
					<g
							transform="scale(0.16)"
							id="g807">
						<path
								d="m 0,-100 24,68 H 96 L 40,12 60,80 0,40 -60,80 -40,12 -96,-32 h 72 z"
								fill="#ffffff"
								id="path805"/>
					</g>
				</g>
			</g>
			<g
					transform="matrix(-0.25689519,-0.06331825,0.06331825,-0.25689519,126.4076,204.572)"
					id="g69">
				<g
						id="use67">
					<g
							transform="scale(0.16)"
							id="g813">
						<path
								d="m 0,-100 24,68 H 96 L 40,12 60,80 0,40 -60,80 -40,12 -96,-32 h 72 z"
								fill="#ffffff"
								id="path811"/>
					</g>
				</g>
			</g>
			<g
					transform="matrix(-0.19804488,-0.17544961,0.17544961,-0.19804488,115.08661,198.63025)"
					id="g73">
				<g
						id="use71">
					<g
							transform="scale(0.16)"
							id="g819">
						<path
								d="m 0,-100 24,68 H 96 L 40,12 60,80 0,40 -60,80 -40,12 -96,-32 h 72 z"
								fill="#ffffff"
								id="path817"/>
					</g>
				</g>
			</g>
			<g
					transform="matrix(-0.09382155,-0.24739009,0.24739009,-0.09382155,107.82353,188.10777)"
					id="g77">
				<g
						id="use75">
					<g
							transform="scale(0.16)"
							id="g825">
						<path
								d="m 0,-100 24,68 H 96 L 40,12 60,80 0,40 -60,80 -40,12 -96,-32 h 72 z"
								fill="#ffffff"
								id="path823"/>
					</g>
				</g>
			</g>
			<g
					transform="matrix(0.03189164,-0.26265426,0.26265426,0.03189164,106.2826,175.41544)"
					id="g81">
				<g
						id="use79">
					<g
							transform="scale(0.16)"
							id="g831">
						<path
								d="m 0,-100 24,68 H 96 L 40,12 60,80 0,40 -60,80 -40,12 -96,-32 h 72 z"
								fill="#ffffff"
								id="path829"/>
					</g>
				</g>
			</g>
			<g
					transform="matrix(0.150299,-0.21774882,0.21774882,0.150299,110.81623,163.46077)"
					id="g85">
				<g
						id="use83">
					<g
							transform="scale(0.16)"
							id="g837">
						<path
								d="m 0,-100 24,68 H 96 L 40,12 60,80 0,40 -60,80 -40,12 -96,-32 h 72 z"
								fill="#ffffff"
								id="path835"/>
					</g>
				</g>
			</g>
			<g
					transform="matrix(0.23427756,-0.12295675,0.12295675,0.23427756,120.38648,154.98247)"
					id="g89">
				<g
						id="use87">
					<g
							transform="scale(0.16)"
							id="g843">
						<path
								d="m 0,-100 24,68 H 96 L 40,12 60,80 0,40 -60,80 -40,12 -96,-32 h 72 z"
								fill="#ffffff"
								id="path841"/>
					</g>
				</g>
			</g>
			<g
					transform="matrix(0.54504166,0,0,0.54504166,132.03714,181.68369)"
					id="g93">
				<path
						d="m 4.8258284,26.910796 c -0.389024,-0.599649 -0.449538,-0.611915 -1.283258,-0.260087 -0.807916,0.340938 -0.895381,0.33074 -1.141132,-0.133038 -0.146385,-0.27625 -0.266149,-0.697846 -0.266149,-0.936874 0,-0.314152 -0.124771,-0.381158 -0.450189,-0.241773 -1.13403403,0.485746 -1.47563103,0.301625 -1.55768103,-0.839612 -0.07613,-1.059061 -0.09775,-1.08325 -0.714403,-0.799483 -0.96929297,0.446052 -1.31535297,-0.04198 -0.96630897,-1.362708 l 0.275687,-1.043171 -0.836559,0.158505 c -0.460107,0.08718 -0.899144,0.05622 -0.975642,-0.0688 -0.07652,-0.125017 0.208162,-0.958059 0.632597,-1.851207 0.747664,-1.57334 2.04798597,-3.1718 3.24571297,-3.98992 C 1.3015404,15.192195 1.3454674,15.023898 1.1565364,14.13257 0.94888937,13.152982 0.91009537,13.122443 -0.04994163,13.182897 c -0.545569,0.03436 -1.23209697,0.27334 -1.52563497,0.53108 -1.063146,0.933508 -3.24408,1.430608 -5.4506821,1.24238 -5.8094693,-0.495567 -5.5014743,-0.500475 -5.5014743,0.08768 0,0.338972 0.379768,0.791093 1.028981,1.225011 0.889616,0.5946 1.028981,0.816785 1.028981,1.640516 0,1.141096 -0.369336,1.576321 -1.337676,1.576321 -0.893573,0 -1.749276,-0.826116 -1.749276,-1.688792 0,-0.549447 -0.119706,-0.649536 -0.776852,-0.649536 -1.00378,0 -2.824586,-1.153974 -2.824586,-1.790145 0,-0.266507 -0.173645,-0.630103 -0.385872,-0.807995 -0.535753,-0.449074 -0.481944,-1.105636 0.157949,-1.92725 0.874521,-1.122867 0.352092,-1.084097 -1.019402,0.07565 -0.697354,0.589685 -1.38867,1.072158 -1.536256,1.072158 -0.395294,0 -1.392025,-1.511 -1.201797,-1.821867 0.0897,-0.14659 0.733706,-0.558564 1.43112,-0.915499 0.697414,-0.356936 1.268024,-0.751125 1.268024,-0.875979 0,-0.124853 -3.599381,-6.1559031 -7.998626,-13.4023341 -4.399244,-7.2464299 -8.160433,-13.5664539 -8.358197,-14.0444949 -0.519954,-1.25685 0.05004,-1.50012 0.901639,-0.384812 0.361649,0.47364 4.462565,6.602591 9.113146,13.6198859 4.650581,7.017299 8.501019,12.807483 8.556526,12.867079 0.05552,0.0596 0.59286,-0.281516 1.194121,-0.758028 0.60126,-0.476513 1.221917,-0.964627 1.37923,-1.084698 0.183662,-0.140173 0.530353,0.154561 0.968623,0.823441 l 0.68259,1.041757 -1.676054,0.83475 c -0.921827,0.4591101 -1.676045,0.9975361 -1.676045,1.1965011 0,0.245395 0.1448,0.29921 0.45018,0.167304 1.564185,-0.67563 2.430379,-0.262505 2.481112,1.18336 0.02927,0.834207 -0.17041,0.793205 2.6326012,0.540552 0.1596854,-0.01439 0.4290037,-0.364271 0.5984798,-0.777499 0.1694761,-0.41323 1.3411275,-1.747219 2.6036674,-2.9644201 2.296789,-2.214299 2.531096,-2.629047 2.024885,-3.584338 -0.268463,-0.50665 -0.27595,-0.506541 -0.930588,0.01353 -0.80077,0.636176 -1.113976,0.48907 -1.113976,-0.523211 0,-0.903565 -0.09733,-0.928861 -0.9543306,-0.248021 -0.7684809,0.610524 -1.1036315,0.479388 -1.1036315,-0.431817 0,-0.508616 -0.1056078,-0.634351 -0.4501894,-0.535967 -1.1931969,0.340685 -1.2212079,0.329193 -1.3034129,-0.534606 -0.07127,-0.749257 -0.151752,-0.833769 -0.643107,-0.675554 -1.32844,0.427762 -1.52406,0.220981 -1.090535,-1.152771 0.179237,-0.56796902 0.128932,-0.60325702 -0.797494,-0.55940802 -1.452044,0.06873 -1.457294,0.06395 -0.860185,-0.78298600059 L -13.26444,-0.77961712 h -0.875002 c -1.169027,0 -1.302043,-0.200053 -0.670973,-1.00909598 l 0.530188,-0.679697 -0.860166,-0.222392 c -1.694527,-0.438113 -1.683278,-0.425449 -0.924481,-1.041494 0.822714,-0.667928 0.893612,-0.944533 0.242105,-0.944533 -0.255931,0 -0.671546,-0.152298 -0.923587,-0.338438 -0.416666,-0.307715 -0.421129,-0.369565 -0.0492,-0.681348 0.54904,-0.460209 0.51644,-0.798913 -0.07691,-0.798913 -0.267296,0 -0.753469,-0.21875 -1.080382,-0.486113 l -0.594388,-0.486114 0.848831,-0.443329 0.848827,-0.443328 -0.846421,-0.434584 c -1.104735,-0.567208 -1.198552,-0.965461 -0.335076,-1.4223989 l 0.702446,-0.371723 -0.691026,-0.457299 c -0.542864,-0.359248 -0.628153,-0.533813 -0.397784,-0.814163 0.161283,-0.196273 0.452709,-0.356861 0.647614,-0.356861 0.591396,0 0.398041,-0.357265 -0.544018,-1.005212 -1.080363,-0.743071 -0.957576,-1.073301 0.399078,-1.073301 0.557591,0 1.013015,-0.08769 1.012042,-0.194861 -9.72e-4,-0.107173 -0.407269,-0.473783 -0.902896,-0.814688 -0.70997,-0.488336 -0.839346,-0.695026 -0.609858,-0.974302 0.160204,-0.194963 0.595448,-0.355884 0.967209,-0.357605 0.605709,-0.0028 0.555677,-0.07213 -0.481679,-0.667376 -1.36684,-0.784305 -2.865734,-2.178194 -2.675892,-2.488433 0.07359,-0.120255 0.416365,-0.218646 0.761729,-0.218646 0.824653,0 0.795384,-0.306824 -0.07949,-0.833307 -0.389085,-0.234143 -1.110145,-0.84788 -1.602358,-1.363861 -0.870904,-0.91296 -0.879537,-0.942211 -0.321557,-1.089583 0.712358,-0.188146 0.738504,-0.522511 0.05792,-0.740677 -0.733974,-0.23528 -3.149385,-2.673754 -2.958102,-2.986346 0.248935,-0.406809 3.380342,-0.307201 4.446494,0.141438 0.526025,0.221353 1.593094,0.81589 2.371263,1.321194 0.778166,0.505305 2.653973,1.719409 4.168446,2.698013 2.607847,1.685109 7.1490904,5.705641 7.1514814,6.331474 5.16e-4,0.158927 0.347392,0.815083 0.77064,1.458124 0.939182,1.426911 1.029087,2.802004 0.230904,3.531561 -0.842199,0.769786 -1.2447083,1.7609799 -1.2947315,3.1882579 -0.040738,1.162651 0.062614,1.445068 0.9122705,2.49229 1.232602,1.519242 1.819571,1.844556 2.643811,1.465264 0.441536,-0.203188 0.602777,-0.460324 0.546259,-0.871129 -0.07175,-0.52115 0.04327,-0.590982 1.086325,-0.659748 1.15636797,-0.07623 1.17426697,-0.09193 2.05797197,-1.804909 0.490295,-0.950401 1.49918903,-2.4489009 2.24199203,-3.3299949 1.598273,-1.895848 1.714216,-2.452708 0.510684,-2.452708 -0.461925,0 -1.277979,-0.237159 -1.813446,-0.527019 -0.53547703,-0.289862 -1.08443903,-0.457826 -1.21992403,-0.373254 -0.351806,0.219594 -0.583808,-0.545638 -0.395344,-1.304003 0.186413,-0.750145 1.201792,-1.347146 2.70379103,-1.589724 0.583934,-0.09431 1.123835,-0.273025 1.199798,-0.397153 0.184858,-0.302092 1.490507,-0.285679 2.714661,0.03413 0.546988,0.142898 1.453804,0.380286 2.015143,0.527529 1.26704,0.33235 1.7127666,1.208271 1.8863656,3.707 0.07729,1.111991 0.27626,1.937655 0.537207,2.228878 0.227968,0.254419 0.414497,0.585208 0.414497,0.735082 0,0.149871 0.172413,0.417014 0.383142,0.5936479 0.338291,0.283567 0.333751,0.405594 -0.03879,1.042543 -0.383434,0.655571 -0.385942,0.812881 -0.02742,1.724218 0.343415,0.873067 0.521836,1.01964 1.378861,1.132738 0.77867,0.102757 1.01497,0.261638 1.130583,0.760179 0.08041,0.346649 0.27311,0.673007 0.428245,0.725238 0.400098,0.134698 1.759786,-1.08084 2.424973,-2.167892 0.51997,-0.849716 0.541719,-1.051187 0.283456,-2.62532 -0.199529,-1.2161089 -0.467555,-1.9029779 -0.934788,-2.3955299 -0.845932,-0.891776 -0.86422,-2.178247 -0.04822,-3.394811 0.333741,-0.497589 0.684963,-1.155474 0.780488,-1.461966 0.31134,-0.998877 4.486931,-4.760844 7.306577,-6.582804 1.514473,-0.978603 3.390271,-2.192709 4.168445,-2.698013 2.185893,-1.419409 3.186707,-1.757075 4.951442,-1.670576 0.922226,0.0452 1.609065,0.204076 1.66849,0.385939 0.123303,0.377379 -1.798307,2.301363 -2.877389,2.880941 -0.685585,0.368235 -0.719508,0.434193 -0.269727,0.52445 0.282969,0.05678 0.607853,0.192033 0.721968,0.300559 0.211468,0.201124 -2.261224,2.610201 -2.679134,2.610201 -0.126181,0 -0.229426,0.132214 -0.229426,0.293808 0,0.190387 0.315277,0.242136 0.895653,0.147015 0.4926,-0.08074 0.956469,-0.0474 1.030809,0.07409 0.190292,0.31098 -1.808721,1.997365 -3.341307,2.818752 l -1.286234,0.689351 0.90036,0.08553 c 1.367106,0.129869 1.413377,0.412317 0.203321,1.24113 l -1.103681,0.755959 0.90036,0.07496 c 1.608404,0.133918 1.705145,0.270508 0.757494,1.069536 l -0.87404,0.736962 0.82706,0.183468 c 1.15384,0.255953 1.254985,0.592407 0.336765,1.120214 -0.961418,0.552636 -0.987135,0.779147 -0.126006,1.109815 0.809199,0.31073 0.702571,0.7714839 -0.298788,1.2910419 -0.413107,0.214347 -0.807255,0.426948 -0.875887,0.472443 -0.06864,0.0455 0.162893,0.310024 0.514495,0.587833 0.625557,0.49427 0.628562,0.513397 0.139919,0.891579 -0.274637,0.212561 -0.689445,0.386473 -0.921798,0.386473 -0.701793,0 -0.794577,0.32019 -0.212168,0.732192 0.528262,0.373704 0.531335,0.40286 0.07778,0.737794 -0.259702,0.191792 -0.681579,0.348712 -0.93751,0.348712 -0.658556,0 -0.576798,0.433882 0.175582,0.93178 0.814353,0.538912 0.661337,0.776374 -0.635202,0.98577 -1.190815,0.192317 -1.237221,0.29945 -0.481662,1.11174 0.605004,0.650421 0.47996,0.778406 -0.900486,0.92170298 l -0.733333,0.07612 0.531967,0.679697 c 0.663534,0.847787 0.528204,0.991703 -0.767489,0.81618 -1.021708,-0.138408 -1.025792,-0.135477 -0.851163,0.61150202 0.09655,0.412815 0.189573,0.867493 0.206811,1.01039 0.0351,0.290644 -0.768607,0.298647 -1.430002,0.01424 -0.348131,-0.149705 -0.448333,-0.01738 -0.514495,0.679365 -0.08391,0.883697 -0.166375,0.927055 -1.175444,0.617883 -0.493076,-0.151075 -0.578801,-0.08082 -0.578801,0.47437 0,0.901866 -0.287937,0.99774 -1.240099,0.412915 l -0.817872,-0.502342 v 0.760289 c 0,0.940099 -0.290591,1.147352 -0.926776,0.66099 -0.739274,-0.565176 -1.053521,-0.468875 -1.359105,0.416493 -0.244146,0.707326 -0.207802,0.865521 0.296387,1.290427 0.316055,0.266351 0.670661,0.488161 0.788014,0.492916 0.253985,0.01029 3.045659,2.8994271 3.962372,4.1007171 0.592044,0.77582 0.762015,0.844347 2.093002,0.843803 1.42871,-5.19e-4 1.449011,-0.01119 1.47567,-0.772417 0.04006,-1.142371 0.535876,-1.610242 1.536349,-1.449656 0.801393,0.128635 0.862743,0.07847 1.291931,-1.0565921 0.340226,-0.899745 0.381859,-1.302801 0.169972,-1.645471 -0.154347,-0.249613 -0.315929,-1.026636 -0.359078,-1.726721 -0.07146,-1.160247 -0.02576,-1.280514 0.517188,-1.359145 0.461682,-0.06686 0.564179,-0.207781 0.455741,-0.626588 -0.07691,-0.297175 -0.03345,-0.741192 0.09664,-0.986701 0.282084,-0.532338 2.145932,-1.335395 2.647875,-1.14086 0.205519,0.07965 0.640852,-0.243235 1.039297,-0.77083102 0.653306,-0.865089 0.670525,-0.964979 0.365067,-2.11843698 -0.315394,-1.191013 -0.308423,-1.220321 0.432543,-1.817039 0.74152,-0.597172 1.422429,-0.618386 0.953756,-0.02971 -0.369685,0.46434 -0.160181,3.34444998 0.310096,4.26295 0.559929,1.093597 0.528855,1.64447 -0.102147,1.811127 -0.378115,0.09987 -0.478229,0.276142 -0.363735,0.640486 0.187463,0.596528 -0.536614,2.2601 -1.074444,2.468544 -0.326945,0.126714 -0.323163,0.206999 0.0282,0.599148 0.374576,0.41803 0.335199,0.51539 -0.512337,1.266969 -0.504948,0.447777 -1.201111,0.81414 -1.547025,0.81414 -0.477228,0 -0.758603,0.256706 -1.166508,1.064237 l -0.537567,1.0642371 0.714568,1.041403 c 0.698915,1.018603 0.704934,1.058332 0.275084,1.814772 -0.241706,0.425355 -0.439465,0.918506 -0.439465,1.095889 0,0.493234 -2.06642,1.749941 -2.732657,1.66188 -0.340178,-0.04496 -0.731273,0.118117 -0.925026,0.385723 -0.296066,0.408903 -0.394848,0.41993 -0.836968,0.09341 -0.41964,-0.309912 -0.454924,-0.472966 -0.21667,-1.001113 0.156545,-0.346997 0.222553,-0.958855 0.146686,-1.359681 -0.137566,-0.726795 -0.142194,-0.72832 -1.709656,-0.562611 -0.864434,0.09139 -2.052633,0.335262 -2.640428,0.541941 -1.623746,0.570943 -5.931605,-0.04197 -7.005669,-0.996746 -0.228104,-0.202772 -0.776921,-0.446322 -1.219604,-0.541224 -0.763153,-0.163608 -0.813779,-0.124589 -0.976741,0.752767 -0.1630486,0.877766 -0.08507,1.01295 1.516505,2.630556 1.867961,1.886609 2.780736,3.424217 2.659835,4.480608 -0.06913,0.603767 -0.184809,0.686684 -0.883578,0.633183 -0.80393,-0.06155 -0.804056,-0.06136 -0.677759,1.070354 0.149671,1.341065 -0.172451,1.653452 -1.083369,1.050639 l -0.65038,-0.4304 v 1.207197 c 0,1.364689 -0.487991,1.790593 -1.2517556,1.092495 -0.629923,-0.575761 -0.718419,-0.539836 -0.897462,0.364343 -0.195796,0.988722 -0.800916,1.238713 -1.484965,0.613478 -0.518083,-0.473534 -0.537781,-0.469214 -1.040862,0.228305 -0.629971,0.873446 -0.858338,0.886949 -1.380776,0.08165 z M 28.74639,1.0164419 c -0.265098,-0.43321902 0.331135,-0.93000702 0.686004,-0.57159102 0.296843,0.299804 0.111062,0.85404302 -0.286275,0.85404302 -0.124791,0 -0.30466,-0.127105 -0.399729,-0.282452 z"
						fill="#ffffff"
						id="path91"/>
			</g>
		</g>
		<path
				style="fill:#000000;fill-opacity:0.33333333;fill-rule:nonzero;stroke:none;stroke-width:1.74999988;stroke-linecap:round;stroke-linejoin:round;stroke-miterlimit:4;stroke-dasharray:none;stroke-dashoffset:0;stroke-opacity:1;paint-order:normal"
				d="m 16.000088,216.99972 c -8.8639991,0 -16.000056560368,7.13605 -16.000056560368,16.00005 v 48.00017 C 3.1439632e-5,289.86394 7.1360889,297 16.000088,297 h 95.999822 c 8.864,0 16.00006,-7.13606 16.00006,-16.00006 v -48.00017 c 0,-8.864 -7.13606,-16.00005 -16.00006,-16.00005 z m 0,4.00027 h 95.999822 c 6.648,0 12.0003,5.35178 12.0003,11.99978 v 48.00017 c 0,6.648 -5.3523,11.99979 -12.0003,11.99979 H 16.000088 c -6.648,0 -11.9997842,-5.35179 -11.9997842,-11.99979 v -48.00017 c 0,-6.648 5.3517842,-11.99978 11.9997842,-11.99978 z"
				id="rect815-8"/>
	</g>
</svg>
