<?xml version="1.0" encoding="UTF-8" standalone="no"?>
<svg
		width="256px"
		height="160px"
		viewBox="0 0 128 80"
		version="1.1"
		xmlns="http://www.w3.org/2000/svg">
	<defs>
		<clipPath
				id="clipPath1962">
			<rect
					style="fill:#ffffff;fill-opacity:1;fill-rule:nonzero;stroke:none;stroke-width:0.291666;stroke-linecap:round;stroke-linejoin:round;stroke-miterlimit:4;stroke-dasharray:none;stroke-dashoffset:0;stroke-opacity:1;paint-order:normal"
					id="rect1964"
					width="128"
					height="80"
					x="130.66666"
					y="247.61592"
					rx="16"
					ry="16"/>
		</clipPath>
	</defs>
	<g
			id="layer1"
			transform="translate(0,-217)">
		<g
				id="g679"
				transform="translate(-130.66666,-30.615924)"
				clip-path="url(#clipPath1962)">
			<rect
					y="247.61578"
					x="128"
					height="80"
					width="133.33333"
					id="rect5789"
					style="fill:#000000;fill-opacity:1;fill-rule:nonzero;stroke:none;stroke-width:3.13319;stroke-linecap:square;stroke-linejoin:miter;stroke-miterlimit:4;stroke-dasharray:none;stroke-opacity:1;paint-order:fill markers stroke"/>
			<path
					style="fill:#ffffff;stroke:none;stroke-width:0.15873"
					d="m 196.78681,260.94916 c -0.13674,0.002 -0.23052,0.0364 -0.28493,0.11242 -0.29045,0.405 -0.34078,2.05228 -0.34078,2.05228 0.28685,1.87209 0.90188,3.28872 0.82907,5.6818 -0.0727,2.3934 2.28367,4.99516 0.23521,5.26378 -2.0488,0.26894 -2.28301,1.45958 -2.62303,-0.34742 -0.33969,-1.80732 -0.0214,-1.59751 0.0352,-3.45891 0.0567,-1.86172 -0.22146,-3.33445 -0.18102,-4.66382 0.0404,-1.32972 -1.1064,-2.62957 -1.55481,-3.04258 -0.4481,-0.41334 -0.62168,-1.21732 -1.82745,-0.5231 -1.2061,0.69453 -6.51615,4.52223 -7.0802,5.63548 -0.56377,1.1139 -1.66692,2.77544 -2.05763,4.79376 -0.39072,2.0183 0.11596,6.99036 0.52628,8.66674 0.40965,1.67638 0.2043,1.93568 2.90068,2.01953 2.69638,0.0839 4.03266,1.58961 4.54377,-0.0581 0.5108,-1.64774 0.93487,-0.43659 0.89725,-1.36934 -0.0373,-0.93241 -0.49581,-0.94671 -1.04809,-2.29519 -0.5526,-1.34781 0.54838,-2.91011 2.39396,-2.98551 1.84558,-0.0757 3.12285,0.24032 3.5778,0.91458 0.45496,0.67426 1.17668,0.76334 0.74362,2.01444 -0.43304,1.25076 -0.84826,1.43738 -0.87659,2.36808 -0.0283,0.93036 -1.60953,0.48189 -0.0369,1.19646 1.57272,0.71422 1.88588,0.72429 2.40346,0.20788 0.51724,-0.51612 0.5177,-0.9824 1.22742,-1.35973 0.70971,-0.37731 1.76134,-0.34446 2.18222,-1.1959 0.42124,-0.85206 -0.59885,-1.68228 0.14024,-2.5912 0.73907,-0.90892 1.17952,-1.8265 2.16824,-1.86249 0.9884,-0.0356 3.25317,1.24338 3.44039,1.57666 0.1875,0.33327 1.22396,1.16407 0.32235,2.40026 -0.90162,1.23618 -1.89391,1.6711 -3.1454,1.69923 -1.25146,0.0271 -2.04485,0.13593 -2.58111,0.45192 -0.5366,0.31628 -1.78007,0.0776 -1.2129,0.89368 0.5678,0.81642 0.52496,0.61854 1.02407,0.96316 0.49911,0.34459 0.083,1.59953 -0.12626,1.9924 -0.20962,0.39288 0.96657,0.69611 -0.94866,0.90215 -1.91523,0.2067 -3.01331,-0.50189 -3.55769,0.0807 -0.54437,0.58263 0.50628,1.88702 -1.51793,1.82407 -2.02391,-0.0629 -3.23052,0.63922 -3.6605,-0.37961 -0.42965,-1.01949 -0.0272,-1.26499 -1.53584,-1.44504 -1.50813,-0.18036 -2.3526,-0.006 -2.3526,-0.006 1e-4,0.002 0.16768,2.62045 1.60508,4.04189 1.43789,1.4219 2.83371,0.97886 3.21355,1.47665 0.37985,0.49811 0.63967,1.10525 1.61125,1.13546 0.97191,0.0302 1.34861,-1.0432 2.26938,-1.01457 0.92077,0.0285 0.69382,0.97372 1.68052,1.0044 0.98637,0.0307 2.22858,-0.79571 3.60518,-2.21668 1.37658,-1.42094 2.67234,-2.91113 4.83764,-4.84008 2.16561,-1.92893 2.46097,-2.98445 2.63699,-4.4424 0.17602,-1.45862 1.04759,-4.16041 1.14585,-5.2214 0.0979,-1.06167 0.47183,-2.51417 -0.49386,-5.405 -0.96503,-2.89146 -2.62862,-4.47423 -3.9594,-6.17891 -1.33044,-1.70468 -1.61252,-3.24419 -4.69573,-3.60634 -2.50487,-0.29423 -3.9048,-0.87106 -4.49741,-0.85978 z m -25.27093,25.69123 c -0.9296,0.0556 -2.12256,0.96151 -2.90627,1.66985 -0.96457,0.87211 -0.80411,4.30054 0.62182,5.02482 1.42625,0.7243 3.58287,0.40608 5.52594,0.87277 1.94307,0.46669 5.16861,1.60019 6.37736,2.55506 1.20879,0.95454 1.82766,1.25874 3.15881,2.52737 1.33113,1.26864 2.67871,2.33721 3.70016,1.97207 1.02139,-0.36448 2.63688,-1.31308 2.73532,-2.49347 0.0983,-1.18006 1.24481,-1.85803 -0.64585,-2.95331 -1.89062,-1.09564 -5.38403,-1.39325 -6.61426,-1.49812 -1.22991,-0.10485 -1.85,-0.98106 -3.95993,-2.41666 -2.11027,-1.43562 -2.79004,-2.1964 -3.45826,-2.50478 -0.66797,-0.30738 -2.99073,-2.16312 -3.94151,-2.64544 -0.17826,-0.0904 -0.3788,-0.123 -0.59333,-0.11016 z m 47.62553,4.22208 c -0.72258,0.004 -1.5725,0.20215 -2.37106,0.48017 -1.27776,0.44579 -3.21862,1.69065 -5.21586,2.42739 -1.99692,0.73677 -5.81142,3.03127 -5.81142,3.03127 0,0 -0.16476,0.5906 0.0521,1.16313 0.21669,0.57289 1.07584,0.19198 2.99064,-0.14856 1.91415,-0.3406 3.96475,-1.12237 5.80583,-1.77154 1.84108,-0.64917 5.88717,-1.55353 6.49694,-2.3178 0.60944,-0.76428 -0.0148,-2.21241 -0.82294,-2.63978 -0.30304,-0.1604 -0.69053,-0.22702 -1.12407,-0.22428 z m -21.2998,8.81137 c -0.68086,-0.0769 -0.60756,0.83249 -1.88724,1.92744 -1.70623,1.45994 -2.50382,1.52552 -6.95281,2.61777 -4.44871,1.09259 -8.06704,1.72084 -10.90884,2.54883 -2.84212,0.82765 -8.16406,1.31057 -8.16406,1.31057 -0.85518,1.14787 -0.18933,1.85653 0.35813,2.03706 0.54709,0.18082 1.36289,2.65839 2.8476,3.85489 1.48499,1.19719 4.73306,-1.33552 8.15509,-2.78273 3.42208,-1.44751 7.92612,-3.20392 10.38593,-4.19834 2.45986,-0.99476 5.57837,-1.97496 6.92935,-3.42275 1.3507,-1.44811 2.13613,-2.35975 0.24695,-3.45721 -0.47245,-0.27445 -0.78315,-0.40988 -1.0101,-0.43553 z m 5.44604,3.57978 c -0.36138,0.17097 -0.42061,1.47593 0.633,2.52173 1.05317,1.04708 2.87437,1.80619 5.47845,3.28718 2.6044,1.481 4.78964,3.22886 7.1975,4.08877 2.40821,0.85994 3.24293,-0.37842 4.09741,-1.56422 0.85479,-1.18578 0.0739,-3.26704 -1.20342,-4.00347 -1.27765,-0.73679 -2.46684,-1.34584 -4.30466,-1.90542 -1.83783,-0.55927 -4.80723,-1.81992 -5.64437,-1.8913 -0.83716,-0.0714 -6.25391,-0.53327 -6.25391,-0.53327 z"
					id="path4183"/>
		</g>
		<path
				style="fill:#ffffff;fill-opacity:0.2;fill-rule:nonzero;stroke:none;stroke-width:1.74999988;stroke-linecap:round;stroke-linejoin:round;stroke-miterlimit:4;stroke-dasharray:none;stroke-dashoffset:0;stroke-opacity:1;paint-order:normal"
				d="m 16.000088,216.99972 c -8.8639991,0 -16.000056560368,7.13605 -16.000056560368,16.00005 v 48.00017 C 3.1439632e-5,289.86394 7.1360889,297 16.000088,297 h 95.999822 c 8.864,0 16.00006,-7.13606 16.00006,-16.00006 v -48.00017 c 0,-8.864 -7.13606,-16.00005 -16.00006,-16.00005 z m 0,4.00027 h 95.999822 c 6.648,0 12.0003,5.35178 12.0003,11.99978 v 48.00017 c 0,6.648 -5.3523,11.99979 -12.0003,11.99979 H 16.000088 c -6.648,0 -11.9997842,-5.35179 -11.9997842,-11.99979 v -48.00017 c 0,-6.648 5.3517842,-11.99978 11.9997842,-11.99978 z"
				id="rect815-8"/>
	</g>
</svg>
