<?xml version="1.0" encoding="UTF-8" standalone="no"?>
<svg
		width="256px"
		height="160px"
		viewBox="0 0 128 80"
		version="1.1"
		xmlns="http://www.w3.org/2000/svg">
	<defs>
		<clipPath
				id="clipPath1110">
			<rect
					style="fill:#ffffff;fill-opacity:1;fill-rule:nonzero;stroke:none;stroke-width:0.463021;stroke-linecap:round;stroke-linejoin:round;stroke-miterlimit:4;stroke-dasharray:none;stroke-dashoffset:0;stroke-opacity:1;paint-order:normal"
					id="rect1112"
					width="142.66333"
					height="89.164589"
					x="18.331846"
					y="142.93544"
					rx="17.832916"
					ry="17.832916"/>
		</clipPath>
	</defs>
	<g
			id="layer1"
			transform="translate(0,-217)">
		<g
				id="g1108"
				transform="matrix(0.89721726,0,0,0.89721726,-16.447649,88.755855)"
				clip-path="url(#clipPath1110)">
			<rect
					width="158.75"
					height="6.8587937"
					x="18.331846"
					y="142.93558"
					fill="#b22234"
					id="rect451"
					style="stroke-width:0.264583"/>
			<rect
					width="158.75"
					height="6.8587937"
					x="18.331846"
					y="149.79436"
					fill="#ffffff"
					id="rect453"
					style="stroke-width:0.264583"/>
			<rect
					width="158.75"
					height="6.8587937"
					x="18.331846"
					y="156.65315"
					fill="#b22234"
					id="rect455"
					style="stroke-width:0.264583"/>
			<rect
					width="158.75"
					height="6.8587937"
					x="18.331846"
					y="163.51195"
					fill="#ffffff"
					id="rect457"
					style="stroke-width:0.264583"/>
			<rect
					width="158.75"
					height="6.8587937"
					x="18.331846"
					y="170.37074"
					fill="#b22234"
					id="rect459"
					style="stroke-width:0.264583"/>
			<rect
					width="158.75"
					height="6.8587937"
					x="18.331846"
					y="177.22954"
					fill="#ffffff"
					id="rect461"
					style="stroke-width:0.264583"/>
			<rect
					width="158.75"
					height="6.8587937"
					x="18.331846"
					y="184.08833"
					fill="#b22234"
					id="rect463"
					style="stroke-width:0.264583"/>
			<rect
					width="158.75"
					height="6.8587937"
					x="18.331846"
					y="190.94739"
					fill="#ffffff"
					id="rect465"
					style="stroke-width:0.264583"/>
			<rect
					width="158.75"
					height="6.8587937"
					x="18.331846"
					y="197.80618"
					fill="#b22234"
					id="rect467"
					style="stroke-width:0.264583"/>
			<rect
					width="158.75"
					height="6.8587937"
					x="18.331846"
					y="204.66498"
					fill="#ffffff"
					id="rect469"
					style="stroke-width:0.264583"/>
			<rect
					width="158.75"
					height="6.8587937"
					x="18.331846"
					y="211.52377"
					fill="#b22234"
					id="rect471"
					style="stroke-width:0.264583"/>
			<rect
					width="158.75"
					height="6.8587937"
					x="18.331846"
					y="218.38257"
					fill="#ffffff"
					id="rect473"
					style="stroke-width:0.264583"/>
			<rect
					width="158.75"
					height="6.8587937"
					x="18.331846"
					y="225.24136"
					fill="#b22234"
					id="rect475"
					style="stroke-width:0.264583"/>
			<rect
					width="67.163422"
					height="48.011822"
					x="18.331846"
					y="142.93558"
					fill="#3c3b6e"
					id="rect477"
					style="stroke-width:0.264583"/>
			<g
					transform="matrix(0.26458333,0,0,0.26458333,51.913556,147.86079)"
					id="g488">
				<g
						id="use486">
					<g
							transform="scale(0.115)"
							id="g888">
						<path
								d="m 0,-100 24,68 H 96 L 40,12 60,80 0,40 -60,80 -40,12 -96,-32 h 72 z"
								fill="#ffffff"
								id="path886"/>
					</g>
				</g>
			</g>
			<g
					transform="matrix(0.23427756,0.12295675,-0.12295675,0.23427756,60.780802,150.04651)"
					id="g492">
				<g
						id="use490">
					<g
							transform="scale(0.115)"
							id="g894">
						<path
								d="m 0,-100 24,68 H 96 L 40,12 60,80 0,40 -60,80 -40,12 -96,-32 h 72 z"
								fill="#ffffff"
								id="path892"/>
					</g>
				</g>
			</g>
			<g
					transform="matrix(0.150299,0.21774882,-0.21774882,0.150299,67.616577,156.10256)"
					id="g496">
				<g
						id="use494">
					<g
							transform="scale(0.115)"
							id="g900">
						<path
								d="m 0,-100 24,68 H 96 L 40,12 60,80 0,40 -60,80 -40,12 -96,-32 h 72 z"
								fill="#ffffff"
								id="path898"/>
					</g>
				</g>
			</g>
			<g
					transform="matrix(0.03189164,0.26265426,-0.26265426,0.03189164,70.855078,164.64146)"
					id="g500">
				<g
						id="use498">
					<g
							transform="scale(0.115)"
							id="g906">
						<path
								d="m 0,-100 24,68 H 96 L 40,12 60,80 0,40 -60,80 -40,12 -96,-32 h 72 z"
								fill="#ffffff"
								id="path904"/>
					</g>
				</g>
			</g>
			<g
					transform="matrix(-0.09382155,0.24739009,-0.24739009,-0.09382155,69.754146,173.70741)"
					id="g504">
				<g
						id="use502">
					<g
							transform="scale(0.115)"
							id="g912">
						<path
								d="m 0,-100 24,68 H 96 L 40,12 60,80 0,40 -60,80 -40,12 -96,-32 h 72 z"
								fill="#ffffff"
								id="path910"/>
					</g>
				</g>
			</g>
			<g
					transform="matrix(-0.19804488,0.17544961,-0.17544961,-0.19804488,64.566196,181.22343)"
					id="g508">
				<g
						id="use506">
					<g
							transform="scale(0.115)"
							id="g918">
						<path
								d="m 0,-100 24,68 H 96 L 40,12 60,80 0,40 -60,80 -40,12 -96,-32 h 72 z"
								fill="#ffffff"
								id="path916"/>
					</g>
				</g>
			</g>
			<g
					transform="matrix(-0.25689519,0.06331825,-0.06331825,-0.25689519,56.479735,185.4676)"
					id="g512">
				<g
						id="use510">
					<g
							transform="scale(0.115)"
							id="g924">
						<path
								d="m 0,-100 24,68 H 96 L 40,12 60,80 0,40 -60,80 -40,12 -96,-32 h 72 z"
								fill="#ffffff"
								id="path922"/>
					</g>
				</g>
			</g>
			<g
					transform="matrix(-0.25689519,-0.06331825,0.06331825,-0.25689519,47.347377,185.4676)"
					id="g516">
				<g
						id="use514">
					<g
							transform="scale(0.115)"
							id="g930">
						<path
								d="m 0,-100 24,68 H 96 L 40,12 60,80 0,40 -60,80 -40,12 -96,-32 h 72 z"
								fill="#ffffff"
								id="path928"/>
					</g>
				</g>
			</g>
			<g
					transform="matrix(-0.19804488,-0.17544961,0.17544961,-0.19804488,39.260917,181.22342)"
					id="g520">
				<g
						id="use518">
					<g
							transform="scale(0.115)"
							id="g936">
						<path
								d="m 0,-100 24,68 H 96 L 40,12 60,80 0,40 -60,80 -40,12 -96,-32 h 72 z"
								fill="#ffffff"
								id="path934"/>
					</g>
				</g>
			</g>
			<g
					transform="matrix(-0.09382155,-0.24739009,0.24739009,-0.09382155,34.072967,173.7074)"
					id="g524">
				<g
						id="use522">
					<g
							transform="scale(0.115)"
							id="g942">
						<path
								d="m 0,-100 24,68 H 96 L 40,12 60,80 0,40 -60,80 -40,12 -96,-32 h 72 z"
								fill="#ffffff"
								id="path940"/>
					</g>
				</g>
			</g>
			<g
					transform="matrix(0.03189164,-0.26265426,0.26265426,0.03189164,32.972035,164.64146)"
					id="g528">
				<g
						id="use526">
					<g
							transform="scale(0.115)"
							id="g948">
						<path
								d="m 0,-100 24,68 H 96 L 40,12 60,80 0,40 -60,80 -40,12 -96,-32 h 72 z"
								fill="#ffffff"
								id="path946"/>
					</g>
				</g>
			</g>
			<g
					transform="matrix(0.150299,-0.21774882,0.21774882,0.150299,36.210535,156.10256)"
					id="g532">
				<g
						id="use530">
					<g
							transform="scale(0.115)"
							id="g954">
						<path
								d="m 0,-100 24,68 H 96 L 40,12 60,80 0,40 -60,80 -40,12 -96,-32 h 72 z"
								fill="#ffffff"
								id="path952"/>
					</g>
				</g>
			</g>
			<g
					transform="matrix(0.23427756,-0.12295675,0.12295675,0.23427756,43.04631,150.04651)"
					id="g536">
				<g
						id="use534">
					<g
							transform="scale(0.115)"
							id="g960">
						<path
								d="m 0,-100 24,68 H 96 L 40,12 60,80 0,40 -60,80 -40,12 -96,-32 h 72 z"
								fill="#ffffff"
								id="path958"/>
					</g>
				</g>
			</g>
			<g
					transform="matrix(0.47704374,0,0,0.47704374,51.913556,167.70348)"
					id="g540">
				<path
						d="m 1.025e-4,-32.68865 7.045588,21.84644 22.9544115,-0.0502 L 11.400104,2.55926 18.54112,24.3747 1.015e-4,10.84185 -18.540919,24.3747 l 7.141018,-21.81544 -18.599997,-13.45168 22.9544105,0.0502 z"
						fill="#ffffff"
						id="path538"/>
			</g>
			<g
					transform="matrix(0.38152916,0,0,0.38152916,51.913556,167.70348)"
					id="g544">
				<path
						d="m 1.5e-6,-32.68905 -7.045585,21.8463 7.045635,10.84214 z m 7.045491,21.8463 L 5.15e-5,-6.1e-4 30.000001,-10.89267 Z M 5.15e-5,-6.1e-4 -30,-10.89267 -11.399799,2.55914 Z m 0,0 L -18.540928,24.3746 5.15e-5,10.84152 Z m 0,0 L 18.540928,24.3746 11.399903,2.55954 Z"
						fill="#3c3b6e"
						stroke="#ffffff"
						stroke-width="0.938"
						id="path542"/>
			</g>
			<g
					transform="matrix(0.38152916,0,0,0.38152916,51.913556,167.70348)"
					id="g548">
				<path
						d="m 1.025e-4,-32.68865 7.04558,21.8463 -7.04563,10.84214 z m -7.04549,21.8463 L 5.25e-5,-2.1e-4 -29.999897,-10.89227 Z M 5.25e-5,-2.1e-4 30.000103,-10.89227 11.399903,2.55954 Z m 0,0 L 18.541033,24.375 5.25e-5,10.84192 Z m 0,0 -18.5408795,24.37521 7.14103,-21.81506 z"
						fill="#b22234"
						stroke="#ffffff"
						stroke-width="0.938"
						id="path546"/>
			</g>
		</g>
		<path
				style="fill:#000000;fill-opacity:0.33333333;fill-rule:nonzero;stroke:none;stroke-width:1.74999988;stroke-linecap:round;stroke-linejoin:round;stroke-miterlimit:4;stroke-dasharray:none;stroke-dashoffset:0;stroke-opacity:1;paint-order:normal"
				d="m 16.000088,216.99972 c -8.8639991,0 -16.000056560368,7.13605 -16.000056560368,16.00005 v 48.00017 C 3.1439632e-5,289.86394 7.1360889,297 16.000088,297 h 95.999822 c 8.864,0 16.00006,-7.13606 16.00006,-16.00006 v -48.00017 c 0,-8.864 -7.13606,-16.00005 -16.00006,-16.00005 z m 0,4.00027 h 95.999822 c 6.648,0 12.0003,5.35178 12.0003,11.99978 v 48.00017 c 0,6.648 -5.3523,11.99979 -12.0003,11.99979 H 16.000088 c -6.648,0 -11.9997842,-5.35179 -11.9997842,-11.99979 v -48.00017 c 0,-6.648 5.3517842,-11.99978 11.9997842,-11.99978 z"
				id="rect815-8"/>
	</g>
</svg>
