<?xml version="1.0" encoding="UTF-8" standalone="no"?>
<svg
		xmlns="http://www.w3.org/2000/svg"
		version="1.1"
		viewBox="0 0 128 80"
		height="160px"
		width="256px">
	<defs>
		<clipPath
				id="mask903">
			<rect
					style="fill:#ffffff;fill-opacity:1;fill-rule:nonzero;stroke:none;stroke-width:1.74999976;stroke-linecap:round;stroke-linejoin:round;stroke-miterlimit:4;stroke-dasharray:none;stroke-dashoffset:0;stroke-opacity:1;paint-order:normal"
					id="rect905"
					width="158.75"
					height="99.21875"
					x="133.87091"
					y="201.23415"
					rx="19.84375"
					ry="19.84375"/>
		</clipPath>
	</defs>
	<g
			transform="translate(0,-217)"
			id="layer1">
		<g
				clip-path="url(#mask903)"
				style="stroke-width:1.24023438"
				transform="matrix(0.80629921,0,0,0.80629921,-107.94001,54.745069)"
				id="g856">
			<rect
					style="fill:#553322;stroke-width:0.32814533"
					width="158.75"
					height="99.21875"
					x="133.87096"
					y="201.23415"
					id="rect2"/>
			<polygon
					style="fill:#ffffff;stroke-width:1.24023438"
					points="85.714,85.5 85.714,256.5 257.143,171 "
					id="polygon4"
					transform="matrix(0.26458333,0,0,0.26458333,133.87096,205.5996)"/>
			<polygon
					style="fill:#ff77bb;stroke-width:1.24023438"
					points="107.143,117.563 107.143,245.813 235.714,181.688 "
					id="polygon6"
					transform="matrix(0.26458333,0,0,0.26458333,133.87096,205.5996)"/>
			<polygon
					style="fill:#ffffff;stroke-width:1.24023438"
					points="514.286,85.5 514.286,256.5 342.857,171 "
					id="polygon8"
					transform="matrix(0.26458333,0,0,0.26458333,133.87096,205.5996)"/>
			<polygon
					style="fill:#ff77bb;stroke-width:1.24023438"
					points="492.857,117.563 492.857,245.813 364.286,181.688 "
					id="polygon10"
					transform="matrix(0.26458333,0,0,0.26458333,133.87096,205.5996)"/>
		</g>
		<path
				id="rect815-8"
				d="m 16.000088,216.99972 c -8.8639991,0 -16.000056560368,7.13605 -16.000056560368,16.00005 v 48.00017 C 3.1439632e-5,289.86394 7.1360889,297 16.000088,297 h 95.999822 c 8.864,0 16.00006,-7.13606 16.00006,-16.00006 v -48.00017 c 0,-8.864 -7.13606,-16.00005 -16.00006,-16.00005 z m 0,4.00027 h 95.999822 c 6.648,0 12.0003,5.35178 12.0003,11.99978 v 48.00017 c 0,6.648 -5.3523,11.99979 -12.0003,11.99979 H 16.000088 c -6.648,0 -11.9997842,-5.35179 -11.9997842,-11.99979 v -48.00017 c 0,-6.648 5.3517842,-11.99978 11.9997842,-11.99978 z"
				style="fill:#000000;fill-opacity:0.33333333;fill-rule:nonzero;stroke:none;stroke-width:1.74999988;stroke-linecap:round;stroke-linejoin:round;stroke-miterlimit:4;stroke-dasharray:none;stroke-dashoffset:0;stroke-opacity:1;paint-order:normal"/>
	</g>
</svg>
