<?xml version="1.0" encoding="UTF-8" standalone="no"?>
<svg
		width="256px"
		height="160px"
		viewBox="0 0 128 80"
		version="1.1"
		xmlns="http://www.w3.org/2000/svg">
	<defs>
		<clipPath
				id="clipPath853">
			<rect
					style="fill:#ffffff;fill-opacity:1;fill-rule:nonzero;stroke:none;stroke-width:0.99999994;stroke-linecap:round;stroke-linejoin:round;stroke-miterlimit:4;stroke-dasharray:none;stroke-dashoffset:0;stroke-opacity:1;paint-order:markers stroke fill"
					id="rect855"
					width="128"
					height="80"
					x="-2.4715459e-06"
					y="216.99985"
					ry="16"/>
		</clipPath>
	</defs>
	<g
			id="layer1"
			transform="translate(0,-217)">
		<g
				id="g851"
				clip-path="url(#clipPath853)">
			<rect
					y="216.99986"
					x="1.3431513e-06"
					height="79.999985"
					width="127.99999"
					id="rect815"
					style="fill:#22aa55;fill-opacity:1;stroke:none;stroke-width:4.8241806;stroke-linecap:round;stroke-linejoin:miter;stroke-miterlimit:100;stroke-dasharray:none;stroke-opacity:1;paint-order:normal"/>
			<rect
					y="216.99986"
					x="1.3431513e-06"
					height="26.66666"
					width="127.99999"
					id="rect817-1"
					style="fill:#ffffff;fill-opacity:1;stroke:none;stroke-width:4.90563059;stroke-linecap:round;stroke-linejoin:miter;stroke-miterlimit:100;stroke-dasharray:none;stroke-opacity:1;paint-order:normal"/>
			<rect
					y="270.33319"
					x="1.4167209e-07"
					height="26.66666"
					width="127.99999"
					id="rect817-8"
					style="fill:#ffffff;fill-opacity:1;stroke:none;stroke-width:4.90563059;stroke-linecap:round;stroke-linejoin:miter;stroke-miterlimit:100;stroke-dasharray:none;stroke-opacity:1;paint-order:normal"/>
		</g>
		<path
				style="fill:#000000;fill-opacity:0.33333333;fill-rule:nonzero;stroke:none;stroke-width:1.74999988;stroke-linecap:round;stroke-linejoin:round;stroke-miterlimit:4;stroke-dasharray:none;stroke-dashoffset:0;stroke-opacity:1;paint-order:normal"
				d="m 16.000088,216.99972 c -8.8639991,0 -16.000056560368,7.13605 -16.000056560368,16.00005 v 48.00017 C 3.1439632e-5,289.86394 7.1360889,297 16.000088,297 h 95.999822 c 8.864,0 16.00006,-7.13606 16.00006,-16.00006 v -48.00017 c 0,-8.864 -7.13606,-16.00005 -16.00006,-16.00005 z m 0,4.00027 h 95.999822 c 6.648,0 12.0003,5.35178 12.0003,11.99978 v 48.00017 c 0,6.648 -5.3523,11.99979 -12.0003,11.99979 H 16.000088 c -6.648,0 -11.9997842,-5.35179 -11.9997842,-11.99979 v -48.00017 c 0,-6.648 5.3517842,-11.99978 11.9997842,-11.99978 z"
				id="rect815-8"/>
	</g>
</svg>
