<?xml version="1.0" encoding="UTF-8" standalone="no"?>
<svg
		xmlns="http://www.w3.org/2000/svg"
		version="1.1"
		viewBox="0 0 128 80"
		height="160px"
		width="256px">
	<defs
			id="defs2">
		<clipPath
				id="clipPath1034">
			<rect
					style="fill:#ffffff;fill-opacity:1;fill-rule:nonzero;stroke:none;stroke-width:1.74999988;stroke-linecap:round;stroke-linejoin:round;stroke-miterlimit:4;stroke-dasharray:none;stroke-dashoffset:0;stroke-opacity:1;paint-order:normal"
					id="rect1036"
					width="480.00003"
					height="300.00003"
					x="-6.0000002e-06"
					y="0"
					rx="60.000004"
					ry="60.000004"/>
		</clipPath>
	</defs>
	<g
			transform="translate(0,-217)"
			id="layer1">
		<g
				clip-path="url(#clipPath1034)"
				style="stroke-width:0.9921875"
				transform="matrix(0.26666666,0,0,0.26666666,1.32e-6,217)"
				id="g1032">
			<rect
					style="fill:#0000cc;stroke-width:0.9921875"
					width="480"
					height="42.856998"
					x="0"
					y="0"
					id="rect988"/>
			<rect
					style="fill:#ffffff;stroke-width:0.9921875"
					width="480"
					height="42.856998"
					x="0"
					y="42.856998"
					id="rect990"/>
			<rect
					style="fill:#0000cc;stroke-width:0.9921875"
					width="480"
					height="42.856998"
					x="0"
					y="85.713997"
					id="rect992"/>
			<rect
					style="fill:#ffffff;stroke-width:0.9921875"
					width="480"
					height="42.856998"
					x="0"
					y="128.571"
					id="rect994"/>
			<rect
					style="fill:#0000cc;stroke-width:0.9921875"
					width="480"
					height="42.856998"
					x="0"
					y="171.429"
					id="rect996"/>
			<rect
					style="fill:#ffffff;stroke-width:0.9921875"
					width="480"
					height="42.856998"
					x="0"
					y="214.286"
					id="rect998"/>
			<rect
					style="fill:#0000cc;stroke-width:0.9921875"
					width="480"
					height="42.856998"
					x="0"
					y="257.14301"
					id="rect1000"/>
			<rect
					style="fill:#cc0000;stroke-width:0.9921875"
					width="480"
					height="42.856998"
					x="0"
					y="85.713997"
					id="rect1002"/>
			<rect
					style="fill:#cc0000;stroke-width:0.9921875"
					width="480"
					height="42.856998"
					x="0"
					y="257.14301"
					id="rect1004"/>
			<rect
					style="fill:#00cc00;stroke-width:0.9921875"
					width="171.429"
					height="171.429"
					x="0"
					y="0"
					id="rect1006"/>
			<g
					style="stroke-width:0.9921875"
					transform="matrix(0.857,0,0,0.857,85.714,85.714)"
					id="g1010">
				<path
						style="fill:#ffffff;stroke-width:0.9921875"
						d="m -0.4979217,83.26601 c -0.145988,-0.4037 -1.237967,-2.04811 -2.426622,-3.65425 -3.449295,-4.66079 -4.365689,-6.62777 -4.376537,-9.39392 -0.0072,-1.76577 0.274004,-2.92395 1.111782,-4.58342 0.337642,-0.66879 0.541464,-1.21598 0.452931,-1.21595 -0.08853,1e-5 -0.87165,0.1338 -1.740276,0.29732 -8.2304073,1.5492 -13.0095363,-0.66068 -14.0921003,-6.51624 -0.124856,-0.67532 -0.227006,-1.26578 -0.227006,-1.31213 0,-0.0464 0.591532,0.45097 1.314512,1.10518 0.722978,0.65418 2.020995,1.53857 2.884486,1.96528 1.441057,0.71213 1.717848,0.77568 3.370782,0.7738 1.394326,-10e-4 2.023059,-0.10424 2.785393,-0.455 3.9089623,-1.7982 5.7490643,-7.34628 3.8103923,-11.48871 -0.795102,-1.69893 -1.897149,-2.94272 -3.1406943,-3.54465 -1.674122,-0.81036 -2.181779,-1.78637 -1.754465,-3.37314 0.359727,-1.3358 1.079507,-2.00676 2.308949,-2.15236 3.0819463,-0.36497 3.4291723,-1.37705 3.4448103,-10.04085 0.01,-5.52454 -0.124875,-7.10568 -1.16606,-13.67151 l -0.448445,-2.82796 -0.708217,0.82768 c -1.6324183,1.90784 -2.7843653,4.91142 -3.0630343,7.98656 l -0.05722,0.63166 -0.566893,-0.94749 c -0.311784,-0.52113 -0.686783,-1.39755 -0.833329,-1.94762 -0.146543,-0.55009 -0.331171,-1.00014 -0.41028,-1.00014 -0.07911,0 -2.230636,2.33466 -4.781159,5.18815 l -4.637319,5.18812 0.702256,1.26693 c 0.386236,0.69679 0.878541,1.503 1.094009,1.79157 0.369253,0.49451 0.437524,0.50956 1.188256,0.26183 1.574244,-0.51949 2.863562,0.17935 3.203478,1.73638 0.08097,0.37093 0.405484,1.05343 0.721128,1.51664 1.190229,1.74669 1.351641,3.76197 0.44381,5.54127 -0.540884,1.06012 -2.839561,3.51987 -2.651861,2.83768 0.826914,-3.00534 0.157558,-5.49427 -1.394142,-5.18395 -1.272162,0.2544 -2.315529,-0.63998 -2.907222,-2.49208 -0.135466,-0.42403 -0.360158,-0.8167 -0.499333,-0.8726 -0.139164,-0.056 -0.76173,-0.3042 -1.383468,-0.55175 l -1.130442,-0.45011 0.130204,0.95424 c 0.07163,0.52482 0.186696,1.36955 0.255722,1.87715 0.09562,0.70307 0.246203,0.97789 0.63221,1.15377 0.646815,0.29467 1.34623,1.43548 1.347241,2.1975 8.75e-4,0.66321 -0.438209,1.6204 -0.930879,2.02924 -0.221291,0.18364 -0.284588,0.45214 -0.194908,0.82688 0.355181,1.48415 1.018535,2.09221 2.916465,2.67331 l 0.842298,0.25792 -1.052871,0.46596 c -1.307335,0.57859 -3.432781,0.78747 -4.311123,0.42368 -0.912502,-0.37793 -1.866874,-1.55373 -2.164613,-2.66684 -0.174256,-0.65145 -0.458287,-1.0983 -0.890964,-1.40165 -0.349334,-0.24492 -0.750589,-0.59091 -0.891674,-0.76888 -0.421313,-0.53141 -0.306301,-1.5798 0.265781,-2.42271 0.534048,-0.7869 0.534924,-0.7958 0.282504,-2.87831 -0.139262,-1.14892 -0.312873,-2.06238 -0.385807,-2.0299 -0.0729,0.0325 -0.535154,0.49977 -1.027171,1.03842 -0.718883,0.78702 -0.931738,1.20773 -1.083855,2.14229 -0.363079,2.23063 -1.013458,2.98651 -2.432064,2.82663 -0.85103,-0.0959 -1.001266,-0.0444 -1.459579,0.50019 -0.708812,0.8423 -0.8576,2.11772 -0.436577,3.74237 0.189715,0.73204 0.30698,1.36891 0.260593,1.41529 -0.202955,0.20293 -2.318421,-2.32972 -2.787525,-3.33723 -0.827461,-1.77719 -0.658132,-3.33353 0.562899,-5.17377 0.330415,-0.49797 0.600758,-1.18961 0.600758,-1.53698 0,-1.4549 0.948061,-2.29507 2.589797,-2.29507 0.857675,0 0.927179,-0.0535 2.219917,-1.70777 0.733988,-0.93927 1.255,-1.77516 1.157815,-1.85752 -1.636152,-1.38657 -1.912757,-1.50765 -2.885252,-1.26278 -1.776799,0.44735 -3.082277,-0.44118 -3.082277,-2.09784 0,-0.77432 -0.652324,-1.28572 -1.640021,-1.28572 -0.830858,0 -1.311974,0.2323 -2.518846,1.21615 -0.492215,0.40126 -0.894937,0.66772 -0.894937,0.59213 0,-0.65903 1.432025,-3.62491 2.136748,-4.42545 1.403237,-1.594 2.666069,-1.96836 4.315462,-1.27926 0.443477,0.1853 1.068422,0.26898 1.519906,0.20355 0.438908,-0.0636 0.989137,0.005 1.286864,0.16217 0.705814,0.37082 1.415886,1.47331 1.581968,2.45622 0.130142,0.77024 0.22014,0.84971 1.804119,1.59295 0.916928,0.43025 1.750812,0.75016 1.853082,0.71093 0.19284,-0.074 10.560279,-12.10327 10.560279,-12.25304 0,-0.0465 -0.416648,0.004 -0.925879,0.11274 -0.509232,0.10862 -1.369037,0.16818 -1.91067,0.13238 l -0.98479,-0.0651 1.365624,-0.89555 c 2.206226,-1.44681 3.81776,-3.22978 4.892181,-5.41262 1.626562,-3.30457 1.858797,-4.54205 1.858789,-9.90452 0,-4.68455 -0.369126,-8.03303 -1.230167,-11.15938 l -0.289952,-1.05276 -0.01887,1.79523 c -0.07107,6.77837 -2.199454,13.56837 -6.046739,19.29062 -1.3945,2.07409 -1.677776,2.32759 -1.473179,1.31829 0.81585,-4.02475 0.863275,-4.57893 0.863275,-10.08671 0,-6.64968 -0.414792,-9.46548 -2.140145,-14.52826 -0.8003,-2.34834 -0.924337,-2.41804 -0.749404,-0.4211 0.285138,3.25507 0.149043,10.84517 -0.243513,13.58075 -1.02437,7.13849 -3.231402,13.30615 -6.541164,18.27965 -0.669171,1.00556 -1.258589,1.82828 -1.309819,1.82828 -0.05125,0 -0.0281,-2.15555 0.05141,-4.79011 0.298963,-9.90748 -0.786777,-22.54379 -2.766045,-32.1925 -0.305392,-1.48879 -0.572312,-2.72611 -0.593141,-2.7496 -0.02085,-0.0235 -0.04321,2.29785 -0.04966,5.15857 -0.008,3.37346 -0.136143,6.33377 -0.365585,8.42382 -1.47111,13.40078 -5.922023,25.62081 -13.115915,36.00994 -1.641117,2.37002 -3.46265,4.71836 -3.57373,4.60728 -0.04321,-0.0433 0.44584,-2.39229 1.08687,-5.22011 2.866205,-12.64386 4.477349,-23.02068 5.146251,-33.14519 0.38283,-5.79453 0.213929,-16.26987 -0.332087,-20.59665 l -0.128095,-1.01511 -0.605758,1.80247 c -1.93418,5.75526 -6.413075,11.28668 -13.57343,16.76313 -1.05494,0.80685 -1.976792,1.46699 -2.048572,1.46699 -0.07179,0 0.472184,-1.20804 1.208814,-2.68456 3.005245,-6.02381 3.845807,-9.83991 4.324757,-19.6342 0.244222,-4.9941 0.629927,-8.60698 1.232451,-11.54427 l 0.395972,-1.93038 -2.049855,1.96733 c -2.013904,1.93279 -4.939761,4.06676 -7.023559,5.12259 -1.751282,0.88735 -4.850162,1.92858 -7.11074,2.38922 -1.173095,0.23903 -2.170954,0.39654 -2.217472,0.35002 -0.04648,-0.0465 0.439313,-0.53208 1.079618,-1.07907 1.760578,-1.50395 4.965413,-5.3448 6.935767,-8.3122 2.283913,-3.43961 4.458409,-7.4804 6.977861,-12.96669 3.210501,-6.99109 3.919323,-8.48056 5.218238,-10.96524 2.245695,-4.29573 4.802489,-7.14562 7.299545,-8.13627 0.922147,-0.36584 1.587267,-0.45868 3.263912,-0.45557 3.798607,0.007 6.358608,1.22631 7.450204,3.54836 0.592297,1.25995 0.594997,1.68011 0.0087,1.3664 -0.240681,-0.1288 -0.574366,-0.18171 -0.741516,-0.11762 -0.225925,0.0868 -0.08971,0.33731 0.530849,0.97669 0.982889,1.0127 1.366897,2.02298 1.230126,3.23628 -0.218157,1.9353 -1.200434,3.22208 -4.265766,5.5882 -1.209053,0.93327 -2.304846,1.89594 -2.435091,2.13928 -0.369317,0.69 -0.07323,1.64843 1.067022,3.45401 1.389277,2.19988 1.40167,2.83393 0.103462,5.29485 -0.828195,1.56993 -0.947583,1.96083 -0.947583,3.10253 0,1.43008 0.219023,1.81099 1.042347,1.81279 1.584045,0.004 2.904679,0.86911 3.519135,2.30674 0.194067,0.45406 0.423595,2.18443 0.587602,4.42981 0.148017,2.0266 0.342201,3.85777 0.431506,4.06931 0.219066,0.51888 0.964626,0.77296 2.277036,0.77596 2.183744,0.005 4.048415,0.74186 5.254125,2.07631 0.721612,0.79865 0.941694,1.33476 1.348593,3.2851 0.206695,0.9907 0.791465,1.36612 2.135052,1.37071 0.805633,0.004 1.036316,-0.11862 2.054271,-1.08131 l 1.14673,-1.08442 1.039832,1.08442 c 1.003813,1.04684 1.07977,1.08442 2.192647,1.08442 1.970776,0 2.200179,-0.32242 1.377142,-1.93555 -1.421376,-2.78584 -1.688058,-5.66045 -0.702001,-7.56709 l 0.317084,-0.61311 -0.794306,0.42567 c -0.43688,0.23413 -1.016882,0.4257 -1.288901,0.4257 -0.447926,0 -0.388592,-0.11712 0.629121,-1.24162 0.618036,-0.68288 1.540367,-2.03306 2.04963,-3.00041 1.909462,-3.62698 3.076334,-5.08175 6.6433,-8.28238 1.0302823,-0.92446 2.4291753,-2.38037 3.1086523,-3.23533 l 1.235424,-1.55449 -0.06105,-1.60514 c -0.07434,-1.95496 -0.225161,-2.02974 -1.970135,-0.97717 -1.9818213,1.19545 -3.7878443,1.6561 -5.9589663,1.51988 -1.000135,-0.0627 -2.139278,-0.23115 -2.531437,-0.37423 l -0.713015,-0.26018 1.555314,-0.56933 c 3.683552,-1.34837 7.6074843,-3.92422 8.4280933,-5.53257 0.489663,-0.95974 0.477997,-2.80622 -0.02157,-3.40806 -0.151679,-0.18273 -0.949805,-0.68358 -1.773623,-1.11299 -1.0194203,-0.53134 -2.0575033,-1.33717 -3.2500313,-2.52289 -2.062057,-2.05025 -2.706309,-2.28248 -4.334373,-1.56238 -0.811904,0.3591 -1.06129,0.60972 -1.425086,1.43205 l -0.440961,0.99676 -0.479283,-0.94296 c -1.396195,-2.74694 -1.494739,-5.49649 -0.285021,-7.95352 0.840245,-1.70661 3.103138,-4.0165 5.030308,-5.13478 0.748392,-0.43426 1.461854,-0.78957 1.585454,-0.78957 0.123607,0 0.581075,0.4672 1.016601,1.03825 0.749412,0.98259 1.991868,1.92212 3.4003343,2.57125 0.559771,0.25799 0.648145,0.42689 0.781391,1.49349 0.234265,1.8752 1.008819,2.98697 2.693662,3.86633 1.153842,0.60223 5.001235,0.6605 7.649785,0.11586 1.926541,-0.39616 3.089541,-0.86948 3.089541,-1.25741 0,-0.09 -0.548612,-0.27688 -1.219142,-0.41536 -1.657789,-0.34238 -3.254599,-1.39186 -4.157527,-2.73249 -1.645391,-2.44302 -3.227693,-3.58361 -5.339243,-3.84871 -0.814799,-0.10236 -1.672951,-0.30559 -1.907018,-0.45176 -0.509409,-0.31809 -1.430848,-1.97826 -1.216798,-2.1923 0.08299,-0.083 1.374651,-0.19505 2.870361,-0.24906 3.235874,-0.11685 5.040792,0.23657 6.887712,1.34862 2.688314,1.61865 7.117294,2.41074 11.1780677,1.99909 1.317603,-0.13357 3.019078,-0.38742 3.781048,-0.56412 0.761971,-0.17669 1.434485,-0.27219 1.49447,-0.21221 0.138148,0.13814 -0.471604,1.10535 -1.170716,1.85707 -0.295054,0.31726 -0.472439,0.64084 -0.39418,0.7191 0.26762,0.26759 3.439928,0.33359 4.553763,0.0947 0.611724,-0.13119 1.723959,-0.48322 2.471627,-0.78231 0.747675,-0.29909 1.411491,-0.49172 1.475146,-0.42805 0.06367,0.0636 -0.232102,0.58954 -0.657251,1.16864 -0.818858,1.1154 -2.658227,2.60899 -4.489136,3.64524 -0.60804,0.34413 -1.105525,0.67625 -1.105525,0.73807 0,0.27422 2.738491,-0.2266 3.749984,-0.68581 l 1.117797,-0.50747 -0.134422,0.46771 c -0.905379,3.15029 -4.188289,6.27932 -8.367282,7.97506 l -1.525166,0.6189 1.895176,-0.0876 c 1.71288,-0.0792 3.174225,-0.4428 5.211735,-1.29677 0.249332,-0.10449 0.368507,-0.0589 0.368507,0.14116 0,0.16286 -0.780244,0.66833 -1.737243,1.12547 -7.434081,3.55107 -10.2543557,8.17316 -8.903884,14.59241 0.626965,2.98021 1.266092,4.16245 3.376106,6.24503 1.855287,1.83116 2.444584,2.66879 4.396633,6.24933 0.421766,0.77361 1.249196,1.93431 1.83874,2.57929 0.979236,1.07134 1.028851,1.17273 0.573865,1.17273 -0.273924,0 -0.855485,-0.19157 -1.292356,-0.4257 l -0.794306,-0.42567 0.317083,0.61311 c 0.986058,1.90664 0.719375,4.78124 -0.702,7.56709 -0.823037,1.61313 -0.593635,1.93555 1.377142,1.93555 1.112878,0 1.188836,-0.0376 2.192649,-1.08442 l 1.039833,-1.08442 1.146728,1.08442 c 1.017955,0.96264 1.24864,1.08407 2.054271,1.0813 1.343588,-0.005 1.928357,-0.38001 2.135053,-1.37071 0.406899,-1.95033 0.626981,-2.48644 1.348593,-3.28509 1.20571,-1.33446 3.07038,-2.07133 5.254124,-2.07631 1.312412,-0.004 2.057972,-0.25708 2.277036,-0.77596 0.0893,-0.21154 0.283483,-2.04271 0.431508,-4.06931 0.164005,-2.24538 0.393536,-3.97575 0.587601,-4.42981 0.61159,-1.4309 1.913903,-2.2896 3.508604,-2.31345 0.969408,-0.0145 1.263451,-0.44329 1.263451,-1.84249 0,-0.70136 -0.07108,-1.30678 -0.157925,-1.34539 -0.08686,-0.0386 -0.560662,-0.83992 -1.052878,-1.78072 -1.200553,-2.29465 -1.20688,-3.11074 -0.03813,-4.91882 0.471237,-0.72903 0.988691,-1.4574 1.149887,-1.61856 0.377905,-0.37789 0.612418,-1.62631 0.382458,-2.03599 -0.09796,-0.17452 -1.23854,-1.13139 -2.534622,-2.12638 -3.227994,-2.47813 -4.21569,-3.75057 -4.43731,-5.7166 -0.13677,-1.21331 0.247239,-2.22358 1.230128,-3.23628 0.620558,-0.63938 0.756773,-0.89 0.530848,-0.97669 -0.16715,-0.0641 -0.500836,-0.0112 -0.741516,0.11762 -0.586241,0.3137 -0.583551,-0.10649 0.0088,-1.3664 0.997278,-2.1214 3.171153,-3.27529 6.728346,-3.5714 5.206204,-0.4334 8.32498,2.20075 12.462891,10.52628 0.863348,1.73707 2.360197,4.91119 3.326341,7.05357 5.064809,11.23111 8.274332,16.41765 13.327992,21.53787 3.24762,3.29042 3.30204,3.09 -0.59944,2.20753 -5.046073,-1.14136 -9.15775,-3.40585 -13.162177,-7.24901 l -2.049854,-1.96732 0.395971,1.93037 c 0.602533,2.9373 0.98823,6.55018 1.232452,11.54428 0.478957,9.79429 1.319512,13.61038 4.324758,19.6342 0.73663,1.47652 1.280593,2.68456 1.208813,2.68456 -0.255945,0 -4.00293,-2.9662 -6.12064,-4.84521 -2.510777,-2.2278 -4.609203,-4.60825 -6.388253,-7.24679 -1.585285,-2.35119 -2.341542,-3.84231 -3.113102,-6.13813 l -0.605763,-1.80247 -0.128097,1.01512 c -0.546017,4.32678 -0.714918,14.80212 -0.332086,20.59665 0.6689,10.12451 2.280053,20.50133 5.146259,33.14519 0.641029,2.82782 1.130118,5.17687 1.086869,5.22011 -0.111087,0.11111 -1.932613,-2.23726 -3.573738,-4.60728 -2.621817,-3.78633 -5.936109,-9.77985 -7.239552,-13.09191 -0.18918,-0.4807 -0.424328,-0.9287 -0.522555,-0.99553 -0.291513,-0.19834 -2.241565,-5.72705 -3.030435,-8.59175 -2.127802,-7.72691 -3.269293,-17.15647 -2.92144,-24.13321 0.08084,-1.62128 0.09914,-2.90038 0.04066,-2.84248 -0.175688,0.17397 -1.181825,5.29484 -1.731543,8.81293 -1.252809,8.01777 -1.929279,18.46398 -1.696088,26.19173 0.07951,2.63456 0.102625,4.79011 0.05141,4.79011 -0.05125,0 -0.640638,-0.82273 -1.309818,-1.82828 -3.309763,-4.9735 -5.516795,-11.14118 -6.541165,-18.27965 -0.392556,-2.7356 -0.528658,-10.3257 -0.243512,-13.58076 0.174925,-1.99694 0.05085,-1.92724 -0.749412,0.42111 -1.725352,5.06277 -2.140146,7.87857 -2.140146,14.52824 0,5.50779 0.04744,6.06197 0.863276,10.08671 0.204604,1.00932 -0.07864,0.75582 -1.473171,-1.31828 -3.847288,-5.72225 -5.975655,-12.51226 -6.04675,-19.29062 l -0.01879,-1.79524 -0.289451,1.05277 c -0.159192,0.57904 -0.402722,1.76339 -0.541172,2.63193 -0.13845,0.86854 -0.32057,1.62652 -0.404702,1.68444 -0.259701,0.17873 -0.622198,4.30017 -0.622198,7.07413 0,2.53964 0.317514,5.55139 0.60827,5.76968 0.07713,0.058 0.313559,0.67377 0.525413,1.3686 1.006479,3.30094 3.071288,6.05686 5.9547,7.94774 l 1.365617,0.89556 -0.984783,0.0651 c -0.54164,0.0358 -1.401431,-0.0237 -1.91068,-0.13239 -0.509231,-0.10862 -0.92588,-0.15934 -0.92588,-0.11274 0,0.14977 10.367442,12.17905 10.560282,12.25303 0.102275,0.0393 0.936155,-0.28069 1.853083,-0.71093 1.58398,-0.74325 1.673977,-0.82271 1.804119,-1.59296 0.166075,-0.98291 0.876162,-2.0854 1.581967,-2.45622 0.297729,-0.15644 0.847957,-0.22577 1.286874,-0.16216 0.451484,0.0654 1.07642,-0.0184 1.519896,-0.20356 0.950976,-0.3973 2.092132,-0.4023 2.846079,-0.0125 0.646546,0.3343 1.953259,1.70322 2.356831,2.469 0.142708,0.27081 0.325958,0.53976 0.407226,0.59765 0.141092,0.10049 1.052655,2.40888 1.052655,2.66562 0,0.0677 -0.152235,-0.004 -0.338319,-0.1576 C 42.74759,27.81947 42.43201,27.59468 42.232365,27.47435 42.03272,27.354 41.545343,27.04275 41.1493,26.78262 c -1.372159,-0.90126 -3.14169,-0.44436 -3.14169,0.8112 0,1.65666 -1.305481,2.54518 -3.082279,2.09783 -0.972486,-0.24486 -1.2491,-0.12386 -2.885251,1.26277 -0.09719,0.0824 0.423827,0.91825 1.157815,1.85754 1.292739,1.65428 1.362242,1.70775 2.219907,1.70775 1.641747,0 2.589808,0.84017 2.589808,2.29508 0,0.34737 0.270343,1.039 0.600765,1.53698 1.221032,1.84024 1.390345,3.39658 0.562883,5.17378 -0.469097,1.0075 -2.584571,3.54016 -2.787518,3.33722 -0.0464,-0.0464 0.07091,-0.68326 0.260592,-1.41529 0.421027,-1.62465 0.272246,-2.90007 -0.436576,-3.74237 -0.458312,-0.54463 -0.608557,-0.59611 -1.459577,-0.5002 -1.418607,0.15988 -2.068988,-0.596 -2.432066,-2.82662 -0.152115,-0.93456 -0.364972,-1.35528 -1.083861,-2.14229 -0.49201,-0.53865 -0.954238,-1.00592 -1.027164,-1.03841 -0.0729,-0.0325 -0.246546,0.88096 -0.385807,2.0299 -0.252413,2.0825 -0.251545,2.0914 0.282502,2.8783 0.572083,0.84292 0.687095,1.89129 0.265791,2.42272 -0.141092,0.17795 -0.542348,0.52395 -0.891673,0.76887 -0.432678,0.30336 -0.716718,0.7502 -0.890974,1.40166 -0.297745,1.1131 -1.252109,2.28891 -2.164619,2.66683 -0.878343,0.36378 -3.003773,0.1549 -4.311117,-0.42369 l -1.05287,-0.46596 0.842307,-0.2579 c 1.897921,-0.58112 2.561274,-1.18916 2.916449,-2.67332 0.0897,-0.37474 0.02643,-0.64324 -0.194902,-0.82689 -0.49267,-0.40883 -0.93177,-1.36603 -0.930879,-2.02923 7.97e-4,-0.76202 0.700426,-1.90284 1.347241,-2.19751 0.386007,-0.17586 0.536602,-0.45068 0.632211,-1.15376 0.069,-0.5076 0.184101,-1.35232 0.255714,-1.87715 l 0.130213,-0.95425 -1.130443,0.45012 c -0.62173,0.24756 -1.244303,0.49585 -1.383469,0.55176 -0.139175,0.056 -0.363874,0.44856 -0.499332,0.87258 -0.591693,1.85212 -1.63506,2.74649 -2.907226,2.49209 -1.5517,-0.31032 -2.221054,2.17861 -1.394133,5.18395 0.187699,0.68219 -2.110985,-1.77756 -2.651869,-2.83767 -0.90783,-1.77932 -0.746418,-3.79459 0.443803,-5.54129 0.315652,-0.46321 0.640162,-1.14569 0.721142,-1.51663 0.33991,-1.55703 1.629227,-2.25587 3.203482,-1.73637 0.750725,0.24773 0.819003,0.23268 1.188249,-0.26185 0.215466,-0.28855 0.707771,-1.09477 1.094009,-1.79157 l 0.702255,-1.26691 -4.637313,-5.18813 c -2.55053,-2.85349 -4.749428,-5.18814 -4.886454,-5.18814 -0.137018,0 -0.369023,0.45005 -0.515568,1.00012 -0.146544,0.55009 -0.521544,1.42651 -0.833336,1.94764 l -0.566885,0.94748 -0.05722,-0.63165 c -0.278699,-3.07511 -1.430648,-6.0787 -3.0630647,-7.98653 l -0.708217,-0.82769 -0.448451,2.82796 c -1.041179,6.56584 -1.17604,8.14698 -1.16606,13.67151 0.01568,8.6638 0.362864,9.67588 3.4448057,10.04085 1.229452,0.1456 1.949224,0.81656 2.308959,2.15237 0.427305,1.58676 -0.08035,2.56277 -1.754465,3.37313 -1.2435537,0.60193 -2.3455927,1.84572 -3.1407027,3.54465 -1.938646,4.14238 -0.09986,9.68697 3.8103987,11.48971 0.777698,0.35855 1.385093,0.45415 2.890672,0.455 1.77324,7.9e-4 2.015536,-0.053 3.476078,-0.7748 0.863499,-0.42671 2.161506,-1.3111 2.884487,-1.96528 0.722981,-0.6542 1.314522,-1.15153 1.314522,-1.10518 0,0.0464 -0.102163,0.63682 -0.227015,1.31213 -0.522524,2.82631 -2.150907,5.0849 -4.390704,6.08995 -2.278914,1.02262 -5.913435,1.17892 -9.9119787,0.42629 -0.868617,-0.16352 -1.651741,-0.29731 -1.740275,-0.29732 -0.08853,-2e-5 0.115288,0.54716 0.452933,1.21596 0.837776,1.65946 1.118712,2.81764 1.11178,4.58341 -0.01087,2.76615 -0.927241,4.73313 -4.376523,9.39392 -1.188654,1.60614 -2.280641,3.25056 -2.426629,3.65425 C 0.1389303,83.66971 -0.0372037,84 -0.1064847,84 c -0.06924,0 -0.245417,-0.33029 -0.39141,-0.73397 z m -2.419204,-9.27522 c 0.06836,-0.17802 -0.02936,-0.87118 -0.217185,-1.54034 -0.44046,-1.56965 -0.436363,-3.45656 0.01025,-4.7025 0.289627,-0.80801 0.304892,-1.04566 0.08423,-1.31153 -0.651875,-0.7854 -1.600796,0.76784 -1.834402,3.0026 -0.134447,1.28623 0.317665,3.53252 0.885363,4.39884 0.359647,0.54885 0.89075,0.62463 1.071772,0.15293 z m 6.693003,-0.15293 c 0.567695,-0.86632 1.019803,-3.11261 0.885348,-4.39884 -0.233592,-2.23476 -1.182521,-3.788 -1.834398,-3.0026 -0.220663,0.26587 -0.205407,0.50352 0.08422,1.31153 0.446596,1.24594 0.450703,3.13285 0.01025,4.7025 -0.187773,0.66916 -0.285505,1.36232 -0.21718,1.54034 0.181021,0.4717 0.712126,0.39592 1.07178,-0.15293 z M -7.9253007,62.20663 c 2.312533,-1.10813 4.557536,-3.60281 4.16431,-4.62743 -0.252204,-0.65717 -0.914842,-0.32521 -1.694482,0.84892 -0.835324,1.25796 -2.708583,2.64253 -4.165901,3.0791 -0.9298923,0.27857 -1.3244233,0.66264 -1.1493553,1.11882 0.198572,0.5174 1.1978233,0.37011 2.8454283,-0.41941 z m 18.4829927,0.41941 c 0.175076,-0.45618 -0.219462,-0.84025 -1.1493537,-1.11882 -1.457317,-0.43657 -3.330567,-1.82114 -4.165893,-3.0791 -0.779643,-1.17413 -1.442278,-1.50609 -1.694485,-0.84892 -0.393226,1.02462 1.851773,3.5193 4.164314,4.62743 1.647603,0.78952 2.6468557,0.93681 2.8454177,0.41941 z M -23.690926,46.61299 c 0,-0.0654 -0.286412,-0.35983 -0.63647,-0.65437 -0.803339,-0.67589 -1.09989,-1.21798 -1.247175,-2.27979 -0.107068,-0.77192 -0.175188,-0.84781 -0.816088,-0.90931 -1.024976,-0.0984 -1.764191,0.44897 -1.592314,1.17894 0.223576,0.94956 0.98904,2.17231 1.551532,2.47841 0.510268,0.27769 2.740515,0.42916 2.740515,0.18612 z m 50.076952,-0.1763 c 0.595616,-0.30799 1.363158,-1.50574 1.594494,-2.48823 0.171877,-0.72997 -0.567339,-1.27728 -1.592314,-1.17894 -0.640901,0.0615 -0.709029,0.13739 -0.816098,0.90931 -0.147276,1.06181 -0.443835,1.6039 -1.247166,2.27979 -0.350058,0.29454 -0.636469,0.58899 -0.636469,0.65437 0,0.24692 2.150938,0.10637 2.697553,-0.1763 z m -63.105782,-5.45467 c 0.746156,-0.92841 0.70525,-1.53836 -0.161284,-2.40481 l -0.538489,-0.53842 -0.647952,0.99599 c -0.887362,1.364 -1.006106,2.80938 -0.346142,4.21326 l 0.483358,1.02819 0.283045,-1.24619 c 0.172187,-0.75808 0.535462,-1.56027 0.927464,-2.04802 z m 75.348128,1.79951 c 0.418965,-1.04769 0.18442,-2.59733 -0.56823,-3.75428 l -0.643066,-0.98846 -0.538489,0.53842 c -0.872724,0.87265 -0.911898,1.4879 -0.153334,2.4081 0.42152,0.51131 0.743554,1.22318 0.90339,1.99696 0.268766,1.30111 0.410544,1.27266 0.999729,-0.20074 z m -66.77388,-0.44059 c 0.764702,-0.53412 1.524491,-0.68822 2.298684,-0.46619 0.514478,0.14752 0.720705,0.10986 0.982388,-0.17922 0.736798,-0.81407 0.260578,-2.04024 -1.05501,-2.71646 -0.366818,-0.18854 -0.478878,-0.55283 -0.684374,-2.22483 -0.320632,-2.60876 -0.313829,-3.2873 0.03295,-3.2873 0.153284,0 1.108851,0.35956 2.123471,0.79898 1.842888,0.79817 1.845148,0.8001 2.21601,1.8955 0.446693,1.31935 0.963851,1.93772 1.620567,1.93772 0.383198,0 0.582895,-0.22069 0.930232,-1.028 0.243258,-0.56543 0.719685,-1.29377 1.058727,-1.61855 0.729905,-0.69923 0.769158,-1.10307 0.18001,-1.85196 -0.480484,-0.61078 -0.904997,-0.67449 -2.102872,-0.31565 l -0.798277,0.23916 -1.805696,-1.65243 c -0.993131,-0.90883 -1.805696,-1.80359 -1.805696,-1.98834 0,-0.18476 2.347726,-2.95806 5.217167,-6.16288 l 5.217173,-5.82697 0.240888,-1.52965 c 0.13249,-0.84132 0.218522,-1.55202 0.191192,-1.57936 -0.0273,-0.0272 -0.374451,0.0435 -0.771377,0.15726 -0.396919,0.11386 -0.974539,0.20695 -1.283594,0.20695 -0.47602,0 -1.433202,1.01157 -6.261476,6.61724 -3.134757,3.63949 -5.785243,6.6702 -5.889964,6.73491 -0.217496,0.13441 -4.27527,-1.70895 -4.481662,-2.03592 -0.07457,-0.11823 -0.19413,-0.58055 -0.265599,-1.02744 -0.07186,-0.44953 -0.395081,-1.10925 -0.723419,-1.47668 -0.485396,-0.5432 -0.695872,-0.63844 -1.155776,-0.52303 -0.422753,0.10612 -0.562309,0.27245 -0.562309,0.67026 0,0.76649 -0.483439,1.80502 -1.122145,2.41059 -0.670786,0.63601 -0.729911,1.517 -0.141306,2.10556 0.488936,0.48887 0.717806,0.5091 1.970609,0.17405 0.920228,-0.24609 0.929102,-0.24313 2.309684,0.77046 0.762247,0.55961 1.432318,1.13844 1.489056,1.28629 0.05675,0.14784 -0.624754,1.22237 -1.514429,2.38786 l -1.617591,2.11907 h -1.061236 c -2.086232,0 -2.616612,1.13269 -1.18216,2.52464 0.50429,0.48935 0.888244,1.10216 1.00698,1.60716 0.153429,0.6526 0.298278,0.82877 0.722574,0.87883 0.769945,0.0909 1.211495,-0.52756 1.511126,-2.11634 0.233249,-1.23677 0.406134,-1.55405 1.624604,-2.9814 1.227628,-1.43806 2.110912,-2.00622 2.110912,-1.35777 0,0.13174 0.153398,1.44979 0.34089,2.929 l 0.340881,2.68944 -0.551462,0.72294 c -0.680861,0.89258 -0.712458,1.7046 -0.08346,2.14513 0.576834,0.40399 0.51104,0.40747 1.184095,-0.0626 z m 57.472648,0.0626 c 0.629011,-0.44054 0.597415,-1.25256 -0.08346,-2.14513 l -0.551461,-0.72294 0.340889,-2.68944 c 0.187485,-1.47921 0.34089,-2.79726 0.34089,-2.929 0,-0.64845 0.883285,-0.0803 2.110905,1.35777 1.218468,1.42735 1.391364,1.74463 1.624603,2.9814 0.29963,1.58878 0.741181,2.20717 1.511134,2.11634 0.424297,-0.0501 0.569138,-0.22623 0.722575,-0.87884 0.118725,-0.505 0.502682,-1.1178 1.00698,-1.60715 1.434451,-1.39196 0.904065,-2.52465 -1.182168,-2.52465 h -1.061235 l -1.617583,-2.11906 c -0.889676,-1.16549 -1.571167,-2.24002 -1.51443,-2.38786 0.05675,-0.14785 0.726809,-0.72668 1.489058,-1.2863 1.380579,-1.01358 1.389445,-1.01655 2.309675,-0.77045 1.252801,0.33504 1.481679,0.31482 1.970609,-0.17406 0.588613,-0.58855 0.529486,-1.46955 -0.1413,-2.10555 -0.638705,-0.60558 -1.122151,-1.6441 -1.122151,-2.4106 0,-0.39781 -0.139557,-0.56416 -0.562302,-0.67025 -0.459911,-0.11536 -0.670388,-0.0203 -1.155783,0.52303 -0.328339,0.36743 -0.651519,1.02715 -0.723411,1.47668 -0.07147,0.44689 -0.190986,0.90924 -0.265607,1.02744 -0.206386,0.32697 -4.264159,2.17033 -4.481664,2.03591 -0.104725,-0.0648 -2.74349,-3.08181 -5.863939,-6.70468 l -5.673533,-6.58703 -1.007705,-0.13009 c -0.554239,-0.0715 -1.220912,-0.19096 -1.481497,-0.26535 -0.351729,-0.10036 -0.473791,-0.0475 -0.473791,0.20517 0,0.18723 0.09005,0.3404 0.200115,0.3404 0.110062,0 0.263362,0.55895 0.340657,1.2421 l 0.140544,1.24209 5.239583,5.85199 c 2.881765,3.21859 5.239583,6.00315 5.239583,6.18791 0,0.18474 -0.812564,1.0795 -1.805695,1.98834 l -1.805696,1.65243 -0.798278,-0.23916 c -1.197879,-0.35885 -1.622398,-0.29513 -2.102875,0.31565 -0.589147,0.74889 -0.549894,1.15272 0.180011,1.85195 0.339043,0.32479 0.815469,1.05313 1.058728,1.61856 0.347335,0.8073 0.547036,1.028 0.930233,1.028 0.656717,0 1.173876,-0.61837 1.620568,-1.93773 0.370861,-1.0954 0.373121,-1.09732 2.216009,-1.89549 1.01462,-0.43943 1.970179,-0.79898 2.123464,-0.79898 0.346794,0 0.353607,0.67854 0.03295,3.2873 -0.205494,1.67199 -0.317554,2.03629 -0.684371,2.22483 -1.315589,0.67622 -1.791808,1.90239 -1.055012,2.71646 0.261684,0.28912 0.46791,0.32674 0.982379,0.17921 0.776336,-0.22264 1.547412,-0.0666 2.266189,0.4586 0.647054,0.47279 0.642199,0.4725 1.21659,0.0702 z m -46.063418,-1.83041 c 0.671329,-1.47882 0.48215,-3.1969 -0.492661,-4.47427 -0.319303,-0.41841 -0.324749,-0.41794 -0.847844,0.0735 -0.289563,0.272 -0.637965,0.76367 -0.77422,1.09259 -0.224317,0.5415 -0.183815,0.67756 0.428556,1.4395 0.462179,0.57507 0.710596,1.14575 0.784637,1.80254 0.05961,0.52859 0.195403,0.96106 0.301819,0.96106 0.106416,0 0.376289,-0.40268 0.599713,-0.89485 z m 34.371633,-0.0662 c 0.07401,-0.65679 0.322457,-1.22748 0.784637,-1.80254 0.61237,-0.76193 0.652871,-0.89801 0.428555,-1.4395 -0.136254,-0.32893 -0.484657,-0.8206 -0.774219,-1.09259 -0.523097,-0.49137 -0.52854,-0.49185 -0.847845,-0.0735 -0.568,0.74428 -0.90826,1.75274 -0.903517,2.6778 0.0047,0.92811 0.666832,2.69133 1.010569,2.69133 0.106413,0 0.24224,-0.43248 0.30182,-0.96106 z m -54.43804,-15.16271 c 0.64094,-1.12542 0.6211,-1.85076 -0.05905,-2.16065 -0.738786,-0.33659 -1.681943,-0.30585 -2.426318,0.079 -0.571772,0.29564 -1.880564,1.8371 -1.880564,2.21488 0,0.0875 0.544865,0.10974 1.210804,0.0495 1.017121,-0.092 1.295023,-0.0395 1.737243,0.32832 0.672052,0.55894 0.843785,0.49705 1.417922,-0.51109 z m 75.017329,0.51205 c 0.514104,-0.38005 0.796998,-0.43262 1.781359,-0.33103 0.643608,0.0665 1.170198,0.0471 1.170198,-0.043 0,-0.38165 -1.30513,-1.92211 -1.880564,-2.21965 -1.236924,-0.63957 -2.962658,-0.25026 -2.962658,0.66836 0,0.64831 0.867257,2.37713 1.192474,2.37713 0.04839,0 0.363046,-0.20332 0.699191,-0.45181 z M -45.220865,13.41164 c 0.24251,-0.30271 1.509647,-5.53162 2.130253,-8.79066 0.595401,-3.12666 1.223315,-7.81165 1.515122,-11.30472 0.367831,-4.40309 0.143823,-14.42762 -0.413791,-18.51751 -0.520836,-3.8202 -1.652339,-9.54857 -1.959082,-9.91814 -0.298822,-0.36002 -0.938801,-0.33475 -1.083688,0.0429 -0.06494,0.16927 0.111275,1.32995 0.391609,2.5793 1.382862,6.16276 1.891499,11.16742 1.889311,18.5895 -0.0024,8.86962 -0.922109,16.18589 -3.139001,24.9765 -0.320594,1.27125 -0.419545,2.03666 -0.292612,2.26345 0.228497,0.40828 0.669284,0.4447 0.961879,0.0795 z m 91.611734,-0.0795 c 0.126926,-0.22679 0.02801,-0.9922 -0.292619,-2.26347 -2.216893,-8.79061 -3.136389,-16.10686 -3.139,-24.97648 -0.0024,-7.4221 0.506455,-12.42675 1.88931,-18.5895 0.280347,-1.24936 0.45657,-2.41004 0.391619,-2.5793 -0.144898,-0.37755 -0.784868,-0.40281 -1.083695,-0.0427 -0.237879,0.28661 -1.422316,5.91543 -1.647047,7.82733 -0.07576,0.64465 -0.203784,1.1721 -0.284461,1.1721 -0.333424,0 -0.698681,4.91161 -0.793049,10.66407 -0.07824,4.76932 -0.02078,6.99834 0.257831,10.00118 0.197187,2.12523 0.431508,3.9115 0.520718,3.96948 0.08921,0.058 0.230079,0.6739 0.313041,1.36873 0.414547,3.47199 2.453052,12.96342 2.905467,13.52811 0.292595,0.36522 0.733382,0.3288 0.961885,-0.0795 z M -28.533439,-2.01233 c 0.384564,-0.46333 0.161123,-9.38324 -0.311165,-12.42187 -0.421041,-2.70885 -1.411483,-6.69194 -1.94795,-7.83369 -0.392628,-0.83564 -1.168892,-1.18421 -1.384733,-0.62181 -0.06431,0.16763 0.164275,1.17925 0.508014,2.24803 1.333241,4.14548 1.865577,7.8259 1.994207,13.78745 0.055,2.5477 0.141673,4.75063 0.192672,4.89538 0.12668,0.35957 0.629641,0.33122 0.948955,-0.0535 z m 58.013379,0.0535 c 0.05101,-0.14474 0.137701,-2.34767 0.192665,-4.89537 0.128629,-5.96153 0.660965,-9.64196 1.994214,-13.78744 0.343739,-1.0688 0.572345,-2.0804 0.508015,-2.24802 -0.215841,-0.5624 -0.992105,-0.21384 -1.384734,0.6218 -0.536468,1.14173 -1.526916,5.12484 -1.94795,7.8337 -0.472288,3.0386 -0.69573,11.95852 -0.311164,12.42185 0.319314,0.38471 0.822274,0.41306 0.948954,0.0535 z m -36.6298997,-11.2405 c 0.347216,-3.24193 -0.386605,-6.79811 -2.642288,-12.80471 -1.5573363,-4.14699 -2.0061213,-5.88428 -1.8016303,-6.97421 0.157925,-0.84173 0.976348,-1.87442 1.8390433,-2.32048 0.447807,-0.23156 0.601474,-0.44849 0.554,-0.78203 -0.147689,-1.03767 -1.6991433,-0.42051 -2.9941993,1.19109 -0.624982,0.77773 -0.650666,0.88823 -0.63607,2.73719 0.01418,1.79173 0.09272,2.13332 1.121363,4.87452 2.8246553,7.52726 3.1802203,8.97212 3.1802203,12.92267 0,2.82756 0.09914,3.13659 0.878007,2.73682 0.247876,-0.12721 0.395813,-0.5935 0.501554,-1.58086 z m 15.466446,-1.16094 c 0,-3.94495 0.356409,-5.39265 3.1802187,-12.91769 1.028644,-2.7412 1.107227,-3.08279 1.12137,-4.87452 0.01456,-1.84896 -0.011,-1.95946 -0.63607,-2.73719 -1.295063,-1.6116 -2.8465167,-2.22876 -2.9942067,-1.19109 -0.04751,0.33354 0.106188,0.55047 0.554,0.78203 0.8626967,0.44606 1.6811177,1.47875 1.8390427,2.32048 0.204611,1.09054 -0.244445,2.82765 -1.8056637,6.98496 -2.121865,5.65023 -2.614193,7.75508 -2.621491,11.20766 -0.0056,2.49047 0.03789,2.83885 0.383038,3.0912 0.838525,0.61308 0.979762,0.2288 0.979762,-2.66584 z m -62.3214803,-9.20288 c 0.0048,-0.19027 0.0016,-2.00411 -0.008,-4.03078 -0.01711,-3.75557 0.168359,-6.12091 0.759319,-9.68536 0.378422,-2.28251 1.545437,-7.42696 2.158085,-9.51327 0.35165,-1.19753 0.370791,-1.46388 0.128566,-1.78971 -0.555981,-0.74787 -1.001505,-0.0837 -1.734474,2.5854 -1.84115,6.70473 -2.639866,12.11795 -2.663504,18.05156 -0.01608,4.03359 0.01377,4.4088 0.371499,4.67038 0.465889,0.34063 0.976379,0.1918 0.988515,-0.28822 z m 109.600286,-2.02753 c 0.356655,-5.23205 -0.674783,-13.0654 -2.686928,-20.40619 -0.731671,-2.6693 -1.176995,-3.33359 -1.733215,-2.5854 -0.242225,0.32583 -0.223092,0.59218 0.128565,1.78971 0.612649,2.08631 1.779663,7.23076 2.158085,9.51327 0.600137,3.61981 0.773614,5.92404 0.750359,9.96652 -0.02396,4.16618 0.06016,4.56435 0.872795,4.12949 0.287215,-0.1537 0.389653,-0.63692 0.510339,-2.4074 z m -108.766727,-35.5607 c 3.813352,-7.56696 5.471446,-9.65081 7.749165,-9.73894 0.544339,-0.0211 1.060767,-0.0472 1.147628,-0.058 0.304645,-0.038 0.154424,-1.02875 -0.175156,-1.15522 -0.680568,-0.26112 -2.088414,-0.11449 -2.962522,0.30866 -1.230113,0.59543 -2.807019,2.38062 -4.213233,4.76976 -1.26228,2.14457 -5.125661,10.02236 -5.125661,10.45167 0,0.34523 0.454666,0.78668 0.729116,0.7079 0.120162,-0.0345 1.402959,-2.41312 2.850663,-5.28585 z m 110.00155,4.86941 c 0.168296,-0.26678 -0.19475,-1.20508 -1.624459,-4.19856 -3.428293,-7.178 -5.534861,-10.32188 -7.579303,-11.31146 -0.879163,-0.42558 -2.286348,-0.57323 -2.968437,-0.31152 -0.329571,0.12646 -0.479792,1.11722 -0.175156,1.15521 0.08686,0.0112 0.603297,0.0369 1.147627,0.058 2.278096,0.0881 4.079588,2.34548 7.667645,9.60784 1.344542,2.7214 2.543089,5.06961 2.663425,5.21824 0.263388,0.32527 0.57545,0.24706 0.868658,-0.21773 z m -62.7597837,-11.3698 c -0.57256,-0.60797 -1.713272,-1.95815 -2.534903,-3.00038 -1.6280233,-2.06515 -2.1531343,-2.51898 -4.0010343,-3.45793 -1.94105,-0.98626 -4.495728,-1.39707 -5.076526,-0.81633 -0.372228,0.37219 -0.307262,1.31893 0.115817,1.68773 0.203967,0.1778 0.95625,0.3715 1.684881,0.4338 1.32557,0.11336 2.830201,0.78416 4.404083,1.96346 1.033355,0.77427 6.2383033,4.29507 6.3495993,4.29507 0.05451,0 -0.369357,-0.49744 -0.941917,-1.10542 z m -21.1304563,10.8171 c -1.827129,-0.60118 -4.664102,-2.8633 -4.932646,-3.93318 -0.07059,-0.2811 0.01059,-0.84353 0.180393,-1.2498 0.454914,-1.08867 1.046424,-0.98753 2.432558,0.41591 1.533976,1.55314 2.542483,2.00418 4.475789,2.00181 1.586202,-10e-4 2.664406,-0.31832 7.468459,-2.19138 1.066209,-0.41571 2.388132,-0.77922 2.937596,-0.80781 0.917533,-0.0478 1.015966,-0.005 1.206619,0.52294 0.114175,0.31621 0.155998,0.62652 0.09293,0.68957 -0.06303,0.063 -0.681037,0.2144 -1.373271,0.33633 -0.831921,0.14653 -1.966393,0.61169 -3.34639,1.37211 -4.302678,2.37093 -5.537723,2.88143 -7.141578,2.95192 -0.810708,0.0356 -1.710923,-0.0131 -2.000461,-0.10836 z m 21.2176033,-18.18649 c -0.65611,-0.50559 -0.549908,-1.57408 0.18419,-1.85316 1.209084,-0.45965 2.127372,1.05706 1.082883,1.78858 -0.56625,0.39659 -0.819481,0.40949 -1.267073,0.0646 z"
						id="path1008"/>
			</g>
		</g>
		<path
				id="rect815-8"
				d="m 16.000088,216.99972 c -8.8639991,0 -16.000056560368,7.13605 -16.000056560368,16.00005 v 48.00017 C 3.1439632e-5,289.86394 7.1360889,297 16.000088,297 h 95.999822 c 8.864,0 16.00006,-7.13606 16.00006,-16.00006 v -48.00017 c 0,-8.864 -7.13606,-16.00005 -16.00006,-16.00005 z m 0,4.00027 h 95.999822 c 6.648,0 12.0003,5.35178 12.0003,11.99978 v 48.00017 c 0,6.648 -5.3523,11.99979 -12.0003,11.99979 H 16.000088 c -6.648,0 -11.9997842,-5.35179 -11.9997842,-11.99979 v -48.00017 c 0,-6.648 5.3517842,-11.99978 11.9997842,-11.99978 z"
				style="fill:#000000;fill-opacity:0.33333333;fill-rule:nonzero;stroke:none;stroke-width:1.74999988;stroke-linecap:round;stroke-linejoin:round;stroke-miterlimit:4;stroke-dasharray:none;stroke-dashoffset:0;stroke-opacity:1;paint-order:normal"/>
	</g>
</svg>
