<?xml version="1.0" encoding="UTF-8" standalone="no"?>
<svg
		width="256px"
		height="160px"
		viewBox="0 0 128 80"
		version="1.1"
		xmlns="http://www.w3.org/2000/svg">
	<defs>
		<clipPath
				id="clipPath843">
			<rect
					style="fill:#ffffff;fill-opacity:1;fill-rule:nonzero;stroke:none;stroke-width:0.289387;stroke-linecap:round;stroke-linejoin:round;stroke-miterlimit:4;stroke-dasharray:none;stroke-dashoffset:0;stroke-opacity:1;paint-order:normal"
					id="rect845"
					width="127.00001"
					height="79.375"
					x="108.62157"
					y="77.086418"
					rx="15.875001"
					ry="15.875001"/>
		</clipPath>
	</defs>
	<g
			id="layer1"
			transform="translate(0,-217)">
		<g
				id="g841"
				transform="matrix(1.007874,0,0,1.007874,-109.47686,139.3066)"
				clip-path="url(#clipPath843)">
			<rect
					width="158.75"
					height="79.375"
					x="92.746574"
					y="77.086426"
					fill="#5599dd"
					id="rect417"
					style="stroke-width:0.264583"/>
			<g
					transform="matrix(0.26458333,0,0,0.26458333,172.12157,92.961428)"
					id="g428">
				<g
						id="use426">
					<g
							transform="scale(2.7)"
							id="g729">
						<path
								d="M 3,10 V 3 h 7 V -3 H 3 v -7 h -6 v 7 h -7 v 6 h 7 v 7 z"
								fill="#ffcc33"
								id="path727"/>
					</g>
				</g>
			</g>
			<g
					transform="matrix(0.26458333,0,0,0.26458333,188.95966,99.935844)"
					id="g432">
				<g
						id="use430">
					<g
							transform="scale(2.7)"
							id="g735">
						<path
								d="M 3,10 V 3 h 7 V -3 H 3 v -7 h -6 v 7 h -7 v 6 h 7 v 7 z"
								fill="#ffcc33"
								id="path733"/>
					</g>
				</g>
			</g>
			<g
					transform="matrix(0.26458333,0,0,0.26458333,195.93407,116.77393)"
					id="g436">
				<g
						id="use434">
					<g
							transform="scale(2.7)"
							id="g741">
						<path
								d="M 3,10 V 3 h 7 V -3 H 3 v -7 h -6 v 7 h -7 v 6 h 7 v 7 z"
								fill="#ffcc33"
								id="path739"/>
					</g>
				</g>
			</g>
			<g
					transform="matrix(0.26458333,0,0,0.26458333,188.95966,133.61201)"
					id="g440">
				<g
						id="use438">
					<g
							transform="scale(2.7)"
							id="g747">
						<path
								d="M 3,10 V 3 h 7 V -3 H 3 v -7 h -6 v 7 h -7 v 6 h 7 v 7 z"
								fill="#ffcc33"
								id="path745"/>
					</g>
				</g>
			</g>
			<g
					transform="matrix(0.26458333,0,0,0.26458333,172.12157,140.58643)"
					id="g444">
				<g
						id="use442">
					<g
							transform="scale(2.7)"
							id="g753">
						<path
								d="M 3,10 V 3 h 7 V -3 H 3 v -7 h -6 v 7 h -7 v 6 h 7 v 7 z"
								fill="#ffcc33"
								id="path751"/>
					</g>
				</g>
			</g>
			<g
					transform="matrix(0.26458333,0,0,0.26458333,155.28349,133.61201)"
					id="g448">
				<g
						id="use446">
					<g
							transform="scale(2.7)"
							id="g759">
						<path
								d="M 3,10 V 3 h 7 V -3 H 3 v -7 h -6 v 7 h -7 v 6 h 7 v 7 z"
								fill="#ffcc33"
								id="path757"/>
					</g>
				</g>
			</g>
			<g
					transform="matrix(0.26458333,0,0,0.26458333,148.30907,116.77393)"
					id="g452">
				<g
						id="use450">
					<g
							transform="scale(2.7)"
							id="g765">
						<path
								d="M 3,10 V 3 h 7 V -3 H 3 v -7 h -6 v 7 h -7 v 6 h 7 v 7 z"
								fill="#ffcc33"
								id="path763"/>
					</g>
				</g>
			</g>
			<g
					transform="matrix(0.26458333,0,0,0.26458333,155.28349,99.935844)"
					id="g456">
				<g
						id="use454">
					<g
							transform="scale(2.7)"
							id="g771">
						<path
								d="M 3,10 V 3 h 7 V -3 H 3 v -7 h -6 v 7 h -7 v 6 h 7 v 7 z"
								fill="#ffcc33"
								id="path769"/>
					</g>
				</g>
			</g>
		</g>
		<path
				style="fill:#000000;fill-opacity:0.33333334;fill-rule:nonzero;stroke:none;stroke-width:1.74999988;stroke-linecap:round;stroke-linejoin:round;stroke-miterlimit:4;stroke-dasharray:none;stroke-dashoffset:0;stroke-opacity:1;paint-order:normal"
				d="m 16.000088,216.99972 c -8.8639991,0 -16.000056560368,7.13605 -16.000056560368,16.00005 v 48.00017 C 3.1439632e-5,289.86394 7.1360889,297 16.000088,297 h 95.999822 c 8.864,0 16.00006,-7.13606 16.00006,-16.00006 v -48.00017 c 0,-8.864 -7.13606,-16.00005 -16.00006,-16.00005 z m 0,4.00027 h 95.999822 c 6.648,0 12.0003,5.35178 12.0003,11.99978 v 48.00017 c 0,6.648 -5.3523,11.99979 -12.0003,11.99979 H 16.000088 c -6.648,0 -11.9997842,-5.35179 -11.9997842,-11.99979 v -48.00017 c 0,-6.648 5.3517842,-11.99978 11.9997842,-11.99978 z"
				id="rect815-8"/>
	</g>
</svg>
