<?xml version="1.0" encoding="UTF-8" standalone="no"?>
<svg
		xmlns="http://www.w3.org/2000/svg"
		version="1.1"
		viewBox="0 0 128 80"
		height="160px"
		width="256px">
	<defs>
		<clipPath
				id="clipPath599">
			<rect
					style="fill:#ffffff;fill-opacity:1;fill-rule:nonzero;stroke:none;stroke-width:0.291666;stroke-linecap:round;stroke-linejoin:round;stroke-miterlimit:4;stroke-dasharray:none;stroke-dashoffset:0;stroke-opacity:1;paint-order:normal"
					id="rect601"
					width="128"
					height="80"
					x="103.13391"
					y="170.36363"
					rx="16"
					ry="16"/>
		</clipPath>
	</defs>
	<g
			id="layer1"
			transform="translate(0,-217)">
		<g
				id="g597"
				transform="translate(-103.13392,46.636365)"
				clip-path="url(#clipPath599)">
			<rect
					width="160"
					height="80"
					x="87.133919"
					y="170.36349"
					fill="#5599dd"
					id="rect302"
					style="stroke-width:0.266666"/>
			<g
					transform="matrix(0.55546666,0,0,0.55546666,167.13391,210.36349)"
					id="g306">
				<path
						d="m 15.905025,14.76827 c 0,0 10.603844,7.9905 14.510523,7.32462 3.906679,-0.66586 5.673985,-2.37812 5.580969,-3.90011 -0.09301,-1.52201 -7.162244,-8.08564 -7.441294,-18.92989 -0.279048,-10.844248 2.697469,-17.407875 2.511438,-19.690879 -0.186034,-2.282994 -1.860325,-6.848992 -4.185728,-9.036874 -2.325403,-2.187873 -4.185728,-3.424495 -8.27844,-2.473245 -4.092709,0.95125 -4.836839,3.044002 -4.836839,3.044002 0,0 -1.395242,-4.566008 -1.20921,-6.753881 0.186032,-2.187872 0.74413,-6.468503 0.558097,-9.227123 -0.186033,-2.75863 -1.20921,-6.08801 -3.9066784,-8.37101 -2.69747,-2.283 -8.55748799,-3.044 -8.55748799,-3.044 0,0 -1.67429101,-3.70988 -8.27843801,-3.70988 -6.6041466,0 -9.1155826,3.42451 -10.3247936,4.66113 -1.20921,1.23662 -2.511436,4.75625 -2.511436,4.75625 0,0 5.58097,-1.80737 7.25526,-0.47563 1.674291,1.33176 3.4415976,4.85138 2.883502,8.46613 -0.558097,3.614759 -2.232388,13.317509 -2.232388,13.317509 0,0 -2.976518,-1.99762 -7.441293,-1.902499 -4.464776,0.09513 -9.766697,3.804998 -10.41781,9.417377 -0.651114,5.612378 2.325404,13.222373 2.046355,19.595743 -0.279048,6.37338 -1.581275,10.55888 -3.069534,13.60289 -1.488258,3.04399 -4.650807,4.85137 -4.557791,6.37337 0.09301,1.522 1.767307,4.09038 4.278743,3.99525 2.511436,-0.0951 8.185422,-1.04637 10.510826,-3.13912 2.325405,-2.09275 5.208906,-3.805 5.208906,-3.805 0,0 -0.930161,9.22713 -2.232388,14.74438 -1.302227,5.51725 -2.976518,14.55412 -2.697468,19.02499 0.279048,4.47088 2.41842,7.22951 4.743823,8.08564 2.325404,0.85612 8.5574866,0.19026 8.5574866,0.19026 0,0 1.395243,1.61712 3.720647,2.28299 2.325403,0.66587 5.767002,1.33175 7.441293,0.19025 1.674291,-1.1415 3.906679,-2.28301 3.906679,-2.28301 0,0 4.1857274,0 6.2320824,-0.0951 2.046357,-0.0951 5.767002,-0.76101 6.51113,-5.13675 C 20.927899,47.49129 19.067576,35.50553 17.486301,28.08579 15.905025,20.66603 15.905025,14.76828 15.905025,14.76828 Z"
						fill="#ffcc33"
						id="path304"/>
			</g>
			<g
					transform="matrix(0.63626666,0,0,0.63626666,167.13391,206.36349)"
					id="g310">
				<path
						d="m 0,-22 c -12.12675,0 -22,9.873256 -22,22 0,12.126744 9.87325,22 22,22 12.12675,0 22,-9.873256 22,-22 0,-12.126744 -9.87325,-22 -22,-22 z m -0.99944,4.02875 v 14.101664 a 4.000056,4.000056 0 0 0 -1.03871,0.434087 11.375209,11.372852 0 0 0 -3.27943,-7.245134 11.375209,11.372852 0 0 0 -6.1992,-3.160577 c 2.88011,-2.396418 6.5202,-3.912703 10.51734,-4.13004 z m 1.99991,0 c 3.99579,0.217475 7.63573,1.732749 10.51526,4.127971 A 11.372852,11.375209 0 0 0 5.31964,-10.68167 11.372852,11.375209 0 0 0 2.03401,-3.43343 4.000056,4.000056 0 0 0 1.00047,-3.867517 Z m 12.84073,6.45241 c 2.59637,3.118344 4.15899,7.129494 4.15899,11.51884 0,4.388297 -1.56167,8.398749 -4.15692,11.51677 A 11.375209,11.372852 0 0 0 10.6827,5.319649 11.375209,11.372852 0 0 0 3.43859,2.035044 4.000056,4.000056 0 0 0 3.99981,0 4.000056,4.000056 0 0 0 3.43342,-2.037114 11.372852,11.375209 0 0 0 10.68063,-5.319645 11.372852,11.375209 0 0 0 13.8412,-11.51884 Z m -27.68448,0.0021 a 11.375209,11.372852 0 0 0 3.16264,6.197126 11.375209,11.372852 0 0 0 7.24204,3.2846 4.000056,4.000056 0 0 0 -0.56121,2.035045 4.000056,4.000056 0 0 0 0.56638,2.037114 11.372852,11.375209 0 0 0 -7.24721,3.280466 11.372852,11.375209 0 0 0 -3.16057,6.201259 C -16.43742,8.40059 -18.00019,4.389218 -18.00019,3.1e-5 c 0,-4.388134 1.56182,-8.398808 4.15691,-11.516771 z M -2.03402,3.432428 a 4.000056,4.000056 0 0 0 1.03458,0.435119 V 17.97128 c -3.99611,-0.217284 -7.63551,-1.732632 -10.51527,-4.127971 a 11.372852,11.375209 0 0 0 6.19506,-3.162645 11.372852,11.375209 0 0 0 3.28563,-7.248236 z m 4.07217,0.0031 a 11.375209,11.372852 0 0 0 3.28149,7.245135 11.375209,11.372852 0 0 0 6.19816,3.160576 C 8.63792,16.237541 4.99729,17.753746 1.00047,17.971279 V 3.869585 A 4.000056,4.000056 0 0 0 2.03815,3.435498 Z"
						fill="#5599dd"
						id="path308"/>
			</g>
		</g>
		<path
				style="fill:#000000;fill-opacity:0.33333334;fill-rule:nonzero;stroke:none;stroke-width:1.74999988;stroke-linecap:round;stroke-linejoin:round;stroke-miterlimit:4;stroke-dasharray:none;stroke-dashoffset:0;stroke-opacity:1;paint-order:normal"
				d="m 16.000088,216.99972 c -8.8639991,0 -16.000056560368,7.13605 -16.000056560368,16.00005 v 48.00017 C 3.1439632e-5,289.86394 7.1360889,297 16.000088,297 h 95.999822 c 8.864,0 16.00006,-7.13606 16.00006,-16.00006 v -48.00017 c 0,-8.864 -7.13606,-16.00005 -16.00006,-16.00005 z m 0,4.00027 h 95.999822 c 6.648,0 12.0003,5.35178 12.0003,11.99978 v 48.00017 c 0,6.648 -5.3523,11.99979 -12.0003,11.99979 H 16.000088 c -6.648,0 -11.9997842,-5.35179 -11.9997842,-11.99979 v -48.00017 c 0,-6.648 5.3517842,-11.99978 11.9997842,-11.99978 z"
				id="rect815-8"/>
	</g>
</svg>
