<?xml version="1.0" encoding="UTF-8" standalone="no"?>
<svg
		xmlns="http://www.w3.org/2000/svg"
		version="1.1"
		viewBox="0 0 128 80"
		height="160px"
		width="256px">
	<defs>
		<clipPath
				id="clipPath983">
			<rect
					ry="96"
					rx="96"
					y="90"
					x="-84"
					height="480"
					width="768"
					id="rect985"
					style="fill:#ffffff;fill-opacity:1;fill-rule:nonzero;stroke:none;stroke-width:1.74999988;stroke-linecap:round;stroke-linejoin:round;stroke-miterlimit:4;stroke-dasharray:none;stroke-dashoffset:0;stroke-opacity:1;paint-order:normal"/>
		</clipPath>
	</defs>
	<g
			transform="translate(0,-217)"
			id="layer1">
		<g
				clip-path="url(#clipPath983)"
				style="stroke-width:1.58749998"
				transform="matrix(0.16666667,0,0,0.16666667,14,202)"
				id="g981">
			<rect
					style="fill:#cc0000;stroke-width:1.58749998"
					width="767.99994"
					height="600"
					x="-84"
					y="0"
					id="rect964"/>
			<g
					style="stroke-width:1.58749998"
					transform="matrix(9.783,0,0,9.783,300,300)"
					id="g968">
				<path
						style="fill:#ffcc33;stroke-width:1.58749998"
						d="m 1.2476156,-16.499398 c -1.49019103,0.676709 -2.04733923,1.896016 -2.16730951,3.110921 -0.0750052,1.023167 0.37668067,2.175887 0.42167968,3.176551 0,1.7219795 -1.78128667,2.2892972 -1.78128667,4.7469971 0,0.8446374 0.7797972,1.7750426 0.7797972,3.9671996 -0.1349994,1.15068745 -0.7771664,1.41015215 -1.5001666,1.50016684 a 1.5,1.5002442 0 0 1 -1.4996501,-1.50016684 1.5,1.5002442 0 0 1 0.4154784,-1.0319783 1.5,1.5002442 0 0 1 0.1529622,-0.1498616 c 0.3420002,-0.3450563 0.8112197,-0.4789314 0.8082196,-1.3895793 0,-0.4680762 -0.3027119,-0.8941564 -0.5922121,-1.7228922 -0.273,-0.8041305 -0.07538,-2.1483102 0.5741252,-2.9419393 -1.0500003,0.4050665 -1.6967505,1.411958 -2.0267496,2.3151042 -0.3480004,1.1101814 -0.044935,1.749539 -0.5219319,2.6721883 -0.2910001,0.5970974 -0.637849,0.8444718 -0.9663494,1.3425536 -0.3884993,0.5430887 -0.8443928,1.8133584 -0.8443928,2.40295406 A 7.4999997,7.5012208 0 0 0 -3.7029e-4,7.5001711 7.4999997,7.5012208 0 0 0 7.4999469,-0.00117984 c 0,-0.58959566 -0.4502094,-1.85986536 -0.8387085,-2.40295406 C 6.3327386,-2.9022157 5.9802049,-3.1495901 5.6892048,-3.7466875 5.2182049,-4.6693368 5.521474,-5.3086944 5.1734739,-6.4188758 4.8434739,-7.322022 4.1956075,-8.3286142 3.1462076,-8.73398 c 0.649501,0.7936291 0.8471262,2.1378088 0.5741252,2.9419393 -0.2910001,0.8281348 -0.5968627,1.2542161 -0.5968627,1.7228922 0,0.9106479 0.4667361,1.044523 0.808736,1.3895793 A 1.5,1.5002442 0 0 1 4.0851683,-2.5297076 1.5,1.5002442 0 0 1 4.500647,-1.4977293 1.5,1.5002442 0 0 1 3.0004801,0.00243754 C 2.1709802,-0.10258617 1.5753134,-0.48956495 1.5003133,-1.4977293 c 0,-2.8882699 1.2361002,-3.0722532 1.2361002,-5.209501 0,-3.0517966 -2.73626706,-4.4965917 -2.73626706,-6.7277547 0,-0.755997 0.17694777,-2.044328 1.24746916,-3.064413 z M -20.000183,-2.500252 -23,-1.4612e-4 -20.000183,2.4999594 V 0.9997928 h 10.055717 a 10,10 0 0 0 2.2065835,5.3237058 l -7.1111935,7.1117104 -1.060917,-1.060917 -0.353467,3.889168 3.889168,-0.353467 -1.060917,-1.060917 7.1065428,-7.1065426 A 10,10 0 0 0 -1.0003093,9.942916 V 20.000183 H -2.4999594 L -3.7029e-4,23 2.4997355,20.000183 H 1.0000854 V 9.9434328 A 10,10 0 0 0 6.3212076,7.7352989 L 13.434985,14.849076 12.374068,15.909993 16.263235,16.26346 15.90977,12.374292 14.849369,13.435209 7.741276,6.3276327 A 10,10 0 0 0 9.938041,0.9997928 H 19.999959 V 2.4999594 L 22.999775,-1.4612e-4 19.999959,-2.500252 v 1.5001669 H 9.9432086 7.9996581 7.9273112 a 7.9999995,7.9999998 45 0 1 -2.2706626,6.6569578 7.9999995,7.9999998 45 0 1 -11.313521,0 7.9999995,7.9999998 45 0 1 -2.2768637,-6.6569578 h -0.066662 -1.9430339 -10.05675 z"
						id="path966"/>
			</g>
		</g>
		<path
				id="rect815-8"
				d="m 16.000088,216.99972 c -8.8639991,0 -16.000056560368,7.13605 -16.000056560368,16.00005 v 48.00017 C 3.1439632e-5,289.86394 7.1360889,297 16.000088,297 h 95.999822 c 8.864,0 16.00006,-7.13606 16.00006,-16.00006 v -48.00017 c 0,-8.864 -7.13606,-16.00005 -16.00006,-16.00005 z m 0,4.00027 h 95.999822 c 6.648,0 12.0003,5.35178 12.0003,11.99978 v 48.00017 c 0,6.648 -5.3523,11.99979 -12.0003,11.99979 H 16.000088 c -6.648,0 -11.9997842,-5.35179 -11.9997842,-11.99979 v -48.00017 c 0,-6.648 5.3517842,-11.99978 11.9997842,-11.99978 z"
				style="fill:#000000;fill-opacity:0.33333333;fill-rule:nonzero;stroke:none;stroke-width:1.74999988;stroke-linecap:round;stroke-linejoin:round;stroke-miterlimit:4;stroke-dasharray:none;stroke-dashoffset:0;stroke-opacity:1;paint-order:normal"/>
	</g>
</svg>
