<?xml version="1.0" encoding="UTF-8" standalone="no"?>
<svg
		width="256px"
		height="160px"
		viewBox="0 0 128 80"
		version="1.1"
		xmlns="http://www.w3.org/2000/svg">
	<defs>
		<clipPath
				id="clipPath5937">
			<rect
					style="fill:#ffffff;fill-opacity:1;fill-rule:nonzero;stroke:none;stroke-width:0.291666;stroke-linecap:round;stroke-linejoin:round;stroke-miterlimit:4;stroke-dasharray:none;stroke-dashoffset:0;stroke-opacity:1;paint-order:normal"
					id="rect5939"
					width="128"
					height="80"
					x="-2.7999999e-07"
					y="217"
					rx="16"
					ry="16"/>
		</clipPath>
	</defs>
	<g
			id="layer1"
			transform="translate(0,-217)">
		<g
				id="g5935"
				clip-path="url(#clipPath5937)">
			<rect
					style="fill:#224488;fill-opacity:1;stroke:#ffdd77;stroke-width:0.157112"
					id="rect1003"
					width="127.84289"
					height="79.842888"
					x="0.078555778"
					y="217.07855"/>
			<g
					id="g1012"
					transform="matrix(0.62499999,0,0,0.62499999,-54.707703,149.6051)">
				<circle
						style="fill:none;fill-opacity:1;fill-rule:evenodd;stroke:#ffdd77;stroke-width:16;stroke-linecap:square;stroke-linejoin:miter;stroke-miterlimit:4;stroke-dasharray:none;stroke-dashoffset:0;stroke-opacity:1;paint-order:normal"
						id="path4779"
						cx="189.93304"
						cy="171.7858"
						r="40"/>
				<path
						style="color:#000000;font-style:normal;font-variant:normal;font-weight:normal;font-stretch:normal;font-size:medium;line-height:normal;font-family:sans-serif;font-variant-ligatures:normal;font-variant-position:normal;font-variant-caps:normal;font-variant-numeric:normal;font-variant-alternates:normal;font-feature-settings:normal;text-indent:0;text-align:start;text-decoration:none;text-decoration-line:none;text-decoration-style:solid;text-decoration-color:#000000;letter-spacing:normal;word-spacing:normal;text-transform:none;writing-mode:lr-tb;direction:ltr;text-orientation:mixed;dominant-baseline:auto;baseline-shift:baseline;text-anchor:start;white-space:normal;shape-padding:0;clip-rule:nonzero;display:inline;overflow:visible;visibility:visible;isolation:auto;mix-blend-mode:normal;color-interpolation:sRGB;color-interpolation-filters:linearRGB;solid-color:#000000;solid-opacity:1;fill:#ffdd77;fill-opacity:1;fill-rule:evenodd;stroke:#224488;stroke-width:2.5;stroke-linecap:round;stroke-linejoin:round;stroke-miterlimit:100;stroke-dasharray:none;stroke-dashoffset:0;stroke-opacity:1;paint-order:markers stroke fill;color-rendering:auto;image-rendering:auto;shape-rendering:auto;text-rendering:auto;enable-background:accumulate"
						d="m 188.55023,126.61391 -0.42774,0.76758 -14.07812,25.20508 16.68164,-4.89062 -16.05274,28.11914 h 9.00782 l -26.74414,41.81445 46.60156,-49.21484 h -9.54102 l 21.95508,-28.51953 6.11133,-13.28126 z"
						id="path4847"/>
				<path
						style="fill:#ffdd77;fill-opacity:1;stroke:#224488;stroke-width:2.5;stroke-linecap:round;stroke-linejoin:round;stroke-miterlimit:4;stroke-dasharray:none;stroke-opacity:1"
						d="m 195.30975,197.90207 c -4.08902,-3.24689 -9.18039,-5.13178 -14.36652,-5.75471 -2.15597,-0.87405 -7.20662,0.41357 -6.62455,-3.24695 0.61156,-3.39319 1.08471,-6.84934 2.04759,-10.15518 1.7344,-2.14625 4.81698,-0.5811 7.14006,-0.68415 2.76085,0.92263 4.6533,-1.39424 4.83564,-3.88993 0.70073,-3.47142 2.13582,-7.02807 1.35375,-10.58628 -1.24864,-2.46403 -4.07464,-3.49892 -6.08878,-5.17134 -2.45388,-0.18511 -4.26516,-1.72741 -3.65893,-4.30066 -0.63719,-2.05452 0.50214,-4.70113 2.95434,-3.41807 2.47292,0.26564 4.58535,-1.16913 6.88494,-1.68647 2.55691,-0.16375 5.1025,0.37158 7.67195,-0.01 2.85391,-0.0124 5.81452,-0.47051 8.50868,0.7691 1.87865,1.05114 3.81553,1.35309 5.76839,1.31584 1.11612,1.50234 2.61421,4.85622 0.26354,5.94484 -2.23374,0.86901 -3.57532,2.95293 -5.70939,4.037 -2.60135,1.30494 -4.0464,3.91857 -3.00345,6.75098 0.27367,3.43931 0.47818,6.98976 1.88907,10.19911 2.2659,1.61993 5.15676,0.23177 7.69464,0.7119 2.59637,-0.88834 3.978,1.24748 4.11336,3.54042 0.68965,2.58363 1.31988,5.20554 1.45034,7.88372 -1.26728,2.70393 -4.88158,1.19251 -7.19335,2.11033 -4.73651,0.85881 -9.39497,2.42154 -13.44728,5.02027 -0.75353,0.30255 -1.65116,0.89989 -2.48404,0.61995 z"
						id="path4748"/>
				<g
						aria-label="MJOLNIRI"
						id="text4800">
					<path
							id="path936"
							fill="#224488"
							style="fill:#224488;fill-opacity:1"
							d="m 175.86169,139.72484 -3.83807,-9.40715 1.71158,-0.69832 3.83807,9.40716 z m -2.25187,0.94809 -4.55125,-1.42127 2.05431,-1.31884 3.92482,1.20298 0.28207,0.43936 z m -6.81606,4.37581 -5.48119,-8.53788 6.8873,-4.42155 q 0.45123,-0.28969 0.97607,-0.30802 0.52483,-0.0183 0.9944,0.21682 0.46194,0.22327 0.75163,0.67451 l 1.47893,2.30368 q 0.28969,0.45124 0.30802,0.97607 0.0183,0.52483 -0.21682,0.9944 -0.24277,0.45769 -0.69401,0.74738 l -5.31222,3.42714 1.87535,2.92116 z m -1.18692,-5.61014 5.1061,-3.27804 q 0.0594,-0.0381 0.084,-0.10424 0.0246,-0.0661 -0.0135,-0.12549 l -1.4027,-2.18493 q -0.0381,-0.0594 -0.10848,-0.0645 -0.078,-0.017 -0.13737,0.0211 l -5.1061,3.27805 q -0.0594,0.0381 -0.0764,0.11611 -0.0127,0.0585 0.0254,0.11787 l 1.40269,2.18493 q 0.0381,0.0594 0.0966,0.0721 0.0704,0.005 0.12975,-0.033 z m -0.30027,7.45963 -6.95393,-7.4073 1.34771,-1.26523 6.95394,7.4073 z m -6.60888,8.29737 -8.19508,-6.00552 1.20945,-1.65039 9.67367,-0.64351 -5.98696,-4.38736 1.10936,-1.51381 8.19507,6.00551 -1.20944,1.6504 -9.6934,0.64654 5.99834,4.39571 z m -3.26517,9.05787 -9.56343,-3.47178 0.63561,-1.75086 7.7993,2.83135 2.83135,-7.7993 1.76413,0.64042 z m -0.62853,8.37893 q -0.0347,0.5351 -0.33142,0.96837 -0.29584,0.4192 -0.74971,0.65846 -0.46794,0.23835 -1.00304,0.20368 l -6.22406,-0.4033 q -0.53509,-0.0347 -0.95429,-0.33051 -0.43327,-0.29675 -0.67253,-0.75062 -0.23836,-0.46794 -0.20368,-1.00304 l 0.4033,-6.22406 q 0.0347,-0.5351 0.33051,-0.95429 0.29675,-0.43327 0.76469,-0.67162 0.45387,-0.23927 0.98897,-0.20459 l 6.22405,0.4033 q 0.5351,0.0347 0.96838,0.33142 0.41919,0.29584 0.65754,0.76378 0.23926,0.45387 0.20459,0.98897 z m -1.86829,-0.19176 0.39235,-6.05508 q 0.005,-0.0704 -0.034,-0.12947 -0.0527,-0.06 -0.12308,-0.0645 l -6.05508,-0.39235 q -0.0704,-0.005 -0.1163,0.049 -0.06,0.0527 -0.0645,0.12308 l -0.39235,6.05507 q -0.005,0.0704 0.0481,0.13039 0.0395,0.045 0.10992,0.0495 l 6.05507,0.39236 q 0.0704,0.005 0.12947,-0.034 0.0459,-0.0536 0.0505,-0.12399 z m 3.58893,10.34722 q 0.11641,0.52344 -0.0473,1.02243 -0.16675,0.48521 -0.53557,0.84189 -0.38258,0.35974 -0.90602,0.47614 l -1.12951,0.25119 -0.40435,-1.81825 1.04687,-0.2328 q 0.0689,-0.0153 0.11478,-0.0689 0.0291,-0.0643 0.0137,-0.13316 l -1.3172,-5.92308 q -0.0153,-0.0689 -0.0689,-0.11478 -0.0674,-0.0428 -0.13622,-0.0275 l -7.9204,1.76138 -0.40741,-1.83203 8.00304,-1.77975 q 0.52343,-0.1164 1.02242,0.0473 0.48522,0.16676 0.84496,0.54934 0.35668,0.36881 0.47308,0.89225 z m 5.89801,11.38896 -8.81606,5.05001 -1.01702,-1.77545 1.97742,-5.37715 -5.63166,-1.00225 -1.02403,-1.7877 8.81606,-5.05001 0.93285,1.62852 -6.46511,3.70334 5.89427,1.06324 -2.04542,5.6275 6.45286,-3.69632 z"/>
				</g>
				<g
						aria-label="ENERGIA"
						id="text4840">
					<path
							id="path952"
							fill="#224488"
							style="fill:#224488;fill-opacity:1"
							d="m 216.84009,194.74473 5.40811,6.16186 q 0.35372,0.40301 0.44077,0.90865 0.0964,0.51623 -0.0556,1.0063 -0.16252,0.49937 -0.56554,0.85308 l -4.67707,4.10495 q -0.40302,0.35372 -0.91925,0.45008 -0.51624,0.0964 -1.01561,-0.0662 -0.49007,-0.15191 -0.84378,-0.55493 l -5.40811,-6.16186 1.41054,-1.238 2.25261,2.56656 4.82555,-4.23527 -2.2526,-2.56656 1.39994,-1.22869 z m 2.08136,5.19519 -4.82556,4.23527 1.87097,2.13173 q 0.0465,0.053 0.11689,0.0476 0.0796,0.005 0.13268,-0.0414 l 4.56041,-4.00256 q 0.053,-0.0465 0.0582,-0.1262 0.004,-0.0597 -0.0427,-0.11277 l -1.87096,-2.13173 z m -0.88779,-7.26719 7.99679,6.26713 -1.14027,1.45497 -7.99678,-6.26713 z m 4.36498,-7.44147 q 0.2483,-0.47526 0.69503,-0.75134 0.4402,-0.26357 0.95207,-0.29864 0.52437,-0.0285 0.99964,0.21977 l 5.52812,2.88815 q 0.47527,0.2483 0.73883,0.6885 0.27608,0.44673 0.31115,0.9586 0.0285,0.52438 -0.21977,0.99965 l -2.88162,5.51561 q -0.2483,0.47526 -0.69503,0.75134 -0.44673,0.27607 -0.97111,0.30461 -0.51187,0.0351 -0.98714,-0.21323 l -0.70039,-0.36592 0.86906,-1.66344 0.62535,0.32671 q 0.0625,0.0327 0.12619,0.002 0.0762,-0.0239 0.10884,-0.0864 l 2.80974,-5.37803 q 0.0327,-0.0625 0.009,-0.1387 -0.0179,-0.0571 -0.0804,-0.0898 l -5.37803,-2.80974 q -0.0625,-0.0327 -0.13217,-0.0213 -0.0637,0.0304 -0.0963,0.093 l -2.80974,5.37803 q -0.0327,0.0625 -0.0213,0.13217 0.0239,0.0762 0.0864,0.10883 l 1.62592,0.84946 1.06508,-2.03865 1.66344,0.86906 -1.93415,3.70209 -3.36439,-1.75773 q -0.47527,-0.2483 -0.75134,-0.69503 -0.26357,-0.4402 -0.29211,-0.96457 -0.0285,-0.52438 0.21977,-0.99965 z m 1.33651,-3.84506 4.16502,-2.32087 -0.45868,2.39774 -3.57532,2.01704 -0.51281,-0.0981 z m 1.52186,-7.95551 9.96519,1.9063 -1.53777,8.03868 q -0.10075,0.52667 -0.44893,0.91981 -0.34818,0.39314 -0.84207,0.57163 -0.48003,0.18114 -1.0067,0.0804 l -2.6888,-0.51435 q -0.52667,-0.10075 -0.91981,-0.44893 -0.39313,-0.34818 -0.57163,-0.84207 -0.16463,-0.49124 -0.0639,-1.01791 l 1.17393,-6.21183 -3.4095,-0.65223 z m 4.88493,3.00331 -1.14007,5.95971 q -0.0133,0.0693 0.0177,0.13269 0.031,0.0634 0.10027,0.0767 l 2.5502,0.48785 q 0.0693,0.0132 0.12148,-0.0342 0.066,-0.0448 0.0793,-0.11414 l 1.14007,-5.9597 q 0.0133,-0.0693 -0.0316,-0.13535 -0.0336,-0.0495 -0.10293,-0.0628 l -2.5502,-0.48784 q -0.0693,-0.0133 -0.11883,0.0204 -0.0522,0.0475 -0.0654,0.11678 z m -5.77366,-12.40874 10.11755,-0.92776 0.85431,9.31658 -1.86894,0.17137 -0.68293,-7.44763 -2.24834,0.20616 0.54892,5.98622 -1.88299,0.17266 -0.54892,-5.98621 -2.24834,0.20617 0.68293,7.44764 -1.86894,0.17137 z m -3.69338,-9.73526 9.46161,-3.70179 0.7455,1.90546 -4.63975,8.51275 6.91224,-2.70437 0.6838,1.74777 -9.46162,3.70179 -0.7455,-1.90546 4.64775,-8.53103 -6.92537,2.70951 z m -5.7794,-7.46266 8.05423,-6.19313 5.70283,7.41661 -1.48779,1.14401 -4.55883,-5.92881 -1.78983,1.37625 3.66427,4.76542 -1.49898,1.15261 -3.66427,-4.76542 -1.78983,1.37625 4.55883,5.92881 -1.4878,1.144 z"/>
				</g>
			</g>
		</g>
		<path
				style="fill:#000000;fill-opacity:0.33333333;fill-rule:nonzero;stroke:none;stroke-width:1.74999988;stroke-linecap:round;stroke-linejoin:round;stroke-miterlimit:4;stroke-dasharray:none;stroke-dashoffset:0;stroke-opacity:1;paint-order:normal"
				d="m 16.000088,216.99972 c -8.8639991,0 -16.000056560368,7.13605 -16.000056560368,16.00005 v 48.00017 C 3.1439632e-5,289.86394 7.1360889,297 16.000088,297 h 95.999822 c 8.864,0 16.00006,-7.13606 16.00006,-16.00006 v -48.00017 c 0,-8.864 -7.13606,-16.00005 -16.00006,-16.00005 z m 0,4.00027 h 95.999822 c 6.648,0 12.0003,5.35178 12.0003,11.99978 v 48.00017 c 0,6.648 -5.3523,11.99979 -12.0003,11.99979 H 16.000088 c -6.648,0 -11.9997842,-5.35179 -11.9997842,-11.99979 v -48.00017 c 0,-6.648 5.3517842,-11.99978 11.9997842,-11.99978 z"
				id="rect815-8"/>
	</g>
</svg>
