<?xml version="1.0" encoding="UTF-8" standalone="no"?>
<svg
		xmlns="http://www.w3.org/2000/svg"
		version="1.1"
		viewBox="0 0 128 80"
		height="160px"
		width="256px">
	<defs>
		<clipPath
				id="clipPath2442">
			<rect
					style="fill:#ffffff;fill-opacity:1;fill-rule:nonzero;stroke:none;stroke-width:0.291666;stroke-linecap:round;stroke-linejoin:round;stroke-miterlimit:4;stroke-dasharray:none;stroke-dashoffset:0;stroke-opacity:1;paint-order:normal"
					id="rect2444"
					width="128"
					height="80"
					x="112.44788"
					y="109.08794"
					rx="16"
					ry="16"/>
		</clipPath>
	</defs>
	<g
			id="layer1"
			transform="translate(0,-217)">
		<g
				id="g2440"
				transform="translate(-112.44789,107.91206)"
				clip-path="url(#clipPath2442)">
			<rect
					width="160"
					height="80"
					x="112.44792"
					y="109.0878"
					fill="#000000"
					id="rect2222"
					style="stroke-width:0.266666"/>
			<rect
					width="160"
					height="7.5"
					x="112.44792"
					y="116.58781"
					fill="#ffffff"
					id="rect2224"
					style="stroke-width:0.266666"/>
			<rect
					width="160"
					height="7.5"
					x="112.44792"
					y="174.0878"
					fill="#ffffff"
					id="rect2226"
					style="stroke-width:0.266666"/>
			<g
					transform="matrix(0.3,0,0,0.3,147.44792,149.0878)"
					id="g2230">
				<path
						d="m -75,33.43568 c 0,-0.0623 12.700251,-22.102372 28.222778,-48.97799 15.522529,-26.87561 28.329444,-49.05528 28.459812,-49.28816 0.248327,-0.44358 0.04677,-0.77987 12.8342545,21.41318 C 4.65717,-25.818461 22.805506,5.578766 23.165377,6.145608 l 0.365214,0.57528 -12.493696,0.06929 -12.4937055,0.06928 -5.3477853,-9.281869 c -11.3059122,-19.62304 -11.2591152,-19.54587 -11.5441932,-19.036639 -0.144264,0.257695 -4.477167,7.763856 -9.62867,16.680356 -5.151503,8.916503 -9.366371,16.313979 -9.366371,16.438838 0,0.12486 1.173052,0.227014 2.606785,0.227014 1.982519,0 2.575785,0.07718 2.477337,0.322287 -0.0712,0.177257 -2.84828,5.021233 -6.171299,10.764383 l -6.041853,10.4421 -15.26357,0.0665 C -68.131394,33.518928 -75,33.497928 -75,33.435628 Z"
						fill="#dd2222"
						stroke="#ffffff"
						stroke-width="3.125"
						id="path2228"/>
			</g>
			<g
					transform="matrix(0.3,0,0,0.3,147.44792,149.0878)"
					id="g2234">
				<path
						d="m -7.8235072,33.28701 c 0.037569,-0.071 2.8262808,-4.91486 6.1971379,-10.76438 L 4.502478,11.88716 h 16.4751 c 12.196631,0 16.47509,-0.07659 16.47509,-0.295042 0,-0.162269 -4.314332,-7.76724 -9.587411,-16.89993 l -9.587421,-16.604888 -1.230095,2.111212 c -0.676549,1.161164 -1.32629,2.207379 -1.443882,2.324924 -0.206523,0.206458 -12.569575,-20.903866 -12.498384,-21.341416 0.08939,-0.54922 15.147591,-26.34169 15.285215,-26.18124 0.244279,0.28479 56.448402,97.69758 56.607374,98.11172 0.122388,0.31882 -5.471843,0.36426 -41.374174,0.33605 -22.833632,-0.0179 -41.4849635,-0.0907 -41.4473972,-0.16154 z"
						fill="#22dd22"
						stroke="#ffffff"
						stroke-width="3.125"
						id="path2232"/>
			</g>
			<g
					transform="matrix(0.3,0,0,0.3,147.44792,149.0878)"
					id="g2238">
				<path
						d="m -56.477986,64.16211 c 0.566891,-0.93186 13.945267,-24.07539 19.263588,-33.32448 1.875421,-3.26155 5.124026,-8.88867 7.219123,-12.50473 2.095094,-3.61606 5.347769,-9.243192 7.228167,-12.504737 1.880397,-3.261545 4.288787,-7.438388 5.35198,-9.281869 1.063192,-1.843481 2.026024,-3.334971 2.139627,-3.314422 0.1136,0.02055 2.971763,4.822772 6.3514712,10.671617 l 6.1449264,10.634261 -5.4631303,9.43909 C -17.30332,39.63242 -19.289502,43.09216 -19.289502,43.2201 c 0,0.0673 8.704766,0.12227 19.343923,0.12227 10.639155,0 19.343923,-0.0879 19.343923,-0.19545 0,-0.1075 -0.574077,-1.18071 -1.275737,-2.38493 l -1.275736,-2.18947 12.415331,-0.067 c 6.82843,-0.0369 12.497244,0.0212 12.597357,0.12891 0.173253,0.18643 14.272318,24.57115 14.908958,25.78545 L 57.072668,65 H 0.04246 -56.987743 Z"
						fill="#2222dd"
						stroke="#ffffff"
						stroke-width="3.125"
						id="path2236"/>
			</g>
		</g>
		<path
				style="fill:#555555;fill-opacity:0.66666669;fill-rule:nonzero;stroke:none;stroke-width:1.74999988;stroke-linecap:round;stroke-linejoin:round;stroke-miterlimit:4;stroke-dasharray:none;stroke-dashoffset:0;stroke-opacity:1;paint-order:normal"
				d="m 16.000088,216.99972 c -8.8639991,0 -16.000056560368,7.13605 -16.000056560368,16.00005 v 48.00017 C 3.1439632e-5,289.86394 7.1360889,297 16.000088,297 h 95.999822 c 8.864,0 16.00006,-7.13606 16.00006,-16.00006 v -48.00017 c 0,-8.864 -7.13606,-16.00005 -16.00006,-16.00005 z m 0,4.00027 h 95.999822 c 6.648,0 12.0003,5.35178 12.0003,11.99978 v 48.00017 c 0,6.648 -5.3523,11.99979 -12.0003,11.99979 H 16.000088 c -6.648,0 -11.9997842,-5.35179 -11.9997842,-11.99979 v -48.00017 c 0,-6.648 5.3517842,-11.99978 11.9997842,-11.99978 z"
				id="rect815-8"/>
	</g>
</svg>
