<?xml version="1.0" encoding="UTF-8" standalone="no"?>
<svg
		width="256px"
		height="160px"
		viewBox="0 0 128 80"
		version="1.1"
		xmlns="http://www.w3.org/2000/svg">
	<defs
			id="defs2">
		<mask
				id="mask979">
			<rect
					style="fill:#ffffff;fill-opacity:1;fill-rule:nonzero;stroke:none;stroke-width:0.463021;stroke-linecap:round;stroke-linejoin:round;stroke-miterlimit:4;stroke-dasharray:none;stroke-dashoffset:0;stroke-opacity:1;paint-order:normal"
					id="rect981"
					width="142.66333"
					height="89.164589"
					x="118.11752"
					y="110.99674"
					rx="17.832916"
					ry="17.832916"/>
		</mask>
	</defs>
	<g
			id="layer1"
			transform="translate(0,-217)">
		<g
				id="g977"
				transform="matrix(0.89721725,0,0,0.89721725,-105.97708,117.41181)"
				mask="url(#mask979)">
			<rect
					width="158.75"
					height="6.8587937"
					x="118.11756"
					y="110.99658"
					fill="#b22234"
					id="rect352"
					style="stroke-width:0.264583"/>
			<rect
					width="158.75"
					height="6.8587937"
					x="118.11756"
					y="117.85538"
					fill="#ffffff"
					id="rect354"
					style="stroke-width:0.264583"/>
			<rect
					width="158.75"
					height="6.8587937"
					x="118.11756"
					y="124.71416"
					fill="#b22234"
					id="rect356"
					style="stroke-width:0.264583"/>
			<rect
					width="158.75"
					height="6.8587937"
					x="118.11756"
					y="131.57297"
					fill="#ffffff"
					id="rect358"
					style="stroke-width:0.264583"/>
			<rect
					width="158.75"
					height="6.8587937"
					x="118.11756"
					y="138.43175"
					fill="#b22234"
					id="rect360"
					style="stroke-width:0.264583"/>
			<rect
					width="158.75"
					height="6.8587937"
					x="118.11756"
					y="145.29054"
					fill="#ffffff"
					id="rect362"
					style="stroke-width:0.264583"/>
			<rect
					width="158.75"
					height="6.8587937"
					x="118.11756"
					y="152.14934"
					fill="#b22234"
					id="rect364"
					style="stroke-width:0.264583"/>
			<rect
					width="158.75"
					height="6.8587937"
					x="118.11756"
					y="159.00841"
					fill="#ffffff"
					id="rect366"
					style="stroke-width:0.264583"/>
			<rect
					width="158.75"
					height="6.8587937"
					x="118.11756"
					y="165.86719"
					fill="#b22234"
					id="rect368"
					style="stroke-width:0.264583"/>
			<rect
					width="158.75"
					height="6.8587937"
					x="118.11756"
					y="172.72598"
					fill="#ffffff"
					id="rect370"
					style="stroke-width:0.264583"/>
			<rect
					width="158.75"
					height="6.8587937"
					x="118.11756"
					y="179.58478"
					fill="#b22234"
					id="rect372"
					style="stroke-width:0.264583"/>
			<rect
					width="158.75"
					height="6.8587937"
					x="118.11756"
					y="186.44357"
					fill="#ffffff"
					id="rect374"
					style="stroke-width:0.264583"/>
			<rect
					width="158.75"
					height="6.8587937"
					x="118.11756"
					y="193.30237"
					fill="#b22234"
					id="rect376"
					style="stroke-width:0.264583"/>
			<rect
					width="67.163422"
					height="89.164581"
					x="118.11756"
					y="110.99658"
					fill="#3c3b6e"
					id="rect378"
					style="stroke-width:0.264583"/>
			<g
					transform="matrix(0.26458333,0,0,0.26458333,151.69927,128.86601)"
					id="g389">
				<g
						id="use387">
					<g
							transform="scale(0.16)"
							id="g765">
						<path
								d="m 0,-100 24,68 H 96 L 40,12 60,80 0,40 -60,80 -40,12 -96,-32 h 72 z"
								fill="#ffffff"
								id="path763"/>
					</g>
				</g>
			</g>
			<g
					transform="matrix(0.23427756,0.12295675,-0.12295675,0.23427756,164.11325,131.92592)"
					id="g393">
				<g
						id="use391">
					<g
							transform="scale(0.16)"
							id="g771">
						<path
								d="m 0,-100 24,68 H 96 L 40,12 60,80 0,40 -60,80 -40,12 -96,-32 h 72 z"
								fill="#ffffff"
								id="path769"/>
					</g>
				</g>
			</g>
			<g
					transform="matrix(0.150299,0.21774882,-0.21774882,0.150299,173.6835,140.40422)"
					id="g397">
				<g
						id="use395">
					<g
							transform="scale(0.16)"
							id="g777">
						<path
								d="m 0,-100 24,68 H 96 L 40,12 60,80 0,40 -60,80 -40,12 -96,-32 h 72 z"
								fill="#ffffff"
								id="path775"/>
					</g>
				</g>
			</g>
			<g
					transform="matrix(0.03189164,0.26265426,-0.26265426,0.03189164,178.21713,152.35889)"
					id="g401">
				<g
						id="use399">
					<g
							transform="scale(0.16)"
							id="g783">
						<path
								d="m 0,-100 24,68 H 96 L 40,12 60,80 0,40 -60,80 -40,12 -96,-32 h 72 z"
								fill="#ffffff"
								id="path781"/>
					</g>
				</g>
			</g>
			<g
					transform="matrix(-0.09382155,0.24739009,-0.24739009,-0.09382155,176.6762,165.05122)"
					id="g405">
				<g
						id="use403">
					<g
							transform="scale(0.16)"
							id="g789">
						<path
								d="m 0,-100 24,68 H 96 L 40,12 60,80 0,40 -60,80 -40,12 -96,-32 h 72 z"
								fill="#ffffff"
								id="path787"/>
					</g>
				</g>
			</g>
			<g
					transform="matrix(-0.19804488,0.17544961,-0.17544961,-0.19804488,169.41312,175.5737)"
					id="g409">
				<g
						id="use407">
					<g
							transform="scale(0.16)"
							id="g795">
						<path
								d="m 0,-100 24,68 H 96 L 40,12 60,80 0,40 -60,80 -40,12 -96,-32 h 72 z"
								fill="#ffffff"
								id="path793"/>
					</g>
				</g>
			</g>
			<g
					transform="matrix(-0.25689519,0.06331825,-0.06331825,-0.25689519,158.09213,181.51545)"
					id="g413">
				<g
						id="use411">
					<g
							transform="scale(0.16)"
							id="g801">
						<path
								d="m 0,-100 24,68 H 96 L 40,12 60,80 0,40 -60,80 -40,12 -96,-32 h 72 z"
								fill="#ffffff"
								id="path799"/>
					</g>
				</g>
			</g>
			<g
					transform="matrix(-0.25689519,-0.06331825,0.06331825,-0.25689519,145.30641,181.51545)"
					id="g417">
				<g
						id="use415">
					<g
							transform="scale(0.16)"
							id="g807">
						<path
								d="m 0,-100 24,68 H 96 L 40,12 60,80 0,40 -60,80 -40,12 -96,-32 h 72 z"
								fill="#ffffff"
								id="path805"/>
					</g>
				</g>
			</g>
			<g
					transform="matrix(-0.19804488,-0.17544961,0.17544961,-0.19804488,133.98542,175.5737)"
					id="g421">
				<g
						id="use419">
					<g
							transform="scale(0.16)"
							id="g813">
						<path
								d="m 0,-100 24,68 H 96 L 40,12 60,80 0,40 -60,80 -40,12 -96,-32 h 72 z"
								fill="#ffffff"
								id="path811"/>
					</g>
				</g>
			</g>
			<g
					transform="matrix(-0.09382155,-0.24739009,0.24739009,-0.09382155,126.72234,165.05122)"
					id="g425">
				<g
						id="use423">
					<g
							transform="scale(0.16)"
							id="g819">
						<path
								d="m 0,-100 24,68 H 96 L 40,12 60,80 0,40 -60,80 -40,12 -96,-32 h 72 z"
								fill="#ffffff"
								id="path817"/>
					</g>
				</g>
			</g>
			<g
					transform="matrix(0.03189164,-0.26265426,0.26265426,0.03189164,125.18141,152.35889)"
					id="g429">
				<g
						id="use427">
					<g
							transform="scale(0.16)"
							id="g825">
						<path
								d="m 0,-100 24,68 H 96 L 40,12 60,80 0,40 -60,80 -40,12 -96,-32 h 72 z"
								fill="#ffffff"
								id="path823"/>
					</g>
				</g>
			</g>
			<g
					transform="matrix(0.150299,-0.21774882,0.21774882,0.150299,129.71504,140.40422)"
					id="g433">
				<g
						id="use431">
					<g
							transform="scale(0.16)"
							id="g831">
						<path
								d="m 0,-100 24,68 H 96 L 40,12 60,80 0,40 -60,80 -40,12 -96,-32 h 72 z"
								fill="#ffffff"
								id="path829"/>
					</g>
				</g>
			</g>
			<g
					transform="matrix(0.23427756,-0.12295675,0.12295675,0.23427756,139.28528,131.92592)"
					id="g437">
				<g
						id="use435">
					<g
							transform="scale(0.16)"
							id="g837">
						<path
								d="m 0,-100 24,68 H 96 L 40,12 60,80 0,40 -60,80 -40,12 -96,-32 h 72 z"
								fill="#ffffff"
								id="path835"/>
					</g>
				</g>
			</g>
			<g
					transform="matrix(0.13917083,0,0,0.13917083,151.69927,155.57887)"
					id="g441">
				<path
						d="m 0,-100 24,68 H 96 L 40,12 60,80 0,40 -60,80 -40,12 -96,-32 h 72 z"
						fill="#dcc06f"
						stroke="#ffffff"
						stroke-width="6"
						id="path439"/>
			</g>
		</g>
		<path
				style="fill:#000000;fill-opacity:0.33333333;fill-rule:nonzero;stroke:none;stroke-width:1.74999988;stroke-linecap:round;stroke-linejoin:round;stroke-miterlimit:4;stroke-dasharray:none;stroke-dashoffset:0;stroke-opacity:1;paint-order:normal"
				d="m 16.000088,216.99972 c -8.8639991,0 -16.000056560368,7.13605 -16.000056560368,16.00005 v 48.00017 C 3.1439632e-5,289.86394 7.1360889,297 16.000088,297 h 95.999822 c 8.864,0 16.00006,-7.13606 16.00006,-16.00006 v -48.00017 c 0,-8.864 -7.13606,-16.00005 -16.00006,-16.00005 z m 0,4.00027 h 95.999822 c 6.648,0 12.0003,5.35178 12.0003,11.99978 v 48.00017 c 0,6.648 -5.3523,11.99979 -12.0003,11.99979 H 16.000088 c -6.648,0 -11.9997842,-5.35179 -11.9997842,-11.99979 v -48.00017 c 0,-6.648 5.3517842,-11.99978 11.9997842,-11.99978 z"
				id="rect815-8"/>
	</g>
</svg>
