<?xml version="1.0" encoding="UTF-8" standalone="no"?>
<svg
		width="256px"
		height="160px"
		viewBox="0 0 128 80"
		version="1.1"
		xmlns="http://www.w3.org/2000/svg">
	<defs>
		<clipPath
				id="clipPath5122">
			<rect
					style="fill:#ffffff;fill-opacity:1;fill-rule:nonzero;stroke:none;stroke-width:0.291666;stroke-linecap:round;stroke-linejoin:round;stroke-miterlimit:4;stroke-dasharray:none;stroke-dashoffset:0;stroke-opacity:1;paint-order:normal"
					id="rect5124"
					width="128"
					height="80"
					x="209.79526"
					y="180.33644"
					rx="16"
					ry="16"/>
		</clipPath>
	</defs>
	<g
			id="layer1"
			transform="translate(0,-217)">
		<g
				id="g5120"
				transform="translate(-209.79526,36.663556)"
				clip-path="url(#clipPath5122)">
			<rect
					width="133.33333"
					height="80"
					x="207.1286"
					y="180.3363"
					fill="#bc0753"
					id="rect1274"
					style="stroke-width:0.222222"/>
			<g
					transform="matrix(0.92599992,0,0,0.92599992,273.79526,220.3363)"
					id="g1278">
				<path
						d="m 6.28916,-29.995407 c -0.0573,-0.007 -0.0931,-0.006 -0.10208,0.002 -0.14321,0.12801 2.10937,2.59575 2.85314,3.12566 0.43607,0.31068 1.19277,0.69038 1.68156,0.84333 0.48348,0.15129 1.16478,0.278 1.52649,0.28555 0.72503,0.44389 1.73998,1.05243 2.92314,1.75627 -0.90785,-0.21594 -1.95927,-0.31584 -2.84877,-0.23437 -1.24351,0.11389 -4.14306,0.86542 -4.48172,1.16163 -0.0881,0.0771 0.58883,0.20104 1.50411,0.27531 0.91528,0.0743 2.2055,0.20105 2.86725,0.28145 1.29496,0.15744 4.18943,0.0961 4.7627,-0.10085 0.11509,-0.0395 0.19715,-0.0803 0.25182,-0.12486 0.94312,0.6198 1.84512,1.28898 2.701,2.00446 -1.23327,-0.48855 -2.69291,-0.70702 -4.54639,-0.70415 -2.08666,0.003 -2.59328,0.17919 -1.51287,0.52556 0.41249,0.13223 1.60755,0.6062 2.65531,1.05314 1.04775,0.44695 2.44612,0.91135 3.10787,1.03216 0.66174,0.12082 1.69488,0.22754 2.29556,0.23745 l 0.29946,0.005 c 0.23245,0.24499 0.46107,0.49363 0.68301,0.74662 0.58694,0.65364 1.1339,1.33448 1.64463,2.03721 -0.67719,-0.48296 -1.47714,-0.90795 -2.35196,-1.23533 -1.46641,-0.54877 -3.99494,-1.12868 -4.18419,-0.95949 -0.0375,0.0335 0.58087,0.52326 1.37433,1.08845 0.79342,0.5652 1.93879,1.39241 2.5454,1.83764 1.10637,0.81204 3.2162,1.94254 3.92995,2.10578 0.22215,0.0508 0.39038,0.0804 0.52504,0.0921 0.61285,1.14169 1.13666,2.32362 1.56632,3.53402 -0.23489,-0.29486 -0.52031,-0.59432 -0.90081,-0.95489 -1.00641,-0.95375 -1.71977,-1.42067 -3.30234,-2.16054 -1.11018,-0.51902 -2.01843,-0.87544 -2.01843,-0.79216 0,0.0833 0.29827,0.43152 0.66308,0.77374 0.72934,0.68413 1.74165,1.99102 2.333,3.01206 0.43249,0.74677 2.12813,2.26216 3.3169,2.96447 0.39974,0.23615 0.66337,0.37788 0.82887,0.42269 0.35451,1.68507 0.53293,3.40094 0.5333,5.11733 -0.11449,-0.6666 -0.30254,-1.3712 -0.55226,-1.96403 -0.46227,-1.09742 -0.76578,-1.4817 -2.05102,-2.59909 -0.82962,-0.72127 -1.73207,-1.51336 -2.00581,-1.75985 l -0.4978,-0.44827 0.14633,0.44827 c 1.44887,4.43941 2.32381,6.19356 3.95037,7.91804 0.62016,0.6575 0.78451,0.81744 0.9047,0.67754 -0.0485,0.51595 -0.11146,1.03066 -0.19349,1.54338 -0.15589,1.03923 -0.3866,2.06604 -0.68205,3.07603 0.0285,-0.92121 -0.12129,-1.90977 -0.45404,-2.72753 -0.37311,-0.91684 -2.79063,-4.49406 -2.94067,-4.35128 -0.13488,0.12837 0.32497,5.9527 0.52989,6.71139 0.26077,0.96543 1.04711,2.49246 1.53135,2.97316 0.12649,0.12558 0.22812,0.21353 0.2946,0.26354 -0.64652,1.49023 -1.44114,2.92624 -2.36752,4.28833 0.32592,-1.22014 0.39964,-2.73488 0.12446,-4.12509 -0.52125,-2.63329 -1.40132,-4.40399 -1.40979,-2.83653 -0.003,0.26532 -0.27459,1.45071 -0.6072,2.63389 -0.94645,3.36677 -0.97746,4.56619 -0.16526,6.40075 l 0.17209,0.3879 c -0.85036,0.9893 -1.77399,1.92572 -2.76517,2.79815 0.0137,-0.0233 0.0298,-0.0482 0.0413,-0.0701 0.50582,-0.96234 0.7882,-3.28717 0.61934,-5.09942 l -0.1405,-1.50705 -0.8799,1.47225 c -0.48404,0.80984 -1.08417,1.72831 -1.33347,2.0408 -1.06134,1.33018 -1.40237,2.28434 -1.5085,4.2177 l -0.0792,1.43694 c -0.32659,0.21316 -0.65641,0.42236 -0.99268,0.62278 -0.84667,0.51597 -1.72363,0.98746 -2.62516,1.41341 1.17072,-1.23012 2.0724,-3.04728 2.42486,-5.04058 l 0.16287,-0.92111 -1.22361,1.02244 c -3.81421,3.1866 -4.84267,4.3969 -5.07967,5.97653 -0.029,0.1931 -0.0452,0.32976 -0.0452,0.43292 -1.33057,0.42122 -2.69443,0.75456 -4.07822,0.99788 0.16562,-0.0632 0.32792,-0.1377 0.49975,-0.22772 1.2169,-0.63754 3.17214,-2.86364 3.48075,-3.96286 l 0.12737,-0.45493 -0.98784,0.42628 c -0.5434,0.23435 -1.56611,0.59553 -2.27269,0.80291 -0.70657,0.20736 -1.62213,0.57685 -2.03449,0.82081 -0.93442,0.5528 -2.3641,2.14631 -2.3641,2.63492 0,0.28367 0.1117,0.33955 0.9679,0.30908 -2.07117,0.19532 -4.16472,0.19272 -6.23569,-0.0101 0.0351,7.9e-4 0.0724,0.003 0.10695,0.004 l 1.35633,0.0164 -0.30968,-0.6627 c -0.73102,-1.56409 -1.89769,-2.39758 -4.43358,-3.16864 -0.76249,-0.23185 -1.77594,-0.59947 -2.25228,-0.81673 l -0.86582,-0.39506 0.13856,0.41502 c 0.44447,1.332 2.73223,3.71147 4.07433,4.31851 -0.70355,-0.11843 -1.40245,-0.25898 -2.09478,-0.42525 -0.7172,-0.16474 -1.42504,-0.35819 -2.12345,-0.57519 0.0297,-0.12518 0.0251,-0.30024 -0.005,-0.53476 -0.17346,-1.37573 -0.74189,-2.11257 -3.52889,-4.5754 l -2.7005,-2.38673 0.12397,0.77323 c 0.0683,0.42528 0.35101,1.42548 0.62809,2.22246 0.45521,1.30937 1.13179,2.37299 2.01456,3.17939 -1.3699,-0.62267 -2.68609,-1.3441 -3.93335,-2.15541 l 0.10257,-0.37357 c 0.38447,-1.39878 -0.39772,-3.8831 -1.80016,-5.71605 -0.28875,-0.37737 -0.85508,-1.25082 -1.25813,-1.94101 l -0.73261,-1.25477 -0.0636,2.33043 c -0.0355,1.30549 0.0371,2.74399 0.1648,3.27049 0.12761,0.52613 0.45639,1.13015 0.89838,1.71123 -1.28483,-1.05882 -2.46916,-2.21962 -3.53568,-3.46443 0.11085,0.0689 0.2029,0.11096 0.24161,0.0895 0.34505,-0.19064 0.79085,-1.95358 0.78803,-3.11851 -0.002,-0.73771 -0.26345,-2.11468 -0.70101,-3.68703 -0.38413,-1.38038 -0.7063,-2.75209 -0.71609,-3.04787 -0.0175,-0.53052 -0.0232,-0.52755 -0.40397,0.21236 -0.45245,0.87921 -1.18424,3.91472 -1.18424,4.91161 0,0.38074 0.1491,1.2995 0.33155,2.04182 0.0787,0.32038 0.15821,0.58601 0.24501,0.82184 -0.82952,-1.14856 -1.56481,-2.35367 -2.18811,-3.60721 -2.61948,-5.13378 -3.24872,-11.03967 -1.99803,-16.57861 1.2e-4,0.57282 0.0466,0.56926 1.06659,-0.066 1.28237,-0.79863 2.59375,-2.09238 3.92168,-3.86972 0.66299,-0.88739 1.48982,-1.91617 1.83761,-2.28591 0.34778,-0.36975 0.5842,-0.67241 0.52502,-0.67241 -0.3946,0 -3.9106,1.79121 -4.63484,2.36113 -0.96498,0.75935 -1.70162,1.61553 -2.16283,2.48855 0.47092,-1.48964 1.08215,-2.94025 1.83225,-4.32977 0.0416,0.0106 0.0915,0.0166 0.15751,0.0164 0.93518,-0.004 4.21126,-1.77007 5.89006,-3.17428 0.39199,-0.32787 1.19075,-0.91715 1.77489,-1.30952 1.18436,-0.79557 1.04377,-0.86077 -0.94991,-0.44061 -2.15681,0.45456 -4.09326,1.37363 -5.39711,2.48242 0.7944,-1.16259 1.69088,-2.26404 2.67765,-3.29454 l 0.50898,-0.002 c 1.66196,-0.005 3.52699,-0.43175 5.28482,-1.20923 0.88234,-0.39026 2.03782,-0.85445 2.56778,-1.03165 1.29147,-0.43179 0.90057,-0.61779 -1.3043,-0.62176 -2.17676,-0.003 -3.66938,0.24688 -4.95522,0.88991 0.95268,-0.80907 1.96287,-1.56263 3.02329,-2.25317 0.009,0.017 0.0194,0.0338 0.036,0.0486 0.0697,0.0622 0.46607,0.17169 0.88088,0.24358 1.21451,0.21057 2.6113,0.1829 4.96543,-0.0987 1.2132,-0.14515 2.54407,-0.26479 2.95766,-0.26559 0.4136,-7.9e-4 0.75205,-0.0656 0.75205,-0.14379 0,-0.0783 -0.78942,-0.37769 -1.75446,-0.66577 -2.21465,-0.66108 -4.58697,-0.72488 -6.19098,-0.17962 1.21504,-0.79865 2.16296,-1.43301 2.86967,-1.91798 0.0782,0.0327 0.20858,0.0374 0.41128,0.0374 1.49134,0 2.66656,-0.52681 4.16718,-1.86834 1.56211,-1.3965 2.47508,-2.60869 1.771,-2.35089 -0.20416,0.0748 -1.00286,0.28156 -1.77489,0.45953 -3.15059,0.72626 -4.1855,1.44064 -4.60374,3.17684 -0.003,0.0115 -0.003,0.016 -0.006,0.0271 -1.21927,0.66408 -2.72315,1.52705 -3.66451,2.08633 0.0423,-0.0365 0.0892,-0.0735 0.12882,-0.10951 1.16219,-1.05549 1.72723,-2.00736 2.23041,-3.75613 l 0.3578,-1.24299 -0.43023,0.20264 c -0.23657,0.11149 -0.96301,0.52499 -1.61447,0.91856 -2.53934,1.53416 -3.85416,3.47318 -3.41513,5.03699 0.0721,0.25688 0.17019,0.46721 0.2178,0.46721 0.072,0 0.18676,-0.0371 0.31744,-0.089 -3.44894,2.44565 -6.30376,5.55556 -8.32999,9.12062 0.33122,-0.77827 0.52966,-1.70209 0.53135,-2.60626 0.002,-1.08213 -0.14109,-1.76302 -0.67524,-3.21163 l -0.67816,-1.83866 -0.57121,1.50858 c -1.53522,4.05442 -1.58539,5.33336 -0.28683,7.3009 l 0.41079,0.62227 0.44676,-0.46466 c 0.1206,-0.12534 0.2344,-0.26861 0.34224,-0.42371 -0.79917,1.5393 -1.44701,3.15673 -1.92511,4.83638 -0.0141,-0.33709 -0.0599,-0.66121 -0.1439,-0.97842 -0.289,-1.09158 -1.08052,-2.78426 -1.49293,-3.19271 -0.15272,-0.15126 -0.58574,-0.73249 -0.96206,-1.29161 -0.66517,-0.98828 -0.68416,-1.00086 -0.68886,-0.44828 -0.003,0.31262 -0.0751,1.46171 -0.16092,2.55355 -0.25191,3.20624 0.38729,5.13931 1.98783,6.01183 0.45303,0.24697 0.67072,0.35442 0.81428,0.27532 -0.20958,1.30964 -0.32182,2.64783 -0.32182,4.01044 0,0.15394 0.004,0.30724 0.007,0.46057 -0.49914,-1.20019 -2.52002,-3.8696 -3.33297,-4.37276 -0.26957,-0.16685 -0.81593,-0.5455 -1.21389,-0.84129 -0.55509,-0.41263 -0.68974,-0.45872 -0.57947,-0.19753 0.079,0.18724 0.27939,1.07489 0.4453,1.97222 0.58994,3.19076 1.62524,5.01471 3.45887,6.09422 0.60375,0.35544 1.22035,0.64632 1.37043,0.64632 0.0445,0 0.0827,-0.0264 0.11619,-0.0686 0.22353,1.52236 0.58217,3.0059 1.06659,4.43929 -0.63787,-0.90449 -1.43097,-1.70359 -2.17402,-2.10681 -0.3868,-0.20991 -1.2304,-0.70906 -1.87503,-1.10944 -0.64463,-0.40037 -1.59751,-0.94673 -2.11714,-1.21382 L -36,2.229863 l 1.19541,2.15747 c 0.65739,1.18647 1.51207,2.58376 1.89934,3.10519 0.85859,1.15602 2.29791,2.16727 3.7355,2.62366 1.2059,0.38283 1.5297,0.46285 1.55078,0.11359 0.8105,1.65833 1.79439,3.23032 2.9319,4.69669 -0.44995,-0.42144 -0.91239,-0.80516 -1.29215,-1.0511 -1.26164,-0.81703 -3.50411,-1.7335 -4.79869,-1.96095 -0.61979,-0.10891 -1.46698,-0.31404 -1.88281,-0.45596 -1.06418,-0.36321 -1.10411,-0.33227 -0.42488,0.32495 0.33119,0.32043 1.00108,1.05767 1.48904,1.63856 0.90618,1.0788 2.96884,2.67529 4.17884,3.23467 0.37078,0.17141 1.22749,0.42101 1.90372,0.55471 0.67625,0.13375 1.40993,0.2087 1.63051,0.16632 0.22059,-0.0422 0.56158,-0.0783 0.75741,-0.0793 0.29295,-0.002 0.31448,-0.0532 0.12251,-0.39915 4.75205,5.08378 11.48933,8.57515 19.11497,9.46911 -0.75946,0.13059 -1.53642,0.3098 -2.14776,0.51685 -1.05088,0.3559 -6.91794,2.90946 -6.91824,3.01103 -2.5e-4,0.10449 3.89234,-0.0783 5.13362,-0.24102 1.76207,-0.23102 4.06355,-0.91407 5.00432,-1.48557 0.38986,-0.23683 1.01842,-0.75377 1.39667,-1.14883 l 0.42343,-0.44214 c 0.3294,0.0101 0.65975,0.0164 0.99172,0.0164 0.36828,0 0.73405,-0.008 1.09916,-0.02 l 1.04228,0.87148 c 1.13434,0.94861 1.51016,1.1441 2.97955,1.548 2.45603,0.67508 2.65663,0.70706 5.29113,0.84589 1.3235,0.0697 2.5189,0.1394 2.65677,0.15505 0.13784,0.0157 0.25084,-0.0107 0.25084,-0.0583 0,-0.11636 -1.77796,-0.90916 -2.4064,-1.07311 -0.27573,-0.0719 -0.82345,-0.3256 -1.21729,-0.56341 -1.33691,-0.80723 -3.7778,-1.58541 -5.73984,-1.94152 10.9949,-1.31379 20.13643,-8.02645 24.12075,-17.12411 -0.18706,0.4814 -0.3194,0.87295 -0.3194,0.97382 0,0.35782 0.28758,0.34667 1.5333,-0.0604 1.43017,-0.46732 2.77613,-1.33844 3.59012,-2.32378 0.69559,-0.84201 3.3234,-5.40847 3.11178,-5.40748 -0.13258,7.9e-4 -2.68367,1.41339 -4.24787,2.35244 -1.67049,1.00286 -2.60193,2.01737 -3.30479,3.59389 0.74537,-1.88586 1.27187,-3.86693 1.55127,-5.91767 0.0666,0.51678 0.4371,0.35782 1.5853,-0.25484 1.82365,-0.97307 2.97067,-2.89721 3.51527,-5.89772 0.15491,-0.85348 0.37056,-1.76098 0.47933,-2.01674 0.10875,-0.25577 0.12416,-0.46516 0.034,-0.46516 -0.29094,0 -3.31452,2.7551 -4.01989,3.66298 -0.72823,0.93733 -1.1676,1.85759 -1.39957,2.95065 0.0258,-0.46756 0.0389,-0.93848 0.0389,-1.41187 0,-8.99659 -4.73277,-16.98655 -12.04361,-22.02242 0.37506,0.16995 0.7498,0.28648 0.85368,0.26046 0.29138,-0.0731 0.36697,-1.35382 0.12297,-2.0848 -0.32075,-0.96098 -2.06462,-2.66773 -3.68249,-3.60412 -0.79962,-0.46283 -1.48374,-0.81591 -1.52015,-0.785 -0.11363,0.0966 0.5556,2.25207 0.93921,3.02536 0.33425,0.67378 1.36441,1.77789 2.26785,2.51261 -0.5383,-0.33977 -1.08912,-0.66427 -1.65192,-0.97229 -0.54252,-0.22816 -1.58954,-0.74304 -2.62318,-1.25068 0.0222,-0.0486 0.0316,-0.10922 0.0316,-0.18576 0,-1.26456 -1.4845,-2.60156 -3.43749,-3.09599 -0.70137,-0.17757 -1.71379,-0.44414 -2.24984,-0.59258 -0.40204,-0.11134 -0.7658,-0.19276 -0.93776,-0.21288 z m 15.01148,3.63842 0.0709,2.33043 c 0.0638,2.08527 0.12906,2.44121 0.61788,3.37949 0.32198,0.61808 0.93811,1.37172 1.50071,1.83558 0.52496,0.43284 1.01876,0.78759 1.09722,0.78858 0.3089,0.004 0.59952,-1.57069 0.48857,-2.64669 -0.16677,-1.61695 -0.77382,-2.60556 -3.00581,-4.89676 z m -42.50991,0.0783 -1.28681,1.39498 c -0.70791,0.76733 -1.5193,1.81104 -1.8026,2.31918 -0.57309,1.02793 -0.75116,2.5317 -0.44774,3.7817 0.10171,0.41904 0.27597,0.76197 0.38697,0.76197 0.11101,0 0.67925,-0.42344 1.26299,-0.94108 1.63081,-1.44615 2.33464,-3.58049 2.0272,-6.14694 z m 49.20598,5.35733 c -0.10828,-0.009 -0.37271,0.43937 -0.70051,1.19745 -0.55349,1.27995 -0.6215,1.64616 -0.63297,3.40609 -0.0119,1.83388 0.0275,2.04087 0.56248,2.95782 0.31637,0.54228 0.67372,1.0953 0.79385,1.22868 0.17876,0.19848 0.28143,0.1728 0.56635,-0.14176 0.51903,-0.573 1.17293,-2.26328 1.16917,-3.02076 -0.005,-0.84822 -0.84336,-3.5744 -1.72191,-5.59529 -0.009,-0.0203 -0.0209,-0.031 -0.0365,-0.0322 z m 4.71118,6.66941 -0.87604,1.20769 c -0.48177,0.66443 -1.16772,1.73253 -1.52453,2.37342 -0.60769,1.09169 -0.64847,1.28437 -0.64752,3.04788 0,1.19552 0.0949,2.02921 0.25764,2.2854 0.14096,0.22184 0.31044,0.40324 0.37629,0.40324 0.40036,0 1.44817,-0.80157 1.80405,-1.38014 0.86801,-1.41116 1.084,-3.12234 0.78171,-6.19197 z m -56.89184,6.73901 c 0,-0.0503 -0.81332,0.60429 -1.80746,1.45486 -1.95125,1.66943 -2.56567,2.55849 -3.11956,4.51245 -0.22105,0.77979 -0.28212,1.45459 -0.19105,2.1063 0.0737,0.52744 0.19979,0.95898 0.2805,0.95898 0.18059,0 2.01646,-2.18472 2.57022,-3.05863 0.36046,-0.56884 0.9708,-2.12117 1.94698,-4.95254 0.17638,-0.51152 0.32037,-0.97111 0.32037,-1.02142 z m -0.64074,6.54302 c -0.2765,-0.10844 -2.56464,3.2439 -2.96738,4.4096 -0.5283,1.52897 -0.52168,3.16007 0.018,4.44952 0.41386,0.98886 0.42694,0.99917 0.82352,0.67855 0.49019,-0.3963 1.09686,-1.43196 1.49051,-2.54536 0.23068,-0.65251 0.63099,-4.83615 0.6626,-6.92272 5e-4,-0.0396 -0.009,-0.0624 -0.0273,-0.0696 z m 58.58848,12.23604 c -0.15353,0.006 -0.42954,0.0654 -0.82013,0.18012 -0.48343,0.14211 -1.37059,0.34916 -1.97177,0.46005 -1.62237,0.29931 -4.32961,1.57569 -5.64892,2.66306 -0.95552,0.78752 -2.18181,2.25519 -2.18181,2.61138 0,0.0498 0.24798,0.12493 0.55129,0.16683 1.03538,0.14308 3.36191,-0.34486 4.29064,-0.90014 2.4639,-1.47314 3.10454,-2.00714 4.27755,-3.56371 0.37958,-0.50369 0.92754,-1.05485 1.21729,-1.22458 0.458,-0.26827 0.54171,-0.40373 0.28586,-0.39301 z m -62.30889,7.88836 c -0.22796,-10e-4 -0.37437,0.009 -0.41225,0.0332 -0.0335,0.0215 0.94015,0.65806 2.16381,1.41443 2.21002,1.36607 2.80772,1.63122 5.11612,2.27159 1.38014,0.38286 3.45907,0.33168 4.65527,-0.11515 l 0.71997,-0.26916 -0.78269,-0.61409 c -0.43037,-0.33783 -1.36864,-0.86992 -2.08553,-1.1821 -0.7169,-0.31218 -1.44565,-0.63154 -1.61933,-0.70978 -0.55426,-0.24981 -6.15967,-0.82038 -7.75537,-0.829 z m 57.16406,0.0686 c -0.55921,-0.006 -1.74954,0.0663 -3.93431,0.22977 -2.71508,0.20312 -4.57264,0.7059 -6.21772,1.68207 -1.4868,0.88222 -1.83727,1.24495 -1.46812,1.51882 0.15646,0.11609 0.67748,0.2804 1.15797,0.36487 1.76847,0.31081 3.29338,0.12285 5.54149,-0.68215 0.96399,-0.34517 5.09398,-2.6872 5.32419,-3.01922 0.0404,-0.0583 -0.068,-0.0903 -0.4035,-0.0942 z m -14.72465,5.42233 c -1.34109,0 -3.95566,0.48246 -4.73936,0.87455 -0.3751,0.18765 0.935,0.99009 2.36945,1.45127 0.77972,0.25069 1.62442,0.35173 2.97467,0.35668 1.64483,0.006 2.25436,-0.0907 4.77,-0.75532 2.56343,-0.6772 2.81071,-0.77589 2.22504,-0.88786 -3.10667,-0.59394 -6.36335,-1.03932 -7.5998,-1.03932 z m -27.72156,0.0353 c -1.06336,0.009 -2.18159,0.11202 -3.29943,0.31164 -1.06899,0.1909 -2.60659,0.44713 -3.41707,0.56956 l -1.47397,0.2226 0.87214,0.21799 c 0.47961,0.11979 1.77453,0.46236 2.87745,0.76147 3.4738,0.9421 7.22211,0.66928 8.91092,-0.64888 l 0.64511,-0.50354 -0.51677,-0.21033 c -1.20714,-0.49169 -2.82614,-0.73603 -4.59838,-0.72051 z"
						fill="#ffee77"
						id="path1276"/>
			</g>
			<g
					transform="matrix(0.52088886,0,0,0.52088886,274.6286,220.3363)"
					id="g1282">
				<path
						d="m 26.111216,-0.17400169 q 0,1.47389969 -0.02075,2.64073689 0,1.1463664 -0.08304,1.8014328 -0.06228,0.4503582 -0.186844,0.7574207 -0.103803,0.3070624 -0.41521,0.3684749 -0.145324,0.040941 -0.311408,0.061413 -0.166084,0.020471 -0.311408,0.020471 -0.166084,0 -0.166084,0.122825 0,0.1637666 0.332168,0.1637666 0.228366,0 0.560534,-0.020471 0.332168,0 0.643577,-0.020471 0.311407,0 0.519013,-0.020471 0.228364,0 0.228364,0 0.04152,0 0.269888,0 0.249126,0.020471 0.602054,0.020471 0.37369,0.020471 0.809661,0.020471 0.43597,0.020471 0.871942,0.020471 0.332168,0 0.332168,-0.1637666 0,-0.122825 -0.166084,-0.122825 -0.145324,0 -0.435972,-0.020471 Q 28.913886,5.4350052 28.685521,5.3940636 28.208029,5.3326511 28.062705,5.0255887 27.917381,4.7185262 27.87586,4.268168 27.792818,3.6131016 27.772057,2.4667352 q 0,-1.1668372 0,-2.64073689 v -0.49129987 q 0,-0.16376663 0.145324,-0.16376663 l 2.553544,0.0409416 q 0.145324,0 0.269887,0.12282497 0.145323,0.20470828 0.394449,0.55271235 0.269887,0.32753325 0.560534,0.73694982 0.311408,0.40941655 0.643576,0.85977485 0.332169,0.4503582 0.664337,0.8802456 0.892702,1.1668372 1.515518,1.9242579 0.622815,0.7369498 1.287152,1.0849539 0.39445,0.2251791 0.871942,0.3070624 0.477491,0.081884 1.349433,0.081884 h 1.473997 q 0.290647,0 0.39445,-0.040941 0.103802,-0.020471 0.103802,-0.1228249 0,-0.122825 -0.186845,-0.122825 -0.103803,0 -0.311407,0 Q 39.294144,5.4554761 39.003497,5.4145344 38.609048,5.3531219 37.965472,5.0870012 37.321896,4.8208804 36.470714,3.9406348 35.557252,2.9785059 34.498465,1.647902 33.439679,0.31729819 32.152527,-1.2998972 q 1.390954,-1.2691914 1.951488,-2.4155578 0.560535,-1.1668372 0.560535,-2.3132036 0,-0.5322414 -0.166085,-0.9825998 -0.145324,-0.4503582 -0.37369,-0.7983622 -0.207604,-0.3480041 -0.45673,-0.593654 -0.249127,-0.2661208 -0.435972,-0.4094166 -0.83042,-0.593654 -1.826925,-0.7369498 -0.975745,-0.1637666 -1.972249,-0.1637666 -0.249127,0 -0.622816,0.020471 -0.373688,0 -0.768139,0.020471 -0.37369,0 -0.685097,0.020471 -0.290647,0 -0.373689,0 -0.04152,0 -0.290647,0 -0.228366,-0.020471 -0.581295,-0.020471 -0.332168,-0.020471 -0.726618,-0.020471 -0.39445,-0.020471 -0.747378,-0.020471 -0.332169,0 -0.332169,0.1637666 0,0.122825 0.166084,0.122825 0.145324,0 0.352929,0.020471 0.228366,0 0.352929,0.040941 0.519013,0.1023541 0.685097,0.3684749 0.166085,0.2661207 0.207605,0.7983622 0.02076,0.24565 0.02076,0.5322416 0.02075,0.2661207 0.02075,0.7369498 0,0.4503582 0,1.2077789 0,0.7574206 0,1.9447286 z m 1.660841,-8.51586451 q 0,-0.1842375 0.166085,-0.2456499 0.166084,-0.040941 0.539773,-0.081884 0.37369,-0.040941 0.851182,-0.040941 1.681601,0 2.636585,1.0849539 0.954984,1.0849538 0.954984,3.0092117 0,1.1668373 -0.373689,1.9856703 -0.352929,0.7983623 -0.892703,1.1668373 -0.352929,0.2456499 -0.768139,0.3275332 -0.41521,0.061412 -0.788899,0.061412 -0.685098,0 -1.328674,-0.081884 -0.622815,-0.1023542 -0.851181,-0.24565 -0.145324,-0.081884 -0.145324,-0.2456499 z M 12.780045,7.2569089 Q 15.312828,8.6489253 17.368119,9.3244626 19.444171,10 21.333377,10 q 1.141829,0 2.138334,-0.1432959 1.017265,-0.1432958 1.847686,-0.3684749 0.851182,-0.2047083 1.494758,-0.4503582 0.664336,-0.24565 1.100306,-0.4503582 0.166085,-0.081884 0.166085,-0.2047083 0,-0.122825 -0.124563,-0.122825 -0.04152,0 -0.124563,0.020471 -0.06229,0.020471 -0.166085,0.061413 -1.079546,0.4298874 -2.200614,0.6141249 -1.100308,0.1842374 -1.889208,0.1842374 -0.394449,0 -1.162588,-0.061412 -0.768139,-0.040942 -1.889208,-0.286592 -1.121068,-0.2251799 -2.553543,-0.7164797 -1.432475,-0.4913 -3.134838,-1.3510747 L 10.57943,4.5547596 q 0.519013,-0.3275332 1.141829,-0.941658 0.643576,-0.614125 1.204109,-1.4738997 0.560535,-0.8802456 0.934223,-1.98567034 0.394451,-1.12589555 0.394451,-2.47697016 0,-1.7809621 -0.622816,-3.1934493 -0.622815,-1.432958 -1.723123,-2.4155576 -1.079547,-1.0030706 -2.5743042,-1.5353122 -1.4947573,-0.5322414 -3.2386408,-0.5322414 -1.4324756,0 -2.5950646,0.3684748 -1.1625889,0.3480041 -2.0760517,0.9621289 -0.91346276,0.6141249 -1.5777993,1.4329579 -0.64357604,0.7983624 -1.0795469,1.6990788 -0.4359708,0.8802457 -0.6435761,1.8014329 -0.2076051,0.9211872 -0.2076051,1.7400204 0,1.39201632 0.4567314,2.82497429 0.4567314,1.41248711 1.43247566,2.57932431 0.99650482,1.1668373 2.53278314,1.9037871 1.5362782,0.7369498 3.695372,0.7369498 0.4152104,0 0.8719417,-0.061413 Q 7.3615496,5.9467759 7.7975205,5.8444218 8.2334913,5.7625385 8.6071806,5.6397135 9.0016305,5.4964177 9.2922778,5.3531219 Z M -0.11223657,-2.5690886 q 0,-1.6786079 0.45673138,-2.9273284 0.45673137,-1.2691914 1.26639149,-2.1084953 0.8096602,-0.8597748 1.9099676,-1.2691914 1.121068,-0.4298874 2.4289806,-0.4298874 1.2248704,0 2.366699,0.4912999 1.1418284,0.4912999 2.0137705,1.4534289 0.871942,0.941658 1.390955,2.3541452 0.539773,1.4124871 0.539773,3.2548616 0,2.23132031 -0.643576,3.6233366 Q 10.99464,3.2446266 10.081178,4.0020473 9.1884751,4.7594679 8.2127308,5.0255887 7.2369865,5.2712386 6.531129,5.2712386 q -1.4117153,0 -2.6158253,-0.5527124 Q 2.7111937,4.1658139 1.797731,3.1422725 0.90502877,2.1187311 0.38601584,0.66530227 -0.11223657,-0.78812653 -0.11223657,-2.5690886 Z M -19.788987,-0.17400169 q 0,1.47389969 -0.02076,2.64073689 0,1.1463664 -0.08304,1.8014328 -0.06229,0.4503582 -0.186845,0.7574207 -0.103802,0.3070624 -0.41521,0.3684749 -0.145324,0.040941 -0.311408,0.061413 -0.166084,0.020471 -0.311408,0.020471 -0.166084,0 -0.166084,0.122825 0,0.1637666 0.332169,0.1637666 0.228365,0 0.560533,-0.020471 0.332169,0 0.643576,-0.020471 0.311409,0 0.539774,-0.020471 0.228366,0 0.249126,0 0.04152,0 0.269886,0 0.249127,0.020471 0.602056,0.020471 0.373689,0.020471 0.809661,0.020471 0.43597,0.020471 0.87194,0.020471 0.332169,0 0.332169,-0.1637666 0,-0.122825 -0.166084,-0.122825 -0.145323,0 -0.435971,-0.020471 -0.269887,-0.020471 -0.498253,-0.061413 -0.477491,-0.061412 -0.622815,-0.3684749 -0.145324,-0.3070625 -0.186845,-0.7574207 -0.08304,-0.6550664 -0.103802,-1.8014328 0,-1.1668372 0,-2.64073689 V -8.5875121 q 0,-0.3275332 0.166085,-0.3889457 0.145323,-0.061412 0.373688,-0.081884 0.249126,-0.040941 0.519014,-0.040941 0.186844,0 0.498251,0 0.311409,0 0.685098,0.1023542 0.39445,0.081884 0.80966,0.3070624 0.435971,0.2047083 0.851181,0.6141248 0.41521,0.4094166 0.643576,0.8597748 0.228366,0.4503582 0.332169,0.8802457 0.124563,0.4298873 0.145323,0.7983622 0.04152,0.3684749 0.04152,0.6141249 0,0.716479 -0.290647,1.3306038 -0.269887,0.5936541 -0.747379,1.0440123 -0.477492,0.4503582 -1.141828,0.7164789 -0.664336,0.24565 -1.411715,0.24565 -0.332169,0 -0.456732,0.040941 -0.103803,0.020471 -0.103803,0.1432958 0,0.081884 0.06229,0.122825 0.08304,0.020471 0.166084,0.020471 0.08304,0.020471 0.207606,0.020471 0.145323,0 0.228366,0 1.100306,0 2.03453,-0.348004 0.934223,-0.3480041 1.61932,-0.9825998 0.685097,-0.6550664 1.058787,-1.555783 0.39445,-0.9007164 0.39445,-1.9856702 0,-0.8188332 -0.352929,-1.4534289 -0.332168,-0.6550664 -0.685097,-0.9825997 -0.124563,-0.122825 -0.373689,-0.3070624 -0.249127,-0.2047083 -0.705859,-0.3889458 -0.45673,-0.1842374 -1.141828,-0.3275332 -0.664336,-0.1432958 -1.640081,-0.1432958 -0.726617,0 -1.494757,0.040941 -0.768139,0.020471 -1.121067,0.020471 -0.06229,0 -0.311409,0 -0.228366,-0.020471 -0.581294,-0.020471 -0.332168,-0.020471 -0.726618,-0.020471 -0.373689,-0.020471 -0.726618,-0.020471 -0.332168,0 -0.332168,0.1637666 0,0.122825 0.166084,0.122825 0.145323,0 0.352929,0.020471 0.228365,0 0.352928,0.040941 0.519013,0.1023541 0.685098,0.3684749 0.166083,0.2661207 0.207604,0.7983622 0.02077,0.24565 0.02077,0.5322416 0.02076,0.2661207 0.02076,0.7369498 0,0.4503582 0,1.2077789 0,0.7574206 0,1.9447286 z M -36.906683,6.0491301 q 0.851182,0 1.660842,-0.2047083 0.809659,-0.1842375 1.473997,-0.6550665 0.539773,-0.3684749 0.87194,-0.8188332 0.352929,-0.4708289 0.539775,-0.941658 0.207604,-0.4708291 0.269886,-0.9007165 0.08304,-0.4298874 0.08304,-0.7369498 0,-0.6141248 -0.124563,-1.16683719 -0.124564,-0.57318319 -0.477492,-1.12589555 -0.332168,-0.57318316 -0.934223,-1.18730806 -0.581294,-0.6141248 -1.494757,-1.3306038 l -0.581295,-0.4503582 q -0.747379,-0.5731832 -1.245631,-1.0235414 -0.477492,-0.4503582 -0.768139,-0.839304 -0.290647,-0.3889457 -0.41521,-0.7574207 -0.103803,-0.3889457 -0.103803,-0.818833 0,-1.1258956 0.726618,-1.7400205 0.747379,-0.6345956 1.826926,-0.6345956 0.705858,0 1.183349,0.1432958 0.477492,0.1228249 0.76814,0.3070624 0.311407,0.1842374 0.456731,0.3684749 0.145323,0.1842375 0.186845,0.2661207 0.103801,0.1637667 0.166084,0.5117707 0.08304,0.3275334 0.103802,0.5117707 0.02076,0.122825 0.04152,0.2047084 0.02076,0.061412 0.124563,0.061412 0.145324,0 0.145324,-0.4708291 0,-1.0440123 0.04152,-1.5557829 0.04152,-0.5322416 0.04152,-0.6141249 0,-0.1432958 -0.207606,-0.1432958 -0.124563,0 -0.290646,-0.020471 -0.145324,-0.020471 -0.435972,-0.081884 -0.39445,-0.1023541 -0.871941,-0.1432964 -0.456731,-0.061407 -1.058787,-0.061407 -0.996505,0 -1.785404,0.266121 -0.7889,0.2661207 -1.349434,0.7574205 -0.560534,0.4913 -0.871941,1.1668373 -0.290648,0.6755373 -0.290648,1.4943704 0,0.5322416 0.103803,1.0440123 0.124563,0.4912998 0.41521,1.0440122 0.311408,0.5322415 0.830421,1.1054248 0.519013,0.5731832 1.349434,1.2487205 l 0.934223,0.7574206 q 0.664336,0.55271235 1.121068,1.00307056 0.456731,0.4298874 0.726618,0.85977479 0.290647,0.40941655 0.41521,0.85977475 0.124564,0.4298875 0.124564,0.9621289 0,0.4912999 -0.186846,0.9825998 -0.186844,0.4912999 -0.560533,0.8802456 -0.352929,0.368475 -0.913463,0.6141248 -0.560534,0.24565 -1.307913,0.24565 -0.519013,0 -1.017265,-0.1023541 -0.498253,-0.122825 -0.934223,-0.368475 -0.41521,-0.2456498 -0.705858,-0.6345957 -0.290647,-0.4094165 -0.41521,-0.9825997 -0.04152,-0.2251791 -0.06229,-0.4094165 0,-0.2047083 0,-0.3480041 0,-0.2251791 -0.145324,-0.2251791 -0.145324,0 -0.166085,0.3275332 -0.02076,0.24565 -0.06228,0.8188332 Q -40,3.9406391 -40,4.7185305 q 0,0.4094166 0.04152,0.5527123 0.04152,0.122825 0.269887,0.2251792 0.643576,0.3070624 1.349433,0.4298874 0.705858,0.122825 1.432476,0.122825 z"
						fill="#ffee77"
						stroke="#ffee77"
						stroke-width="1.35"
						id="path1280"/>
			</g>
		</g>
		<path
				style="fill:#000000;fill-opacity:0.33333333;fill-rule:nonzero;stroke:none;stroke-width:1.74999988;stroke-linecap:round;stroke-linejoin:round;stroke-miterlimit:4;stroke-dasharray:none;stroke-dashoffset:0;stroke-opacity:1;paint-order:normal"
				d="m 16.000088,216.99972 c -8.8639991,0 -16.000056560368,7.13605 -16.000056560368,16.00005 v 48.00017 C 3.1439632e-5,289.86394 7.1360889,297 16.000088,297 h 95.999822 c 8.864,0 16.00006,-7.13606 16.00006,-16.00006 v -48.00017 c 0,-8.864 -7.13606,-16.00005 -16.00006,-16.00005 z m 0,4.00027 h 95.999822 c 6.648,0 12.0003,5.35178 12.0003,11.99978 v 48.00017 c 0,6.648 -5.3523,11.99979 -12.0003,11.99979 H 16.000088 c -6.648,0 -11.9997842,-5.35179 -11.9997842,-11.99979 v -48.00017 c 0,-6.648 5.3517842,-11.99978 11.9997842,-11.99978 z"
				id="rect815-8"/>
	</g>
</svg>
