<?xml version="1.0" encoding="UTF-8" standalone="no"?>
<!-- Created with Inkscape (http://www.inkscape.org/) -->

<svg
   width="128mm"
   height="80mm"
   viewBox="0 0 128 80"
   version="1.1"
   id="svg8"
   inkscape:version="1.2 (dc2aedaf03, 2022-05-15)"
   sodipodi:docname="olympia.inkscape.svg"
   xmlns:inkscape="http://www.inkscape.org/namespaces/inkscape"
   xmlns:sodipodi="http://sodipodi.sourceforge.net/DTD/sodipodi-0.dtd"
   xmlns="http://www.w3.org/2000/svg"
   xmlns:svg="http://www.w3.org/2000/svg"
   xmlns:rdf="http://www.w3.org/1999/02/22-rdf-syntax-ns#"
   xmlns:cc="http://creativecommons.org/ns#"
   xmlns:dc="http://purl.org/dc/elements/1.1/">
  <defs
     id="defs2">
    <clipPath
       clipPathUnits="userSpaceOnUse"
       id="clipPath904">
      <g
         inkscape:label="Clip"
         id="use906">
        <g
           style="stroke-width:1.19062495"
           transform="matrix(0.22222222,0,0,0.22222222,-2.666666,217)"
           id="g941">
          <rect
             style="fill:#ffcc33;stroke-width:1.19062495"
             width="600"
             height="360"
             x="0"
             y="0"
             id="rect921" />
          <polygon
             style="fill:#ffffff;stroke-width:1.19062495"
             points="540,360 600,360 600,324 60,0 0,0 0,36 "
             id="polygon923" />
          <polygon
             style="fill:#ffffff;stroke-width:1.19062495"
             points="60,360 0,360 0,324 540,0 600,0 600,36 "
             id="polygon925" />
          <circle
             style="fill:#ffffff;stroke-width:1.19062495"
             r="150"
             cx="300"
             cy="180"
             id="circle927" />
          <polygon
             style="fill:#000000;stroke-width:1.19062495"
             points="566.25,360 600,360 600,339.75 33.75,0 0,0 0,20.25 "
             id="polygon929" />
          <polygon
             style="fill:#000000;stroke-width:1.19062495"
             points="33.75,360 0,360 0,339.75 566.25,0 600,0 600,20.25 "
             id="polygon931" />
          <circle
             style="fill:#000000;stroke-width:1.19062495"
             r="135"
             cx="300"
             cy="180"
             id="circle933" />
          <circle
             style="fill:#ffffff;stroke-width:1.19062495"
             r="105"
             cx="300"
             cy="180"
             id="circle935" />
          <g
             style="stroke-width:1.19062495"
             transform="matrix(3,0,0,3,300,191.25)"
             id="g939">
            <path
               style="fill:#000000;stroke-width:1.19062495"
               inkscape:connector-curvature="0"
               d="m -1.266704,23.778129 c -1.537976,-1.75464 -1.571822,-2.10765 -0.459874,-4.79639 0.150439,-0.36377 -0.112142,-0.23308 -0.896696,0.44631 -0.655233,0.56739 -1.482703,1.0189 -2.021186,1.10286 -1.654672,0.25799 -2.182575,0.67965 -2.182575,1.74329 0,0.52345 -0.06805,0.95164 -0.15123,0.95156 -0.428121,-4.8e-4 -0.992507,-1.04979 -0.992507,-1.84528 0,-1.1674 0.625845,-1.73918 2.625496,-2.39874 1.199991,-0.3958 1.692435,-0.71591 2.135763,-1.38835 0.9526,-1.44489 0.737478,-1.65152 -0.827451,-0.79473 -1.59832,0.87506 -2.889925,0.98115 -4.417046,0.36282 -0.816105,-0.33045 -1.111578,-0.34717 -1.593667,-0.0901 -1.194321,0.63682 -1.292751,1.56673 -0.282539,2.66923 0.492449,0.53743 0.559391,0.70267 0.233375,0.57608 -0.251428,-0.0977 -0.502036,-0.17753 -0.55691,-0.17753 -0.264693,0 -0.875311,-1.60855 -0.875311,-2.30584 0,-1.28964 1.130372,-1.80725 3.949337,-1.80843 3.214575,-9.8e-4 4.518877,-0.71753 5.37184,-2.94962 0.514679,-1.34684 0.417693,-1.9089 -0.361909,-2.09737 -1.058648,-0.25592 -1.334359,-0.5868 -1.334359,-1.60137 0,-0.91139 0.0062,-0.91696 0.395657,-0.35432 0.524909,0.75837 1.273265,0.72378 1.795654,-0.083 0.536373,-0.8284 0.203861,-2.14266 -0.871739,-3.44558 l -0.730766,-0.8852 -0.910443,0.92134 c -0.500745,0.50672 -1.159057,1.41447 -1.46292,2.01721 -0.419085,0.8313 -0.607728,1.00888 -0.781316,0.73548 -0.179494,-0.28268 -0.418748,-0.13852 -1.109415,0.66841 -1.245472,1.45514 -1.173036,1.67116 0.561783,1.67533 1.908554,0.005 2.605178,0.20957 2.605178,0.76659 0,0.24911 0.17156,0.597 0.381245,0.77311 0.393009,0.33007 0.496885,1.19619 0.228384,1.90426 -0.128845,0.33978 -0.226073,0.31277 -0.618855,-0.17186 -0.406156,-0.50115 -0.534723,-0.53258 -1.001214,-0.24477 -0.693773,0.42803 -1.063835,0.1817 -0.874407,-0.58205 0.16074,-0.64811 -0.435325,-1.16479 -1.339031,-1.1607 -0.69083,0.003 -4.834261,3.20771 -5.043154,3.90042 -0.263135,0.87259 -0.874101,1.48601 -1.311067,1.31632 -0.223827,-0.0869 -0.643121,0.13894 -1.018492,0.5486 -0.350927,0.38298 -0.684181,0.64963 -0.74057,0.59258 -0.05639,-0.0571 0.110739,-0.78519 0.371396,-1.61807 0.38267,-1.22273 0.639827,-1.60655 1.335522,-1.99332 0.92742,-0.51562 2.826745,-2.26031 2.652543,-2.4366 -0.05827,-0.059 -0.678917,0.0853 -1.379209,0.32075 -0.876661,0.29466 -1.231426,0.53828 -1.138963,0.78211 0.179599,0.47361 -1.752024,1.02066 -2.387924,0.67627 -0.49312,-0.26707 -1.768107,-0.10382 -1.986878,0.25439 -0.221918,0.36337 -0.870818,0.26078 -0.870818,-0.13766 0,-0.2003 0.502089,-0.90975 1.115757,-1.57658 0.997309,-1.08368 1.206424,-1.19821 1.969769,-1.07883 0.9164,0.14333 3.522728,-0.27954 3.522728,-0.57155 0,-0.097 -0.862372,-0.36584 -1.916381,-0.5973 -1.488659,-0.32691 -2.057472,-0.35578 -2.548531,-0.12938 -0.47568,0.21933 -0.705935,0.21681 -0.930252,-0.0102 -0.431062,-0.43622 -0.908137,-0.3733 -1.745723,0.23025 -0.736879,0.53098 -0.738186,0.531 -0.738186,0.0119 0,-0.28595 0.296444,-0.72786 0.658762,-0.98201 0.36232,-0.25417 0.845234,-0.66466 1.07314,-0.91223 0.552514,-0.60014 1.355241,-0.56825 2.177826,0.0865 0.663698,0.52832 3.725539,1.23626 5.427071,1.25482 0.701903,0.008 0.98832,-0.20506 1.956005,-1.45274 1.07998,-1.39246 1.273001,-2.07907 0.500097,-1.77893 -0.579444,0.22501 -0.404513,-0.24671 0.216332,-0.58337 0.660262,-0.35804 2.342474,-2.69467 2.018619,-2.80391 -0.119284,-0.0403 -1.122656,0.3838 -2.229717,0.9423 -2.211425,1.11566 -4.871725,1.90831 -5.916734,1.76296 l -0.671046,-0.0933 0.63541,-0.28094 c 0.889191,-0.39313 1.913097,-1.56793 2.390912,-2.74323 0.530007,-1.30368 0.521897,-1.32705 -0.276782,-0.79748 -3.054432,2.02528 -6.373977,2.84353 -8.785927,2.16568 -0.902324,-0.25359 -1.320233,-0.75432 -0.635409,-0.76135 1.074988,-0.0109 6.287241,-3.55212 6.289602,-4.27303 7.63e-4,-0.19664 -0.835486,-0.28617 -2.604229,-0.27882 -2.790155,0.0115 -4.074726,-0.34134 -5.225823,-1.43566 l -0.594273,-0.56497 2.125693,-0.28507 c 1.704551,-0.2286 2.387189,-0.4582 3.44558,-1.15888 0.725936,-0.48059 1.321941,-0.9606 1.324452,-1.06671 0.0025,-0.10609 -0.471469,-0.1929 -1.053291,-0.1929 -1.594373,0 -3.67165,-0.76481 -4.854596,-1.78737 l -1.056507,-0.91325 2.153165,-0.1318 c 1.704149,-0.10431 2.324786,-0.25546 2.976151,-0.72482 1.02149,-0.73605 1.032642,-0.96567 0.0565,-1.16323 -1.428742,-0.28917 -3.505191,-1.46364 -4.441095,-2.51196 -0.512524,-0.5741 -0.871622,-1.10476 -0.797996,-1.17927 0.07363,-0.0745 0.499895,-0.007 0.947261,0.15148 0.911187,0.32144 3.790274,0.39302 3.782458,0.094 -0.0028,-0.10609 -0.584779,-0.54011 -1.293347,-0.96449 -1.430677,-0.85689 -3.258274,-2.70744 -3.884906,-3.9337 L -25,-19.702331 l 1.080326,0.49624 c 0.594181,0.27294 1.637607,0.49879 2.318725,0.50189 1.072296,0.005 1.195961,-0.046 0.921994,-0.38016 -0.174024,-0.21219 -0.451524,-0.3858 -0.616673,-0.3858 -0.706905,0 -3.791295,-4.36994 -3.378928,-4.78725 0.07293,-0.0738 0.689595,0.15145 1.370367,0.50053 0.680772,0.34911 1.635729,0.67518 2.122124,0.72461 l 0.884355,0.0899 -0.08755,-1.00113 -0.08755,-1.00113 0.812825,0.93682 c 0.447057,0.51527 0.921769,0.93683 1.054917,0.93683 0.515268,0 3.330207,1.56724 3.806264,2.11917 0.840323,0.97425 1.227358,2.11052 1.064599,3.12548 -0.113992,0.71085 -0.034,1.07045 0.32826,1.47581 0.337896,0.37811 0.473581,0.90308 0.460667,1.78236 -0.0166,1.12914 0.04838,1.27434 0.690522,1.54351 0.982104,0.41167 1.309934,0.88494 1.474012,2.12795 0.13808,1.04605 0.16143,1.06828 1.041156,0.99149 0.621202,-0.0542 1.113125,0.0912 1.588357,0.46945 0.627195,0.49925 0.724151,0.51188 1.089679,0.14199 0.220675,-0.22332 0.639729,-0.5352 0.93123,-0.69307 l 0.530002,-0.28705 -0.520074,-0.41858 c -0.639267,-0.51452 -1.018939,-1.24254 -1.090154,-2.0904 -0.107567,-1.28065 -0.02255,-1.35286 0.784253,-0.66587 0.430093,0.36623 0.895758,0.66587 1.034807,0.66587 0.597264,0 0.979,-0.79285 0.979,-2.03332 0,-1.09612 -0.09758,-1.36316 -0.626211,-1.71367 -0.563649,-0.37373 -0.703105,-0.3764 -1.395877,-0.0266 -0.729528,0.36829 -0.756518,0.3637 -0.517525,-0.0881 0.541348,-1.02361 0.09246,-1.03403 -1.354128,-0.0314 -1.381115,0.95723 -1.989939,1.13451 -2.81115,0.81856 -0.982644,-0.37807 -1.32557,-1.30022 -0.82871,-2.22848 l 0.396665,-0.74107 0.01016,0.69827 c 0.01972,1.35306 1.428725,1.53466 3.614715,0.46588 0.586239,-0.28663 1.330339,-0.52114 1.653556,-0.52114 0.86923,0 0.718091,-0.41557 -0.46712,-1.2844 -1.383946,-1.01451 -2.597661,-1.05089 -3.093759,-0.0928 l -0.352328,0.68049 -0.545362,-0.55189 c -1.191382,-1.20562 -0.300048,-3.48292 1.443327,-3.68759 0.438365,-0.0514 0.709091,-0.25999 0.770799,-0.59372 0.208201,-1.12599 1.039687,-1.15758 3.594604,-0.13651 2.209083,0.88284 2.923957,0.95456 3.283769,0.3294 0.230767,-0.40094 0.259908,-0.38618 0.266792,0.13503 0.006,0.44851 -0.172409,0.6216 -0.763771,0.74128 -0.735253,0.14881 -0.751313,0.17873 -0.341853,0.63659 0.488398,0.54613 1.372827,0.62938 1.825012,0.17178 0.237218,-0.24005 0.304997,-0.18491 0.304997,0.24816 0,0.30624 -0.222073,0.67707 -0.4935,0.82406 -0.48424,0.26226 -0.482566,0.29234 0.0894,1.60386 0.584587,1.34045 1.166584,1.8972 1.166584,1.11599 0,-0.22962 0.237159,-0.88792 0.527021,-1.46288 l 0.52702,-1.04541 -0.540298,-0.38295 c -0.77022,-0.54594 -0.513934,-0.94114 0.623161,-0.96095 1.131549,-0.0197 1.477517,-0.52124 0.526228,-0.76286 -0.444296,-0.11284 -0.646467,-0.3389 -0.646467,-0.72285 0,-0.54302 0.01001,-0.54482 0.357354,-0.0642 0.398556,0.55157 0.747119,0.48963 3.871809,-0.68814 1.30873,-0.49329 1.667474,-0.53883 2.223932,-0.28224 0.396691,0.1829 0.663487,0.51498 0.663487,0.82582 0,0.35638 0.167559,0.51993 0.532653,0.51993 1.936674,0 3.004446,2.64601 1.527211,3.78458 -0.577665,0.44523 -0.670037,0.41376 -1.011447,-0.34451 -0.267889,-0.59499 -0.411389,-0.65755 -1.208161,-0.5267 -0.914235,0.15013 -2.636057,1.27972 -2.636057,1.72936 0,0.13427 0.200155,0.24466 0.444787,0.24531 0.244633,7.8e-4 1.131028,0.28727 1.969768,0.63691 0.83874,0.34963 1.764598,0.63845 2.057458,0.6418 0.637918,0.008 1.367498,-0.74267 1.389861,-1.42875 0.01326,-0.40597 0.06033,-0.38218 0.263786,0.13328 0.58031,1.4701 -0.515276,2.78981 -2.010064,2.42126 -0.376413,-0.0928 -1.162488,-0.49843 -1.746836,-0.90141 -1.473995,-1.01648 -2.122894,-0.96506 -1.17648,0.0932 0.416566,0.46581 0.406794,0.46845 -0.317705,0.0861 -0.969212,-0.51146 -1.213456,-0.499 -1.739,0.0887 -0.320828,0.35874 -0.414486,0.84085 -0.357097,1.83822 0.100256,1.74249 0.576384,2.10748 1.69639,1.30045 l 0.795951,-0.57356 v 0.95775 c 0,0.62532 -0.220546,1.25035 -0.635409,1.80077 -0.713209,0.94625 -0.768657,1.13455 -0.334086,1.13455 0.165728,0 0.557762,0.24379 0.871187,0.54176 l 0.569863,0.54175 0.590254,-0.56328 c 0.459744,-0.43874 0.800997,-0.5355 1.543368,-0.43764 0.907997,0.11971 0.953117,0.0909 0.953117,-0.60937 0,-1.16666 0.532961,-2.04751 1.559537,-2.57749 0.88369,-0.45621 0.94084,-0.55458 0.80703,-1.389 -0.0967,-0.60323 -0.009,-1.10777 0.26969,-1.53696 0.26219,-0.40493 0.41371,-1.18599 0.41371,-2.1326 0,-2.07439 0.88031,-3.13487 3.68599,-4.4404 1.19814,-0.55751 2.3108,-1.27517 2.6408,-1.70327 l 0.57027,-0.73986 -0.16401,0.76681 c -0.0902,0.42176 -0.18377,0.88472 -0.20794,1.02881 -0.081,0.48291 1.71608,0.12041 3.18787,-0.64304 l 1.45265,-0.75352 -0.26114,0.70069 c -0.52623,1.41189 -2.15837,3.65034 -3.08082,4.22529 -0.52116,0.32484 -0.95066,0.67743 -0.95442,0.78352 -0.0138,0.38962 2.18639,0.16653 3.2716,-0.33172 0.61492,-0.28232 1.16265,-0.46817 1.21719,-0.41299 0.15037,0.15218 -1.65653,2.51142 -2.55755,3.33935 -0.43688,0.40144 -1.36574,1.0944 -2.06412,1.53988 -0.98326,0.62723 -1.15999,0.83139 -0.78322,0.90483 0.69374,0.13519 3.48992,-0.1032 4.04845,-0.34517 0.44687,-0.19359 0.45031,-0.16436 0.0686,0.58258 -0.68065,1.33198 -2.78283,2.64068 -4.88182,3.03917 -1.1287,0.21428 -1.01159,0.59748 0.40621,1.32918 0.86678,0.44732 1.55268,0.5787 3.02127,0.5787 h 1.89993 l -0.71284,0.75295 c -0.97017,1.02474 -2.87667,1.80838 -4.8542,1.99525 -0.90456,0.0854 -1.64465,0.22997 -1.64465,0.32109 0,0.0911 0.6284,0.55106 1.39646,1.02212 1.09273,0.67019 1.87601,0.92078 3.60142,1.15216 l 2.20498,0.2957 -0.81718,0.69584 c -1.14819,0.97769 -2.56859,1.31639 -5.43256,1.29541 -1.36295,-0.0101 -2.4781,0.0698 -2.4781,0.17724 0,0.72369 3.5531,3.27814 5.5914,4.01987 0.69906,0.25439 1.27102,0.54166 1.27102,0.63838 0,0.26366 -2.11779,0.75133 -3.26282,0.75133 -1.44559,0 -4.01372,-0.86968 -5.63291,-1.90755 -1.30429,-0.83603 -1.40345,-0.8615 -1.480949,-0.38032 -0.128713,0.79929 1.892589,3.2867 2.688229,3.30812 0.17474,0.005 0.3177,0.13921 0.3177,0.29889 0,0.76887 -4.586921,-0.55263 -7.307201,-2.10518 -0.753489,-0.43005 -1.33436,-0.63123 -1.33436,-0.46215 0,0.4055 1.182598,2.01533 2.002436,2.72583 0.536631,0.46506 0.579732,0.57767 0.221496,0.5787 -0.244632,7.8e-4 -0.444787,0.12649 -0.444787,0.27951 0,0.27169 1.655539,2.4801 2.160392,2.88187 0.621355,0.49447 5.451034,-0.36138 6.451904,-1.14332 0.72652,-0.5676 1.24516,-0.59948 1.78709,-0.10985 2.26327,2.0448 2.75998,2.86931 1.14921,1.90757 -0.79597,-0.47525 -0.98223,-0.49902 -1.54067,-0.19657 -0.5085,0.27539 -0.73547,0.28068 -1.13762,0.0265 -0.40653,-0.25692 -0.86429,-0.23229 -2.39888,0.12899 -1.04306,0.24558 -1.89648,0.5291 -1.89648,0.63004 0,0.30185 2.34936,0.69912 3.26857,0.5527 0.76451,-0.12177 0.97093,-0.009 1.96977,1.07637 1.1585,1.25884 1.48788,2.1488 0.67097,1.81286 -1.17436,-0.48293 -1.93923,-0.60955 -2.3472,-0.3886 -0.61786,0.33462 -2.20545,-0.15237 -2.35256,-0.72164 -0.1165,-0.45087 -2.129518,-1.26029 -2.415235,-0.97116 -0.193584,0.1959 2.183665,2.46647 2.582345,2.46647 0.63681,0 1.13581,0.9231 1.8075,3.34364 0.17205,0.61999 0.14739,0.61308 -0.68893,-0.1929 -0.47705,-0.45976 -1.11708,-0.83592 -1.42229,-0.83592 -0.38032,0 -0.60523,-0.20282 -0.71479,-0.6446 -0.18308,-0.73813 -2.222473,-2.68265 -3.687353,-3.5158 -0.545369,-0.31018 -0.991578,-0.6584 -0.991578,-0.77381 0,-0.11541 -0.325397,-0.20984 -0.723099,-0.20984 -0.711643,0 -1.717144,0.78847 -1.406448,1.10289 0.08747,0.0884 0.08637,0.35258 -0.0025,0.5868 -0.1276,0.3365 -0.237458,0.36206 -0.523481,0.12185 -0.400361,-0.33624 -1.411139,0.0416 -1.411139,0.52752 0,0.51303 -0.449535,-0.0267 -0.574877,-0.69024 -0.169766,-0.89868 0.574993,-2.61469 1.210286,-2.78863 0.27958,-0.0766 1.223162,-0.14076 2.096851,-0.1427 0.873687,-0.002 1.588522,-0.10028 1.588522,-0.2185 0,-0.11824 -0.415962,-0.75528 -0.924357,-1.41563 C 6.82362,7.950469 6.661677,7.845789 6.404016,8.202389 6.14876,8.555639 6.04253,8.468859 5.648902,7.585509 5.396961,7.020119 4.744554,6.116549 4.199107,5.577559 3.21611,4.606219 3.203123,4.602039 2.723247,5.102349 c -0.664852,0.69325 -1.544126,2.35087 -1.544126,2.91117 0,0.58146 1.029401,1.58023 1.628699,1.58023 0.248709,0 0.511682,-0.23018 0.584382,-0.51152 0.170525,-0.65986 0.582719,-0.40647 0.582719,0.35823 0,0.70047 -0.626239,1.3069 -1.588523,1.53825 -0.779659,0.18746 -0.876666,0.74941 -0.361908,2.09645 0.862707,2.2576 1.824224,2.7778 5.456682,2.95226 2.805009,0.13472 2.925524,0.16461 3.529986,0.87574 0.461952,0.54347 0.584681,0.912 0.468705,1.40737 -0.191557,0.81814 -0.925978,1.88128 -1.413109,2.04559 -0.197125,0.0665 -0.0472,-0.25337 0.33317,-0.71082 0.768612,-0.92437 0.811706,-1.11334 0.421964,-1.85028 -0.432408,-0.81762 -1.347633,-1.03458 -2.551342,-0.6048 -1.590052,0.5677 -2.730124,0.46097 -4.273825,-0.40009 -0.756854,-0.42216 -1.422935,-0.72017 -1.480181,-0.66225 -0.201973,0.20439 0.694012,1.65752 1.338157,2.17027 0.358833,0.28563 1.010125,0.59883 1.447314,0.69601 2.197685,0.48846 3.131103,1.79975 2.394229,3.36346 -0.482178,1.02322 -0.907654,1.14645 -0.73108,0.21172 0.167138,-0.88477 -0.791073,-1.91587 -1.780435,-1.91587 -0.919183,0 -1.616216,-0.3568 -2.671245,-1.36734 -0.716485,-0.68627 -0.824837,-0.72481 -0.817024,-0.29064 0.005,0.27531 0.17246,0.78991 0.372238,1.14356 0.694296,1.22907 0.483693,2.13045 -0.832813,3.56445 -0.667731,0.72733 -1.268193,1.31063 -1.334359,1.29624 -0.06617,-0.0144 -0.591866,-0.56416 -1.168225,-1.22171 z"
               id="path937" />
          </g>
        </g>
        <rect
           ry="16"
           rx="16"
           y="217"
           x="-8.8817842e-16"
           height="80"
           width="128"
           id="rect943"
           style="fill:#ffffff;fill-opacity:1;fill-rule:nonzero;stroke:none;stroke-width:1.74999988;stroke-linecap:round;stroke-linejoin:round;stroke-miterlimit:4;stroke-dasharray:none;stroke-dashoffset:0;stroke-opacity:1;paint-order:normal" />
      </g>
    </clipPath>
    <clipPath
       clipPathUnits="userSpaceOnUse"
       id="clipPath5122">
      <rect
         style="fill:#ffffff;fill-opacity:1;fill-rule:nonzero;stroke:none;stroke-width:0.291666;stroke-linecap:round;stroke-linejoin:round;stroke-miterlimit:4;stroke-dasharray:none;stroke-dashoffset:0;stroke-opacity:1;paint-order:normal"
         id="rect5124"
         width="128"
         height="80"
         x="209.79526"
         y="180.33644"
         rx="16"
         ry="16" />
    </clipPath>
  </defs>
  <sodipodi:namedview
     id="base"
     pagecolor="#ffffff"
     bordercolor="#666666"
     borderopacity="1.0"
     inkscape:pageopacity="0.0"
     inkscape:pageshadow="2"
     inkscape:zoom="1.979899"
     inkscape:cx="354.05847"
     inkscape:cy="164.65486"
     inkscape:document-units="mm"
     inkscape:current-layer="layer1"
     showgrid="false"
     inkscape:snap-nodes="false"
     inkscape:snap-bbox="true"
     inkscape:snap-bbox-edge-midpoints="true"
     inkscape:snap-bbox-midpoints="true"
     inkscape:bbox-nodes="true"
     fit-margin-top="0"
     fit-margin-left="0"
     fit-margin-right="0"
     fit-margin-bottom="0"
     inkscape:window-width="2560"
     inkscape:window-height="1529"
     inkscape:window-x="-8"
     inkscape:window-y="-8"
     inkscape:window-maximized="1"
     inkscape:showpageshadow="2"
     inkscape:pagecheckerboard="0"
     inkscape:deskcolor="#d1d1d1" />
  <metadata
     id="metadata5">
    <rdf:RDF>
      <cc:Work
         rdf:about="">
        <dc:format>image/svg+xml</dc:format>
        <dc:type
           rdf:resource="http://purl.org/dc/dcmitype/StillImage" />
        <dc:title />
      </cc:Work>
    </rdf:RDF>
  </metadata>
  <g
     inkscape:label="Layer 1"
     inkscape:groupmode="layer"
     id="layer1"
     transform="translate(0,-217)">
    <g
       id="g5120"
       transform="translate(-209.79526,36.663556)"
       clip-path="url(#clipPath5122)">
      <rect
         width="133.33333"
         height="80"
         x="207.1286"
         y="180.3363"
         fill="#cc0000"
         id="rect1274"
         style="stroke-width:0.222222" />
      <g
         transform="matrix(0.92599992,0,0,0.92599992,273.79526,220.3363)"
         id="g1278">
        <path
           d="m 6.28916,-29.995407 c -0.0573,-0.007 -0.0931,-0.006 -0.10208,0.002 -0.14321,0.12801 2.10937,2.59575 2.85314,3.12566 0.43607,0.31068 1.19277,0.69038 1.68156,0.84333 0.48348,0.15129 1.16478,0.278 1.52649,0.28555 0.72503,0.44389 1.73998,1.05243 2.92314,1.75627 -0.90785,-0.21594 -1.95927,-0.31584 -2.84877,-0.23437 -1.24351,0.11389 -4.14306,0.86542 -4.48172,1.16163 -0.0881,0.0771 0.58883,0.20104 1.50411,0.27531 0.91528,0.0743 2.2055,0.20105 2.86725,0.28145 1.29496,0.15744 4.18943,0.0961 4.7627,-0.10085 0.11509,-0.0395 0.19715,-0.0803 0.25182,-0.12486 0.94312,0.6198 1.84512,1.28898 2.701,2.00446 -1.23327,-0.48855 -2.69291,-0.70702 -4.54639,-0.70415 -2.08666,0.003 -2.59328,0.17919 -1.51287,0.52556 0.41249,0.13223 1.60755,0.6062 2.65531,1.05314 1.04775,0.44695 2.44612,0.91135 3.10787,1.03216 0.66174,0.12082 1.69488,0.22754 2.29556,0.23745 l 0.29946,0.005 c 0.23245,0.24499 0.46107,0.49363 0.68301,0.74662 0.58694,0.65364 1.1339,1.33448 1.64463,2.03721 -0.67719,-0.48296 -1.47714,-0.90795 -2.35196,-1.23533 -1.46641,-0.54877 -3.99494,-1.12868 -4.18419,-0.95949 -0.0375,0.0335 0.58087,0.52326 1.37433,1.08845 0.79342,0.5652 1.93879,1.39241 2.5454,1.83764 1.10637,0.81204 3.2162,1.94254 3.92995,2.10578 0.22215,0.0508 0.39038,0.0804 0.52504,0.0921 0.61285,1.14169 1.13666,2.32362 1.56632,3.53402 -0.23489,-0.29486 -0.52031,-0.59432 -0.90081,-0.95489 -1.00641,-0.95375 -1.71977,-1.42067 -3.30234,-2.16054 -1.11018,-0.51902 -2.01843,-0.87544 -2.01843,-0.79216 0,0.0833 0.29827,0.43152 0.66308,0.77374 0.72934,0.68413 1.74165,1.99102 2.333,3.01206 0.43249,0.74677 2.12813,2.26216 3.3169,2.96447 0.39974,0.23615 0.66337,0.37788 0.82887,0.42269 0.35451,1.68507 0.53293,3.40094 0.5333,5.11733 -0.11449,-0.6666 -0.30254,-1.3712 -0.55226,-1.96403 -0.46227,-1.09742 -0.76578,-1.4817 -2.05102,-2.59909 -0.82962,-0.72127 -1.73207,-1.51336 -2.00581,-1.75985 l -0.4978,-0.44827 0.14633,0.44827 c 1.44887,4.43941 2.32381,6.19356 3.95037,7.91804 0.62016,0.6575 0.78451,0.81744 0.9047,0.67754 -0.0485,0.51595 -0.11146,1.03066 -0.19349,1.54338 -0.15589,1.03923 -0.3866,2.06604 -0.68205,3.07603 0.0285,-0.92121 -0.12129,-1.90977 -0.45404,-2.72753 -0.37311,-0.91684 -2.79063,-4.49406 -2.94067,-4.35128 -0.13488,0.12837 0.32497,5.9527 0.52989,6.71139 0.26077,0.96543 1.04711,2.49246 1.53135,2.97316 0.12649,0.12558 0.22812,0.21353 0.2946,0.26354 -0.64652,1.49023 -1.44114,2.92624 -2.36752,4.28833 0.32592,-1.22014 0.39964,-2.73488 0.12446,-4.12509 -0.52125,-2.63329 -1.40132,-4.40399 -1.40979,-2.83653 -0.003,0.26532 -0.27459,1.45071 -0.6072,2.63389 -0.94645,3.36677 -0.97746,4.56619 -0.16526,6.40075 l 0.17209,0.3879 c -0.85036,0.9893 -1.77399,1.92572 -2.76517,2.79815 0.0137,-0.0233 0.0298,-0.0482 0.0413,-0.0701 0.50582,-0.96234 0.7882,-3.28717 0.61934,-5.09942 l -0.1405,-1.50705 -0.8799,1.47225 c -0.48404,0.80984 -1.08417,1.72831 -1.33347,2.0408 -1.06134,1.33018 -1.40237,2.28434 -1.5085,4.2177 l -0.0792,1.43694 c -0.32659,0.21316 -0.65641,0.42236 -0.99268,0.62278 -0.84667,0.51597 -1.72363,0.98746 -2.62516,1.41341 1.17072,-1.23012 2.0724,-3.04728 2.42486,-5.04058 l 0.16287,-0.92111 -1.22361,1.02244 c -3.81421,3.1866 -4.84267,4.3969 -5.07967,5.97653 -0.029,0.1931 -0.0452,0.32976 -0.0452,0.43292 -1.33057,0.42122 -2.69443,0.75456 -4.07822,0.99788 0.16562,-0.0632 0.32792,-0.1377 0.49975,-0.22772 1.2169,-0.63754 3.17214,-2.86364 3.48075,-3.96286 l 0.12737,-0.45493 -0.98784,0.42628 c -0.5434,0.23435 -1.56611,0.59553 -2.27269,0.80291 -0.70657,0.20736 -1.62213,0.57685 -2.03449,0.82081 -0.93442,0.5528 -2.3641,2.14631 -2.3641,2.63492 0,0.28367 0.1117,0.33955 0.9679,0.30908 -2.07117,0.19532 -4.16472,0.19272 -6.23569,-0.0101 0.0351,7.9e-4 0.0724,0.003 0.10695,0.004 l 1.35633,0.0164 -0.30968,-0.6627 c -0.73102,-1.56409 -1.89769,-2.39758 -4.43358,-3.16864 -0.76249,-0.23185 -1.77594,-0.59947 -2.25228,-0.81673 l -0.86582,-0.39506 0.13856,0.41502 c 0.44447,1.332 2.73223,3.71147 4.07433,4.31851 -0.70355,-0.11843 -1.40245,-0.25898 -2.09478,-0.42525 -0.7172,-0.16474 -1.42504,-0.35819 -2.12345,-0.57519 0.0297,-0.12518 0.0251,-0.30024 -0.005,-0.53476 -0.17346,-1.37573 -0.74189,-2.11257 -3.52889,-4.5754 l -2.7005,-2.38673 0.12397,0.77323 c 0.0683,0.42528 0.35101,1.42548 0.62809,2.22246 0.45521,1.30937 1.13179,2.37299 2.01456,3.17939 -1.3699,-0.62267 -2.68609,-1.3441 -3.93335,-2.15541 l 0.10257,-0.37357 c 0.38447,-1.39878 -0.39772,-3.8831 -1.80016,-5.71605 -0.28875,-0.37737 -0.85508,-1.25082 -1.25813,-1.94101 l -0.73261,-1.25477 -0.0636,2.33043 c -0.0355,1.30549 0.0371,2.74399 0.1648,3.27049 0.12761,0.52613 0.45639,1.13015 0.89838,1.71123 -1.28483,-1.05882 -2.46916,-2.21962 -3.53568,-3.46443 0.11085,0.0689 0.2029,0.11096 0.24161,0.0895 0.34505,-0.19064 0.79085,-1.95358 0.78803,-3.11851 -0.002,-0.73771 -0.26345,-2.11468 -0.70101,-3.68703 -0.38413,-1.38038 -0.7063,-2.75209 -0.71609,-3.04787 -0.0175,-0.53052 -0.0232,-0.52755 -0.40397,0.21236 -0.45245,0.87921 -1.18424,3.91472 -1.18424,4.91161 0,0.38074 0.1491,1.2995 0.33155,2.04182 0.0787,0.32038 0.15821,0.58601 0.24501,0.82184 -0.82952,-1.14856 -1.56481,-2.35367 -2.18811,-3.60721 -2.61948,-5.13378 -3.24872,-11.03967 -1.99803,-16.57861 1.2e-4,0.57282 0.0466,0.56926 1.06659,-0.066 1.28237,-0.79863 2.59375,-2.09238 3.92168,-3.86972 0.66299,-0.88739 1.48982,-1.91617 1.83761,-2.28591 0.34778,-0.36975 0.5842,-0.67241 0.52502,-0.67241 -0.3946,0 -3.9106,1.79121 -4.63484,2.36113 -0.96498,0.75935 -1.70162,1.61553 -2.16283,2.48855 0.47092,-1.48964 1.08215,-2.94025 1.83225,-4.32977 0.0416,0.0106 0.0915,0.0166 0.15751,0.0164 0.93518,-0.004 4.21126,-1.77007 5.89006,-3.17428 0.39199,-0.32787 1.19075,-0.91715 1.77489,-1.30952 1.18436,-0.79557 1.04377,-0.86077 -0.94991,-0.44061 -2.15681,0.45456 -4.09326,1.37363 -5.39711,2.48242 0.7944,-1.16259 1.69088,-2.26404 2.67765,-3.29454 l 0.50898,-0.002 c 1.66196,-0.005 3.52699,-0.43175 5.28482,-1.20923 0.88234,-0.39026 2.03782,-0.85445 2.56778,-1.03165 1.29147,-0.43179 0.90057,-0.61779 -1.3043,-0.62176 -2.17676,-0.003 -3.66938,0.24688 -4.95522,0.88991 0.95268,-0.80907 1.96287,-1.56263 3.02329,-2.25317 0.009,0.017 0.0194,0.0338 0.036,0.0486 0.0697,0.0622 0.46607,0.17169 0.88088,0.24358 1.21451,0.21057 2.6113,0.1829 4.96543,-0.0987 1.2132,-0.14515 2.54407,-0.26479 2.95766,-0.26559 0.4136,-7.9e-4 0.75205,-0.0656 0.75205,-0.14379 0,-0.0783 -0.78942,-0.37769 -1.75446,-0.66577 -2.21465,-0.66108 -4.58697,-0.72488 -6.19098,-0.17962 1.21504,-0.79865 2.16296,-1.43301 2.86967,-1.91798 0.0782,0.0327 0.20858,0.0374 0.41128,0.0374 1.49134,0 2.66656,-0.52681 4.16718,-1.86834 1.56211,-1.3965 2.47508,-2.60869 1.771,-2.35089 -0.20416,0.0748 -1.00286,0.28156 -1.77489,0.45953 -3.15059,0.72626 -4.1855,1.44064 -4.60374,3.17684 -0.003,0.0115 -0.003,0.016 -0.006,0.0271 -1.21927,0.66408 -2.72315,1.52705 -3.66451,2.08633 0.0423,-0.0365 0.0892,-0.0735 0.12882,-0.10951 1.16219,-1.05549 1.72723,-2.00736 2.23041,-3.75613 l 0.3578,-1.24299 -0.43023,0.20264 c -0.23657,0.11149 -0.96301,0.52499 -1.61447,0.91856 -2.53934,1.53416 -3.85416,3.47318 -3.41513,5.03699 0.0721,0.25688 0.17019,0.46721 0.2178,0.46721 0.072,0 0.18676,-0.0371 0.31744,-0.089 -3.44894,2.44565 -6.30376,5.55556 -8.32999,9.12062 0.33122,-0.77827 0.52966,-1.70209 0.53135,-2.60626 0.002,-1.08213 -0.14109,-1.76302 -0.67524,-3.21163 l -0.67816,-1.83866 -0.57121,1.50858 c -1.53522,4.05442 -1.58539,5.33336 -0.28683,7.3009 l 0.41079,0.62227 0.44676,-0.46466 c 0.1206,-0.12534 0.2344,-0.26861 0.34224,-0.42371 -0.79917,1.5393 -1.44701,3.15673 -1.92511,4.83638 -0.0141,-0.33709 -0.0599,-0.66121 -0.1439,-0.97842 -0.289,-1.09158 -1.08052,-2.78426 -1.49293,-3.19271 -0.15272,-0.15126 -0.58574,-0.73249 -0.96206,-1.29161 -0.66517,-0.98828 -0.68416,-1.00086 -0.68886,-0.44828 -0.003,0.31262 -0.0751,1.46171 -0.16092,2.55355 -0.25191,3.20624 0.38729,5.13931 1.98783,6.01183 0.45303,0.24697 0.67072,0.35442 0.81428,0.27532 -0.20958,1.30964 -0.32182,2.64783 -0.32182,4.01044 0,0.15394 0.004,0.30724 0.007,0.46057 -0.49914,-1.20019 -2.52002,-3.8696 -3.33297,-4.37276 -0.26957,-0.16685 -0.81593,-0.5455 -1.21389,-0.84129 -0.55509,-0.41263 -0.68974,-0.45872 -0.57947,-0.19753 0.079,0.18724 0.27939,1.07489 0.4453,1.97222 0.58994,3.19076 1.62524,5.01471 3.45887,6.09422 0.60375,0.35544 1.22035,0.64632 1.37043,0.64632 0.0445,0 0.0827,-0.0264 0.11619,-0.0686 0.22353,1.52236 0.58217,3.0059 1.06659,4.43929 -0.63787,-0.90449 -1.43097,-1.70359 -2.17402,-2.10681 -0.3868,-0.20991 -1.2304,-0.70906 -1.87503,-1.10944 -0.64463,-0.40037 -1.59751,-0.94673 -2.11714,-1.21382 L -36,2.229863 l 1.19541,2.15747 c 0.65739,1.18647 1.51207,2.58376 1.89934,3.10519 0.85859,1.15602 2.29791,2.16727 3.7355,2.62366 1.2059,0.38283 1.5297,0.46285 1.55078,0.11359 0.8105,1.65833 1.79439,3.23032 2.9319,4.69669 -0.44995,-0.42144 -0.91239,-0.80516 -1.29215,-1.0511 -1.26164,-0.81703 -3.50411,-1.7335 -4.79869,-1.96095 -0.61979,-0.10891 -1.46698,-0.31404 -1.88281,-0.45596 -1.06418,-0.36321 -1.10411,-0.33227 -0.42488,0.32495 0.33119,0.32043 1.00108,1.05767 1.48904,1.63856 0.90618,1.0788 2.96884,2.67529 4.17884,3.23467 0.37078,0.17141 1.22749,0.42101 1.90372,0.55471 0.67625,0.13375 1.40993,0.2087 1.63051,0.16632 0.22059,-0.0422 0.56158,-0.0783 0.75741,-0.0793 0.29295,-0.002 0.31448,-0.0532 0.12251,-0.39915 4.75205,5.08378 11.48933,8.57515 19.11497,9.46911 -0.75946,0.13059 -1.53642,0.3098 -2.14776,0.51685 -1.05088,0.3559 -6.91794,2.90946 -6.91824,3.01103 -2.5e-4,0.10449 3.89234,-0.0783 5.13362,-0.24102 1.76207,-0.23102 4.06355,-0.91407 5.00432,-1.48557 0.38986,-0.23683 1.01842,-0.75377 1.39667,-1.14883 l 0.42343,-0.44214 c 0.3294,0.0101 0.65975,0.0164 0.99172,0.0164 0.36828,0 0.73405,-0.008 1.09916,-0.02 l 1.04228,0.87148 c 1.13434,0.94861 1.51016,1.1441 2.97955,1.548 2.45603,0.67508 2.65663,0.70706 5.29113,0.84589 1.3235,0.0697 2.5189,0.1394 2.65677,0.15505 0.13784,0.0157 0.25084,-0.0107 0.25084,-0.0583 0,-0.11636 -1.77796,-0.90916 -2.4064,-1.07311 -0.27573,-0.0719 -0.82345,-0.3256 -1.21729,-0.56341 -1.33691,-0.80723 -3.7778,-1.58541 -5.73984,-1.94152 10.9949,-1.31379 20.13643,-8.02645 24.12075,-17.12411 -0.18706,0.4814 -0.3194,0.87295 -0.3194,0.97382 0,0.35782 0.28758,0.34667 1.5333,-0.0604 1.43017,-0.46732 2.77613,-1.33844 3.59012,-2.32378 0.69559,-0.84201 3.3234,-5.40847 3.11178,-5.40748 -0.13258,7.9e-4 -2.68367,1.41339 -4.24787,2.35244 -1.67049,1.00286 -2.60193,2.01737 -3.30479,3.59389 0.74537,-1.88586 1.27187,-3.86693 1.55127,-5.91767 0.0666,0.51678 0.4371,0.35782 1.5853,-0.25484 1.82365,-0.97307 2.97067,-2.89721 3.51527,-5.89772 0.15491,-0.85348 0.37056,-1.76098 0.47933,-2.01674 0.10875,-0.25577 0.12416,-0.46516 0.034,-0.46516 -0.29094,0 -3.31452,2.7551 -4.01989,3.66298 -0.72823,0.93733 -1.1676,1.85759 -1.39957,2.95065 0.0258,-0.46756 0.0389,-0.93848 0.0389,-1.41187 0,-8.99659 -4.73277,-16.98655 -12.04361,-22.02242 0.37506,0.16995 0.7498,0.28648 0.85368,0.26046 0.29138,-0.0731 0.36697,-1.35382 0.12297,-2.0848 -0.32075,-0.96098 -2.06462,-2.66773 -3.68249,-3.60412 -0.79962,-0.46283 -1.48374,-0.81591 -1.52015,-0.785 -0.11363,0.0966 0.5556,2.25207 0.93921,3.02536 0.33425,0.67378 1.36441,1.77789 2.26785,2.51261 -0.5383,-0.33977 -1.08912,-0.66427 -1.65192,-0.97229 -0.54252,-0.22816 -1.58954,-0.74304 -2.62318,-1.25068 0.0222,-0.0486 0.0316,-0.10922 0.0316,-0.18576 0,-1.26456 -1.4845,-2.60156 -3.43749,-3.09599 -0.70137,-0.17757 -1.71379,-0.44414 -2.24984,-0.59258 -0.40204,-0.11134 -0.7658,-0.19276 -0.93776,-0.21288 z m 15.01148,3.63842 0.0709,2.33043 c 0.0638,2.08527 0.12906,2.44121 0.61788,3.37949 0.32198,0.61808 0.93811,1.37172 1.50071,1.83558 0.52496,0.43284 1.01876,0.78759 1.09722,0.78858 0.3089,0.004 0.59952,-1.57069 0.48857,-2.64669 -0.16677,-1.61695 -0.77382,-2.60556 -3.00581,-4.89676 z m -42.50991,0.0783 -1.28681,1.39498 c -0.70791,0.76733 -1.5193,1.81104 -1.8026,2.31918 -0.57309,1.02793 -0.75116,2.5317 -0.44774,3.7817 0.10171,0.41904 0.27597,0.76197 0.38697,0.76197 0.11101,0 0.67925,-0.42344 1.26299,-0.94108 1.63081,-1.44615 2.33464,-3.58049 2.0272,-6.14694 z m 49.20598,5.35733 c -0.10828,-0.009 -0.37271,0.43937 -0.70051,1.19745 -0.55349,1.27995 -0.6215,1.64616 -0.63297,3.40609 -0.0119,1.83388 0.0275,2.04087 0.56248,2.95782 0.31637,0.54228 0.67372,1.0953 0.79385,1.22868 0.17876,0.19848 0.28143,0.1728 0.56635,-0.14176 0.51903,-0.573 1.17293,-2.26328 1.16917,-3.02076 -0.005,-0.84822 -0.84336,-3.5744 -1.72191,-5.59529 -0.009,-0.0203 -0.0209,-0.031 -0.0365,-0.0322 z m 4.71118,6.66941 -0.87604,1.20769 c -0.48177,0.66443 -1.16772,1.73253 -1.52453,2.37342 -0.60769,1.09169 -0.64847,1.28437 -0.64752,3.04788 0,1.19552 0.0949,2.02921 0.25764,2.2854 0.14096,0.22184 0.31044,0.40324 0.37629,0.40324 0.40036,0 1.44817,-0.80157 1.80405,-1.38014 0.86801,-1.41116 1.084,-3.12234 0.78171,-6.19197 z m -56.89184,6.73901 c 0,-0.0503 -0.81332,0.60429 -1.80746,1.45486 -1.95125,1.66943 -2.56567,2.55849 -3.11956,4.51245 -0.22105,0.77979 -0.28212,1.45459 -0.19105,2.1063 0.0737,0.52744 0.19979,0.95898 0.2805,0.95898 0.18059,0 2.01646,-2.18472 2.57022,-3.05863 0.36046,-0.56884 0.9708,-2.12117 1.94698,-4.95254 0.17638,-0.51152 0.32037,-0.97111 0.32037,-1.02142 z m -0.64074,6.54302 c -0.2765,-0.10844 -2.56464,3.2439 -2.96738,4.4096 -0.5283,1.52897 -0.52168,3.16007 0.018,4.44952 0.41386,0.98886 0.42694,0.99917 0.82352,0.67855 0.49019,-0.3963 1.09686,-1.43196 1.49051,-2.54536 0.23068,-0.65251 0.63099,-4.83615 0.6626,-6.92272 5e-4,-0.0396 -0.009,-0.0624 -0.0273,-0.0696 z m 58.58848,12.23604 c -0.15353,0.006 -0.42954,0.0654 -0.82013,0.18012 -0.48343,0.14211 -1.37059,0.34916 -1.97177,0.46005 -1.62237,0.29931 -4.32961,1.57569 -5.64892,2.66306 -0.95552,0.78752 -2.18181,2.25519 -2.18181,2.61138 0,0.0498 0.24798,0.12493 0.55129,0.16683 1.03538,0.14308 3.36191,-0.34486 4.29064,-0.90014 2.4639,-1.47314 3.10454,-2.00714 4.27755,-3.56371 0.37958,-0.50369 0.92754,-1.05485 1.21729,-1.22458 0.458,-0.26827 0.54171,-0.40373 0.28586,-0.39301 z m -62.30889,7.88836 c -0.22796,-10e-4 -0.37437,0.009 -0.41225,0.0332 -0.0335,0.0215 0.94015,0.65806 2.16381,1.41443 2.21002,1.36607 2.80772,1.63122 5.11612,2.27159 1.38014,0.38286 3.45907,0.33168 4.65527,-0.11515 l 0.71997,-0.26916 -0.78269,-0.61409 c -0.43037,-0.33783 -1.36864,-0.86992 -2.08553,-1.1821 -0.7169,-0.31218 -1.44565,-0.63154 -1.61933,-0.70978 -0.55426,-0.24981 -6.15967,-0.82038 -7.75537,-0.829 z m 57.16406,0.0686 c -0.55921,-0.006 -1.74954,0.0663 -3.93431,0.22977 -2.71508,0.20312 -4.57264,0.7059 -6.21772,1.68207 -1.4868,0.88222 -1.83727,1.24495 -1.46812,1.51882 0.15646,0.11609 0.67748,0.2804 1.15797,0.36487 1.76847,0.31081 3.29338,0.12285 5.54149,-0.68215 0.96399,-0.34517 5.09398,-2.6872 5.32419,-3.01922 0.0404,-0.0583 -0.068,-0.0903 -0.4035,-0.0942 z m -14.72465,5.42233 c -1.34109,0 -3.95566,0.48246 -4.73936,0.87455 -0.3751,0.18765 0.935,0.99009 2.36945,1.45127 0.77972,0.25069 1.62442,0.35173 2.97467,0.35668 1.64483,0.006 2.25436,-0.0907 4.77,-0.75532 2.56343,-0.6772 2.81071,-0.77589 2.22504,-0.88786 -3.10667,-0.59394 -6.36335,-1.03932 -7.5998,-1.03932 z m -27.72156,0.0353 c -1.06336,0.009 -2.18159,0.11202 -3.29943,0.31164 -1.06899,0.1909 -2.60659,0.44713 -3.41707,0.56956 l -1.47397,0.2226 0.87214,0.21799 c 0.47961,0.11979 1.77453,0.46236 2.87745,0.76147 3.4738,0.9421 7.22211,0.66928 8.91092,-0.64888 l 0.64511,-0.50354 -0.51677,-0.21033 c -1.20714,-0.49169 -2.82614,-0.73603 -4.59838,-0.72051 z"
           fill="#ffcc33"
           id="path1276" />
      </g>
      <g
         transform="matrix(0.52088886,0,0,0.52088886,274.6286,220.3363)"
         id="g1282">
        <path
           d="m 26.111216,-0.17400169 q 0,1.47389969 -0.02075,2.64073689 0,1.1463664 -0.08304,1.8014328 -0.06228,0.4503582 -0.186844,0.7574207 -0.103803,0.3070624 -0.41521,0.3684749 -0.145324,0.040941 -0.311408,0.061413 -0.166084,0.020471 -0.311408,0.020471 -0.166084,0 -0.166084,0.122825 0,0.1637666 0.332168,0.1637666 0.228366,0 0.560534,-0.020471 0.332168,0 0.643577,-0.020471 0.311407,0 0.519013,-0.020471 0.228364,0 0.228364,0 0.04152,0 0.269888,0 0.249126,0.020471 0.602054,0.020471 0.37369,0.020471 0.809661,0.020471 0.43597,0.020471 0.871942,0.020471 0.332168,0 0.332168,-0.1637666 0,-0.122825 -0.166084,-0.122825 -0.145324,0 -0.435972,-0.020471 Q 28.913886,5.4350052 28.685521,5.3940636 28.208029,5.3326511 28.062705,5.0255887 27.917381,4.7185262 27.87586,4.268168 27.792818,3.6131016 27.772057,2.4667352 q 0,-1.1668372 0,-2.64073689 v -0.49129987 q 0,-0.16376663 0.145324,-0.16376663 l 2.553544,0.0409416 q 0.145324,0 0.269887,0.12282497 0.145323,0.20470828 0.394449,0.55271235 0.269887,0.32753325 0.560534,0.73694982 0.311408,0.40941655 0.643576,0.85977485 0.332169,0.4503582 0.664337,0.8802456 0.892702,1.1668372 1.515518,1.9242579 0.622815,0.7369498 1.287152,1.0849539 0.39445,0.2251791 0.871942,0.3070624 0.477491,0.081884 1.349433,0.081884 h 1.473997 q 0.290647,0 0.39445,-0.040941 0.103802,-0.020471 0.103802,-0.1228249 0,-0.122825 -0.186845,-0.122825 -0.103803,0 -0.311407,0 Q 39.294144,5.4554761 39.003497,5.4145344 38.609048,5.3531219 37.965472,5.0870012 37.321896,4.8208804 36.470714,3.9406348 35.557252,2.9785059 34.498465,1.647902 33.439679,0.31729819 32.152527,-1.2998972 q 1.390954,-1.2691914 1.951488,-2.4155578 0.560535,-1.1668372 0.560535,-2.3132036 0,-0.5322414 -0.166085,-0.9825998 -0.145324,-0.4503582 -0.37369,-0.7983622 -0.207604,-0.3480041 -0.45673,-0.593654 -0.249127,-0.2661208 -0.435972,-0.4094166 -0.83042,-0.593654 -1.826925,-0.7369498 -0.975745,-0.1637666 -1.972249,-0.1637666 -0.249127,0 -0.622816,0.020471 -0.373688,0 -0.768139,0.020471 -0.37369,0 -0.685097,0.020471 -0.290647,0 -0.373689,0 -0.04152,0 -0.290647,0 -0.228366,-0.020471 -0.581295,-0.020471 -0.332168,-0.020471 -0.726618,-0.020471 -0.39445,-0.020471 -0.747378,-0.020471 -0.332169,0 -0.332169,0.1637666 0,0.122825 0.166084,0.122825 0.145324,0 0.352929,0.020471 0.228366,0 0.352929,0.040941 0.519013,0.1023541 0.685097,0.3684749 0.166085,0.2661207 0.207605,0.7983622 0.02076,0.24565 0.02076,0.5322416 0.02075,0.2661207 0.02075,0.7369498 0,0.4503582 0,1.2077789 0,0.7574206 0,1.9447286 z m 1.660841,-8.51586451 q 0,-0.1842375 0.166085,-0.2456499 0.166084,-0.040941 0.539773,-0.081884 0.37369,-0.040941 0.851182,-0.040941 1.681601,0 2.636585,1.0849539 0.954984,1.0849538 0.954984,3.0092117 0,1.1668373 -0.373689,1.9856703 -0.352929,0.7983623 -0.892703,1.1668373 -0.352929,0.2456499 -0.768139,0.3275332 -0.41521,0.061412 -0.788899,0.061412 -0.685098,0 -1.328674,-0.081884 -0.622815,-0.1023542 -0.851181,-0.24565 -0.145324,-0.081884 -0.145324,-0.2456499 z M 12.780045,7.2569089 Q 15.312828,8.6489253 17.368119,9.3244626 19.444171,10 21.333377,10 q 1.141829,0 2.138334,-0.1432959 1.017265,-0.1432958 1.847686,-0.3684749 0.851182,-0.2047083 1.494758,-0.4503582 0.664336,-0.24565 1.100306,-0.4503582 0.166085,-0.081884 0.166085,-0.2047083 0,-0.122825 -0.124563,-0.122825 -0.04152,0 -0.124563,0.020471 -0.06229,0.020471 -0.166085,0.061413 -1.079546,0.4298874 -2.200614,0.6141249 -1.100308,0.1842374 -1.889208,0.1842374 -0.394449,0 -1.162588,-0.061412 -0.768139,-0.040942 -1.889208,-0.286592 -1.121068,-0.2251799 -2.553543,-0.7164797 -1.432475,-0.4913 -3.134838,-1.3510747 L 10.57943,4.5547596 q 0.519013,-0.3275332 1.141829,-0.941658 0.643576,-0.614125 1.204109,-1.4738997 0.560535,-0.8802456 0.934223,-1.98567034 0.394451,-1.12589555 0.394451,-2.47697016 0,-1.7809621 -0.622816,-3.1934493 -0.622815,-1.432958 -1.723123,-2.4155576 -1.079547,-1.0030706 -2.5743042,-1.5353122 -1.4947573,-0.5322414 -3.2386408,-0.5322414 -1.4324756,0 -2.5950646,0.3684748 -1.1625889,0.3480041 -2.0760517,0.9621289 -0.91346276,0.6141249 -1.5777993,1.4329579 -0.64357604,0.7983624 -1.0795469,1.6990788 -0.4359708,0.8802457 -0.6435761,1.8014329 -0.2076051,0.9211872 -0.2076051,1.7400204 0,1.39201632 0.4567314,2.82497429 0.4567314,1.41248711 1.43247566,2.57932431 0.99650482,1.1668373 2.53278314,1.9037871 1.5362782,0.7369498 3.695372,0.7369498 0.4152104,0 0.8719417,-0.061413 Q 7.3615496,5.9467759 7.7975205,5.8444218 8.2334913,5.7625385 8.6071806,5.6397135 9.0016305,5.4964177 9.2922778,5.3531219 Z M -0.11223657,-2.5690886 q 0,-1.6786079 0.45673138,-2.9273284 0.45673137,-1.2691914 1.26639149,-2.1084953 0.8096602,-0.8597748 1.9099676,-1.2691914 1.121068,-0.4298874 2.4289806,-0.4298874 1.2248704,0 2.366699,0.4912999 1.1418284,0.4912999 2.0137705,1.4534289 0.871942,0.941658 1.390955,2.3541452 0.539773,1.4124871 0.539773,3.2548616 0,2.23132031 -0.643576,3.6233366 Q 10.99464,3.2446266 10.081178,4.0020473 9.1884751,4.7594679 8.2127308,5.0255887 7.2369865,5.2712386 6.531129,5.2712386 q -1.4117153,0 -2.6158253,-0.5527124 Q 2.7111937,4.1658139 1.797731,3.1422725 0.90502877,2.1187311 0.38601584,0.66530227 -0.11223657,-0.78812653 -0.11223657,-2.5690886 Z M -19.788987,-0.17400169 q 0,1.47389969 -0.02076,2.64073689 0,1.1463664 -0.08304,1.8014328 -0.06229,0.4503582 -0.186845,0.7574207 -0.103802,0.3070624 -0.41521,0.3684749 -0.145324,0.040941 -0.311408,0.061413 -0.166084,0.020471 -0.311408,0.020471 -0.166084,0 -0.166084,0.122825 0,0.1637666 0.332169,0.1637666 0.228365,0 0.560533,-0.020471 0.332169,0 0.643576,-0.020471 0.311409,0 0.539774,-0.020471 0.228366,0 0.249126,0 0.04152,0 0.269886,0 0.249127,0.020471 0.602056,0.020471 0.373689,0.020471 0.809661,0.020471 0.43597,0.020471 0.87194,0.020471 0.332169,0 0.332169,-0.1637666 0,-0.122825 -0.166084,-0.122825 -0.145323,0 -0.435971,-0.020471 -0.269887,-0.020471 -0.498253,-0.061413 -0.477491,-0.061412 -0.622815,-0.3684749 -0.145324,-0.3070625 -0.186845,-0.7574207 -0.08304,-0.6550664 -0.103802,-1.8014328 0,-1.1668372 0,-2.64073689 V -8.5875121 q 0,-0.3275332 0.166085,-0.3889457 0.145323,-0.061412 0.373688,-0.081884 0.249126,-0.040941 0.519014,-0.040941 0.186844,0 0.498251,0 0.311409,0 0.685098,0.1023542 0.39445,0.081884 0.80966,0.3070624 0.435971,0.2047083 0.851181,0.6141248 0.41521,0.4094166 0.643576,0.8597748 0.228366,0.4503582 0.332169,0.8802457 0.124563,0.4298873 0.145323,0.7983622 0.04152,0.3684749 0.04152,0.6141249 0,0.716479 -0.290647,1.3306038 -0.269887,0.5936541 -0.747379,1.0440123 -0.477492,0.4503582 -1.141828,0.7164789 -0.664336,0.24565 -1.411715,0.24565 -0.332169,0 -0.456732,0.040941 -0.103803,0.020471 -0.103803,0.1432958 0,0.081884 0.06229,0.122825 0.08304,0.020471 0.166084,0.020471 0.08304,0.020471 0.207606,0.020471 0.145323,0 0.228366,0 1.100306,0 2.03453,-0.348004 0.934223,-0.3480041 1.61932,-0.9825998 0.685097,-0.6550664 1.058787,-1.555783 0.39445,-0.9007164 0.39445,-1.9856702 0,-0.8188332 -0.352929,-1.4534289 -0.332168,-0.6550664 -0.685097,-0.9825997 -0.124563,-0.122825 -0.373689,-0.3070624 -0.249127,-0.2047083 -0.705859,-0.3889458 -0.45673,-0.1842374 -1.141828,-0.3275332 -0.664336,-0.1432958 -1.640081,-0.1432958 -0.726617,0 -1.494757,0.040941 -0.768139,0.020471 -1.121067,0.020471 -0.06229,0 -0.311409,0 -0.228366,-0.020471 -0.581294,-0.020471 -0.332168,-0.020471 -0.726618,-0.020471 -0.373689,-0.020471 -0.726618,-0.020471 -0.332168,0 -0.332168,0.1637666 0,0.122825 0.166084,0.122825 0.145323,0 0.352929,0.020471 0.228365,0 0.352928,0.040941 0.519013,0.1023541 0.685098,0.3684749 0.166083,0.2661207 0.207604,0.7983622 0.02077,0.24565 0.02077,0.5322416 0.02076,0.2661207 0.02076,0.7369498 0,0.4503582 0,1.2077789 0,0.7574206 0,1.9447286 z M -36.906683,6.0491301 q 0.851182,0 1.660842,-0.2047083 0.809659,-0.1842375 1.473997,-0.6550665 0.539773,-0.3684749 0.87194,-0.8188332 0.352929,-0.4708289 0.539775,-0.941658 0.207604,-0.4708291 0.269886,-0.9007165 0.08304,-0.4298874 0.08304,-0.7369498 0,-0.6141248 -0.124563,-1.16683719 -0.124564,-0.57318319 -0.477492,-1.12589555 -0.332168,-0.57318316 -0.934223,-1.18730806 -0.581294,-0.6141248 -1.494757,-1.3306038 l -0.581295,-0.4503582 q -0.747379,-0.5731832 -1.245631,-1.0235414 -0.477492,-0.4503582 -0.768139,-0.839304 -0.290647,-0.3889457 -0.41521,-0.7574207 -0.103803,-0.3889457 -0.103803,-0.818833 0,-1.1258956 0.726618,-1.7400205 0.747379,-0.6345956 1.826926,-0.6345956 0.705858,0 1.183349,0.1432958 0.477492,0.1228249 0.76814,0.3070624 0.311407,0.1842374 0.456731,0.3684749 0.145323,0.1842375 0.186845,0.2661207 0.103801,0.1637667 0.166084,0.5117707 0.08304,0.3275334 0.103802,0.5117707 0.02076,0.122825 0.04152,0.2047084 0.02076,0.061412 0.124563,0.061412 0.145324,0 0.145324,-0.4708291 0,-1.0440123 0.04152,-1.5557829 0.04152,-0.5322416 0.04152,-0.6141249 0,-0.1432958 -0.207606,-0.1432958 -0.124563,0 -0.290646,-0.020471 -0.145324,-0.020471 -0.435972,-0.081884 -0.39445,-0.1023541 -0.871941,-0.1432964 -0.456731,-0.061407 -1.058787,-0.061407 -0.996505,0 -1.785404,0.266121 -0.7889,0.2661207 -1.349434,0.7574205 -0.560534,0.4913 -0.871941,1.1668373 -0.290648,0.6755373 -0.290648,1.4943704 0,0.5322416 0.103803,1.0440123 0.124563,0.4912998 0.41521,1.0440122 0.311408,0.5322415 0.830421,1.1054248 0.519013,0.5731832 1.349434,1.2487205 l 0.934223,0.7574206 q 0.664336,0.55271235 1.121068,1.00307056 0.456731,0.4298874 0.726618,0.85977479 0.290647,0.40941655 0.41521,0.85977475 0.124564,0.4298875 0.124564,0.9621289 0,0.4912999 -0.186846,0.9825998 -0.186844,0.4912999 -0.560533,0.8802456 -0.352929,0.368475 -0.913463,0.6141248 -0.560534,0.24565 -1.307913,0.24565 -0.519013,0 -1.017265,-0.1023541 -0.498253,-0.122825 -0.934223,-0.368475 -0.41521,-0.2456498 -0.705858,-0.6345957 -0.290647,-0.4094165 -0.41521,-0.9825997 -0.04152,-0.2251791 -0.06229,-0.4094165 0,-0.2047083 0,-0.3480041 0,-0.2251791 -0.145324,-0.2251791 -0.145324,0 -0.166085,0.3275332 -0.02076,0.24565 -0.06228,0.8188332 Q -40,3.9406391 -40,4.7185305 q 0,0.4094166 0.04152,0.5527123 0.04152,0.122825 0.269887,0.2251792 0.643576,0.3070624 1.349433,0.4298874 0.705858,0.122825 1.432476,0.122825 z"
           fill="#ffcc33"
           stroke="#ffcc33"
           stroke-width="1.35"
           stroke-linejoin="miter"
           id="path1280" />
      </g>
    </g>
    <path
       style="fill:#000000;fill-opacity:0.33333333;fill-rule:nonzero;stroke:none;stroke-width:1.74999988;stroke-linecap:round;stroke-linejoin:round;stroke-miterlimit:4;stroke-dasharray:none;stroke-dashoffset:0;stroke-opacity:1;paint-order:normal"
       d="m 16.000088,216.99972 c -8.8639991,0 -16.000056560368,7.13605 -16.000056560368,16.00005 v 48.00017 C 3.1439632e-5,289.86394 7.1360889,297 16.000088,297 h 95.999822 c 8.864,0 16.00006,-7.13606 16.00006,-16.00006 v -48.00017 c 0,-8.864 -7.13606,-16.00005 -16.00006,-16.00005 z m 0,4.00027 h 95.999822 c 6.648,0 12.0003,5.35178 12.0003,11.99978 v 48.00017 c 0,6.648 -5.3523,11.99979 -12.0003,11.99979 H 16.000088 c -6.648,0 -11.9997842,-5.35179 -11.9997842,-11.99979 v -48.00017 c 0,-6.648 5.3517842,-11.99978 11.9997842,-11.99978 z"
       id="rect815-8"
       inkscape:connector-curvature="0" />
  </g>
</svg>
