<?xml version="1.0" encoding="UTF-8" standalone="no"?>
<svg
		width="256px"
		height="160px"
		viewBox="0 0 128 80"
		version="1.1"
		xmlns="http://www.w3.org/2000/svg">
	<defs>
		<clipPath
				id="clipPath3281">
			<rect
					style="fill:#ffffff;fill-opacity:1;fill-rule:nonzero;stroke:none;stroke-width:0.291666;stroke-linecap:round;stroke-linejoin:round;stroke-miterlimit:4;stroke-dasharray:none;stroke-dashoffset:0;stroke-opacity:1;paint-order:normal"
					id="rect3283"
					width="128"
					height="80"
					x="-2.4316407e-06"
					y="217"
					rx="16"
					ry="16"/>
		</clipPath>
	</defs>
	<g
			id="layer1"
			transform="translate(0,-217)">
		<g
				id="g3279"
				clip-path="url(#clipPath3281)">
			<rect
					width="133.33333"
					height="80"
					x="-2.6666589"
					y="216.99986"
					fill="#cc0000"
					id="rect1274"
					style="stroke-width:0.222222;fill:#991155;fill-opacity:1"/>
			<path
					id="path155"
					style="stroke-width:0.926002;fill:#ffffff;fill-opacity:1"
					d="m 69.823777,229.22333 c -0.0531,-0.006 -0.0861,-0.006 -0.0944,0.002 -0.13261,0.11854 1.95322,2.40382 2.64195,2.89451 0.4038,0.28769 1.1045,0.63937 1.55712,0.781 0.4477,0.1401 1.07867,0.25724 1.41362,0.26423 0.67137,0.41104 1.61118,0.97454 2.70679,1.62629 -0.84067,-0.19996 -1.81448,-0.29246 -2.63816,-0.21702 -1.15149,0.10547 -3.83637,0.80132 -4.14997,1.07561 -0.0816,0.0714 0.54518,0.18623 1.39273,0.255 0.84754,0.0688 2.04246,0.18625 2.65524,0.2607 1.19913,0.14578 3.87928,0.089 4.41013,-0.0933 0.10657,-0.0366 0.18267,-0.0743 0.23329,-0.11556 0.87333,0.57394 1.70862,1.19354 2.50116,1.85607 -1.142,-0.4524 -2.4936,-0.6548 -4.20992,-0.65215 -1.93225,0.003 -2.4016,0.16593 -1.40114,0.48667 0.38197,0.12245 1.48861,0.56137 2.45884,0.97524 0.97022,0.41387 2.26518,0.84383 2.87796,0.9557 0.61277,0.11188 1.56949,0.21083 2.12572,0.22001 l 0.27724,0.005 c 0.21525,0.22686 0.4271,0.45721 0.63262,0.69148 0.5435,0.60527 1.04973,1.23572 1.52267,1.88645 -0.62708,-0.44722 -1.36772,-0.84081 -2.1778,-1.14397 -1.3579,-0.50816 -3.69938,-1.0451 -3.87463,-0.88843 -0.0347,0.031 0.53808,0.48443 1.27282,1.00779 0.73471,0.52338 1.79512,1.28943 2.35685,1.70171 1.02449,0.75195 2.97822,1.79877 3.63915,1.94993 0.20572,0.047 0.36144,0.0743 0.48613,0.0852 0.5675,1.05721 1.05265,2.15184 1.45051,3.27267 -0.21751,-0.27304 -0.48183,-0.55047 -0.83417,-0.88436 -0.93194,-0.88317 -1.59236,-1.31554 -3.05782,-2.00066 -1.02802,-0.48061 -1.86909,-0.81064 -1.86909,-0.73353 0,0.0771 0.27609,0.39955 0.6139,0.71645 0.67537,0.6335 1.61285,1.84377 2.16044,2.78925 0.40048,0.69151 1.97058,2.0947 3.07138,2.74504 0.37016,0.21867 0.61418,0.34996 0.76744,0.39145 0.32828,1.56037 0.49365,3.14926 0.49399,4.73864 -0.10602,-0.61727 -0.28011,-1.26968 -0.51135,-1.81863 -0.42807,-1.01621 -0.70907,-1.37206 -1.8992,-2.40676 -0.76823,-0.6679 -1.60394,-1.40157 -1.85742,-1.62982 l -0.46117,-0.41505 0.13563,0.41505 c 1.34166,4.11089 2.15196,5.73544 3.65816,7.3323 0.57426,0.60885 0.7264,0.75701 0.83769,0.62747 -0.0449,0.47776 -0.10335,0.95429 -0.17931,1.42907 -0.14435,0.96233 -0.35794,1.91315 -0.63153,2.84839 0.0264,-0.85303 -0.11235,-1.76859 -0.42048,-2.52584 -0.34549,-0.84899 -2.58413,-4.16147 -2.72306,-4.02926 -0.1249,0.11888 0.30098,5.51238 0.49074,6.21493 0.24147,0.89399 0.96955,2.30804 1.41795,2.75317 0.11713,0.11629 0.21135,0.19757 0.27291,0.24388 -0.59868,1.37995 -1.33463,2.70964 -2.19245,3.97093 0.3018,-1.12985 0.37011,-2.5325 0.11529,-3.81983 -0.48268,-2.43842 -1.29754,-4.07796 -1.30538,-2.62649 -0.003,0.24569 -0.25435,1.34342 -0.56235,2.43904 -0.87641,3.11763 -0.9051,4.22829 -0.153,5.9271 l 0.15951,0.35917 c -0.78743,0.91609 -1.64274,1.78308 -2.56057,2.59095 0.0127,-0.0216 0.0276,-0.0446 0.0383,-0.0648 0.46839,-0.89112 0.72984,-3.04395 0.57348,-4.72209 l -0.13022,-1.39544 -0.81464,1.36316 c -0.44821,0.74991 -1.00399,1.60061 -1.23484,1.88997 -0.9828,1.23175 -1.2988,2.11527 -1.39707,3.90556 l -0.0733,1.33061 c -0.30242,0.19738 -0.60769,0.39114 -0.91908,0.57673 -0.78401,0.47779 -1.59608,0.9142 -2.4309,1.30863 1.08409,-1.13909 1.91897,-2.82177 2.24535,-4.66757 l 0.15083,-0.85289 -1.13312,0.94675 c -3.53195,2.9508 -4.48418,4.07156 -4.70365,5.5343 -0.0269,0.17881 -0.042,0.30542 -0.042,0.40094 -1.23211,0.39005 -2.49504,0.69865 -3.77643,0.92397 0.15337,-0.0585 0.30368,-0.12742 0.4628,-0.21079 1.12685,-0.59035 2.93752,-2.65166 3.22329,-3.66954 l 0.11801,-0.42129 -0.91475,0.39471 c -0.50318,0.21701 -1.45026,0.55126 -2.10455,0.74329 -0.65428,0.19202 -1.50216,0.53421 -1.88401,0.76012 -0.86527,0.51189 -2.18919,1.98766 -2.18919,2.44012 0,0.26268 0.10345,0.31441 0.89629,0.2862 -1.9179,0.18086 -3.85665,0.17831 -5.77437,-0.01 0.0325,5.3e-4 0.0673,0.003 0.0993,0.004 l 1.25573,0.0152 -0.28674,-0.61362 c -0.67692,-1.44835 -1.75725,-2.22012 -4.10548,-2.93412 -0.70606,-0.21469 -1.64447,-0.55513 -2.08556,-0.75632 l -0.80162,-0.36595 0.12831,0.3844 c 0.41158,1.23343 2.52985,3.43675 3.77263,3.99887 -0.65149,-0.10967 -1.29852,-0.23993 -1.93962,-0.39389 -0.66413,-0.15255 -1.31975,-0.33157 -1.96648,-0.53251 0.0275,-0.11592 0.0233,-0.27792 -0.005,-0.49508 -0.16063,-1.27393 -0.68703,-1.95648 -3.26779,-4.23706 l -2.50062,-2.21008 0.11475,0.71617 c 0.0632,0.39381 0.32504,1.31989 0.58162,2.05789 0.42152,1.21248 1.04812,2.19744 1.86556,2.94416 -1.26853,-0.57659 -2.48719,-1.2445 -3.64215,-1.99578 l 0.095,-0.34614 c 0.35602,-1.29527 -0.36833,-3.59555 -1.66699,-5.29286 -0.26738,-0.34944 -0.7919,-1.15836 -1.16513,-1.79747 l -0.67846,-1.16187 -0.0589,2.15799 c -0.0329,1.20888 0.0345,2.54099 0.15272,3.02852 0.11817,0.4872 0.42272,1.04645 0.83201,1.58452 -1.18976,-0.98047 -2.2867,-2.05541 -3.2743,-3.2081 0.10265,0.0638 0.18796,0.10261 0.2238,0.0827 0.31952,-0.17654 0.73235,-1.809 0.72973,-2.88773 -0.002,-0.68312 -0.24398,-1.95801 -0.64916,-3.414 -0.3557,-1.27823 -0.65393,-2.54846 -0.663,-2.82235 -0.0162,-0.49126 -0.0215,-0.48848 -0.37408,0.19667 -0.41898,0.81415 -1.0965,3.62509 -1.0965,4.54821 0,0.35256 0.13787,1.20313 0.30681,1.89052 0.0729,0.29667 0.14669,0.54282 0.22706,0.7612 -0.76814,-1.06357 -1.44925,-2.17971 -2.02643,-3.34049 -2.42563,-4.75388 -3.00823,-10.2227 -1.8501,-15.35176 1.2e-4,0.53043 0.0432,0.52722 0.98772,-0.061 1.18747,-0.73953 2.4019,-1.93746 3.63156,-3.58328 0.61393,-0.82172 1.37939,-1.77439 1.70144,-2.11676 0.32205,-0.34239 0.5412,-0.62285 0.4864,-0.62285 -0.3654,0 -3.62148,1.65874 -4.29212,2.18648 -0.89357,0.70315 -1.57548,1.49607 -2.00256,2.30448 0.43607,-1.3794 1.00197,-2.72275 1.69656,-4.00945 0.0385,0.01 0.0848,0.0154 0.14595,0.0152 0.86597,-0.004 3.89942,-1.63897 5.45399,-2.93927 0.36298,-0.30361 1.10275,-0.84926 1.64366,-1.2126 1.09672,-0.7367 0.96667,-0.79707 -0.87948,-0.408 -1.9972,0.42093 -3.79061,1.27178 -4.99798,2.29852 0.73562,-1.07656 1.56599,-2.09652 2.47973,-3.05076 l 0.47121,-0.002 c 1.53897,-0.005 3.26606,-0.39988 4.89381,-1.11983 0.81705,-0.36137 1.88698,-0.79134 2.37773,-0.95543 1.1959,-0.39984 0.83399,-0.57197 -1.20772,-0.57564 -2.01568,-0.003 -3.39794,0.22869 -4.58863,0.82413 0.88218,-0.7492 1.81762,-1.44694 2.79957,-2.08638 0.008,0.0157 0.018,0.0311 0.0334,0.0448 0.0645,0.0576 0.43161,0.15913 0.81572,0.2257 1.12464,0.19499 2.41793,0.16934 4.59785,-0.0914 1.12343,-0.13441 2.35582,-0.24531 2.7388,-0.24605 0.383,-5.2e-4 0.69637,-0.0605 0.69637,-0.13292 0,-0.0725 -0.73078,-0.34985 -1.6244,-0.61661 -2.05077,-0.61216 -4.24756,-0.6712 -5.73287,-0.16629 1.12513,-0.73955 2.00273,-1.32696 2.65715,-1.77605 0.0724,0.0303 0.19317,0.0344 0.38087,0.0344 1.38098,0 2.46932,-0.48767 3.85889,-1.72992 1.44652,-1.29316 2.29184,-2.41571 1.63986,-2.17699 -0.18905,0.0693 -0.92849,0.26083 -1.64339,0.42563 -2.91744,0.67252 -3.8758,1.33399 -4.26309,2.94171 -0.003,0.0107 -0.003,0.0147 -0.006,0.0249 -1.12905,0.61493 -2.52169,1.41413 -3.39339,1.93202 0.0392,-0.0338 0.0827,-0.0681 0.11937,-0.10146 1.07618,-0.97738 1.59954,-1.85866 2.06549,-3.47802 l 0.33122,-1.15102 -0.3985,0.18745 c -0.21906,0.10323 -0.89175,0.48628 -1.495,0.85072 -2.35143,1.42063 -3.5688,3.21622 -3.16226,4.66431 0.0668,0.23787 0.15748,0.43269 0.20156,0.43269 0.0667,0 0.17306,-0.0344 0.29406,-0.0825 -3.19371,2.26467 -5.83743,5.14438 -7.71372,8.44562 0.30671,-0.72068 0.49053,-1.57601 0.4921,-2.41327 0.002,-1.00205 -0.13067,-1.63258 -0.62529,-2.97399 l -0.628,-1.7028 -0.52872,1.39707 c -1.42162,3.75439 -1.46832,4.93879 -0.26585,6.76073 l 0.3806,0.57619 0.41369,-0.43025 c 0.11168,-0.11606 0.217,-0.24891 0.31685,-0.39253 -0.74003,1.42539 -1.33983,2.92313 -1.78255,4.47848 -0.0131,-0.31214 -0.0557,-0.61232 -0.13347,-0.90605 -0.26761,-1.01081 -1.00052,-2.57814 -1.38242,-2.95637 -0.14142,-0.14006 -0.54239,-0.67831 -0.89087,-1.19605 -0.61594,-0.91514 -0.63341,-0.92674 -0.63776,-0.41505 -0.003,0.28948 -0.0695,1.3534 -0.14894,2.36444 -0.23326,2.96897 0.35851,4.75916 1.84061,5.56712 0.4195,0.22869 0.62121,0.32824 0.75414,0.25499 -0.19407,1.21273 -0.29813,2.45172 -0.29813,3.71349 0,0.14255 0.004,0.28446 0.007,0.42645 -0.4622,-1.11137 -2.33351,-3.58313 -3.0863,-4.04906 -0.24962,-0.1545 -0.75566,-0.5052 -1.12416,-0.7791 -0.51402,-0.3821 -0.6387,-0.4247 -0.53659,-0.18284 0.0732,0.17338 0.25871,0.9953 0.41234,1.82622 0.54628,2.95464 1.50501,4.64372 3.20295,5.64335 0.55907,0.32914 1.13006,0.59843 1.26903,0.59843 0.0412,0 0.0767,-0.0244 0.1077,-0.0635 0.20698,1.4097 0.53886,2.78331 0.98744,4.11063 -0.59067,-0.83755 -1.32507,-1.57736 -2.01314,-1.95074 -0.35817,-0.19438 -1.13924,-0.65657 -1.73616,-1.02732 -0.59693,-0.37074 -1.47933,-0.87684 -1.96051,-1.12416 l -0.87459,-0.44951 1.10681,1.99767 c 0.60874,1.09867 1.40033,2.39268 1.75895,2.87552 0.79505,1.07048 2.12782,2.00693 3.45903,2.42955 1.11666,0.3545 1.41661,0.4284 1.43613,0.10498 0.75052,1.53561 1.66159,2.9915 2.71492,4.34936 -0.41665,-0.39025 -0.84494,-0.74559 -1.19659,-0.97334 -1.16828,-0.75657 -3.24498,-1.60529 -4.44377,-1.81591 -0.57392,-0.10085 -1.35815,-0.29096 -1.74321,-0.42238 -0.98543,-0.33633 -1.02259,-0.30747 -0.39362,0.30112 0.30668,0.29671 0.92704,0.97934 1.37889,1.51724 0.83912,0.99897 2.74929,2.47717 3.86974,2.99516 0.34335,0.15872 1.13657,0.38999 1.76276,0.51379 0.6262,0.12385 1.30566,0.19333 1.50991,0.15408 0.20427,-0.0391 0.51992,-0.0726 0.70125,-0.0735 0.27127,-0.002 0.29116,-0.0491 0.11339,-0.36948 4.4004,4.70758 10.63913,7.94036 17.70046,8.76817 -0.70326,0.12093 -1.42262,0.28707 -1.98872,0.4788 -0.97311,0.32956 -6.40616,2.69412 -6.40644,2.78817 -2.8e-4,0.0968 3.6044,-0.0726 4.75383,-0.22326 1.63168,-0.21393 3.76278,-0.84643 4.63393,-1.37564 0.36101,-0.2193 0.94318,-0.69784 1.29344,-1.06367 l 0.39199,-0.40962 c 0.30503,0.009 0.61087,0.0152 0.91827,0.0152 0.34103,0 0.67973,-0.007 1.01783,-0.0184 l 0.9652,0.80704 c 1.0504,0.87841 1.39848,1.05941 2.75914,1.43342 2.27428,0.62513 2.45996,0.65462 4.89951,0.78318 1.22556,0.0645 2.33253,0.12928 2.4602,0.14377 0.12763,0.0146 0.2322,-0.01 0.2322,-0.054 0,-0.10775 -1.64631,-0.84186 -2.22825,-0.99369 -0.25533,-0.0666 -0.76246,-0.30172 -1.12715,-0.52193 -1.23798,-0.74749 -3.49826,-1.46798 -5.3151,-1.79774 10.18127,-1.21657 18.64626,-7.43245 22.33574,-15.85687 -0.17322,0.44578 -0.29569,0.80832 -0.29569,0.90172 0,0.33134 0.26632,0.32106 1.41985,-0.0559 1.32434,-0.43274 2.57073,-1.23961 3.32449,-2.15203 0.64411,-0.7797 3.07745,-5.00812 2.88149,-5.00721 -0.12277,5.3e-4 -2.48505,1.30879 -3.9335,2.17835 -1.54687,0.92865 -2.40941,1.86815 -3.06026,3.328 0.69021,-1.74629 1.17768,-3.58078 1.4364,-5.47976 0.0617,0.47854 0.40492,0.33132 1.46815,-0.23601 1.6887,-0.90106 2.75074,-2.68285 3.25503,-5.46132 0.14345,-0.79032 0.34309,-1.63062 0.44381,-1.86746 0.1007,-0.23684 0.11496,-0.43079 0.0314,-0.43079 -0.26941,0 -3.06927,2.55134 -3.72244,3.39203 -0.67434,0.86797 -1.08108,1.72012 -1.29588,2.73229 0.0239,-0.43296 0.0361,-0.86919 0.0361,-1.30755 0,-8.33083 -4.38258,-15.72938 -11.15241,-20.39259 0.34731,0.15738 0.69431,0.26526 0.7905,0.24116 0.26982,-0.0677 0.33961,-1.25378 0.11367,-1.93066 -0.29702,-0.88987 -1.91179,-2.47014 -3.40994,-3.33724 -0.74045,-0.42858 -1.37394,-0.75564 -1.40765,-0.72701 -0.10522,0.0894 0.51449,2.08539 0.86971,2.80146 0.30951,0.62392 1.26363,1.64638 2.10021,2.32673 -0.49846,-0.31463 -1.00856,-0.61514 -1.52972,-0.90036 -0.50237,-0.21128 -1.47185,-0.68801 -2.429,-1.15808 0.0206,-0.045 0.029,-0.10111 0.029,-0.17199 0,-1.17098 -1.37468,-2.409 -3.18315,-2.86684 -0.64946,-0.16443 -1.58674,-0.41133 -2.08312,-0.54879 -0.37229,-0.1031 -0.70912,-0.17858 -0.86835,-0.19722 z m 13.9007,3.36896 0.0657,2.158 c 0.0591,1.93096 0.11948,2.26059 0.57212,3.12944 0.29815,0.57234 0.86878,1.27027 1.38975,1.69981 0.48611,0.40081 0.94327,0.72936 1.01592,0.73027 0.28604,0.004 0.55523,-1.4546 0.45249,-2.45097 -0.15443,-1.4973 -0.71674,-2.41272 -2.78356,-4.53437 z m -39.36425,0.0727 -1.19144,1.29154 c -0.65552,0.71055 -1.40709,1.67715 -1.66943,2.14769 -0.53068,0.95186 -0.69548,2.3444 -0.41451,3.50189 0.0942,0.38803 0.25557,0.70559 0.35835,0.70559 0.1028,0 0.62893,-0.39227 1.16947,-0.8716 1.51013,-1.33914 2.16192,-3.31538 1.87723,-5.69191 z m 45.5648,4.96082 c -0.10027,-0.008 -0.34508,0.40672 -0.64862,1.1087 -0.51254,1.18523 -0.57561,1.52442 -0.58623,3.15412 -0.011,1.69817 0.0255,1.88997 0.52085,2.73907 0.29295,0.50215 0.62391,1.01422 0.73516,1.13773 0.16552,0.18379 0.26053,0.15998 0.52437,-0.1313 0.48062,-0.5306 1.08614,-2.09597 1.08266,-2.7974 -0.005,-0.78545 -0.78102,-3.30974 -1.59456,-5.18109 -0.008,-0.0188 -0.0192,-0.0287 -0.0336,-0.0298 z m 4.36265,6.17585 -0.81139,1.1182 c -0.44612,0.61526 -1.08131,1.60441 -1.41171,2.19787 -0.56272,1.01091 -0.60041,1.18935 -0.59952,2.82235 0,1.10705 0.0877,1.87899 0.23845,2.11622 0.13053,0.20543 0.28761,0.37355 0.34859,0.37355 0.37073,0 1.34097,-0.74222 1.67051,-1.27798 0.80378,-1.30673 1.00368,-2.89148 0.72376,-5.73395 z m -43.03081,0.27019 -0.26477,0.36432 -0.26449,0.36406 0.34208,0.30409 c 0.18799,0.16743 0.59656,0.47675 0.90796,0.68742 1.26006,0.85106 6.25006,4.48111 6.26131,4.55526 0.007,0.0434 -0.0484,0.17787 -0.12235,0.29895 -0.12147,0.19908 -0.12064,0.23297 0.0106,0.35265 0.0796,0.0731 0.15709,0.17755 0.17171,0.23275 0.0147,0.0552 0.0967,0.12897 0.18257,0.16386 0.12757,0.0518 0.17909,0.0316 0.28186,-0.10987 0.19914,-0.27409 0.38825,-0.25715 0.80134,0.0711 l 0.34832,0.27752 -0.1123,0.24415 c -0.0808,0.1755 -0.0881,0.28745 -0.0252,0.39742 0.068,0.11905 0.059,0.19226 -0.0409,0.32986 -0.14317,0.19707 -0.13166,0.32385 0.0442,0.49264 0.10643,0.10178 0.12847,0.0966 0.21512,-0.0542 0.053,-0.0925 0.0908,-0.20659 0.0836,-0.25337 -0.0256,-0.16486 0.0593,-0.18207 0.0947,-0.0193 0.0254,0.11747 0.17753,0.25547 1.59727,1.28449 -0.91432,0.65823 -1.32262,0.97245 -1.31324,1.05472 0.0123,0.10804 -0.0329,0.15378 -0.28674,0.29026 -0.25354,0.13627 -0.32548,0.14625 -0.45276,0.0637 -0.0833,-0.0539 -0.17224,-0.15182 -0.19776,-0.21756 -0.11465,-0.29593 -0.9507,-0.48974 -1.33006,-0.30816 -0.10281,0.049 -0.76523,0.43894 -1.47222,0.86617 -0.70698,0.42724 -1.58812,0.95793 -1.95834,1.17897 -0.37021,0.22103 -0.85095,0.5175 -1.06773,0.65974 -0.21708,0.14184 -0.45271,0.2773 -0.5233,0.30112 -0.18401,0.0619 -0.38127,0.45748 -0.34642,0.69446 0.0164,0.11117 0.0886,0.28337 0.1606,0.3825 0.0722,0.0993 0.11184,0.20768 0.0879,0.24035 -0.0237,0.0329 -0.0166,0.25421 0.0157,0.49182 l 0.0589,0.43215 -0.28728,0.1812 c -0.27619,0.17502 -0.28427,0.18811 -0.21268,0.35321 0.0409,0.0943 0.0855,0.20363 0.0993,0.24306 0.0136,0.0393 0.0675,0.0779 0.1199,0.086 0.14157,0.0208 -0.14017,0.29064 -0.62773,0.59816 -0.22687,0.14436 -1.47033,1.02331 -2.76159,1.95535 -1.79542,1.2959 -2.39649,1.70561 -2.55487,1.74159 -0.74013,0.16861 -0.72687,0.37653 0.10091,1.60405 0.79572,1.17998 2.19053,2.76598 2.66719,3.03286 0.31234,0.1749 0.62425,-0.15101 0.47771,-0.49915 -0.0387,-0.092 -0.0683,-0.29847 -0.0654,-0.45845 0.0168,-0.94863 0.0371,-1.22423 0.096,-1.30891 0.0363,-0.052 0.0843,-0.17903 0.10688,-0.28185 0.0656,-0.29914 0.21731,-0.28782 0.45086,0.0336 0.19953,0.27464 0.35413,0.35732 0.48748,0.26043 0.0732,-0.0532 0.37044,-1.07611 0.42238,-1.4535 0.0377,-0.2741 0.0951,-0.32009 0.49182,-0.39307 0.32108,-0.0592 0.37512,-0.12344 0.27562,-0.32933 -0.0479,-0.0992 -0.007,-0.15981 0.25933,-0.38711 l 0.31604,-0.26938 -0.13102,-0.20508 c -0.0856,-0.13401 -0.1249,-0.31187 -0.1134,-0.51353 l 0.0176,-0.30871 0.49535,-0.39959 c 0.47467,-0.38304 0.50045,-0.39639 0.62203,-0.31739 0.0874,0.0568 0.1973,0.0485 0.35266,-0.0269 0.34562,-0.16746 0.605,-0.18698 0.83607,-0.0629 0.41232,0.22144 0.42371,0.29584 0.42998,2.82452 0.005,1.8549 0.002,1.81817 0.14757,1.80832 0.0633,-0.004 0.44857,-0.12153 0.85614,-0.26069 0.40772,-0.139 0.81475,-0.27597 0.90471,-0.30438 l 5.2e-4,5.3e-4 c 0.26679,-0.0839 0.55053,-0.3101 0.56019,-0.44598 0.007,-0.10099 -0.0257,-0.13811 -0.16955,-0.19179 -0.25976,-0.0969 -0.34149,-0.24739 -0.36975,-0.68117 -0.0351,-0.538 0.0123,-0.85028 0.14323,-0.9454 0.0614,-0.0446 0.13334,-0.14783 0.16005,-0.22923 0.0478,-0.14557 0.0451,-0.14869 -0.16032,-0.18663 -0.11481,-0.021 -0.22294,-0.0578 -0.24008,-0.0814 -0.0172,-0.0236 -0.0261,-0.22144 -0.0198,-0.43919 l 0.0117,-0.39606 1.0851,-0.7669 c 0.90105,-0.63664 1.10157,-0.75868 1.18221,-0.71834 0.0534,0.0267 0.32988,0.32061 0.61418,0.65296 0.28428,0.33233 0.5598,0.61068 0.61253,0.61878 0.0674,0.0103 0.41681,-0.27505 1.18005,-0.96303 l 1.08429,-0.97768 -0.61959,-0.81002 c -0.48675,-0.6364 -0.61112,-0.83006 -0.58053,-0.90389 0.029,-0.0697 -0.0557,-0.21643 -0.33069,-0.57239 -0.52856,-0.6842 -0.60448,-0.87212 -0.47256,-1.17164 0.1,-0.22841 0.23502,-0.3356 2.90537,-2.25647 2.67034,1.92087 2.80538,2.02806 2.90535,2.25647 0.13193,0.29952 0.056,0.48744 -0.47256,1.17164 -0.275,0.35596 -0.35966,0.50266 -0.33068,0.57239 0.0306,0.0738 -0.0938,0.26749 -0.58053,0.90389 l -0.61959,0.81002 1.08428,0.97768 c 0.76324,0.68798 1.11264,0.97329 1.18005,0.96303 0.0527,-0.008 0.32826,-0.28645 0.61254,-0.61878 0.2843,-0.33235 0.56075,-0.62621 0.61417,-0.65296 0.0806,-0.0404 0.28116,0.0817 1.18221,0.71834 l 1.08511,0.7669 0.0117,0.39606 c 0.006,0.21775 -0.003,0.41555 -0.0198,0.43919 -0.0171,0.0236 -0.12527,0.0604 -0.24007,0.0814 -0.20542,0.0379 -0.20812,0.041 -0.16033,0.18663 0.0267,0.0814 0.0986,0.1846 0.16005,0.22923 0.13093,0.0951 0.17835,0.4074 0.14324,0.9454 -0.0283,0.43378 -0.10999,0.58429 -0.36975,0.68117 -0.14383,0.0537 -0.17662,0.0908 -0.16955,0.19179 0.01,0.13588 0.29339,0.36207 0.56018,0.44598 l 5.3e-4,-5.3e-4 c 0.09,0.0284 0.49699,0.16538 0.9047,0.30438 0.40758,0.13916 0.79289,0.25644 0.85615,0.26069 0.14594,0.01 0.143,0.0466 0.14757,-1.80832 0.006,-2.52868 0.0176,-2.60308 0.42997,-2.82452 0.23108,-0.12405 0.49047,-0.10453 0.83608,0.0629 0.15535,0.0753 0.26528,0.0837 0.35265,0.0269 0.12159,-0.079 0.14737,-0.0657 0.62204,0.31739 l 0.49535,0.39959 0.0176,0.30844 c 0.0115,0.20165 -0.0278,0.37979 -0.11339,0.5138 l -0.13102,0.20508 0.31603,0.26938 c 0.26663,0.2273 0.30728,0.28788 0.25934,0.38711 -0.0995,0.20589 -0.0455,0.27011 0.27562,0.32933 0.39676,0.073 0.45415,0.11897 0.49182,0.39307 0.0519,0.37739 0.3492,1.40033 0.42237,1.4535 0.13336,0.0969 0.28796,0.0142 0.48749,-0.26043 0.23355,-0.32145 0.38523,-0.33278 0.45086,-0.0336 0.0226,0.10282 0.0706,0.22986 0.10688,0.28185 0.059,0.0847 0.0792,0.36028 0.096,1.30891 0.003,0.15998 -0.0267,0.36646 -0.0654,0.45845 -0.14653,0.34814 0.16538,0.67405 0.47772,0.49915 0.47666,-0.26688 1.87146,-1.85289 2.66718,-3.03286 0.82779,-1.22752 0.84104,-1.43544 0.10091,-1.60405 -0.15837,-0.036 -0.75944,-0.44569 -2.55487,-1.74159 -1.29126,-0.93204 -2.53471,-1.81099 -2.76158,-1.95535 -0.48756,-0.30752 -0.7693,-0.57735 -0.62774,-0.59816 0.0524,-0.008 0.10632,-0.0467 0.11991,-0.086 0.0138,-0.0394 0.0584,-0.14872 0.0993,-0.24306 0.0716,-0.1651 0.0635,-0.17819 -0.21268,-0.35321 l -0.28729,-0.1812 0.0589,-0.43215 c 0.0323,-0.23761 0.0395,-0.45888 0.0157,-0.49182 -0.0239,-0.0327 0.0157,-0.14102 0.0879,-0.24035 0.072,-0.0991 0.14423,-0.27133 0.1606,-0.3825 0.0349,-0.23698 -0.16241,-0.63259 -0.34642,-0.69446 -0.0706,-0.0238 -0.30621,-0.15928 -0.52329,-0.30112 -0.21678,-0.14224 -0.69752,-0.43871 -1.06774,-0.65974 -0.37021,-0.22104 -1.25135,-0.75173 -1.95834,-1.17897 -0.70698,-0.42723 -1.3694,-0.81713 -1.47221,-0.86617 -0.37936,-0.18158 -1.21541,0.0122 -1.33006,0.30816 -0.0255,0.0657 -0.11444,0.16366 -0.19776,0.21756 -0.12728,0.0825 -0.19922,0.0725 -0.45276,-0.0637 -0.25384,-0.13648 -0.299,-0.18222 -0.28674,-0.29026 0.0104,-0.0911 -0.0928,-0.19269 -1.31324,-1.06421 1.08367,-0.7905 1.57421,-1.16832 1.59726,-1.275 0.0354,-0.1628 0.12027,-0.1456 0.0947,0.0193 -0.007,0.0468 0.0306,0.16087 0.0836,0.25337 0.0867,0.15083 0.10869,0.15603 0.21512,0.0542 0.17588,-0.16879 0.1874,-0.29557 0.0442,-0.49264 -0.1,-0.1376 -0.109,-0.21081 -0.0409,-0.32986 0.0629,-0.10997 0.0556,-0.22192 -0.0252,-0.39742 l -0.11231,-0.24415 0.34832,-0.27752 c 0.41309,-0.32822 0.6022,-0.34516 0.80134,-0.0711 0.10277,0.14144 0.15429,0.16163 0.28186,0.10987 0.0858,-0.0349 0.16795,-0.10865 0.18257,-0.16386 0.0146,-0.0552 0.0921,-0.15966 0.17171,-0.23275 0.13123,-0.11968 0.13205,-0.15357 0.0106,-0.35265 -0.074,-0.12108 -0.12908,-0.25558 -0.12235,-0.29895 0.0112,-0.0741 5.00124,-3.7042 6.26131,-4.55526 0.3114,-0.21067 0.71997,-0.51971 0.90796,-0.68714 l 0.34208,-0.30437 -0.26449,-0.36406 -0.26477,-0.36432 -0.87269,0.62502 c -0.48046,0.34327 -0.88456,0.66317 -0.89792,0.71074 -0.0381,0.13823 -5.95737,4.44635 -6.08146,4.42749 -0.0621,-0.01 -0.35954,-0.33845 -0.75523,-0.83553 -0.35902,-0.45102 -0.72612,-0.86569 -0.81572,-0.92152 -0.20057,-0.12453 -0.46992,-0.0639 -0.57945,0.13238 -0.0869,0.15574 -0.14482,2.30307 -0.0675,2.50252 0.0612,0.15862 -0.0928,0.27457 -0.28266,0.21159 -0.12121,-0.0401 -0.53338,0.23521 -2.3875,1.54356 -2.05144,-1.44902 -2.26795,-1.58508 -2.39347,-1.54356 -0.18988,0.063 -0.34385,-0.053 -0.28267,-0.21159 0.0773,-0.19945 0.0193,-2.34678 -0.0675,-2.50252 -0.10954,-0.19623 -0.37889,-0.25691 -0.57945,-0.13238 -0.0896,0.0558 -0.4567,0.4705 -0.81572,0.92152 -0.3957,0.49708 -0.69309,0.82605 -0.75523,0.83553 -0.12409,0.0189 -6.04334,-4.28926 -6.08146,-4.42749 -0.0134,-0.0476 -0.41746,-0.36747 -0.89792,-0.71074 z m 9.51499,4.94047 c 0.0433,-0.009 0.0829,0.007 0.13482,0.0442 0.0984,0.0715 0.12978,0.24197 0.13808,0.74574 0.006,0.35916 -0.002,0.6697 -0.0163,0.69013 -0.0671,0.0923 -0.1884,0.0294 -0.698,-0.36189 l -0.54526,-0.41749 0.14296,-0.23031 c 0.11975,-0.19332 0.17233,-0.22805 0.33204,-0.21946 0.11399,0.006 0.25544,-0.0517 0.35429,-0.14459 0.0669,-0.063 0.11404,-0.0971 0.15734,-0.10634 z m 6.45636,0 c 0.0433,0.009 0.0904,0.0434 0.15733,0.10634 0.0988,0.093 0.2403,0.15077 0.35429,0.14459 0.15971,-0.009 0.21229,0.0262 0.33204,0.21946 l 0.14296,0.23032 -0.54526,0.41749 c -0.5096,0.39132 -0.6309,0.45422 -0.69799,0.36188 -0.0149,-0.0204 -0.0222,-0.33097 -0.0163,-0.69012 0.008,-0.50378 0.0397,-0.67396 0.13808,-0.74547 0.0519,-0.0377 0.0915,-0.0537 0.13482,-0.0445 z m -25.62252,1.02977 c 0,-0.0466 -0.7532,0.55952 -1.67377,1.34715 -1.80685,1.54589 -2.37564,2.36909 -2.88854,4.17846 -0.20469,0.72208 -0.26148,1.34699 -0.17714,1.95047 0.0682,0.48841 0.18514,0.88788 0.25988,0.88788 0.16722,0 1.86711,-2.02288 2.3799,-2.83212 0.33379,-0.52674 0.89895,-1.96434 1.8029,-4.58618 0.16332,-0.47367 0.29677,-0.89908 0.29677,-0.94566 z m 16.8576,5.02483 0.28701,0.0437 c 0.24323,0.0369 0.30043,0.0729 0.37463,0.2352 0.0481,0.10533 0.0708,0.29314 0.0505,0.41722 l -0.0364,0.22652 -2.04243,1.5053 c -1.77523,1.30932 -2.05343,1.49888 -2.12897,1.45025 -0.0879,-0.0566 -0.19417,-0.77346 -0.1416,-0.95516 0.0547,-0.18965 0.262,-0.36433 1.94341,-1.63878 z m 11.07347,0 1.69384,1.28422 c 1.68142,1.27445 1.88877,1.44913 1.94342,1.63878 0.0526,0.1817 -0.0538,0.89858 -0.1416,0.95516 -0.0755,0.0487 -0.35375,-0.14093 -2.12897,-1.45025 l -2.04244,-1.5053 -0.0363,-0.22652 c -0.0203,-0.12408 0.002,-0.31189 0.0504,-0.41722 0.0742,-0.16228 0.1314,-0.19828 0.37463,-0.2352 z m -28.52435,1.03383 c -0.25604,-0.10041 -2.37481,3.0038 -2.74775,4.08324 -0.4892,1.41582 -0.48319,2.92637 0.0165,4.1204 0.38323,0.91569 0.39532,0.92517 0.76255,0.62828 0.45392,-0.36697 1.01573,-1.32611 1.38025,-2.35712 0.21361,-0.60422 0.58436,-4.47807 0.61363,-6.41024 4.2e-4,-0.0367 -0.008,-0.0579 -0.0252,-0.0646 z m 17.45333,4.96923 c 0.0368,0.003 0.0767,0.0114 0.12451,0.0247 0.1735,0.0481 0.24061,0.10671 0.33557,0.2927 0.0653,0.12788 0.16027,0.29522 0.21105,0.37192 l 0.0911,0.13754 -0.66625,0.5024 -0.66653,0.50267 -0.22271,-0.0917 c -0.26516,-0.10924 -0.45247,-0.41803 -0.41533,-0.68442 0.0239,-0.17208 0.0266,-0.17137 0.18582,0.0477 0.15465,0.21286 0.54845,0.47093 0.56508,0.37029 0.004,-0.0266 -0.0648,-0.15754 -0.15382,-0.29108 -0.12469,-0.18689 -0.15318,-0.30434 -0.1237,-0.5108 0.0339,-0.23745 0.0729,-0.29335 0.34045,-0.48776 0.19999,-0.1453 0.28427,-0.19221 0.39471,-0.1842 z m 11.06858,0 c 0.11043,-0.008 0.19472,0.0389 0.3947,0.18419 0.26758,0.19441 0.30659,0.25031 0.34045,0.48776 0.0295,0.20646 0.001,0.32391 -0.1237,0.51081 -0.089,0.13353 -0.15818,0.26451 -0.15381,0.29108 0.0166,0.10063 0.41042,-0.15744 0.56507,-0.37029 0.15919,-0.21911 0.16195,-0.21982 0.18582,-0.0477 0.0372,0.26639 -0.15017,0.57492 -0.41532,0.68416 l -0.22272,0.092 -0.66652,-0.50267 -0.66653,-0.50241 0.0911,-0.13754 c 0.0508,-0.0767 0.14604,-0.24404 0.21133,-0.37192 0.0949,-0.18599 0.16206,-0.24458 0.33556,-0.2927 0.0479,-0.0132 0.0877,-0.022 0.12452,-0.0247 z m 25.73102,6.36141 c -0.14216,0.006 -0.39788,0.0606 -0.75957,0.16683 -0.44765,0.13159 -1.26899,0.32322 -1.82568,0.42591 -1.50231,0.27716 -4.00933,1.45925 -5.23101,2.46616 -0.88481,0.72924 -2.02046,2.08832 -2.02046,2.41815 0,0.0461 0.22968,0.11556 0.51054,0.15435 0.95877,0.1325 3.11311,-0.31943 3.9731,-0.83362 2.28157,-1.36413 2.87496,-1.85841 3.96117,-3.2998 0.35149,-0.46641 0.85884,-0.97703 1.12715,-1.1342 0.42411,-0.24842 0.50168,-0.37371 0.26476,-0.36378 z m -57.69813,7.30464 c -0.21109,-0.001 -0.34661,0.008 -0.38168,0.0306 -0.031,0.0199 0.87053,0.60932 2.00364,1.30972 2.04647,1.26498 2.59998,1.51049 4.73755,2.10347 1.27801,0.35453 3.20316,0.30716 4.31084,-0.10661 l 0.66652,-0.24903 -0.72457,-0.56886 c -0.39853,-0.31284 -1.26737,-0.80552 -1.93121,-1.0946 -0.66385,-0.28908 -1.33879,-0.58485 -1.49961,-0.6573 -0.51324,-0.23132 -5.70386,-0.75946 -7.18148,-0.76744 z m 52.934,0.0635 c -0.51784,-0.006 -1.62014,0.0613 -3.64324,0.21268 -2.51416,0.18809 -4.2342,0.65374 -5.75755,1.55767 -1.37677,0.81693 -1.70119,1.15296 -1.35936,1.40656 0.14488,0.1075 0.62715,0.25952 1.07208,0.33774 1.6376,0.28781 3.0497,0.1139 5.13145,-0.63153 0.89265,-0.31963 4.71699,-2.48859 4.93016,-2.79604 0.0374,-0.054 -0.0629,-0.0835 -0.37354,-0.0871 z m -13.63513,5.02104 c -1.24185,0 -3.66299,0.44669 -4.38869,0.80976 -0.34735,0.17376 0.86604,0.91684 2.19434,1.3439 0.72202,0.23214 1.5042,0.32583 2.75454,0.33041 1.52311,0.006 2.08742,-0.0839 4.41691,-0.69935 2.37373,-0.62708 2.60266,-0.71855 2.06033,-0.82223 -2.87677,-0.54999 -5.89248,-0.96249 -7.03743,-0.96249 z m -25.66999,0.0328 c -0.98467,0.008 -2.02025,0.10352 -3.05537,0.28837 -0.98989,0.17677 -2.41366,0.41426 -3.16416,0.52763 l -1.36506,0.20617 0.80759,0.20183 c 0.44412,0.11092 1.64343,0.42807 2.66473,0.70504 3.21674,0.87238 6.68756,0.61974 8.25139,-0.60087 l 0.59735,-0.46633 -0.47852,-0.19477 c -1.11782,-0.45531 -2.61686,-0.68144 -4.25795,-0.66707 z"/>
		</g>
		<path
				style="fill:#000000;fill-opacity:0.33333333;fill-rule:nonzero;stroke:none;stroke-width:1.74999988;stroke-linecap:round;stroke-linejoin:round;stroke-miterlimit:4;stroke-dasharray:none;stroke-dashoffset:0;stroke-opacity:1;paint-order:normal"
				d="m 16.000088,216.99972 c -8.8639991,0 -16.000056560368,7.13605 -16.000056560368,16.00005 v 48.00017 C 3.1439632e-5,289.86394 7.1360889,297 16.000088,297 h 95.999822 c 8.864,0 16.00006,-7.13606 16.00006,-16.00006 v -48.00017 c 0,-8.864 -7.13606,-16.00005 -16.00006,-16.00005 z m 0,4.00027 h 95.999822 c 6.648,0 12.0003,5.35178 12.0003,11.99978 v 48.00017 c 0,6.648 -5.3523,11.99979 -12.0003,11.99979 H 16.000088 c -6.648,0 -11.9997842,-5.35179 -11.9997842,-11.99979 v -48.00017 c 0,-6.648 5.3517842,-11.99978 11.9997842,-11.99978 z"
				id="rect815-8"/>
	</g>
</svg>
