<?xml version="1.0" encoding="UTF-8" standalone="no"?>
<svg
		width="256px"
		height="160px"
		viewBox="0 0 128 80"
		version="1.1"
		xmlns="http://www.w3.org/2000/svg">
	<defs>
		<clipPath
				id="clipPath957">
			<rect
					style="fill:#ffffff;fill-opacity:1;fill-rule:nonzero;stroke:none;stroke-width:0.291666;stroke-linecap:round;stroke-linejoin:round;stroke-miterlimit:4;stroke-dasharray:none;stroke-dashoffset:0;stroke-opacity:1;paint-order:normal"
					id="rect959"
					width="128"
					height="80"
					x="234.84822"
					y="131.19942"
					rx="16"
					ry="16"/>
		</clipPath>
	</defs>
	<g
			id="layer1"
			transform="translate(0,-217)">
		<g
				id="g955"
				transform="translate(-234.84823,85.800584)"
				clip-path="url(#clipPath957)">
			<rect
					width="160.00003"
					height="26.66667"
					x="218.84821"
					y="131.19942"
					fill="#ffffff"
					id="rect2"
					style="stroke-width:0.266666"/>
			<rect
					width="160.00003"
					height="26.66667"
					x="218.84821"
					y="157.86609"
					fill="#000000"
					id="rect4"
					style="stroke-width:0.266666"/>
			<rect
					width="160.00003"
					height="26.66667"
					x="218.84821"
					y="184.53275"
					fill="#ffffff"
					id="rect6"
					style="stroke-width:0.266666"/>
			<circle
					cx="298.84821"
					cy="171.19942"
					fill="#000000"
					id="ellipse8"
					r="32.000004"
					style="stroke-width:0.266666"/>
			<g
					transform="matrix(0.2666667,0,0,0.2666667,298.84822,147.19941)"
					id="g19">
				<g
						id="use17">
					<g
							transform="scale(0.141)"
							id="g725">
						<path
								d="m 0,-100 24,68 H 96 L 40,12 60,80 0,40 -60,80 -40,12 -96,-32 h 72 z"
								fill="#ffffff"
								id="path723"/>
					</g>
				</g>
			</g>
			<g
					transform="matrix(0.2463679,0.10204893,-0.10204893,0.2463679,308.03276,149.02635)"
					id="g23">
				<g
						id="use21">
					<g
							transform="scale(0.141)"
							id="g731">
						<path
								d="m 0,-100 24,68 H 96 L 40,12 60,80 0,40 -60,80 -40,12 -96,-32 h 72 z"
								fill="#ffffff"
								id="path729"/>
					</g>
				</g>
			</g>
			<g
					transform="matrix(0.18856184,0.18856184,-0.18856184,0.18856184,315.81889,154.22875)"
					id="g27">
				<g
						id="use25">
					<g
							transform="scale(0.141)"
							id="g737">
						<path
								d="m 0,-100 24,68 H 96 L 40,12 60,80 0,40 -60,80 -40,12 -96,-32 h 72 z"
								fill="#ffffff"
								id="path735"/>
					</g>
				</g>
			</g>
			<g
					transform="matrix(0.10204893,0.2463679,-0.2463679,0.10204893,321.02129,162.01488)"
					id="g31">
				<g
						id="use29">
					<g
							transform="scale(0.141)"
							id="g743">
						<path
								d="m 0,-100 24,68 H 96 L 40,12 60,80 0,40 -60,80 -40,12 -96,-32 h 72 z"
								fill="#ffffff"
								id="path741"/>
					</g>
				</g>
			</g>
			<g
					transform="matrix(0,0.2666667,-0.2666667,0,322.84823,171.19942)"
					id="g35">
				<g
						id="use33">
					<g
							transform="scale(0.141)"
							id="g749">
						<path
								d="m 0,-100 24,68 H 96 L 40,12 60,80 0,40 -60,80 -40,12 -96,-32 h 72 z"
								fill="#ffffff"
								id="path747"/>
					</g>
				</g>
			</g>
			<g
					transform="matrix(-0.10204893,0.2463679,-0.2463679,-0.10204893,321.02129,180.38395)"
					id="g39">
				<g
						id="use37">
					<g
							transform="scale(0.141)"
							id="g755">
						<path
								d="m 0,-100 24,68 H 96 L 40,12 60,80 0,40 -60,80 -40,12 -96,-32 h 72 z"
								fill="#ffffff"
								id="path753"/>
					</g>
				</g>
			</g>
			<g
					transform="matrix(-0.18856184,0.18856184,-0.18856184,-0.18856184,315.81889,188.17008)"
					id="g43">
				<g
						id="use41">
					<g
							transform="scale(0.141)"
							id="g761">
						<path
								d="m 0,-100 24,68 H 96 L 40,12 60,80 0,40 -60,80 -40,12 -96,-32 h 72 z"
								fill="#ffffff"
								id="path759"/>
					</g>
				</g>
			</g>
			<g
					transform="matrix(-0.2463679,0.10204893,-0.10204893,-0.2463679,308.03276,193.37249)"
					id="g47">
				<g
						id="use45">
					<g
							transform="scale(0.141)"
							id="g767">
						<path
								d="m 0,-100 24,68 H 96 L 40,12 60,80 0,40 -60,80 -40,12 -96,-32 h 72 z"
								fill="#ffffff"
								id="path765"/>
					</g>
				</g>
			</g>
			<g
					transform="matrix(-0.2666667,0,0,-0.2666667,298.84822,195.19942)"
					id="g51">
				<g
						id="use49">
					<g
							transform="scale(0.141)"
							id="g773">
						<path
								d="m 0,-100 24,68 H 96 L 40,12 60,80 0,40 -60,80 -40,12 -96,-32 h 72 z"
								fill="#ffffff"
								id="path771"/>
					</g>
				</g>
			</g>
			<g
					transform="matrix(-0.2463679,-0.10204893,0.10204893,-0.2463679,289.66369,193.37249)"
					id="g55">
				<g
						id="use53">
					<g
							transform="scale(0.141)"
							id="g779">
						<path
								d="m 0,-100 24,68 H 96 L 40,12 60,80 0,40 -60,80 -40,12 -96,-32 h 72 z"
								fill="#ffffff"
								id="path777"/>
					</g>
				</g>
			</g>
			<g
					transform="matrix(-0.18856184,-0.18856184,0.18856184,-0.18856184,281.87755,188.17008)"
					id="g59">
				<g
						id="use57">
					<g
							transform="scale(0.141)"
							id="g785">
						<path
								d="m 0,-100 24,68 H 96 L 40,12 60,80 0,40 -60,80 -40,12 -96,-32 h 72 z"
								fill="#ffffff"
								id="path783"/>
					</g>
				</g>
			</g>
			<g
					transform="matrix(-0.10204893,-0.2463679,0.2463679,-0.10204893,276.67515,180.38395)"
					id="g63">
				<g
						id="use61">
					<g
							transform="scale(0.141)"
							id="g791">
						<path
								d="m 0,-100 24,68 H 96 L 40,12 60,80 0,40 -60,80 -40,12 -96,-32 h 72 z"
								fill="#ffffff"
								id="path789"/>
					</g>
				</g>
			</g>
			<g
					transform="matrix(0,-0.2666667,0.2666667,0,274.84822,171.19942)"
					id="g67">
				<g
						id="use65">
					<g
							transform="scale(0.141)"
							id="g797">
						<path
								d="m 0,-100 24,68 H 96 L 40,12 60,80 0,40 -60,80 -40,12 -96,-32 h 72 z"
								fill="#ffffff"
								id="path795"/>
					</g>
				</g>
			</g>
			<g
					transform="matrix(0.10204893,-0.2463679,0.2463679,0.10204893,276.67515,162.01488)"
					id="g71">
				<g
						id="use69">
					<g
							transform="scale(0.141)"
							id="g803">
						<path
								d="m 0,-100 24,68 H 96 L 40,12 60,80 0,40 -60,80 -40,12 -96,-32 h 72 z"
								fill="#ffffff"
								id="path801"/>
					</g>
				</g>
			</g>
			<g
					transform="matrix(0.18856184,-0.18856184,0.18856184,0.18856184,281.87756,154.22875)"
					id="g75">
				<g
						id="use73">
					<g
							transform="scale(0.141)"
							id="g809">
						<path
								d="m 0,-100 24,68 H 96 L 40,12 60,80 0,40 -60,80 -40,12 -96,-32 h 72 z"
								fill="#ffffff"
								id="path807"/>
					</g>
				</g>
			</g>
			<g
					transform="matrix(0.2463679,-0.10204893,0.10204893,0.2463679,289.66369,149.02635)"
					id="g79">
				<g
						id="use77">
					<g
							transform="scale(0.141)"
							id="g815">
						<path
								d="m 0,-100 24,68 H 96 L 40,12 60,80 0,40 -60,80 -40,12 -96,-32 h 72 z"
								fill="#ffffff"
								id="path813"/>
					</g>
				</g>
			</g>
		</g>
		<path
				style="fill:#555555;fill-opacity:0.66666669;fill-rule:nonzero;stroke:none;stroke-width:1.74999988;stroke-linecap:round;stroke-linejoin:round;stroke-miterlimit:4;stroke-dasharray:none;stroke-dashoffset:0;stroke-opacity:1;paint-order:normal"
				d="m 16.000088,216.99972 c -8.8639991,0 -16.000056560368,7.13605 -16.000056560368,16.00005 v 48.00017 C 3.1439632e-5,289.86394 7.1360889,297 16.000088,297 h 95.999822 c 8.864,0 16.00006,-7.13606 16.00006,-16.00006 v -48.00017 c 0,-8.864 -7.13606,-16.00005 -16.00006,-16.00005 z m 0,4.00027 h 95.999822 c 6.648,0 12.0003,5.35178 12.0003,11.99978 v 48.00017 c 0,6.648 -5.3523,11.99979 -12.0003,11.99979 H 16.000088 c -6.648,0 -11.9997842,-5.35179 -11.9997842,-11.99979 v -48.00017 c 0,-6.648 5.3517842,-11.99978 11.9997842,-11.99978 z"
				id="rect815-8"/>
	</g>
</svg>
