<?xml version="1.0" encoding="UTF-8" standalone="no"?>
<svg
		width="256px"
		height="160px"
		viewBox="0 0 128 80"
		version="1.1"
		xmlns="http://www.w3.org/2000/svg">
	<defs>
		<clipPath
				id="clipPath3345">
			<rect
					style="fill:#ffffff;fill-opacity:1;fill-rule:nonzero;stroke:none;stroke-width:0.291666;stroke-linecap:round;stroke-linejoin:round;stroke-miterlimit:4;stroke-dasharray:none;stroke-dashoffset:0;stroke-opacity:1;paint-order:normal"
					id="rect3347"
					width="128"
					height="80"
					x="-3.5058595e-06"
					y="217"
					rx="16"
					ry="16"/>
		</clipPath>
	</defs>
	<g
			id="layer1"
			transform="translate(0,-217)">
		<g
				id="g3343"
				clip-path="url(#clipPath3345)">
			<rect
					width="64"
					height="40"
					x="-3.5058595e-06"
					y="217"
					fill="#ffffff"
					id="rect2"
					style="stroke-width:0.238513"/>
			<rect
					width="64"
					height="40"
					x="-3.5058595e-06"
					y="257"
					fill="#000000"
					id="rect4"
					style="stroke-width:0.238513"/>
			<rect
					width="64"
					height="40"
					x="63.999996"
					y="217"
					fill="#000000"
					id="rect6"
					style="stroke-width:0.238513"/>
			<rect
					width="64"
					height="40"
					x="63.999996"
					y="257"
					fill="#ffffff"
					id="rect8"
					style="stroke-width:0.238513"/>
			<g
					transform="matrix(0.63999999,0,0,0.63999999,31.999996,237.00001)"
					id="g12">
				<path
						d="M -16.000033,-23.437516 A 7.5,24.999999 0 0 1 -9.005111,-7.449346 24.999999,7.5 0 0 1 -25,-14.428766 v 2.99104 a 24.999999,7.5 0 0 0 19.292879,7.29414 7.5,24.999999 0 0 0 -7.293095,-19.29393 z m 6.000151,0 A 7.5,25 0 0 1 -2.546591,-0.97686599 25,7.5 0 0 1 -25,-8.437406 v 20.00033 a 25,7.5 0 0 1 22.460644,-7.45379 7.5,25 0 0 1 -7.460526,22.45339 h 20.00033 a 7.5,25 0 0 1 -7.45381,-22.46064 25,7.5 0 0 1 22.45341,7.46104 V -8.437406 A 25,7.5 0 0 1 2.539405,-0.98409599 7.5,25 0 0 1 10.000448,-23.437516 Z m 23.000147,0 a 7.5,24.999999 0 0 0 -7.294129,19.2929 24.999999,7.5 0 0 0 19.293912,-7.29311 v -2.99982 a 24.999999,7.5 0 0 1 -15.98817,6.99492 7.5,24.999999 0 0 1 6.979417,-15.99489 z M 5.707168,7.268634 a 7.5,24.999999 0 0 0 7.293097,19.29389 h 2.999817 a 7.5,24.999999 0 0 1 -6.994922,-15.98816 24.999999,7.5 0 0 1 15.994888,6.97942 v -2.99104 A 24.999999,7.5 0 0 0 5.707168,7.268634 Z m -11.413255,0.001 A 24.999999,7.5 0 0 0 -25,14.562744 v 2.99982 a 24.999999,7.5 0 0 1 15.988171,-6.99492 7.5,24.999999 0 0 1 -6.979419,15.99488 h 2.991032 a 7.5,24.999999 0 0 0 7.294129,-19.29286 z"
						fill="#0039a6"
						id="path10"/>
			</g>
			<g
					transform="matrix(0.63999999,0,0,0.63999999,95.999996,277.00001)"
					id="g16">
				<path
						d="m -16.000033,-26.562516 a 7.5,24.999999 0 0 1 6.994922,15.98817 A 24.999999,7.5 0 0 1 -25,-17.553766 v 2.99104 a 24.999999,7.5 0 0 0 19.292879,7.29414 7.5,24.999999 0 0 0 -7.293095,-19.29393 z m 6.000151,0 A 7.5,25 0 0 1 -2.546591,-4.101866 25,7.5 0 0 1 -25,-11.562406 V 8.437924 A 25,7.5 0 0 1 -2.539356,0.98413396 7.5,25 0 0 1 -9.999882,23.437524 h 20.00033 A 7.5,25 0 0 1 2.546638,0.97688396 25,7.5 0 0 1 25.000048,8.437924 v -20.00033 a 25,7.5 0 0 1 -22.460643,7.45331 7.5,25 0 0 1 7.461043,-22.45342 z m 23.000147,0 a 7.5,24.999999 0 0 0 -7.294129,19.2929 24.999999,7.5 0 0 0 19.293912,-7.29311 v -2.99982 a 24.999999,7.5 0 0 1 -15.98817,6.99492 7.5,24.999999 0 0 1 6.979417,-15.99489 z M 5.707168,4.143634 a 7.5,24.999999 0 0 0 7.293097,19.29389 h 2.999817 A 7.5,24.999999 0 0 1 9.00516,7.449364 a 24.999999,7.5 0 0 1 15.994888,6.97942 v -2.99104 A 24.999999,7.5 0 0 0 5.707168,4.143634 Z m -11.413255,0.001 A 24.999999,7.5 0 0 0 -25,11.437744 v 2.99982 a 24.999999,7.5 0 0 1 15.988171,-6.99492 7.5,24.999999 0 0 1 -6.979419,15.99488 h 2.991032 a 7.5,24.999999 0 0 0 7.294129,-19.29286 z"
						fill="#cc0000"
						id="path14"/>
			</g>
		</g>
		<path
				style="fill:#555555;fill-opacity:0.66666669;fill-rule:nonzero;stroke:none;stroke-width:1.74999988;stroke-linecap:round;stroke-linejoin:round;stroke-miterlimit:4;stroke-dasharray:none;stroke-dashoffset:0;stroke-opacity:1;paint-order:normal"
				d="m 16.000088,216.99972 c -8.8639991,0 -16.000056560368,7.13605 -16.000056560368,16.00005 v 48.00017 C 3.1439632e-5,289.86394 7.1360889,297 16.000088,297 h 95.999822 c 8.864,0 16.00006,-7.13606 16.00006,-16.00006 v -48.00017 c 0,-8.864 -7.13606,-16.00005 -16.00006,-16.00005 z m 0,4.00027 h 95.999822 c 6.648,0 12.0003,5.35178 12.0003,11.99978 v 48.00017 c 0,6.648 -5.3523,11.99979 -12.0003,11.99979 H 16.000088 c -6.648,0 -11.9997842,-5.35179 -11.9997842,-11.99979 v -48.00017 c 0,-6.648 5.3517842,-11.99978 11.9997842,-11.99978 z"
				id="rect815-8"/>
	</g>
</svg>
