<?xml version="1.0" encoding="UTF-8" standalone="no"?>
<svg
		width="256px"
		height="160px"
		viewBox="0 0 128 80"
		version="1.1"
		xmlns="http://www.w3.org/2000/svg">
	<defs>
		<clipPath
				id="clipPath4329">
			<rect
					ry="16"
					rx="16"
					y="133.82829"
					x="76.169838"
					height="80"
					width="128"
					id="rect4331"
					style="fill:#ffffff;fill-opacity:1;fill-rule:nonzero;stroke:none;stroke-width:0.38889;stroke-linecap:round;stroke-linejoin:round;stroke-miterlimit:4;stroke-dasharray:none;stroke-dashoffset:0;stroke-opacity:1;paint-order:normal"/>
		</clipPath>
	</defs>
	<g
			id="layer1"
			transform="translate(0,-217)">
		<g
				id="g4327"
				transform="translate(-76.169836,83.171711)"
				clip-path="url(#clipPath4329)">
			<rect
					width="133.33333"
					height="79.999992"
					x="73.503174"
					y="133.82816"
					fill="#ffffff"
					id="rect713"
					style="stroke-width:0.222222"/>
			<polygon
					points="0,45 525,360 600,360 600,315 75,0 0,0 "
					fill="#ffcc33"
					id="polygon715"
					transform="matrix(0.22222221,0,0,0.22222221,73.503171,133.82815)"/>
			<polygon
					points="600,45 75,360 0,360 0,315 525,0 600,0 "
					fill="#ffcc33"
					id="polygon717"
					transform="matrix(0.22222221,0,0,0.22222221,73.503171,133.82815)"/>
			<circle
					cx="140.16983"
					cy="173.82816"
					fill="#000000"
					id="ellipse719"
					r="26.666666"
					style="stroke-width:0.222222"/>
			<g
					transform="matrix(0.21711109,0,0,0.21711109,140.16983,175.49481)"
					id="g723">
				<path
						d="m 0,-100 24,68 H 96 L 40,12 60,80 0,40 -60,80 -40,12 -96,-32 h 72 z"
						fill="#ffffff"
						id="path721"/>
			</g>
		</g>
		<path
				style="fill:#000000;fill-opacity:0.33333333;fill-rule:nonzero;stroke:none;stroke-width:1.74999988;stroke-linecap:round;stroke-linejoin:round;stroke-miterlimit:4;stroke-dasharray:none;stroke-dashoffset:0;stroke-opacity:1;paint-order:normal"
				d="m 16.000088,216.99972 c -8.8639991,0 -16.000056560368,7.13605 -16.000056560368,16.00005 v 48.00017 C 3.1439632e-5,289.86394 7.1360889,297 16.000088,297 h 95.999822 c 8.864,0 16.00006,-7.13606 16.00006,-16.00006 v -48.00017 c 0,-8.864 -7.13606,-16.00005 -16.00006,-16.00005 z m 0,4.00027 h 95.999822 c 6.648,0 12.0003,5.35178 12.0003,11.99978 v 48.00017 c 0,6.648 -5.3523,11.99979 -12.0003,11.99979 H 16.000088 c -6.648,0 -11.9997842,-5.35179 -11.9997842,-11.99979 v -48.00017 c 0,-6.648 5.3517842,-11.99978 11.9997842,-11.99978 z"
				id="rect815-8"/>
	</g>
</svg>
