<?xml version="1.0" encoding="UTF-8" standalone="no"?>
<svg
		width="256px"
		height="160px"
		viewBox="0 0 128 80"
		version="1.1"
		xmlns="http://www.w3.org/2000/svg">
	<defs>
		<clipPath
				id="clipPath539">
			<rect
					style="fill:#ffffff;fill-opacity:1;fill-rule:nonzero;stroke:none;stroke-width:0.289387;stroke-linecap:round;stroke-linejoin:round;stroke-miterlimit:4;stroke-dasharray:none;stroke-dashoffset:0;stroke-opacity:1;paint-order:normal"
					id="rect541"
					width="126.99999"
					height="79.374992"
					x="290.36484"
					y="117.44413"
					rx="15.874999"
					ry="15.874999"/>
		</clipPath>
	</defs>
	<g
			id="layer1"
			transform="translate(0,-217)">
		<g
				id="g537"
				transform="matrix(1.0078741,0,0,1.0078741,-292.65121,98.631102)"
				clip-path="url(#clipPath539)">
			<rect
					width="158.75"
					height="26.458332"
					x="274.48984"
					y="117.44413"
					fill="#000000"
					id="rect351"
					style="stroke-width:0.264583"/>
			<rect
					width="158.75"
					height="26.458332"
					x="274.48984"
					y="143.90247"
					fill="#0039a6"
					id="rect353"
					style="stroke-width:0.264583"/>
			<rect
					width="158.75"
					height="26.458332"
					x="274.48984"
					y="170.36079"
					fill="#000000"
					id="rect355"
					style="stroke-width:0.264583"/>
			<g
					transform="matrix(0.55112708,0,0,0.55112708,353.86485,157.13163)"
					id="g359">
				<path
						d="m -3.0005286,-53.99961 -5.9996334,35.99987 h 5.9996334 v 10.75697 l -11.8488884,-11.84889 -4.243152,4.24263 -21.212659,-21.21266 21.213175,29.69793 4.242636,-4.24212 7.6052205,7.60574 H -24.00028 V 3.00001 H -54 l 35.999869,6.00015 V 3.00001 h 10.7574849 l -11.8494069,11.84941 4.242636,4.24263 -21.213175,21.21318 29.6984446,-21.21318 -4.2426356,-4.24263 7.6062544,-7.60626 V 24.00028 H 2.9996233 V 54 L 8.9997727,18.00013 H 2.9996233 V 7.24368 L 14.849027,19.09257 19.091663,14.84994 40.304838,36.06259 19.091663,6.36415 14.849027,10.60678 7.2422567,3.00001 H 23.999891 V -3.00014 H 53.999608 L 17.999739,-8.99977 v 5.99963 H 7.2427727 l 11.8488903,-11.84889 -4.242636,-4.24315 21.213175,-21.21266 -29.6984439,21.21318 4.2426359,4.24263 -7.6067707,7.60677 v -16.75763 h -6.0001519 z"
						fill="#ffffff"
						id="path357"/>
			</g>
		</g>
		<path
				style="fill:#ffffff;fill-opacity:0.2;fill-rule:nonzero;stroke:none;stroke-width:1.74999988;stroke-linecap:round;stroke-linejoin:round;stroke-miterlimit:4;stroke-dasharray:none;stroke-dashoffset:0;stroke-opacity:1;paint-order:normal"
				d="m 16.000088,216.99972 c -8.8639991,0 -16.000056560368,7.13605 -16.000056560368,16.00005 v 48.00017 C 3.1439632e-5,289.86394 7.1360889,297 16.000088,297 h 95.999822 c 8.864,0 16.00006,-7.13606 16.00006,-16.00006 v -48.00017 c 0,-8.864 -7.13606,-16.00005 -16.00006,-16.00005 z m 0,4.00027 h 95.999822 c 6.648,0 12.0003,5.35178 12.0003,11.99978 v 48.00017 c 0,6.648 -5.3523,11.99979 -12.0003,11.99979 H 16.000088 c -6.648,0 -11.9997842,-5.35179 -11.9997842,-11.99979 v -48.00017 c 0,-6.648 5.3517842,-11.99978 11.9997842,-11.99978 z"
				id="rect815-8"/>
	</g>
</svg>
