<?xml version="1.0" encoding="UTF-8" standalone="no"?>
<svg
		width="256px"
		height="160px"
		viewBox="0 0 128 80"
		version="1.1"
		xmlns="http://www.w3.org/2000/svg">
	<defs>
		<clipPath
				id="clipPath15027">
			<rect
					ry="16"
					rx="16"
					y="117.00014"
					x="-100.00003"
					height="80"
					width="128"
					id="rect15029"
					style="fill:#ffffff;fill-opacity:1;fill-rule:nonzero;stroke:none;stroke-width:0.38889;stroke-linecap:round;stroke-linejoin:round;stroke-miterlimit:4;stroke-dasharray:none;stroke-dashoffset:0;stroke-opacity:1;paint-order:normal"/>
		</clipPath>
	</defs>
	<g
			id="layer1"
			transform="translate(0,-217)">
		<g
				id="g15025"
				transform="translate(100.00003,99.999863)"
				clip-path="url(#clipPath15027)">
			<rect
					width="128"
					height="80"
					x="-100"
					y="117"
					fill="#3366cc"
					id="rect857"
					style="stroke-width:0.217732"/>
			<rect
					width="13.333333"
					height="80"
					x="-42.666664"
					y="117"
					fill="#ffffff"
					id="rect859"
					style="stroke-width:0.222222"/>
			<rect
					width="128"
					height="13.333333"
					x="-100"
					y="150.33333"
					fill="#ffffff"
					id="rect861"
					style="stroke-width:0.217732"/>
			<polygon
					points="300,45 435,180 300,315 165,180 "
					fill="#ffffff"
					id="polygon863"
					transform="matrix(0.22222221,0,0,0.22222221,-102.66666,117.00001)"/>
			<rect
					width="9.1666651"
					height="80"
					x="-40.583332"
					y="117"
					fill="#000000"
					id="rect865"
					style="stroke-width:0.222222"/>
			<rect
					width="128"
					height="9.1666651"
					x="-100"
					y="152.41667"
					fill="#000000"
					id="rect867"
					style="stroke-width:0.217732"/>
			<polygon
					points="300,60 420,180 300,300 180,180 "
					fill="#000000"
					id="polygon869"
					transform="matrix(0.22222221,0,0,0.22222221,-102.66666,117.00001)"/>
			<polygon
					points="300,75 405,180 300,285 195,180 "
					fill="#ffffff"
					id="polygon871"
					transform="matrix(0.22222221,0,0,0.22222221,-102.66666,117.00001)"/>
			<g
					transform="matrix(0.79999996,0,0,0.79999996,-36.000005,157.00001)"
					id="g875">
				<path
						d="m -3.01e-4,-25 -8.33303,8.33312 8.33303,25.00001 8.333641,-25.00001 z m 0,33.33313 L 16.66636,2.77772 V 8.33313 L 25,1e-5 16.66636,-8.33374 Z m 0,0 -8.33303,8.33315 L -3.01e-4,25 8.33334,16.66628 Z m 0,0 L -16.666361,-8.33374 -25,1e-5 -16.666361,8.33313 V 2.77772 Z"
						fill="#000000"
						id="path873"/>
			</g>
		</g>
		<path
				style="fill:#000000;fill-opacity:0.33333333;fill-rule:nonzero;stroke:none;stroke-width:1.74999988;stroke-linecap:round;stroke-linejoin:round;stroke-miterlimit:4;stroke-dasharray:none;stroke-dashoffset:0;stroke-opacity:1;paint-order:normal"
				d="m 16.000088,216.99972 c -8.8639991,0 -16.000056560368,7.13605 -16.000056560368,16.00005 v 48.00017 C 3.1439632e-5,289.86394 7.1360889,297 16.000088,297 h 95.999822 c 8.864,0 16.00006,-7.13606 16.00006,-16.00006 v -48.00017 c 0,-8.864 -7.13606,-16.00005 -16.00006,-16.00005 z m 0,4.00027 h 95.999822 c 6.648,0 12.0003,5.35178 12.0003,11.99978 v 48.00017 c 0,6.648 -5.3523,11.99979 -12.0003,11.99979 H 16.000088 c -6.648,0 -11.9997842,-5.35179 -11.9997842,-11.99979 v -48.00017 c 0,-6.648 5.3517842,-11.99978 11.9997842,-11.99978 z"
				id="rect815-8"/>
	</g>
</svg>
