<?xml version="1.0" encoding="UTF-8" standalone="no"?>
<svg
		xmlns="http://www.w3.org/2000/svg"
		width="32px"
		height="32px"
		viewBox="0 0 64 64"
		version="1.1">
	<path
			d="m 1e-5,1.1e-5 9.2444,17.77773 31.28906,31.28854 -0.92088,0.921139 c -1.50815,-0.639349 -3.25327,-0.300419 -4.41239,0.85705 -1.57096,1.57095 -1.57096,4.11785 0,5.6888 1.57094,1.57096 4.11785,1.57096 5.6888,0 1.15769,-1.15912 1.49657,-2.9044 0.85705,-4.41265 l 2.698549,-2.698539 11.02207,9.725759 V 64 h 8.53333 v -8.53333 h -4.85242 l -9.72525,-11.022329 2.69855,-2.69855 c 1.508171,0.63948 3.253451,0.3007 4.41265,-0.85679 1.57096,-1.57095 1.57096,-4.11811 0,-5.68906 -1.570959,-1.57096 -4.11811,-1.57096 -5.68907,0 -1.15764,1.15907 -1.49669,2.90441 -0.8573,4.41265 l -0.92036,0.92062 -31.289059,-31.2888 z m 63.999989,0 -17.77773,9.24465 -12.799999,12.80001 3.5556,3.55559 11.377859,-11.3776 1.42213,1.42213 L 38.4,27.022401 l 3.5556,3.5556 12.8,-12.8 z m -48.355459,14.22213 28.44453,28.44453 -1.42214,1.42213 -28.44453,-28.44452 z m 6.40038,19.20013 -7.11119,7.1112 -0.92088,-0.92088 c 0.63935,-1.50815 0.30042,-3.25327 -0.85705,-4.41239 -1.57095,-1.57096 -4.11812,-1.57096 -5.68906,0 -1.57096,1.57094 -1.57096,4.11785 0,5.6888 1.15912,1.15769 2.90466,1.49683 4.41291,0.85731 l 2.69828,2.69829 -9.7255,11.022069 H 2.6e-4 L 0,64 h 8.53359 l -2.6e-4,-4.85216 11.02233,-9.725509 2.69854,2.698549 c -0.63948,1.50816 -0.30043,3.25345 0.85705,4.41265 1.57095,1.57096 4.11786,1.57095 5.68881,0 1.57095,-1.57095 1.57096,-4.11785 0,-5.6888 -1.15908,-1.157649 -2.90441,-1.496699 -4.41266,-0.85731 l -0.92061,-0.920619 7.11145,-7.1112 v -2.6e-4 l -3.5556,-3.55534 -5.68906,5.68906 -1.42213,-1.42214 5.68906,-5.68906 z m -11.73365,2.35955 c 0.57908,0 1.15807,0.22092 1.5999,0.66275 0.88365,0.88365 0.88365,2.31641 0,3.20006 -0.88365,0.88365 -2.31641,0.88365 -3.20006,0 -0.88365,-0.88365 -0.88365,-2.31641 0,-3.20006 0.44182,-0.44183 1.02107,-0.66275 1.60016,-0.66275 z m 43.37773,0 c 0.57908,0 1.15808,0.22092 1.5999,0.66275 0.883659,0.88365 0.883659,2.31615 0,3.1998 -0.88365,0.88364 -2.316151,0.88365 -3.199811,0 -0.88364,-0.88365 -0.88364,-2.31615 0,-3.1998 0.44183,-0.44183 1.02083,-0.66275 1.599911,-0.66275 z M 38.04447,51.42609 c 0.57908,0 1.15833,0.22093 1.60016,0.66275 0.88365,0.88365 0.88365,2.31641 0,3.20006 -0.88365,0.88365 -2.31641,0.88365 -3.20006,0 -0.88365,-0.88365 -0.88365,-2.31641 0,-3.20006 0.44183,-0.44182 1.02082,-0.66275 1.5999,-0.66275 z m -12.08893,2.6e-4 c 0.57908,0 1.15833,0.22093 1.60016,0.66275 0.88365,0.88366 0.88365,2.31641 0,3.20006 -0.88365,0.88365 -2.31641,0.88365 -3.20006,0 -0.88365,-0.88365 -0.88365,-2.3164 0,-3.20006 0.44182,-0.44182 1.02082,-0.66275 1.5999,-0.66275 z M 6.75567,57.24434 v 4.97799 H 1.77793 v -4.97774 z m 50.488669,0 h 4.97773 v 4.97799 l -4.97747,-2.6e-4 z"
			style="fill:#ffffff;fill-opacity:1;fill-rule:nonzero;stroke:none;stroke-width:15.00000191;stroke-linecap:round;stroke-linejoin:round;stroke-miterlimit:4;stroke-dasharray:none;stroke-dashoffset:0;stroke-opacity:1;paint-order:normal"/>
</svg>
