<?xml version="1.0" encoding="UTF-8" standalone="no"?>
<svg
		width="1563px"
		height="1563px"
		viewBox="0 0 256 256"
		version="1.1"
		xmlns="http://www.w3.org/2000/svg">
	<path
			style="fill:#000000"
			d="M 0 0 L 0 112 L 32 112 L 32 32 L 112 32 L 112 0 L 0 0 z M 56 56 L 56 112 L 72 112 L 72 72 L 112 72 L 112 56 L 56 56 z "/>
	<path
			style="fill:#ffffff"
			d="M 5 5 L 5 27 L 5 107 L 27 107 L 27 27 L 107 27 L 107 5 L 27 5 L 5 5 z M 61 61 L 61 67 L 61 107 L 67 107 L 67 67 L 107 67 L 107 61 L 67 61 L 61 61 z "/>
	<path
			style="fill:#000000"
			d="M 256,0 H 144 v 31.999999 h 80 V 112 h 32 z m -56,55.999999 h -56 v 16 h 40 V 112 h 16 z"/>
	<path
			style="fill:#ffffff"
			d="m 251,4.999999 h -22 -80 v 22 h 80 V 107 h 22 V 26.999999 Z m -56,56 h -6 -40 v 6 h 40 V 107 h 6 V 66.999999 Z"/>
	<path
			style="fill:#000000"
			d="M 0,256 H 112 V 224 H 32 V 144 H 0 Z m 56,-56 h 56 V 184 H 72 V 144 H 56 Z"/>
	<path
			style="fill:#ffffff"
			d="m 5,251 h 22 80 V 229 H 27 V 149 H 5 v 80 z m 56,-56 h 6 40 v -6 H 67 v -40 h -6 v 40 z"/>
	<path
			style="fill:#000000"
			d="M 256,256 V 144 h -32 v 80 h -80 v 32 z m -56,-56 v -56 h -16 v 40 h -40 v 16 z"/>
	<path
			style="fill:#ffffff"
			d="m 251,251 v -22 -80 h -22 v 80 h -80 v 22 h 80 z m -56,-56 v -6 -40 h -6 v 40 h -40 v 6 h 40 z"/>
</svg>
