<?xml version="1.0" encoding="UTF-8" standalone="no"?>
<svg
		width="2048px"
		height="2048px"
		viewBox="0 0 256 256"
		version="1.1"
		xmlns="http://www.w3.org/2000/svg">
	<path
			style="fill:#000000"
			d="M 128 0 A 128 128 0 0 0 49.751953 27.125 L 64.697266 42.070312 A 107 107 0 0 1 128 21 A 107 107 0 0 1 191.49219 41.880859 L 206.47461 26.898438 A 128 128 0 0 0 128 0 z M 229.10156 49.525391 L 214.11914 64.507812 A 107 107 0 0 1 235 128 A 107 107 0 0 1 213.92969 191.30273 L 228.875 206.24805 A 128 128 0 0 0 256 128 A 128 128 0 0 0 229.10156 49.525391 z M 27.125 49.751953 A 128 128 0 0 0 0 128 A 128 128 0 0 0 27.125 206.24805 L 42.070312 191.30273 A 107 107 0 0 1 21 128 A 107 107 0 0 1 42.070312 64.697266 L 27.125 49.751953 z M 64.697266 213.92969 L 49.751953 228.875 A 128 128 0 0 0 128 256 A 128 128 0 0 0 206.24805 228.875 L 191.30273 213.92969 A 107 107 0 0 1 128 235 A 107 107 0 0 1 64.697266 213.92969 z "/>
	<path
			style="fill:#ffffff"
			d="M 128 5 A 123 123 0 0 0 110.49609 6.2519531 A 123 123 0 0 0 93.347656 9.9824219 A 123 123 0 0 0 76.904297 16.115234 A 123 123 0 0 0 61.501953 24.525391 A 123 123 0 0 0 57.339844 27.642578 L 65.21875 35.521484 A 112 112 0 0 1 77.152344 28.207031 A 112 112 0 0 1 93.390625 21.482422 A 112 112 0 0 1 110.47852 17.378906 A 112 112 0 0 1 128 16 A 112 112 0 0 1 133.86133 16.154297 A 112 112 0 0 1 139.70703 16.613281 A 112 112 0 0 1 145.52148 17.378906 A 112 112 0 0 1 151.28516 18.447266 A 112 112 0 0 1 156.98828 19.816406 A 112 112 0 0 1 162.60938 21.482422 A 112 112 0 0 1 168.13672 23.439453 A 112 112 0 0 1 173.55469 25.683594 A 112 112 0 0 1 178.84766 28.207031 A 112 112 0 0 1 184 31.005859 A 112 112 0 0 1 189 34.068359 A 112 112 0 0 1 190.91602 35.386719 L 198.83594 27.466797 A 123 123 0 0 0 198.26562 27.046875 A 123 123 0 0 0 193.0625 23.617188 A 123 123 0 0 0 187.69141 20.455078 A 123 123 0 0 0 182.16797 17.570312 A 123 123 0 0 0 176.50586 14.96875 A 123 123 0 0 0 170.71875 12.65625 A 123 123 0 0 0 164.82227 10.640625 A 123 123 0 0 0 158.83008 8.9257812 A 123 123 0 0 0 152.75977 7.5175781 A 123 123 0 0 0 146.625 6.4179688 A 123 123 0 0 0 140.44336 5.6308594 A 123 123 0 0 0 134.23047 5.1582031 A 123 123 0 0 0 128 5 z M 228.5332 57.164062 L 220.61328 65.083984 A 112 112 0 0 1 221.93164 67 A 112 112 0 0 1 224.99414 72 A 112 112 0 0 1 227.79297 77.152344 A 112 112 0 0 1 230.31641 82.445312 A 112 112 0 0 1 232.56055 87.863281 A 112 112 0 0 1 234.51758 93.390625 A 112 112 0 0 1 236.18359 99.011719 A 112 112 0 0 1 237.55273 104.71484 A 112 112 0 0 1 238.62109 110.47852 A 112 112 0 0 1 239.38672 116.29297 A 112 112 0 0 1 239.8457 122.13867 A 112 112 0 0 1 240 128 A 112 112 0 0 1 238.62109 145.52148 A 112 112 0 0 1 234.51758 162.60938 A 112 112 0 0 1 227.79297 178.84766 A 112 112 0 0 1 220.47852 190.78125 L 228.35742 198.66016 A 123 123 0 0 0 231.47461 194.49805 A 123 123 0 0 0 239.88477 179.0957 A 123 123 0 0 0 246.01758 162.65234 A 123 123 0 0 0 249.74805 145.50391 A 123 123 0 0 0 251 128 A 123 123 0 0 0 250.8418 121.76953 A 123 123 0 0 0 250.36914 115.55664 A 123 123 0 0 0 249.58203 109.375 A 123 123 0 0 0 248.48242 103.24023 A 123 123 0 0 0 247.07422 97.169922 A 123 123 0 0 0 245.35938 91.177734 A 123 123 0 0 0 243.34375 85.28125 A 123 123 0 0 0 241.03125 79.494141 A 123 123 0 0 0 238.42969 73.832031 A 123 123 0 0 0 235.54492 68.308594 A 123 123 0 0 0 232.38281 62.9375 A 123 123 0 0 0 228.95312 57.734375 A 123 123 0 0 0 228.5332 57.164062 z M 27.642578 57.339844 A 123 123 0 0 0 24.525391 61.501953 A 123 123 0 0 0 16.115234 76.904297 A 123 123 0 0 0 9.9824219 93.347656 A 123 123 0 0 0 6.2519531 110.49609 A 123 123 0 0 0 5 128 A 123 123 0 0 0 6.2519531 145.50391 A 123 123 0 0 0 9.9824219 162.65234 A 123 123 0 0 0 16.115234 179.0957 A 123 123 0 0 0 24.525391 194.49805 A 123 123 0 0 0 27.642578 198.66016 L 35.521484 190.78125 A 112 112 0 0 1 28.207031 178.84766 A 112 112 0 0 1 21.482422 162.60938 A 112 112 0 0 1 17.378906 145.52148 A 112 112 0 0 1 16 128 A 112 112 0 0 1 17.378906 110.47852 A 112 112 0 0 1 21.482422 93.390625 A 112 112 0 0 1 28.207031 77.152344 A 112 112 0 0 1 35.521484 65.21875 L 27.642578 57.339844 z M 65.21875 220.47852 L 57.339844 228.35742 A 123 123 0 0 0 61.501953 231.47461 A 123 123 0 0 0 76.904297 239.88477 A 123 123 0 0 0 93.347656 246.01758 A 123 123 0 0 0 110.49609 249.74805 A 123 123 0 0 0 128 251 A 123 123 0 0 0 145.50391 249.74805 A 123 123 0 0 0 162.65234 246.01758 A 123 123 0 0 0 179.0957 239.88477 A 123 123 0 0 0 194.49805 231.47461 A 123 123 0 0 0 198.66016 228.35742 L 190.78125 220.47852 A 112 112 0 0 1 178.84766 227.79297 A 112 112 0 0 1 162.60938 234.51758 A 112 112 0 0 1 145.52148 238.62109 A 112 112 0 0 1 128 240 A 112 112 0 0 1 110.47852 238.62109 A 112 112 0 0 1 93.390625 234.51758 A 112 112 0 0 1 77.152344 227.79297 A 112 112 0 0 1 65.21875 220.47852 z "/>
</svg>
