<?xml version="1.0" encoding="UTF-8" standalone="no"?>
<svg
		xmlns="http://www.w3.org/2000/svg"
		version="1.1"
		viewBox="0 0 64 64"
		height="64px"
		width="64px">
	<g
			transform="translate(0,-233)"
			id="panel">
		<path
				id="border"
				d="M 24,237 A 20,20 0 0 0 4,257 V 273 a 20,20 0 0 0 20,20 H 40 A 20,20 0 0 0 60,273 V 257 A 20,20 0 0 0 40,237 Z"
				style="fill:#444;fill-opacity:1;fill-rule:evenodd"/>
		<path
				id="panel"
				d="M 24,241 A 16,16 0 0 0 8,257 V 273 a 16,16 0 0 0 16,16 H 40 A 16,16 0 0 0 56,273 V 257 A 16,16 0 0 0 40,241 Z"
				style="fill:#888;fill-opacity:1;fill-rule:evenodd"/>
		<path
				id="shine"
				d="m 24,245 a 12,12 0 0 0 -11.3,8 h 11.3 16 11.3 a 12,12 0 0 0 -11.3,-8 z"
				style="fill:#aaa;fill-opacity:1;fill-rule:evenodd"/>
		<path
				id="shadow"
				d="m 12.7,277 a 12,12 0 0 0 11.3,8 v 0 h 16 v 0 a 12,12 0 0 0 11.3,-8 H 40 24 Z"
				style="fill:#666;fill-opacity:1;fill-rule:evenodd"/>
	</g>
</svg>
