<?xml version="1.0" encoding="UTF-8" standalone="no"?>
<svg
		xmlns="http://www.w3.org/2000/svg"
		version="1.1"
		viewBox="0 -2 32 32"
		height="32px"
		width="32px">
	<g
			transform="translate(-30.113297,-183.9701)"
			id="layer1">
		<path
				id="path862"
				d="m 46.089062,183.97078 c -0.167505,0.006 -0.331349,0.0749 -0.476457,0.20051 -0.09134,0.0798 -0.173661,0.18079 -0.243912,0.29921 h -1.755449 v 0.49972 h 1.558045 c -0.03828,0.16052 -0.05802,0.32973 -0.0584,0.50022 v 0.99994 l -4.999695,0.99994 v 1.99988 h 4.999695 l 0.500228,4.00026 -1.49965,0.49972 v 1.00045 l 1.49965,0.49971 0.399976,-0.39997 0.09973,0.89969 0.100252,-0.89969 0.399976,0.39997 1.49965,-0.49971 v -1.00045 l -1.499645,-0.49972 0.500228,-4.00026 h 4.999695 v -1.99988 l -4.999695,-0.99994 v -0.99994 h -5.17e-4 c -2.04e-4,-0.17047 -0.01979,-0.33964 -0.05788,-0.50022 h 1.558044 v -0.49972 h -1.755962 c -0.07041,-0.1185 -0.152915,-0.21952 -0.24443,-0.29921 -0.15892,-0.13753 -0.340033,-0.20696 -0.523482,-0.20051 z m -9.999906,8.00003 c -0.167507,0.006 -0.330833,0.0749 -0.475941,0.20052 -0.09134,0.0798 -0.173661,0.18079 -0.243912,0.29919 h -1.755965 v 0.49972 h 1.558561 c -0.03828,0.16055 -0.05801,0.32975 -0.05839,0.50022 v 0.99994 l -5.000212,0.99994 v 1.99988 h 5.000211 l 0.499711,4.00027 -1.49965,0.49971 v 1.00047 l 1.49965,0.49969 0.399976,-0.40047 0.09974,0.90019 0.100252,-0.90019 0.399976,0.40047 1.499649,-0.49969 v -1.00047 l -1.49965,-0.49971 0.500228,-4.00027 h 4.999695 v -1.99988 L 37.11339,194.4704 v -0.99994 h -5.29e-4 c -2.04e-4,-0.17044 -0.01979,-0.33962 -0.05788,-0.50022 h 1.558057 v -0.49972 h -1.755965 c -0.07041,-0.11848 -0.152914,-0.21952 -0.244429,-0.29919 -0.158919,-0.13758 -0.340034,-0.20703 -0.523482,-0.20052 z m 19.999812,0 c -0.1675,0.006 -0.331356,0.0749 -0.476456,0.20052 -0.0913,0.0798 -0.173663,0.18079 -0.243913,0.29919 H 53.61315 v 0.49972 h 1.558045 c -0.0383,0.16055 -0.05799,0.32973 -0.05839,0.50022 v 0.99994 l -4.999695,0.99994 v 1.99988 h 4.999695 l 0.500227,4.00027 -1.500166,0.49971 v 0.99994 l 1.500166,0.50022 0.399976,-0.40047 0.09974,0.90019 0.100252,-0.90019 0.399975,0.40047 1.499651,-0.50022 v -0.99994 l -1.499651,-0.49971 0.50023,-4.00027 h 4.999693 v -1.99988 l -4.999701,-0.99994 v -0.99994 h -5.3e-4 c -2.11e-4,-0.17047 -0.01979,-0.33962 -0.05788,-0.50022 h 1.558044 v -0.49972 h -1.755963 c -0.0704,-0.11848 -0.152921,-0.21952 -0.244427,-0.29919 -0.158922,-0.13758 -0.340032,-0.20703 -0.523483,-0.20052 z m -9.999906,8.00004 c -0.167505,0.006 -0.331349,0.0749 -0.476457,0.2005 -0.09134,0.0798 -0.173661,0.18077 -0.243912,0.2992 h -1.755449 v 0.49971 h 1.558045 c -0.03828,0.16053 -0.05801,0.32973 -0.05839,0.50023 v 0.99994 l -4.999695,0.99993 v 1.99988 h 4.999695 l 0.500228,4.00029 -1.49965,0.49969 v 1.00047 l 1.49965,0.49972 0.399976,-0.39999 0.09973,0.89968 0.100252,-0.89968 0.399976,0.39999 1.49965,-0.49972 v -1.00047 l -1.49965,-0.49969 0.500228,-4.00029 h 4.999695 v -1.99988 l -4.999695,-0.99993 v -0.99994 h -5.17e-4 c -2.04e-4,-0.17048 -0.01979,-0.33965 -0.05788,-0.50023 h 1.558044 v -0.49971 h -1.755965 c -0.07041,-0.11851 -0.152915,-0.2195 -0.24443,-0.2992 -0.15892,-0.13753 -0.340033,-0.20695 -0.523482,-0.2005 z"
				style="fill:#ffffff;fill-opacity:1;fill-rule:evenodd;stroke:none;stroke-width:0.5;stroke-linecap:round;stroke-linejoin:round;stroke-miterlimit:4;stroke-dasharray:none;stroke-dashoffset:0;stroke-opacity:1;paint-order:normal"/>
	</g>
</svg>
