<?xml version="1.0" encoding="UTF-8" standalone="no"?>
<svg
		xmlns="http://www.w3.org/2000/svg"
		version="1.1"
		viewBox="0 -2 32 32"
		height="32px"
		width="32px">
	<g
			transform="translate(-115.53566,-165.07143)"
			id="layer1">
		<path
				id="path954"
				d="m 131.53537,165.07143 c -0.7364,4e-5 -1.33333,0.89558 -1.33325,2.00018 v 0 5.33286 l -3.99976,0.36382 v -1.03008 h -1.33325 v 1.15133 l -1.33325,0.12133 v -1.27261 h -1.33325 v 1.39319 l -1.33326,0.1212 v -1.51444 h -1.33325 v 1.63572 l -4.00044,0.36377 v 2.66644 h 4.00044 v 2.00016 h 1.33325 v -2.00016 h 1.33326 v 2.00016 h 1.33325 v -2.00016 h 1.33325 v 2.00016 h 1.33325 v -2.00016 h 3.99976 l 0.66697,12.00035 -2.66648,0.66673 v 1.66693 l 2.66667,0.33334 0.66609,1.99994 0.66724,-1.99994 2.66667,-0.33334 v -1.66693 l -2.66694,-0.66673 0.66697,-12.00035 h 3.99976 v 2.00016 h 1.33325 v -2.00016 h 1.33394 v 2.00016 h 1.33325 v -2.00016 h 1.33325 v 2.00016 h 1.33326 v -2.00016 h 3.99975 v -2.66644 l -3.99975,-0.36377 v -1.63572 h -1.33326 v 1.51444 l -1.33325,-0.1212 v -1.39319 h -1.33325 v 1.27261 l -1.33394,-0.12133 v -1.15133 h -1.33325 v 1.03008 l -3.99976,-0.36382 v -5.33286 0 c 8e-5,-1.10499 -0.59727,-2.0007 -1.33394,-2.00018 z"
				style="fill:#ffffff;fill-opacity:1;fill-rule:evenodd;stroke:none;stroke-width:0.5;stroke-linecap:round;stroke-linejoin:round;stroke-miterlimit:4;stroke-dasharray:none;stroke-dashoffset:0;stroke-opacity:1;paint-order:normal"/>
	</g>
</svg>
