<?xml version="1.0" encoding="UTF-8" standalone="no"?>
<svg
		xmlns="http://www.w3.org/2000/svg"
		version="1.1"
		viewBox="0 0 64 64"
		height="32px"
		width="32px">
	<g
			transform="translate(-83.660604,-139.51202)"
			id="layer1">
		<path
				id="path1169"
				d="m 115.72068,139.51211 a 31.999999,31.999999 0 0 0 -20.629226,7.48636 l 2.57142,3.0639 a 28,28 0 0 1 27.574536,-4.86172 l 1.36788,-3.75895 a 31.999999,31.999999 0 0 0 -10.88461,-1.92959 z m -0.015,7.99951 a 23.999999,23.999999 0 0 0 -15.47194,5.61516 l 2.57142,3.0639 a 19.999999,19.999999 0 0 1 19.69596,-3.47266 l 1.36787,-3.75894 a 23.999999,23.999999 0 0 0 -8.16332,-1.44746 z m -0.015,8.00003 a 15.999999,15.999999 0 0 0 -10.31461,3.74344 l 2.57142,3.06441 a 12,12 0 0 1 11.81736,-2.08411 l 1.36839,-3.75843 a 15.999999,15.999999 0 0 0 -5.44256,-0.96531 z m 16.4698,0 -3.99976,5.3e-4 v 8.00002 h -2.50011 v 2.99982 h -22.0002 v -4.99918 h -9.999906 l -9.9999,9.99887 9.9999,9.99991 h 9.999906 v -5.00021 h 22.0002 v 3.00033 h 2.50011 v 7.99951 l 3.99976,5.3e-4 8.00003,-8.00003 h 2.5001 v -7.00009 h 5.00021 v -1.99988 h -5.00021 v -6.99957 h -2.5001 z m 11.50007,9.001 v 4.99969 h 2.99982 v -4.99969 z m 0,8.99841 v 4.9997 h 2.99982 v -4.9997 z m -35.71358,7.19336 -2.5709,3.0639 a 16.000074,16.000074 0 0 0 15.75717,2.77864 l -1.36839,-3.75894 a 12.000056,12.000056 0 0 1 -11.81788,-2.0836 z m -5.14234,6.12831 -2.57091,3.06441 a 24.000112,24.000112 0 0 0 23.63525,4.16719 l -1.36787,-3.75843 a 20.000093,20.000093 0 0 1 -19.69647,-3.47317 z m -5.142316,6.12831 -2.57091,3.06441 a 32.000153,32.000153 0 0 0 31.513836,5.55677 l -1.36788,-3.75895 a 28.000129,28.000129 0 0 1 -27.575046,-4.86223 z"
				style="fill:#33ff66;fill-opacity:1;fill-rule:nonzero;stroke:none;stroke-width:3.17500019;stroke-linecap:square;stroke-linejoin:miter;stroke-miterlimit:4;stroke-dasharray:none;stroke-dashoffset:0;stroke-opacity:1;paint-order:normal"/>
	</g>
</svg>
