<?xml version="1.0" encoding="UTF-8" standalone="no"?>
<svg
		xmlns="http://www.w3.org/2000/svg"
		version="1.1"
		viewBox="0 0 64 64"
		height="32px"
		width="32px">
	<g
			transform="translate(-83.660604,-139.51202)"
			id="layer1">
		<path
				id="path888"
				d="m 83.660604,187.51196 9.99991,9.9999 h 9.999896 v -5.00022 h 22.0002 v 3.00033 h 2.50013 v 7.99953 l 3.99973,5.2e-4 8.00005,-8.00003 h 2.5001 v -7.00008 h 5.0002 v -1.99988 h -5.0002 v -6.99958 h -2.5001 l -8.00005,-8.00055 -3.99973,5.2e-4 v 8.00004 h -2.50013 v 2.9998 h -22.0002 v -4.99919 h -9.999896 z m 0.82424,-35.45005 c 0.0549,2.6629 0.88256,5.63967 2.51354,8.46461 l 1.64693,-6.14743 17.397386,21.13307 -9.603036,-25.63306 6.147426,1.64745 c -3.727946,-6.457 -10.239666,-9.6766 -14.544326,-7.1913 -2.42137,1.39799 -3.62855,4.30294 -3.55792,7.72666 z m 21.557856,0.95034 4.49947,-4.50051 4.50049,27.00042 4.49999,-27.00042 4.49998,4.50051 c 0,-7.4559 -4.02937,-13.50047 -8.99997,-13.50047 -4.97061,0 -8.99996,6.04457 -8.99996,13.50047 z m 17.99993,22.49991 17.39739,-21.13307 1.64746,6.14743 c 3.72795,-6.457 3.25974,-13.70597 -1.0449,-16.19127 -4.30469,-2.4853 -10.81588,0.7343 -14.54383,7.1913 l 6.14691,-1.64745 z m 19.61793,18.99885 h 2.99982 v -4.9997 h -2.99982 z m 0,-8.99842 h 2.99982 v -4.99969 h -2.99982 z"
				style="fill:#ff6633;fill-opacity:1;fill-rule:nonzero;stroke:none;stroke-width:3.17500019;stroke-linecap:square;stroke-linejoin:miter;stroke-miterlimit:4;stroke-dasharray:none;stroke-dashoffset:0;stroke-opacity:1;paint-order:normal"/>
	</g>
</svg>
