<?xml version="1.0" encoding="UTF-8" standalone="no"?>
<svg
		xmlns="http://www.w3.org/2000/svg"
		version="1.1"
		viewBox="0 0 64 64"
		height="32px"
		width="32px">
	<g
			transform="translate(-83.660604,-139.51202)"
			id="layer1">
		<path
				id="path888-4"
				d="m 99.660664,139.5118 -9.99991,9.99991 v 9.9999 h 5.00022 v 22.0002 h -3.00034 v 2.50013 h -7.99951 l -5.2e-4,3.99973 8.00003,8.00005 v 2.5001 h 7.00009 v 5.0002 h 1.999876 v -5.0002 h 6.99957 v -2.5001 l 8.00055,-8.00005 -5.3e-4,-3.99973 h -8.00002 v -2.50013 h -2.99981 v -22.0002 h 4.99917 v -9.9999 z m 33.999476,0.99994 -13.99967,12.0003 v 8.00003 l 13.99967,-12.0003 14.00017,12.0003 v -8.00003 z m 0,14.00018 -13.99967,12.0003 v 8.00004 l 13.99967,-12.00032 14.00017,12.00032 v -8.00004 z m 0,13.99966 -13.99967,12.00029 v 8.00005 l 13.99967,-12.00031 14.00017,12.00031 v -8.00005 z m 0,14.00017 -13.99967,12.00031 v 8.00002 l 13.99967,-12.00028 14.00017,12.00028 v -8.00002 z m -40.998536,17.00001 v 2.99982 h 4.9997 v -2.99982 z m 8.998416,0 v 2.99982 h 4.9997 v -2.99982 z"
				style="fill:#ffcc33;fill-opacity:1;fill-rule:nonzero;stroke:none;stroke-width:3.17500019;stroke-linecap:square;stroke-linejoin:miter;stroke-miterlimit:4;stroke-dasharray:none;stroke-dashoffset:0;stroke-opacity:1;paint-order:normal"/>
	</g>
</svg>
