<?xml version="1.0" encoding="UTF-8" standalone="no"?>
<svg
		xmlns="http://www.w3.org/2000/svg"
		id="svg8"
		version="1.1"
		viewBox="0 0 423.333 238.125"
		height="900px"
		width="1600px">
	<g
			transform="translate(0,-58.874)"
			id="layer1">
		<path
				id="path984"
				d="m 0,177.937 c 0,-39.687 0,-79.374 0,-119.062 141.111,0 282.222,0 423.333,0 0,79.374 0,158.749 0,238.124 -141.111,0 -282.222,0 -423.333,0 0,-39.687 0,-79.375 0,-119.062 z"
				style="fill:#eee;stroke-width:1;fill-opacity:1"/>
		<path
				id="path982"
				d="m 0,296.618 c 0.718,-1.578 1.936,1.654 0,0 z m 3.795,-0.102 c -7.948,-4.638 -1.486,-10.057 5.573,-9.514 -7.222,4.494 -15.354,-12.965 -2.500,-9.153 7.275,17.807 -0.916,-17.498 6.565,-4.400 3.919,-5.398 -5.854,-20.375 -1.563,-20.587 4.783,4.467 3.912,31.767 8.402,16.056 14.676,-4.413 -4.053,-17.779 -5.352,-25.347 -9.993,-5.619 -7.961,-26.085 7.016,-20.022 17.417,4.483 1.101,20.331 1.266,23.578 8.814,-4.500 26.030,-7.042 13.621,-18.808 -6.901,-1.551 5.381,-8.359 9.585,-10.836 7.707,5.824 6.228,-4.208 14.322,-3.805 2.042,6.333 8.483,-5.656 -2.231,-3.988 -13.116,-14.208 22.676,-30.122 19.014,-9.020 -2.489,7.755 -20.349,24.854 -7.715,28.295 9.616,0.930 9.097,-2.187 12.052,-9.776 8.224,-2.596 14.362,10.902 21.542,-0.641 16.713,-0.398 3.457,12.686 -4.261,15.725 3.839,3.037 3.005,16.44 8.079,9.991 -5.947,-14.256 12.356,-6.083 2.520,1.688 4.070,4.834 9.837,-1.015 14.902,4.134 1.285,-5.895 14.625,-8.946 7.722,1.536 2.923,12.315 12.697,3.802 11.214,-5.165 14.118,-8.395 -17.671,-9.579 -3.935,-21.292 5.525,-5.229 12.011,-21.847 -0.041,-19.973 1.777,6.389 6.443,18.426 -6.382,13.098 -6.843,-4.266 3.847,-18.383 -7.645,-13.416 6.105,14.048 -9.289,19.895 -18.804,8.885 -7.727,3.776 -26.557,5.487 -24.484,-9.461 6.879,-4.211 17.273,-7.399 5.828,-12.182 0.203,-4.070 17.712,-17.085 3.698,-14.030 -11.546,-5.276 -21.451,-0.560 -28.026,9.436 -13.333,0.277 -7.727,20.803 -13.937,26.913 -8.566,6.110 -12.556,-1.691 -18.820,-4.112 6.042,3.649 5.836,18.150 -4.374,8.678 -5.557,-1.136 -9.409,-16.236 -14.754,-2.736 C -0.702,219.610 -2.616,196.469 11.641,200.754 6.966,194.175 -3.994,195.148 0.067,183.256 -1.047,177.962 1.639,170.651 0,167.831 c -4.162,-7.570 14.335,-9.153 12.524,-2.876 -12.942,9.744 16.850,22.106 12.371,3.497 7.053,-5.986 21.404,-16.055 27.166,-4.272 8.135,-8.133 30.350,3.518 24.343,-11.296 9.059,-3.753 15.782,12.096 19.637,-1.853 14.978,2.590 -15.437,-18.431 4.635,-20.407 7.285,-1.131 10.697,-14.365 20.597,-3.804 9.119,5.737 -9.919,23.025 2.785,21.938 0.326,-10.186 9.295,-2.572 1.698,2.066 6.478,4.062 4.625,12.209 5.103,14.324 6.652,-3.833 17.541,10.990 10.322,-1.963 0.460,-8.681 6.068,-24.792 -7.170,-26.221 5.879,-2.812 15.035,-5.064 3.169,-6.238 -11.742,-8.392 20.916,-10.513 2.540,-12.142 -11.532,-6.889 -17.166,10.231 -27.736,-0.856 -5.957,1.094 -24.950,16.226 -19.187,0.092 6.815,-6.826 1.913,-16.440 8.552,-22.326 9.635,14.170 18.376,-14.349 4.080,-7.750 -12.935,12.200 -4.146,-18.730 -16.693,-5.850 -8.582,-9.192 -10.973,1.688 -3.283,6.298 -5.944,9.611 -8.000,-1.605 -5.452,-1.204 -6.386,-2.340 -16.559,3.030 -7.636,8.921 6.330,9.715 2.148,20.796 4.405,31.933 C 62.923,147.015 48.780,98.715 68.403,110.478 71.837,109.575 56.999,94.745 65.764,89.688 58.234,87.036 55.739,74.294 46.552,83.321 c -8.108,1.813 -13.033,15.309 -24.473,15.098 13.832,2.860 3.574,15.132 9.231,20.223 0.543,-8.300 18.773,-4.318 5.488,-9.062 -4.295,-8.622 10.239,-12.856 9.764,-2.184 17.858,-0.373 1.817,21.445 -7.996,15.030 -6.279,4.365 -14.609,-4.247 -12.398,4.362 8.730,10.047 23.329,-7.670 31.786,5.852 0.507,6.829 -2.635,19.245 -8.319,22.285 -4.018,-12.937 -16.559,-10.492 -15.174,2.901 -6.599,1.009 -15.132,-9.406 -18.211,-15.610 6.049,9.384 -6.732,17.261 -16.177,14.819 -7.195,-11.749 18.430,-4.611 3.485,-10.388 -8.858,-1.354 2.287,-11.188 -3.403,-16.904 6.002,-9.070 -6.121,-17.564 9.504,-20.180 C 17.080,101.627 10.050,80.766 0.216,95.417 -0.402,85.638 3.186,83.602 0,75.181 c -0.628,-14.530 4.143,0.627 10.062,3.282 -0.039,12.682 7.030,1.697 3.911,-5.463 4.097,-4.223 -0.236,-20.995 7.669,-11.492 -0.863,8.026 11.079,6.333 6.904,-2.302 15.295,0.011 0.236,17.099 -3.533,16.762 11.524,8.494 18.951,-10.763 14.321,-17.093 12.749,-3.295 12.469,3.200 11.603,8.268 3.477,-10.759 12.562,-9.948 15.685,0.036 7.417,0.628 8.371,-12.360 16.047,-1.044 -6.067,11.683 18.306,4.613 7.041,-3.517 3.797,-13.761 9.030,11.276 12.742,2.381 -8.268,-8.296 3.428,-7.115 4.785,-0.813 -2.411,-12.942 18.377,-1.280 14.925,7.914 6.106,-2.344 10.022,-5.188 4.089,-10.137 8.183,-8.984 16.890,18.465 16.055,-2.651 13.108,-2.473 1.874,21.071 -5.468,23.374 -7.295,4.915 -9.576,11.196 1.209,6.363 6.466,-8.603 19.629,-18.960 18.577,-28.588 -4.871,-2.913 10.237,1.151 11.501,5.517 8.527,8.272 -1.644,-13.728 8.024,-6.133 -4.337,9.622 10.898,8.914 -0.396,13.396 12.714,-2.226 12.535,11.665 12.041,13.539 11.779,-6.923 25.152,-1.484 20.962,13.530 1.365,7.496 -4.302,25.536 8.458,13.782 16.986,-5.939 -15.711,-3.144 -3.284,-15.401 2.134,-6.191 -9.195,-10.311 0.161,-16.825 -5.535,-10.494 2.438,-28.071 14.844,-21.282 5.815,-2.625 5.968,0.527 13.148,-1.570 -2.398,11.813 22.261,8.690 21.527,23.406 17.921,0.853 7.999,-24.907 -7.465,-16.752 -12.808,-11.033 10.315,-4.622 15.834,-6.717 7.889,-4.731 9.871,10.410 13.431,0.074 11.557,-2.242 7.384,12.511 -2.530,9.392 1.224,8.992 7.262,17.503 -7.060,18.242 0.541,10.836 -2.185,28.746 14.569,27.937 -7.682,1.580 -7.662,5.834 1.142,4.766 -8.692,8.584 -0.951,19.503 8.920,24.239 -2.897,-9.423 11.950,-27.699 19.627,-11.317 3.910,15.910 14.806,-18.397 -2.211,-8.210 -11.524,1.553 -12.429,-15.274 -21.797,-5.907 -10.023,0.586 1.733,-15.144 -6.573,-20.265 2.939,-8.745 23.962,-15.784 6.000,-20.243 -4.323,-8.454 8.877,-29.475 5.366,-9.080 -2.549,9.064 4.877,7.208 2.052,-0.746 10.891,3.749 -4.147,-15.709 11.180,-8.777 -7.176,9.671 11.729,7.379 12.454,18.776 7.564,2.199 12.915,9.271 15.700,12.814 7.149,-10.918 -17.463,-11.535 -4.043,-18.621 -0.465,-9.573 4.238,-17.602 8.964,-9.670 1.821,-5.199 12.051,-4.539 14.768,-1.883 1.618,9.891 22.298,-9.017 10.069,4.274 -11.277,3.600 -8.992,10.296 1.510,6.681 8.677,-2.962 16.114,-4.711 24.163,0.947 1.917,-8.966 -6.613,-16.042 7.391,-13.459 6.280,-1.033 25.578,-0.326 11.979,7.102 -11.944,-13.295 -17.314,6.005 -17.504,11.788 10.028,-1.531 -0.922,10.712 -5.058,8.916 3.308,7.553 13.856,13.322 18.949,17.986 0.954,-7.712 13.906,-7.332 9.877,2.649 -7.411,-4.989 -9.164,9.655 -0.304,5.705 -1.789,7.138 -0.025,14.380 -1.021,17.451 -4.918,-3.628 -3.061,-10.627 -7.193,-1.214 -11.617,-0.607 -15.119,12.345 -9.992,18.483 -9.370,9.995 -28.770,10.040 -30.720,25.476 12.778,-6.326 27.673,5.634 40.187,-3.526 -0.729,10.261 11.313,-7.350 9.044,6.660 1.411,6.942 -3.607,12.685 -9.832,14.269 5.409,0.718 -1.069,9.495 -3.247,0.725 -3.906,-9.290 -26.654,2.212 -17.622,-9.705 -4.045,-10.760 -21.685,-0.409 -7.160,2.925 -2.167,6.137 7.256,12.754 8.031,5.438 11.193,-0.141 1.600,26.286 17.275,12.255 5.731,-8.607 14.505,-5.969 12.555,5.516 -3.974,6.452 -6.691,13.629 -4.890,19.316 12.739,0.269 -3.278,7.149 -0.555,13.758 -11.979,7.947 12.004,3.113 5.375,15.351 1.796,6.057 -7.217,18.228 -11.293,10.737 -3.512,-8.045 2.023,-13.200 6.935,-14.612 -7.518,5.451 -15.192,-16.525 -13.859,-5.643 0.124,4.404 -3.346,11.515 1.842,8.995 0.469,5.666 -11.244,2.740 -12.240,12.655 -1.014,7.357 20.518,-8.475 7.399,3.618 -11.134,9.007 15.283,14.677 4.043,24.893 -7.086,2.284 -11.373,-14.777 -17.450,-2.279 -2.129,7.415 -7.981,-8.185 -9.028,2.336 -7.873,-0.920 -25.151,4.426 -16.682,-10.405 -7.100,3.079 -23.359,-7.244 -9.682,-5.547 7.600,2.079 24.514,-2.601 7.362,-4.440 -1.269,-2.888 2.775,-11.201 -7.785,-8.948 -12.858,-5.283 4.315,-17.501 7.888,-4.403 12.032,-8.678 10.259,3.322 7.236,9.285 16.182,1.915 8.822,-25.399 24.265,-25.761 9.815,11.766 4.226,-8.474 14.591,-5.871 -2.647,-8.788 -2.086,-13.449 -13.086,-11.249 -11.137,-11.503 13.507,-20.699 16.660,-6.023 3.348,-5.193 -0.748,-12.654 7.271,-15.963 -11.637,2.815 -35.056,1.900 -31.988,19.530 14.314,10.943 -15.090,11.924 -7.301,26.326 -2.818,14.633 -11.240,-1.638 -19.069,2.629 1.324,-17.497 -29.739,3.397 -21.688,-15.551 5.627,-3.058 16.615,3.153 14.455,-9.045 -7.952,0.270 -1.721,-5.150 -11.597,2.402 -4.725,10.112 -16.692,4.484 -6.969,-1.552 7.663,-4.349 10.248,-18.774 21.720,-14.967 13.976,-6.211 16.305,6.868 22.545,15.627 0.510,-5.643 8.485,-24.778 -7.859,-21.261 -6.814,-3.675 -23.847,-15.256 -23.540,0.353 -10.130,4.308 -15.795,14.103 -20.680,21.397 -11.351,-7.628 -12.586,12.363 -9.904,18.798 -14.108,15.834 16.626,-10.834 16.357,6.125 5.541,11.688 5.876,-14.869 7.951,-0.420 -2.699,14.160 4.778,-0.765 1.510,-5.990 8.158,4.575 2.071,18.467 -5.520,17.936 0.277,10.646 9.227,-5.203 13.539,1.576 -11.265,-0.895 -0.703,7.213 -3.005,7.948 -21.877,-2.930 18.846,11.880 6.108,17.423 -7.574,-4.706 -18.774,-12.14 -21.380,-19.708 -7.777,16.666 4.351,-20.794 -11.306,-9.830 -8.167,-5.301 -17.845,-2.603 -7.047,6.293 0.148,6.672 0.078,13.765 -5.127,17.356 6.343,-2.592 14.406,1.570 16.387,1.030 -0.278,-17.076 28.760,7.489 13.405,4.275 -1.220,-9.537 -12.213,-3.150 -6.384,0.567 -13.370,-0.611 -27.147,0.375 -40.948,0.110 -5.764,0.170 -17.524,-0.534 -5.148,-6.693 10.762,0.966 16.446,4.467 20.818,-5.264 2.008,-8.725 -5.010,-12.289 -2.386,-19.573 -5.636,1.074 6.699,-11.433 -6.506,-10.628 -4.764,-3.726 -11.573,-4.045 -12.983,-9.394 1.779,9.060 -4.759,16.786 -12.781,7.394 -6.548,-5.289 4.100,13.758 -6.632,6.256 3.152,-6.841 3.269,-14.808 -6.788,-13.959 2.986,2.365 10.111,5.771 0.503,4.533 -10.888,-10.798 11.444,-3.904 5.281,-14.253 15.759,-6.271 0.527,8.584 3.345,8.533 12.290,-4.141 -0.589,-34.971 -4.688,-11.998 -6.775,12.987 -14.438,-3.096 -6.542,-9.094 -1.165,-15.636 -2.019,6.887 -11.842,1.498 1.100,9.436 13.543,23.919 3.428,29.975 12.345,3.910 1.378,22.783 -2.776,10.040 10.781,-14.983 -16.257,6.658 -3.161,-7.731 10.983,-11.237 -22.434,-2.766 -23.885,-14.118 3.102,-7.366 -0.105,-13.775 12.573,-11.571 14.259,5.922 1.558,-15.366 9.990,-7.068 8.958,-4.685 -6.173,-9.065 -6.114,-6.050 -6.165,-11.108 9.467,-20.394 18.561,-10.828 10.438,-0.958 13.122,-7.854 7.356,-14.034 1.347,-4.835 16.339,-11.321 3.493,-10.549 -0.592,8.561 -12.282,-5.450 -12.379,7.161 2.066,10.789 -9.906,-4.576 -16.438,4.262 -10.395,0.07 -23.111,3.827 -29.288,14.291 6.494,7.234 14.098,-2.329 16.400,-2.412 -1.891,5.873 9.247,-3.211 2.607,6.475 4.607,12.994 -10.278,23.923 -17.925,30.030 -13.601,1.361 -9.799,-34.414 -18.811,-14.205 -12.496,4.501 -1.801,21.840 10.408,15.246 8.469,7.672 19.582,6.429 8.290,18.931 -4.716,3.005 -13.396,5.575 -1.792,4.206 10.783,2.484 -9.082,19.399 9.662,18.790 -4.224,-13.939 13.758,-23.335 26.194,-18.817 12.113,0.985 4.822,16.982 -6.150,15.180 -8.065,3.868 -8.842,9.870 -7.569,15.438 -9.224,-7.852 -27.881,-3.644 -35.239,-17.197 -13.102,2.522 18.660,21.136 0.233,15.628 -8.586,-7.342 -22.515,9.123 -17.196,-6.865 5.335,-9.433 -4.577,-21.523 -7.788,-6.772 -1.008,7.875 -16.040,21.235 -17.814,11.721 -4.984,4.365 -21.375,6.325 -18.697,-2.926 -5.239,-2.512 -25.677,-15.595 -14.859,-1.224 9.850,10.648 -5.516,7.112 -11.575,7.624 -11.607,-0.406 -23.479,1.092 -34.869,-0.992 -0.838,-8.202 5.165,-14.491 10.380,-13.214 -0.952,13.704 28.809,10.668 17.238,-0.167 -6.399,13.607 -12.676,-6.010 -8.305,-9.415 -8.383,-19.729 -16.138,15.674 -30.774,12.894 -6.857,-4.710 -17.889,12.375 -17.303,0.635 11.823,-13.245 -16.744,4.583 -3.032,-5.621 1.443,-5.884 -10.646,-21.095 -7.394,-7.457 9.196,8.188 -12.487,10.330 0.926,18.210 1.900,1.420 9.494,-1.133 5.397,4.990 -11.397,3.608 -13.584,-17.990 -25.343,-8.065 -0.128,5.871 0.227,10.447 -6.818,7.734 z M 108.072,292.409 c 0.680,-10.707 -10.613,-0.490 0,0 z m 262.545,-0.862 c 13.843,-7.479 -12.748,0.682 0,0 z m -215.645,-2.364 c 0.025,-4.016 -3.611,4.090 0,0 z m 228.120,0.110 c 8.452,-4.775 6.765,-14.680 -1.362,-6.127 -8.202,-7.112 -2.389,11.581 1.362,6.127 z m -235.663,0.115 c 6.771,-3.633 9.324,-19.314 13.057,-7.953 -1.596,-7.315 17.180,-20.074 2.817,-10.864 -4.679,1.956 -19.365,-5.855 -11.079,0.997 15.053,2.687 -20.983,7.831 -7.791,-6.538 10.005,-6.893 18.519,-29.361 31.692,-20.471 5.079,-11.625 -9.027,-16.096 -12.995,-4.326 -7.345,-1.177 -10.121,15.618 -11.799,5.041 -3.264,6.926 -9.268,26.444 -18.906,19.559 -5.252,-4.472 -9.809,-16.359 -20.571,-11.099 -0.244,11.154 17.300,9.636 20.477,19.570 12.934,-0.049 4.193,20.356 15.099,16.085 z m 258.705,-2.577 c -1.820,-2.168 -2.114,1.418 0,0 z m -8.254,-0.710 c -2.865,-13.036 -8.508,2.023 0,-2e-5 z m -262.866,-1.792 c -6.940,-6.544 -11.588,-15.198 -22.287,-16.069 -1.609,-14.256 -19.259,-15.809 -13.361,-3.279 12.056,5.467 21.876,16.789 35.649,19.349 z m -34.304,-25.347 c -0.816,-1.159 1.826,-0.267 0,0 z m -8.900,24.156 c 5.375,-8.423 10.437,4.637 19.094,-1.218 -2.776,-15.791 -22.544,-7.042 -19.094,1.218 z m -73.157,0.048 c 11.575,-0.155 -12.132,-10.949 -1.920,0.202 z m 207.234,-1.140 c 1.169,-8.094 24.019,-10.023 4.989,-10.070 -4.680,-0.002 -16.747,12.345 -4.989,10.070 z m -197.053,-1.968 c -1.100,-14.685 -11.337,-2.496 0,0 z m 28.712,-0.148 c 9.104,2.292 -0.145,-15.007 9.638,-7.765 3.426,4.012 1.135,-10.723 9.014,-9.065 -10.930,-11.445 -10.607,9.441 -22.697,9.452 -6.879,5.491 -2.259,8.425 4.044,7.378 z m 125.785,-3.760 c -1.734,-6.715 -4.102,-16.372 -4.151,-24.112 -7.021,1.354 -8.787,-0.447 -18.078,3.739 -0.944,8.493 14.594,3.527 14.178,12.646 5.182,-1.623 5.589,12.187 8.050,7.726 z m -14.254,-18.519 c -9.775,-8.058 9.263,1.437 0,0 z m 33.921,16.158 c 4.324,-8.713 -14.187,3.660 0,0 z m -13.566,-1.270 c 0.988,-5.570 -3.439,1.871 0,0 z m 200.446,-1.051 c 0.570,-2.748 -3.257,1.545 0,0 z m -229.259,-5.980 c 1.263,-4.673 -6.649,0.886 0,0 z m 231.010,-0.550 c 13.093,-9.999 -17.092,-0.466 -1.336,0.668 z M 47.375,262.450 c 9.065,-5.896 -8.220,-13.012 -1.866,-15.224 -5.721,-6.483 -26.704,6.380 -11.874,13.299 4.810,-0.141 9.853,1.926 13.740,1.925 z m 11.035,-0.177 c 1.714,-9.793 24.143,-10.259 11.952,-22.244 -8.575,-7.663 -14.190,9.974 -17.509,-0.995 7.546,-1.660 10.677,-16.640 1.122,-11.813 -8.045,11.735 -0.163,26.466 4.435,35.052 z m 2.619,-15.720 c -0.598,-2.095 2.095,0.598 0,0 z m 128.211,15.588 c 0.535,-7.904 20.976,6.884 13.637,-7.464 -4.306,-10.897 -10.603,-4.842 -19.356,-5.356 6.708,4.055 0.566,13.349 5.718,12.821 z m 136.791,-0.448 c 7.111,-12.328 -19.997,2.737 -2.551,0.727 z m -193.211,-1.417 c -1.195,-3.660 -2.721,2.393 0,0 z M 389.983,257.143 c 9.937,-9.172 -9.013,-10.481 -6.233,-0.039 l 2.673,0.208 z M 92.742,254.227 c 11.712,-11.229 -8.848,-7.607 -14.351,-5.599 -1.403,6.958 10.257,6.395 14.351,5.599 z m 214.920,-2.075 c 8.791,-9.073 -17.858,-18.206 -10.659,-4.240 3.391,0.563 7.087,6.416 10.659,4.240 z m 65.416,-0.140 c -0.201,-5.020 -7.529,-9.761 0.302,-11.059 -6.822,-1.015 -8.569,-10.474 -15.150,-11.089 4.832,4.224 -7.060,15.124 5.702,14.363 6.116,-3.131 5.072,7.996 9.145,7.786 z m -201.745,-1.604 c -0.460,-3.028 -2.887,1.257 0,0 z m 104.991,-2.336 c -2.851,-2.844 1.575,3.092 0,0 z m 136.953,-0.141 c -1.863,-3.526 -1.951,2.089 0,0 z m -58.071,-5.182 c -1.162,-4.789 -3.369,2.874 0,0 z m -119.379,-0.316 c 5.319,-11.599 -22.437,-1.341 -4.629,-0.104 1.383,-0.331 3.339,1.574 4.629,0.104 z M 86.753,241.007 c 9.809,-5.015 -14.239,-5.230 -2.740,0.560 l 2.740,-0.560 z m 194.012,-0.783 c 13.198,-2.946 8.960,-20.909 5.777,-26.443 -16.786,0.370 6.644,-33.138 -9.450,-14.871 -5.979,8.616 -25.959,10.251 -15.568,21.179 12.367,0.597 -10.584,-9.284 5.063,-8.268 13.709,2.846 8.102,24.964 14.177,28.403 z m -38.540,-0.783 c -2.661,-3.603 -3.739,2.400 0,0 z M 19.937,239.025 c 15.200,-13.470 -20.494,-12.835 0,0 z m 75.512,-1.294 c 0.545,-5.154 7.462,-16.585 -0.993,-6.215 -1.118,1.525 -2.799,8.480 0.993,6.215 z m 203.925,0.266 c -0.319,-0.967 -0.652,0.942 0,0 z m 1.337,-0.552 c -0.062,-1.878 -1.574,1.185 0,0 z m -3.925,-0.489 c 12.713,-1.264 -3.252,-15.373 -1.654,-0.298 l 0.536,0.810 1.117,-0.512 z m -89.342,-3.681 c 1.675,-4.143 19.706,-16.957 7.286,-16.510 -6.927,-0.893 -25.872,-6.529 -13.658,5.025 -2.216,2.409 4.535,19.944 6.371,11.484 z m -140.035,1.665 c 0.602,-3.911 -5.045,0.840 0,0 z m 92.059,-0.492 c 6.623,-5.859 -5.262,-2.861 -1.705,0.621 z m -9.066,-0.451 c 1.956,-3.441 -3.653,2.920 0,0 z m 233.454,-0.284 c 0.986,-4.041 -5.268,0.857 0,0 z M 257.571,232.338 c -2.218,-4.329 -2.512,3.670 0,0 z m -210.402,0.037 c 7.325,-16.163 -10.732,-5.085 0,0 z m 263.925,-0.272 c 6.054,-6.792 22.647,-21.981 18.998,-28.293 -2.641,15.036 -21.444,9.987 -25.838,20.466 1.546,2.177 3.221,10.030 6.840,7.826 z M 91.938,231.807 c 0.523,-5.972 -11.994,-12.795 -5.571,-1.006 1.279,1.769 3.780,1.899 5.571,1.006 z m 55.278,-0.717 c 4.227,-7.430 22.713,-8.465 15.285,-15.856 9.064,-4.696 -1.891,-14.161 6.470,-15.463 -12.643,-3.122 0.868,-6.681 3.811,1.756 1.690,6.365 21.271,22.173 15.467,6.943 -2.044,-10.714 -24.184,-10.582 -17.615,-23.657 7.134,-5.352 27.281,5.686 20.207,-5.413 -6.403,1.129 -18.144,3.361 -13.464,-8.740 -5.113,-4.936 0.054,-21.424 -4.738,-5.594 1.216,13.845 -32.009,-4.348 -16.370,10.645 10.109,4.691 5.153,15.865 -3.365,14.934 -8.330,13.868 10.223,-0.518 6.175,10.954 -12.634,5.663 -0.332,17.082 -12.489,24.190 -1.497,1.177 -3.325,7.485 0.626,5.300 z m 15.898,-42.833 c 0.328,-1.043 0.949,1.007 0,0 z m 17.226,39.952 c 11.216,-3.347 -1.304,-16.854 -0.737,-3.507 -2.003,0.865 -3.060,8.420 0.737,3.507 z m 230.458,0.198 c -2.027,-8.451 -5.439,2.280 0,0 z m -240.408,-1.269 c 12.537,-1.746 -2.796,-21.115 -1.330,-4.616 -1.849,2.214 -3.803,6.763 1.330,4.616 z M 352.146,226.893 c 4.530,-6.640 -8.593,-2.214 10e-6,0 z m 13.640,-1.556 c -2.338,-4.880 -0.904,3.574 0,0 z m 38.318,-1.932 c -3.528,-5.690 -11.790,3.486 0,0 z M 60.941,222.055 c 3.157,-9.312 -7.750,-0.273 0,0 z m 237.823,-1.553 c 8.805,-10.825 29.866,-8.733 26.058,-27.339 -9.010,-8.737 9.828,-17.093 0.608,-25.757 -2.911,-8.417 -2.673,-26.616 -9.938,-8.533 -4.611,6.520 -16.119,-1.907 -7.518,9.905 4.071,11.429 -6.897,23.942 8.759,29.283 6.614,13.999 -26.912,15.172 -19.410,23.376 l 0.515,0.050 0.925,-0.986 z m 14.377,-36.235 c -9.599,-14.278 16.962,-4.697 1.856,1.056 l -1.856,-1.056 z m -191.124,33.449 c 0.328,-4.618 -5.980,0.998 0,0 z m 127.534,-2.274 c 2.045,-10.617 -16.443,-5.048 -4.876,-0.864 0.751,2.051 5.387,6.198 4.876,0.864 z m -69.371,0.946 c -1.907,-3.034 -2.530,0.822 0,0 z M 26.775,214.926 c -1.836,-0.280 0.346,0.911 0,0 z M 383.336,213.420 c 2.340,-5.609 -3.979,4.365 0,0 z M 95.647,212.267 c 1.132,-9.199 -16.118,-4.337 -1.276,0.595 l 1.276,-0.595 z m -51.945,-1.190 c 3.702,-12.441 10.581,-24.971 -0.081,-36.732 5.777,-9.919 -5.906,-9.228 -8.013,-0.706 -6.964,3.582 4.591,-12.186 -5.901,-4.510 -2.574,8.650 -5.418,15.291 -2.645,20.379 -8.508,2.121 -20.892,-19.691 -22.976,-1.267 7.891,1.018 19.572,3.418 17.559,12.174 -9.948,0.471 5.318,8.467 10.783,2.982 7.941,-3.110 6.022,13.263 11.276,7.679 z m -13.241,-24.763 c -1.495,-7.243 11.011,-0.371 0,0 z m 164.582,25.847 c 13.242,-6.978 -8.973,-4.428 0,0 z m 107.131,-1.836 c -0.287,-3.536 -3.636,1.683 0,0 z M 9.733,210.150 c 2.010,-6.874 -7.724,-1.461 0,0 z M 339.589,209.838 c 5.559,-12.942 -10.244,2.856 0,0 z m -222.813,-0.372 c 6.576,-11.418 -11.065,-10.218 -16.064,-15.059 -3.709,10.177 12.312,7.475 14.361,15.546 z m 178.078,-0.646 c -1.742,-17.118 -17.326,2.719 0,0 z m -57.831,-0.548 c -0.463,-2.697 -2.176,2.249 0,0 z m 67.122,-1.534 c 14.509,-9.665 -19.384,-18.382 -4.799,-2.953 0.851,1.299 2.772,5.537 4.799,2.953 z m 78.088,-0.532 c 7.135,-0.436 18.932,-6.206 6.909,-9.060 -5.520,1.224 -5.587,-9.426 -13.109,-4.285 -9.780,-3.885 -13.823,1.551 -4.972,5.369 -9.720,10.028 3.215,7.289 11.172,7.976 z M 67.690,204.55 c 11.755,-15.205 -14.891,1.472 0,0 z M 194.224,204.238 c 8.548,-2.507 19.754,-9.267 23.287,-16.614 -11.040,4.530 -17.804,-15.075 -22.397,3.095 1.863,4.473 -10.173,14.354 -0.889,13.519 z m 117.011,-2.662 c -0.225,-1.907 -1.643,0.758 0,0 z m 22.846,-1.099 c 3.499,-6.825 20.850,-16.106 3.963,-9.200 -5.961,-1.154 -12.494,12.306 -3.963,9.200 z m -196.797,-0.428 c 8.645,-4.685 13.964,-22.260 -1.883,-16.202 -12.821,-0.116 1.376,13.417 1.883,16.202 z m 231.807,0.048 c -2.725,-4.879 -5.613,0.544 0,0 z m -23.315,-0.975 c 6.859,-4.258 25.306,0.868 8.148,-4.960 -1.545,-1.718 -16.693,4.747 -8.148,4.960 z m -163.320,-3.394 c 4.262,-8.401 -15.224,-11.259 -3.436,-1.815 0.122,1.768 2.086,2.341 3.436,1.815 z m 86.633,-3.567 c 10.099,-12.587 -13.588,3.673 0,0 z m -143.148,0.110 c -1.038,-1.618 -0.422,0.969 0,0 z m 99.261,-1.962 c 4.777,-8.025 -5.903,-3.635 0,0 z m 59.601,-0.349 c 2.167,-7.593 -4.801,-0.191 0,0 z m 18.407,-0.674 c 2.069,-0.481 -4.268,-8.202 3.156,-11.114 -6.085,-1.131 6.624,-7.486 -2.462,-5.223 -6.503,2.329 -15.713,4.884 -7.308,12.478 -0.605,3.815 3.713,5.437 6.614,3.859 z m 58.352,-1.542 c 6.538,-1.517 13.443,-5.851 2.254,-4.000 -1.058,-0.711 -15.924,-6.675 -7.105,2.113 0.015,2.064 3.285,4.980 4.850,1.886 z m -124.679,0.483 c 5.980,-4.587 -5.668,1.611 0,0 z m -121.328,-0.383 c 2.156,-4.555 -10.455,-4.162 -2.761,0.100 z m 8.445,-1.718 c -6.151,-12.135 -6.145,5.075 0,0 z m 167.230,0.746 c -0.130,-10.084 -4.140,-0.387 0,0 z m 122.229,-1.455 c 3.384,-9.763 -8.911,-0.562 0,0 z m -172.409,-0.075 c 1.429,-4.031 -4.559,1.417 0,0 z m 9.693,-1.100 c -0.523,-11.033 -10.956,4.324 0,0 z m 94.270,-0.263 c 6.680,-3.483 6.010,-15.197 -1.896,-4.223 -2.344,2.882 -2.959,6.082 1.896,4.223 z m -189.706,-1.415 c -1.748,-2.006 -1.497,1.785 0,0 z m 179.828,-0.981 c 2.056,-8.914 12.257,-11.046 15.794,-13.163 -2.880,-6.909 -9.423,-9.348 -6.654,-18.722 -8.237,7.851 -21.886,-18.988 -16.835,0.599 4.372,7.183 3.652,16.595 9.374,22.983 -1.790,0.071 -6.930,11.980 -1.678,8.302 z m 8.335,-16.271 c -0.850,-2.933 2.683,1.763 0,0 z m -127.971,16.186 c 17.520,-2.585 -18.699,-16.671 -7.929,-2.603 1.279,3.654 4.977,3.637 7.929,2.603 z M 63.042,181.278 c 2.916,-14.958 22.693,-10.071 28.903,-10.000 -5.835,-12.067 -25.207,-2.026 -34.146,-2.728 -0.659,3.013 0.235,14.840 5.243,12.729 z m 222.831,-2.323 c -2.521,-5.778 -13.837,-22.345 -20.023,-12.294 -13.029,-5.074 1.256,5.054 7.769,5.514 5.443,-0.077 9.162,14.493 12.254,6.780 z m 112.390,2.583 c 0.639,-2.463 -4.640,1.612 0,0 z M 53.710,178.117 c -2.810,-9.261 -5.108,-0.899 0,0 z m 206.363,-0.598 c 13.400,0.221 2.987,-6.500 -0.782,-3.021 0.930,1.703 -4.610,5.143 0.782,3.021 z m -27.240,-0.111 c -2.220,-0.855 0.501,0.944 0,0 z m 134.937,-0.661 c -6.350,-11.079 -20.186,-22.911 -10.687,-37.772 -10.895,1.616 -3.641,24.283 -1.619,32.890 -9.327,4.724 10.088,4.638 12.307,4.881 z M 183.367,175.480 c 3.767,-5.879 11.923,0.824 11.741,-6.398 6.521,-2.037 12.005,-14.238 3.526,-8.333 -7.266,-12.752 8.866,-14.247 8.665,-2.001 8.821,0.146 19.332,7.917 9.770,-5.948 0.466,-10.293 16.773,-5.762 11.297,2.866 7.629,-5.118 16.491,-15.252 25.987,-10.787 -9.779,-7.237 -28.158,0.804 -36.997,-10.296 -4.200,11.569 -14.730,17.283 -19.302,2.959 -3.237,-7.146 -15.278,-16.916 -18.139,-9.554 7.162,8.601 16.751,7.869 13.980,23.540 2.122,11.041 -18.931,1.803 -11.221,17.677 2.875,0.870 -3.245,9.862 0.691,6.275 z m 10.043,-8.523 c 1.550,-1.427 0.591,1.317 0,0 z m 1.368,-4.278 c 2.409,-2.227 0.673,1.751 0,0 z m -71.121,12.780 c 18.479,-6.028 -13.352,-0.268 -7.804,-15.393 1.991,-8.570 -6.413,-14.641 0.456,-23.434 3.985,-11.820 -6.719,-7.151 -4.580,2.169 -5.115,-3.357 -17.210,-5.154 -8.007,2.544 2.423,10.097 9.199,20.630 4.090,27.300 2.830,6.698 8.949,8.650 15.846,6.813 z m 125.742,-1.117 c 5.053,-13.187 -10.909,1.800 0,0 z M 99.806,174.299 c 2.311,-7.441 4.280,-21.524 -4.546,-10.026 2.169,1.791 0.747,11.543 4.546,10.026 z m 141.395,-0.098 c -3.108,-2.784 0.104,-0.720 0,0 z m -13.990,-1.728 c 1.389,-15.156 -18.972,2.729 0,0 z m 28.765,0.072 c 5.128,-8.855 -13.431,-0.582 0,0 z M 143.939,172.375 c 0.864,-4.116 -4.285,1.847 0,0 z m 97.884,-4.679 c -9.249,-12.256 12.295,6.024 13.765,-7.486 13.275,-0.397 23.000,-8.715 31.386,-16.999 -6.015,-0.021 -15.753,2.334 -4.487,-2.374 8.832,-6.337 -12.905,-11.580 -9.795,-1.914 -11.994,4.411 9.505,11.307 -6.442,16.198 -6.604,-1.118 -17.549,-5.926 -19.193,-0.953 -5.651,-4.912 -14.891,6.846 -18.259,11.041 7.231,-4.144 10.384,8.627 13.025,2.488 z m 56.504,1.678 c 7.864,-9.963 -14.513,0.596 0,0 z M 211.485,168.363 c 12.763,-3.015 -10.515,-10.030 -2.772,0.126 z m 73.440,-7.037 c 5.456,-6.411 -0.930,6.287 7.253,-1.001 13.879,3.433 9.112,-11.145 0.925,-9.867 -2.387,7.393 -21.225,11.772 -13.135,2.873 -15.336,0.160 6.974,18.550 4.956,7.994 z m -117.842,1.451 c 3.749,-8.471 3.124,-27.838 -8.201,-15.556 -6.288,1.452 -7.356,7.552 -5.560,15.011 3.986,1.859 9.549,1.634 13.762,0.544 z M 45.934,162.436 c -0.559,-4.083 -2.885,2.574 0,0 z m 326.415,-1.682 c 12.004,-2.585 10.355,-16.368 22.677,-12.374 13.271,-5.139 -10.471,-13.466 -5.743,-11.554 -1.249,-4.858 7.234,-17.143 -3.148,-19.378 -7.954,3.512 0.344,19.975 -5.665,11.593 1.776,-1.397 -13.240,-6.747 -8.577,3.423 -10.834,7.950 -1.709,20.198 -1.378,29.334 l 1.835,-1.043 z M 82.814,159.152 c -0.652,-0.942 -0.319,0.967 0,0 z m 14.704,-1.713 c 2.989,-8.727 -5.643,0.397 0,0 z m 213.205,-1.750 c 5.201,-11.020 -13.849,-7.279 -1.091,0.505 l 1.091,-0.505 z m 52.209,0.076 c 5.228,-8.429 -11.396,-3.421 0,0 z m -185.567,-2.164 c 15.021,-1.603 10.470,-15.894 -1.090,-17.662 -0.584,-10.982 -19.625,-2.470 -20.543,-14.618 -10.938,3.625 -1.501,12.897 -8.540,17.341 8.717,1.878 27.704,-5.295 27.962,13.511 l 0.381,2.380 1.831,-0.951 z m 13.106,0.161 c 0.613,-4.599 -4.628,1.694 0,0 z m 36.215,-1.634 c 2.004,-4.443 -5.586,1.458 0,0 z m 32.338,-1.191 c -0.821,-0.959 -0.502,1.332 0,0 z M 51.332,148.697 c 1.429,-6.112 -5.041,1.897 0,0 z m 238.024,-1.336 c -0.075,-3.177 -3.194,3.416 0,0 z m -261.196,0.156 c -0.043,-11.841 -9.894,0.350 0,0 z m 282.370,-2.685 c 11.739,-5.045 -1.450,-22.608 -3.925,-7.344 4.420,1.149 -0.824,10.395 3.925,7.344 z m 30.458,-1.437 c 3.805,-10.661 -19.497,-7.023 -4.882,-0.917 l 2.557,1.207 2.324,-0.290 z m 18.736,-1.791 c 3.347,-6.426 -6.648,2.104 0,0 z M 39.902,139.302 c 4.051,-6.550 -12.292,-1.474 -1.589,0.465 z m 308.271,0.039 c 2.334,-3.405 1.971,-14.050 -2.825,-4.835 0.645,0.566 1.196,6.467 2.825,4.835 z m -298.187,-0.408 c 8.906,-6.981 -12.936,-5.353 -1.049,0.637 z m 208.187,-0.200 c -1.540,-2.375 -2.243,1.638 0,0 z M 25.180,137.257 c 4.759,-5.334 -11.579,-9.186 -1.122,-16.160 -3.587,-8.766 6.574,-16.499 -7.218,-18.485 -0.791,7.626 -0.286,11.787 -7.151,15.736 1.965,7.545 -9.219,19.934 6.589,17.238 3.311,-1.603 6.380,5.259 8.902,1.670 z m 242.134,-0.891 c -8.829,-3.175 -1.180,2.539 0,0 z m 91.936,-1.013 c 2.933,-6.333 14.893,-9.734 2.895,-13.940 -4.862,-4.331 -3.646,-21.730 -6.565,-6.295 -6.047,11.911 -18.695,-3.178 -14.418,-7.173 -9.091,-2.911 2.197,-13.844 6.405,-5.716 8.657,1.042 -12.110,8.590 4.571,6.002 6.257,-3.286 -5.986,-19.669 6.252,-23.847 -13.133,-10.665 -12.839,24.844 -22.921,6.898 -2.293,-9.109 -23.185,-7.028 -8.193,-2.221 12.391,4.278 9.305,23.075 6.467,28.720 11.485,-7.793 4.615,16.587 14.855,5.709 12.085,-4.673 5.572,10.884 10.650,11.863 z m -151.508,-2.038 c 1.536,-5.089 -5.627,1.455 0,0 z m 189.925,-0.047 c -1.038,-1.618 -0.422,0.969 0,0 z m -169.572,-1.120 c 3.172,-7.122 -6.203,1.624 0,0 z m 23.229,-0.363 c 3.646,-5.107 15.128,-23.297 0.015,-15.584 -2.290,16.441 -15.726,-0.977 -24.327,6.600 3.496,2.229 30.002,1.444 15.776,9.105 2.746,0.720 5.790,0.523 8.535,-0.120 z m 23.779,-0.411 c 6.127,-5.623 -13.672,-10.314 -2.606,-18.321 -11.192,-8.727 -9.245,16.593 -0.723,16.336 1.382,0.244 1.807,5.034 3.330,1.984 z m -35.502,0.528 c 1.324,-2.058 -5.044,0.290 0,0 z m -38.123,-2.699 c 2.221,-16.474 -13.077,1.852 0,0 z m 18.179,0.516 c 1.129,-10.130 6.844,-15.311 17.649,-13.885 -6.641,-11.435 28.427,-9.532 8.072,-13.709 -9.488,4.472 -16.620,14.230 -27.182,18.776 -0.359,1.904 -5.131,13.112 1.460,8.818 z m 113.301,0.418 c -0.469,-2.893 -2.001,1.991 0,0 z m 69.126,0.152 c 8.951,-0.094 -5.512,-11.754 -1.940,-0.337 l 1.092,0.594 z M 70.602,126.260 c 6.010,-10.467 -14.252,-15.680 -3.650,-3.808 0.759,1.304 1.143,5.330 3.650,3.808 z m 340.251,0.004 c 1.512,-7.517 -6.649,-1.937 0,0 z m -73.403,-1.838 c -0.360,-4.756 -2.912,4.452 0,0 z m -163.981,0.069 c 1.152,-7.475 -14.388,-6.989 -13.668,-17.730 -12.109,1.880 -11.397,-7.928 -12.894,-11.954 -9.481,8.142 3.650,13.519 5.958,15.557 -8.627,0.087 4.098,9.558 8.710,7.312 1.851,4.688 7.372,6.358 11.894,6.815 z m -9.387,-1.194 c -0.717,-1.228 -0.717,1.228 0,0 z m 236.233,-1.045 c -2.759,-5.350 -13.054,-1.749 -2.092,-0.295 l 1.576,0.907 z m -120.058,-1.051 c 0.674,-5.893 -8.158,-0.760 0,0 z m 95.118,-0.376 c 2.712,-10.875 14.071,-9.040 23.206,-7.261 1.492,-11.600 -14.155,-13.960 -21.814,-5.616 -14.948,-0.687 -16.408,13.067 -1.392,12.877 z M 181.997,120.698 c 8.955,-6.692 2.935,-12.968 -6.225,-9.781 -3.890,-9.870 -17.458,-12.692 -8.157,0.654 5.055,2.732 11.586,4.835 14.383,9.126 z m 230.749,-2.685 c 0.598,-3.645 -2.724,1.476 0,0 z m -216.574,-1.326 c 6.285,-0.196 18.054,-13.927 5.219,-7.785 -5.942,-1.440 10.323,-24.523 -7.187,-17.747 -7.281,-0.373 -3.638,28.434 1.968,25.532 z m 129.412,0.534 c 13.029,-13.358 -2.079,-22.837 -11.013,-28.921 5.926,-18.638 -10.795,5.558 -17.512,7.961 -1.962,12.487 20.465,-19.144 18.954,2.189 13.633,1.987 2.590,20.302 -0.597,8.898 -15.750,4.595 2.652,13.465 10.168,9.872 z m -225.128,-0.304 c -0.341,-6.082 -4.810,2.943 0,0 z m 21.773,-0.358 c 1.920,-12.613 25.512,3.704 13.510,-11.149 -7.461,2.320 -20.733,-10.175 -18.476,3.736 -5.185,9.154 -4.243,3.357 4.966,7.412 z m 122.590,-0.780 c 0.682,-9.086 -5.409,2.823 0,0 z m 52.780,-2.699 c -1.358,-3.919 -2.378,2.190 0,0 z m 110.850,-1.197 c 3.900,-8.566 -12.726,-14.438 -2.940,-0.803 -1.233,2.592 2.494,2.102 2.940,0.803 z m -104.844,-0.815 c 2.448,-5.525 10.130,-15.080 0.351,-6.920 -6.142,0.725 -2.963,10.442 -0.351,6.920 z m -199.971,-0.009 c 4.176,-7.124 -6.025,-0.066 0,0 z m 166.699,-3.567 c 1.175,-5.433 -8.962,2.391 0,0 z m -163.194,-0.581 c 4.015,-9.900 -7.600,-0.468 0,0 z m 154.108,-0.130 c 17.462,-13.935 -13.914,-9.748 0,0 z m 82.926,-0.528 c 4.646,-2.690 -7.400,0.578 0,0 z m -164.266,-0.133 c 4.359,-10.719 -14.117,-5.978 -2.939,-15.939 13.451,-15.005 -18.897,-9.578 -20.087,-5.965 6.210,7.598 8.588,11.682 15.363,15.755 -3.771,3.379 5.126,4.723 7.664,6.150 z m -21.025,-1.880 c -1.266,-2.052 -0.803,2.132 0,0 z m 65.022,-0.640 c 0.162,-8.132 19.364,-17.644 3.361,-24.829 3.080,-7.624 -3.293,-17.276 -8.928,-7.629 3.037,11.228 3.236,24.590 1.194,33.138 l 1.262,0.024 z m -71.769,-2.523 c -1.124,-1.959 -1.655,1.547 0,0 z m 82.376,-1.497 c 1.039,-6.507 -4.833,5.572 0,0 z M 134.499,99.031 c 13.510,-3.380 -13.660,1.061 -11.327,-9.392 -13.289,6.313 6.963,10.152 11.327,9.392 z m 230.000,-0.345 c 6.647,-0.563 15.826,-8.893 18.011,-13.324 -6.419,-3.953 -14.546,-17.173 -19.934,-2.996 15.993,0.602 9.978,13.892 0.232,16.420 l 0.657,0.284 z M 184.699,97.962 c 2.277,-10.419 -6.613,-0.745 0,0 z m -25.392,-1.450 c -0.791,-8.641 -18.877,-10.581 -4.836,-2.973 1.114,1.008 3.038,5.577 4.836,2.973 z m 94.088,-0.778 c 2.667,-5.902 -6.515,-8.041 -4.736,-15.303 -6.150,-5.906 -1.981,-18.440 -14.678,-11.350 -1.754,9.882 15.395,19.358 3.615,27.155 4.918,-0.487 11.485,1.334 15.798,-0.500 z M 116.098,94.526 c 2.258,-4.950 -4.237,0.557 0,0 z m 243.009,-1.153 c 17.865,-9.168 -12.433,-0.285 0,0 z M 26.296,91.287 c 9.863,0.187 13.385,-13.081 0.944,-7.053 -8.974,-8.511 -12.903,13.866 -0.944,7.053 z M 266.712,90.906 c 6.970,-8.814 -8.769,3.261 0,0 z m 122.701,-1.393 c 1.893,-6.434 -4.371,0.919 0,0 z m -272.016,-1.525 c 3.744,-6.612 -4.770,4.446 0,0 z m -1.614,-2.986 c 14.698,-8.949 -11.707,-15.690 -10.011,-1.930 4.810,4.171 6.459,-8.260 10.011,1.930 z m -13.522,-0.859 c -2.211,-3.245 -2.034,2.896 0,0 z m 281.069,-0.152 c -0.893,-1.030 -0.893,1.030 0,0 z M 71.152,82.003 c 8.928,-3.455 8.633,-28.741 1.996,-10.488 -6.922,-1.321 -16.178,8.221 -5.837,11.113 l 0.417,-0.029 z m 57.364,-0.643 c 5.777,-7.486 15.759,-13.969 1.764,-7.257 -2.492,-0.655 -5.333,12.156 -1.764,7.257 z m 254.098,0.710 c 11.554,-6.519 -10.205,-1.449 0,0 z M 278.724,78.489 c 0.639,-10.849 -5.311,-3.413 -0.061,1.081 l 0.061,-1.081 z m 112.359,-0.514 c -2.141,-6.871 -14.275,-2.654 -1.642,0.648 l 1.642,-0.648 z M 357.702,77.535 c 13.885,-11.672 -12.604,-19.139 -8.423,-4.489 2.544,1.454 4.802,6.349 8.423,4.489 z M 102.225,77.134 c 7.113,-0.183 17.856,-15.665 5.724,-7.395 -1.019,3.345 -17.321,6.655 -5.724,7.395 z M 47.282,76.379 c 2.118,-7.311 -8.718,2.423 0,0 z m 75.862,-0.457 c 0.892,-6.739 -4.897,-0.614 0,0 z m 221.736,0.157 c -2.443,-7.974 -7.015,0.833 0,0 z M 164.706,75.448 c 14.102,2.281 -9.568,-13.530 -5.096,0.036 l 2.270,0.290 2.826,-0.326 z m 147.321,-0.209 c 0.362,-9.023 -8.325,-0.347 0,0 z m 6.641,-0.120 c 0.829,-4.343 -8.199,0.152 0,0 z M 56.367,73.360 c 10.444,-12.029 -11.794,0.200 -0.109,0.931 l 0.109,-0.931 z M 20.244,72.872 c 4.040,-7.115 -6.966,1.779 0,0 z M 135.346,68.544 c 1.044,-6.947 -8.630,1.836 0,0 z m 141.297,-6.609 c 3.019,-6.431 -6.080,2.547 0,0 z M 233.472,296.050 c -0.002,-13.224 20.232,-6.138 20.482,-20.074 5.831,-12.140 20.026,2.183 6.632,3.482 6.029,7.345 -7.606,8.394 -7.283,15.827 -8.504,4.201 -14.769,0.831 -3.586,-3.908 -6.863,-3.620 -8.337,7.675 -14.646,5.606 -0.541,-0.305 -2.162,0.733 -1.598,-0.933 z m 24.700,-13.007 c 1.757,-9.563 -7.041,0.072 0,0 z m 160.448,13.758 c -0.392,-11.668 8.222,2.767 0,0 z m -5.983,-1.587 c -9.699,-13.734 21.004,-9.037 6.884,-5.755 -8.806,-4.778 -1.803,10.343 -6.884,5.755 z m -92.470,-14.631 c -1.333,-5.667 6.947,3.256 0,0 z m -39.587,-1.290 c -10.629,-2.609 -8.900,-4.895 -5.303,-10.098 3.194,-7.718 -8.521,-1.423 1.109,-5.966 6.678,0.679 21.776,2.965 16.365,14.815 -3.295,1.563 -7.866,-0.797 -12.172,1.249 z m 5.588,-7.340 c 0.932,-5.162 -7.211,2.593 0,0 z M 0,268.722 c 0.474,-9.132 -1.224,-33.675 4.497,-16.834 -7.213,2.609 8.697,4.022 4.357,12.186 C 10.890,269.362 -2.802,280.356 0,268.722 Z m 420.464,3.846 c -2.205,-12.331 8.664,3.821 0,0 z m -204.500,-8.772 c -8.263,-8.980 11.103,-16.407 9.213,-2.005 -7.500,-6.859 -2.226,3.933 -9.213,2.005 z m 0.465,-4.102 c -1.017,-0.948 -0.678,0.98 0,0 z m 3.439,-0.669 c -1.495,-7.209 -5.114,2.544 0,0 z m 102.458,-13.286 c -0.756,-11.687 15.558,2.655 0,0 z m -2.049,-6.466 c -3.299,-7.502 13.993,2.112 0,-1e-5 z m -135.809,-2.027 c -0.362,-2.079 3.523,1.229 0,0 z m 0.053,-2.989 c 1.014,-3.298 2.154,1.856 0,0 z M 0.020,228.161 c 1.298,-1.875 0.579,2.472 0,0 z m 3.716,-2.221 c -10.644,-1.576 2.184,-10.667 0,0 z m 67.015,-0.878 c -9.021,-9.841 15.194,-21.637 8.088,-3.560 -0.755,2.77 -5.197,5.186 -8.088,3.560 z M 8.202,220.563 c 1.019,-1.389 0.558,0.619 0,0 z m -4.071,-0.509 c -0.201,-2.761 2.824,-0.710 0,0 z M 79.771,189.881 c -10.283,-14.533 19.110,-3.935 0,0 z M 19.018,168.046 c -16.606,-7.414 13.049,-19.283 6.071,-2.142 -1.382,1.778 -3.850,2.821 -6.071,2.142 z m 41.003,-11.871 c -6.033,-0.710 -2.781,-13.141 3.623,-4.320 0.176,1.584 -1.506,5.556 -3.623,4.320 z m 360.848,-0.520 c -3.365,-2.967 -17.154,-3.936 -5.008,-7.067 -2.158,-1.371 3.330,-13.963 -6.011,-12.288 -4.411,-8.316 16.916,-2.765 9.000,7.598 -0.519,2.012 10.770,10.908 2.019,11.757 z M 86.528,150.639 c -4.386,-3.106 -18.918,-10.559 -7.947,-15.955 3.880,3.703 23.067,12.195 7.947,15.955 z m -6.112,-9.462 c 4.156,-6.926 -6.951,-1.237 0,0 z M 3.571,105.844 c -8.763,-11.767 16.060,-4.482 0,0 z M 88.828,95.372 c -5.745,-15.567 13.869,2.308 0,0 z m 2.679,-2.459 c 0.993,-4.082 -4.365,2.493 0,0 z m 312.518,0.283 c -6.242,-8.262 7.905,-6.369 0,0 z M 48.595,91.771 c -1.027,-6.917 6.516,-0.813 0,0 z M 414.454,90.249 c 1.050,-8.490 -2.857,-8.912 -8.327,-9.699 3.817,-15.099 22.215,5.153 8.327,9.699 z M 201.226,80.566 c -12.583,-0.578 -15.679,-25.255 -3.353,-20.451 -4.093,7.501 0.105,18.213 1.943,4.108 6.124,-1.173 22.930,-8.201 10.074,3.390 -13.584,2.215 11.194,11.363 -8.664,12.952 z m 2.708,-4.111 c 1.978,-5.701 -5.717,0.597 0,0 z m 217.562,-0.126 c -8.276,-8.243 6.330,-14.218 1.777,-0.791 l -0.140,1.589 z m -98.970,-8.425 c 4.498,-4.929 6.992,2.914 0,0 z M 181.673,67.209 c 0.921,-1.434 0.166,1.457 0,0 z M 391.384,65.559 c -4.697,-2.691 7.685,-0.913 0,0 z M 122.325,63.826 c -8.218,-9.132 8.654,-1.876 0,0 z M 330.408,61.617 c -9.854,-5.561 8.875,-0.991 0,0 z m 59.975,-1.552 c -0.663,-3.141 4.718,0.598 0,0 z M 0.057,59.570 c 0.479,-1.900 0.334,1.804 0,0 z M 164.883,59.602 c 2.326,-2.446 0.766,1.890 0,0 z"
				style="fill:#ddd;stroke-width:1;fill-opacity:1"/>
		<path
				id="path980"
				d="m 5.556,295.727 c -9.393,-3.427 -1.132,-9.886 3.514,-2.046 2.366,3.238 -4.029,4.966 -3.514,2.046 z m 66.818,1.088 c -9.851,-8.043 7.262,-13.243 10.128,-5.855 9.293,-0.820 7.297,7.287 1.318,6.039 -4.777,-0.513 -6.016,-1.965 -11.446,-0.183 z M 75.149,291.43 c 1.194,-4.142 -3.575,2.556 0,0 z m 16.977,4.710 c 4.758,-12.883 24.183,8.283 15.312,-9.561 1.850,-10.541 16.847,14.348 0.849,10.337 -5.063,-2.142 -13.087,1.654 -16.161,-0.776 z m 19.263,-1.256 c -0.652,-0.942 -0.319,0.967 0,0 z m 20.692,0.727 c 4.610,-12.349 -21.863,-8.305 -24.519,-21.957 -9.239,-4.601 7.332,-4.099 7.291,3.524 9.040,2.783 27.304,13.006 23.657,15.329 -4.667,-4.493 -2.674,9.894 -6.430,3.103 z m 19.390,0.529 c 9.482,-7.667 10.843,-34.631 27.267,-23.991 3.558,5.749 1.583,26.558 -4.534,23.738 2.695,-6.972 4.279,-31.411 -7.397,-17.887 -2.288,5.692 -9.372,21.065 -15.336,18.141 z m 41.673,0.317 c -7.845,-3.549 -17.819,-8.183 -8.507,-19.447 6.011,0.891 9.739,-13.870 11.408,-6.721 -10.641,9.910 19.124,2.184 2.776,8.371 5.921,8.343 20.655,11.842 18.134,-2.475 2.147,-16.440 41.930,-8.205 22.440,2.828 -8.731,3.063 -19.706,8.727 -12.650,17.987 -6.130,-8.495 -20.738,-4.288 -25.756,-13.368 -6.519,-4.155 -15.267,-6.186 -18.085,3.383 0.765,2.188 20.252,1.657 11.832,9.984 l -1.331,-0.088 -0.260,-0.453 z m 33.461,-13.510 c 2.743,-8.146 24.252,-12.186 4.335,-11.738 -7.812,0.805 -20.295,12.034 -4.335,11.738 z m 7.839,13.219 c -2.280,-12.766 23.665,-7.888 4.062,-2.484 -0.292,2.548 -1.718,4.877 -4.062,2.484 z m 46.858,0.515 c 1.037,-14.418 24.938,5.192 6.916,-2.198 -2.478,0.509 -4.084,3.683 -6.916,2.198 z m 16.658,0.044 c 2.071,-0.390 1.112,0.779 0,0 z m 19.665,-0.300 c -8.463,0.965 -17.070,-5.131 -2.808,-5.397 5.925,-4.307 10.000,8.073 2.808,5.397 z m 6.750,-0.495 c 2.889,-9.277 3.709,3.269 4e-4,0 z m 14.047,-0.680 c -2.554,-11.730 9.975,9.030 0,0 z m 24.723,1.418 c -4.752,-6.945 9.415,-14.824 -3.582,-11.707 -12.440,0.882 -8.745,-5.175 1.517,-2.987 14.275,-10.673 25.289,20.528 8.011,12.999 9.228,-4.298 2.500,-12.320 -3.300,-2.613 0.222,2.869 1.430,5.944 -2.646,4.309 z m 38.221,0.247 c -3.296,-8.164 -1.806,-11.763 4.986,-2.821 0.893,4.702 -2.227,2.334 -4.986,2.821 z m -15.822,-4.196 c -5.735,-8.552 17.028,-9.188 3.522,-1.137 l -2.046,1.420 z m -57.996,-1.745 c 1.115,-3.326 1.877,1.226 4e-5,0 z m 17.859,0.026 c -8.681,-4.010 -20.408,-23.444 -13.869,-29.826 4.187,10.839 5.842,23.890 18.764,29.157 l -1.901,0.648 z m -95.911,-2.115 c -3.977,-2.707 5.394,2.399 0,0 z m 172.831,-0.526 c -6.646,-5.692 5.571,-1.147 0,0 z m -114.621,-2.151 c -4.500,-7.521 3.851,-21.741 4.443,-6.933 0.312,2.812 0.353,9.357 -4.443,6.933 z M 154.085,285.496 c 5.790,-13.878 5.688,1.462 0,0 z m -93.834,-1.708 c -9.041,-3.656 17.166,-11.320 5.574,-0.788 -1.586,1.211 -3.733,1.050 -5.574,0.788 z M 44.932,283.192 c -5.044,-6.679 -5.905,-6.022 -10.668,-12.733 1.480,-2.342 15.024,10.239 18.106,-2.873 5.885,-4.969 14.434,-10.957 7.186,0.429 -7.566,2.497 -15.074,13.149 -6.615,14.204 -2.259,1.170 -5.482,1.231 -8.008,0.972 z M 0.926,282.977 c 0.319,-0.967 0.652,0.942 0,0 z M 136.480,282.377 c -10.131,-4.593 -13.037,-15.742 -24.232,-17.076 -2.731,-15.541 -18.046,-15.103 -17.939,-0.121 -5.179,5.333 -2.855,-7.178 -6.689,0.745 -0.639,-17.461 -19.296,21.149 -16.003,2.146 16.112,-6.347 -2.853,-7.802 -5.945,-11.781 11.116,-1.668 9.234,-14.100 6.353,-20.232 12.828,4.622 -7.821,-10.405 6.201,-5.287 4.603,7.111 -3.183,14.326 9.836,12.226 -1.768,5.087 -17.087,3.088 -7.733,11.270 9.853,9.867 20.759,-4.373 16.377,-15.057 5.294,-8.655 4.487,13.449 12.768,14.842 6.362,13.108 21.272,13.502 28.654,24.837 0.659,0.899 0.761,5.693 -1.647,3.487 z m 261.404,-1.385 c -0.548,-3.183 2.372,2.824 0,0 z m -19.795,-0.946 c -8.120,-9.233 2.853,-19.780 11.997,-13.059 5.711,-3.437 8.953,-5.654 0.900,1.946 -5.548,0.091 -2.600,6.809 -7.775,3.756 4.692,12.265 -12.937,-4.293 -2.314,7.492 0.580,1.627 -3.437,-0.208 -2.808,-0.136 z m 15.081,-1.562 c 1.662,-1.974 0.814,0.758 0,0 z M 89.164,278.141 c 0.706,-6.919 13.648,-17.452 11.641,-6.588 -5.138,-5.352 -5.505,8.653 -11.641,6.588 z m 191.891,-1.092 c -14.883,-9.724 18.494,-17.898 9.988,-1.180 -2.829,1.925 -6.757,1.432 -9.988,1.180 z m 1.870,-2.939 c 12.866,-2.542 -3.969,-8.953 -1.940,0.920 l 1.940,-0.919 z m 85.175,2.342 c -1.493,-2.591 5.714,1.304 0,0 z m 25.532,-2.929 c -1.758,-4.558 9.106,0.844 0,-5e-5 z M 20.846,272.724 c -0.486,-7.628 12.035,-5.376 0,0 z m 124.694,-0.523 c -0.972,-11.583 15.645,-24.488 25.007,-29.502 13.997,13.880 6.679,-22.452 -4.681,-7.616 -2.401,4.066 -16.103,13.712 -14.326,3.685 -20.528,1.050 -9.186,-18.628 -3.477,-26.907 -7.366,-11.031 21.631,-18.249 5.109,-5.842 -4.691,5.143 3.866,14.628 -7.268,18.789 -7.095,12.669 12.894,15.754 18.087,4.905 11.641,-9.753 25.222,11.924 17.228,19.240 5.332,9.088 -13.608,-7.371 -15.135,3.405 -11.610,-0.453 -9.003,20.133 -4.829,10.588 -3.273,-10.563 12.130,8.165 -1.273,7.792 -6.293,-0.465 -11.772,-11.360 -11.956,1.367 l -1.105,0.416 -1.380,-0.321 z M 0,270.411 C 5.823,266.059 -6.245,248.490 6.101,258.401 8.523,262.390 3.646,276.535 0,270.411 Z m 46.171,-1.523 c -9.331,-6.950 13.204,-5.195 2.418,-16.782 0.643,-8.924 -7.170,-8.567 -9.040,-10.558 10.139,-1.669 -6.176,-19.563 4.958,-8.873 11.995,4.034 1.572,-17.100 -1.112,-10.061 10.638,-9.753 9.309,11.890 4.586,16.179 1.729,11.378 17.140,25.958 -1.810,30.096 z m 319.217,-1.229 c 2.404,-10.346 3.319,5.852 0,0 z m -179.098,-0.133 c -8.450,-3.134 -3.531,-17.361 -1.097,-5.585 5.086,1.088 14.247,-1.366 4.794,5.798 l -2.375,0.399 z m 229.294,-0.378 c -6.008,-8.188 17.049,-8.420 2.169,-1.756 l -1.114,1.703 z M 35.722,265.772 c -7.641,-8.660 12.845,0.758 0,0 z m 282.401,-0.125 c -1.711,-5.214 9.241,2.706 0,0 z m 45.015,-0.320 c -2.493,-3.349 4.458,-1.646 0,0 z m -7.101,-0.274 c -3.744,-11.670 7.150,0.125 0,0 z M 28.363,263.659 c -11.520,-5.006 -0.705,-24.095 4.775,-15.270 -11.059,-2.365 -4.693,8.072 -1.761,14.057 -0.209,0.939 -2.114,3.856 -3.013,1.212 z m 107.488,-0.117 c 4.316,-4.489 6.955,-12.289 10.992,-18.006 3.810,-3.441 -0.165,15.255 -5.341,17.229 -1.598,0.367 -4.038,2.463 -5.650,0.776 z m 168.472,0.331 c 0.373,-8.936 19.414,0.273 3.826,-0.455 -1.287,-0.410 -2.634,1.453 -3.826,0.455 z m 109.880,-4.809 c 0.442,-4.842 13.208,-6.224 0.821,-8.568 5.020,-12.643 15.516,12.266 1.491,8.928 l -2.312,-0.360 z m -42.636,-0.939 c -1.033,-9.348 -33.995,-11.491 -13.931,-14.301 8.732,-1.395 11.402,7.694 16.914,9.946 -1.569,-5.684 -1.364,-9.662 -0.164,-14.946 -3.711,-3.552 -10.531,-5.146 -15.255,-12.633 -3.740,2.645 -1.536,16.675 -8.166,14.079 9.965,-11.480 -0.466,-24.395 -9.360,-9.680 -3.723,3.186 -11.863,14.387 -6.886,2.119 8.281,-9.460 17.696,-20.729 33.174,-14.196 0.658,6.566 14.327,23.021 16.878,12.847 -17.896,-0.034 13.765,-28.958 -1.772,-20.218 -13.478,7.691 -27.460,-16.388 -37.323,-4.473 -0.309,10.969 -17.745,13.745 -19.510,24.979 -6.572,-8.208 -19.342,19.596 -24.850,-1.882 -7.503,-6.723 10.719,-18.632 0.575,-6.693 9.072,22.875 21.557,-6.312 30.017,-14.432 2.322,-0.098 3.149,7.787 9.633,1.081 0.845,-18.272 22.730,-9.516 31.337,-3.275 6.702,1.540 28.968,-6.313 17.392,7.212 -7.666,5.700 -9.553,15.435 -1.422,19.491 -5.675,5.837 -16.392,9.074 -11.957,20.818 0.247,2.981 -2.380,5.668 -5.322,4.157 z m -2.739,-29.586 c 1.533,-12.267 -14.870,-2.541 0,0 z M 62.519,257.927 c 1.754,-4.301 2.768,1.365 0,0 z m 335.897,0.168 c -5.980,-6.664 10.276,-17.860 4.274,-4.620 -1.335,0.904 -1.922,5.566 -4.274,4.620 z m -94.068,-0.850 c -7.951,-2.252 -9.345,-13.032 -0.243,-3.911 12.561,2.847 3.011,-12.172 4.042,-12.886 9.602,1.557 6.277,20.929 -3.799,16.798 z m -99.583,-0.241 c -2.673,-5.526 -5.048,-10.297 1.215,-2.276 1.599,-0.424 -0.554,4.497 -1.215,2.276 z m -74.064,-0.174 c -11.641,-6.596 6.039,-7.427 1.012,0.431 z m 146.186,-1.633 c -21.490,-11.292 11.030,-2.827 0,0 z m 3.043,-1.455 c -9.839,-13.279 20.358,-19.234 9.918,-29.319 -3.183,-6.456 4.926,-13.080 -7.257,-12.750 -4.754,-9.178 3.782,-14.848 4.841,-24.381 5.017,2.614 19.027,3.514 6.687,8.964 7.933,5.425 3.562,20.653 -1.024,5.742 -5.533,-11.111 -4.702,-5.953 -7.747,4.631 6.412,3.310 15.233,5.848 8.052,14.297 8.806,6.003 -1.674,19.017 -1.822,25.803 -5.432,1.098 9.961,3.608 -2.943,3.783 0.612,-9.319 -9.334,-7.070 -6.207,1.558 0.079,0.847 -1.556,3.462 -2.497,1.670 z m -35.719,-3.078 c -5.227,-5.610 -29.007,0.656 -21.424,-9.618 4.992,7.847 31.670,-2.346 13.396,-3.426 -7.088,-1.543 -17.530,-4.360 -3.510,-6.148 8.585,-1.843 22.990,9.069 11.607,15.247 5.407,1.076 6.885,5.804 -0.068,3.945 z m -3.750,-4.375 c -0.914,-1.846 -0.939,1.623 0,0 z m 98.207,2.109 c -9.044,-10.220 12.676,-7.492 4.600,-5.135 -5.097,0.349 6.731,4.960 -3.055,5.513 z m -150.916,-0.575 c -1.783,-5.459 14.784,-1.674 0,0 z m 81.743,-0.858 c 7.948,-10.270 0.156,-28.210 -4.475,-34.630 11.752,3.371 18.809,32.446 4.475,34.630 z M 19.781,244.349 c -12.510,-4.154 16.052,-7.493 0.915,-15.525 -10.851,-13.663 24.726,11.223 0.170,15.708 z m 71.089,-0.245 c -2.586,-5.058 8.253,-1.893 0,2e-5 z m 319.300,-3.175 c -9.609,-3.481 -2.624,-15.771 1.234,-3.942 3.366,1.928 3.443,5.748 -1.234,3.942 z m -205.913,-0.387 c -8.144,-4.784 -8.413,-19.254 -12.654,-26.620 11.658,2.253 6.996,26.298 15.989,23.072 1.608,-10.469 18.596,-16.827 10.787,-24.372 16.593,6.638 -6.547,18.606 -8.667,27.542 l -2.890,0.651 -2.564,-0.273 z M 63.409,238.261 c -13.041,-5.118 9.038,-11.950 2.392,-5.943 -12.732,-1.220 10.906,7.506 -2.392,5.943 z m 24.666,-1.813 c -11.416,0.849 -6.991,-23.574 -3.184,-6.821 -1.402,4.441 11.361,5.143 3.184,6.821 z m -78.271,-1.880 c -1.297,-8.726 8.619,-6.306 0,0 z m 407.933,-2.632 c -7.854,-3.905 -7.613,-23.061 4.119,-22.811 -4.478,4.307 -10.452,19.835 -0.430,18.717 5.013,-0.728 0.343,7.780 -3.688,4.093 z m -267.444,-1.327 c 3.122,-6.933 20.882,-5.105 15.870,-18.035 3.336,-5.034 0.982,-16.008 4.843,-3.282 -0.935,10.889 -7.025,24.099 -20.714,21.317 z m 109.359,-0.062 c -3.019,-8.341 11.653,-11.570 1.935,-0.550 l -0.965,0.779 z M 395.32,228.988 c -14.842,-13.847 17.653,-13.023 10.289,-6.534 -4.167,-8.606 -16.149,5.774 -2.384,3.168 5.994,2.657 -6.675,4.130 -7.905,3.366 z m -293.810,-0.370 c 6.107,-5.867 7.695,-7.328 -1.631,-5.203 7.928,-13.280 17.522,6.780 1.631,5.203 z m 81.053,-0.750 c 5.301,-6.901 5.736,1.507 0,0 z m -91.971,-0.613 c -13.756,-13.974 12.628,1.271 0,0 z m -32.218,-1.986 c -10.264,-3.700 2.522,-16.715 -1.140,-1.979 6.114,4.161 7.890,-14.636 8.244,-0.02 -1.549,2.134 -4.696,2.574 -7.104,1.999 z m 13.086,-1.183 c -7.242,-10.612 13.463,-9.323 3.979,0.173 -1.207,0.300 -2.952,1.032 -3.979,-0.173 z m 116.220,-0.499 c -8.719,-8.964 2.663,-9.257 1.986,-0.584 l -0.867,0.915 -1.119,-0.331 z m 58.128,-1.625 c -7.363,-8.337 9.741,-0.387 1.517,0.667 z M 82.716,221.733 c 2.724,-2.737 4.766,0.015 0,0 z m 54.205,-3.144 c -10.275,-6.037 8.151,-13.047 4.490,-0.900 -1.116,1.092 -3.008,2.195 -4.490,0.900 z m 39.267,-0.193 c -3.742,-7.143 5.267,-10.101 1.213,-1.516 1.706,1.161 0.090,3.134 -1.213,1.516 z M 112.934,216.073 c -4.590,-5.604 -12.048,-8.913 -15.286,-5.641 -0.978,-12.548 -18.141,-3.673 -6.941,2.953 -13.598,1.086 -5.049,-15.344 3.214,-13.178 1.683,-10.927 3.204,-21.701 12.111,-24.608 -4.194,-4.977 -5.539,-10.885 -2.328,-16.091 -1.427,-9.262 -5.342,-17.539 -9.016,-24.311 4.807,-6.221 14.793,-1.002 14.633,-11.195 8.493,-0.685 -1.174,15.464 -9.925,11.416 1.208,6.875 9.807,18.843 9.876,28.401 -11.519,12.204 16.614,15.798 24.291,9.859 -6.792,-10.678 1.370,-2.994 4.208,0.447 6.807,-0.300 31.116,3.416 18.969,13.204 -7.989,-0.710 -10.561,25.689 -15.190,12.165 6.000,-10.596 8.190,-20.162 -7.053,-16.702 -6.960,0.776 -7.517,12.807 -8.894,0.210 7.409,-5.413 -12.508,-2.835 -11.861,0.242 -16.406,3.337 10.712,5.653 9.541,15.328 4.472,5.100 -0.643,12.119 -4.117,11.880 -0.389,2.667 -2.171,8.115 -6.232,5.617 z m 4.867,-5.835 c 6.585,-12.689 -11.460,-12.09 -17.877,-18.049 -4.867,10.633 11.846,15.878 17.877,18.049 z m -2.505,-16.171 c 4.076,-4.603 -21.975,-9.346 -5.669,-0.948 1.290,1.885 3.826,2.199 5.669,0.948 z m -10.101,-10.344 c -3.658,-8.918 -6.733,1.345 0,0 z m 51.121,0.248 c -0.335,-6.874 -10.644,1.703 -2e-5,-3e-5 z m 154.569,31.193 c 2.820,-5.938 4.714,1.250 0,0 z m 3.706,-0.443 c 1.113,-9.242 20.890,-8.051 5.710,-0.956 -1.677,-0.827 -4.281,3.459 -5.710,0.956 z m -105.703,-0.007 c -7.809,-0.316 -17.437,-3.633 -3.312,-5.548 5.566,1.446 15.802,6.171 3.312,5.548 z M 38.932,214.288 c -5.323,-11.976 -24.666,4.622 -25.423,-13.252 -0.624,-6.269 -23.138,-11.957 -7.251,-9.542 11.834,-1.001 10.741,22.867 26.136,12.632 4.885,-1.564 9.260,8.825 6.537,10.162 z M 5.948,213.696 c -13.289,-9.380 11.333,-17.398 6.321,-3.215 -0.827,-9.091 -11.234,-3.844 -4.346,3.057 l -0.871,0.606 z M 299.758,213.432 c 0.512,-4.401 9.499,-0.621 0,0 z M 48.801,212.132 c -8.492,-8.885 7.559,-11.198 0.276,-19.605 5.631,-5.651 -9.804,-25.637 1.056,-26.299 -7.871,6.142 8.776,21.116 2.347,7.448 -8.167,-16.284 32.123,-11.832 10.446,-7.403 -14.453,-5.327 -1.563,29.687 4.363,9.909 6.025,-10.101 26.067,-1.326 28.527,-3.425 -5.275,10.061 -24.169,-5.790 -28.558,10.160 -3.261,11.439 -15.611,-6.289 -10.713,6.939 -4.578,6.019 -5.310,19.544 -7.745,22.276 z m 18.031,-1.817 c -17.927,2.886 -5.237,-26.788 4.534,-17.006 6.752,-1.086 5.166,9.268 -0.384,0.965 -11.494,0.953 -9.594,20.808 0.718,7.374 8.634,-8.312 1.401,13.468 -4.868,8.666 z m 333.102,0.015 c -10.753,-3.207 0.093,-24.932 -1.152,-5.523 5.281,6.959 29.189,-13.159 22.936,0.462 -9.209,-2.163 -13.110,7.564 -21.783,5.060 z m -151.177,0.014 c -20.573,-10.669 15.881,-0.231 0,0 z m 55.953,0.224 c -1.548,-9.272 18.174,-6.187 3.313,-11.608 -19.947,-14.618 20.345,-2.053 4.869,6.917 -3.115,0.590 -4.983,4.849 -8.182,4.691 z m -46.682,-1.633 c -5.971,-1.995 20.548,-11.441 4.549,-13.237 15.085,-1.493 8.681,-20.840 -4.234,-13.197 -9.685,-3.557 -18.419,-2.544 -25.107,4.924 2.579,-7.185 5.029,-11.899 -4.601,-13.580 -0.390,-7.020 9.441,-10.293 4.347,-2.145 7.793,-3.348 1.296,9.080 11.150,3.117 10.305,5.843 20.828,1.967 29.138,5.631 -12.873,-17.453 20.330,2.241 7.324,12.305 -4.217,6.756 -14.641,16.653 -22.568,16.182 z m 19.253,-17.405 c -1.537,-1.631 -0.454,2.707 0,0 z m 0.902,-7.031 c -0.127,-9.828 -7.723,2.013 0,0 z m -89.052,22.879 c -7.984,-6.515 8.746,-30.359 2.746,-10.335 -6.706,2.174 3.488,12.806 -2.746,10.335 z m 10.759,0.072 c -11.302,-2.712 9.226,-4.350 8.688,-11.104 10.520,0.470 14.679,-15.985 1.896,-8.620 -6.727,-3.069 -10.650,-11.805 -14.933,-0.130 0.391,-7.037 -5.276,-10.195 -10.061,-12.350 9.197,1.053 19.478,-10.476 26.999,-4.075 -7.077,0.132 -17.551,2.954 -5.773,7.569 6.022,4.568 23.623,4.498 12.953,17.770 -9.592,0.694 -10.918,11.727 -19.770,10.942 z m -64.822,-1.907 c -8.515,-5.898 -4.493,-19.824 -0.950,-5.716 2.231,0.008 5.868,7.543 0.950,5.716 z m 198.887,0.120 c -1.428,-10.401 17.112,-13.244 13.007,-19.790 10.083,9.327 -1.320,-9.134 6.750,-7.598 -6.149,3.638 5.177,9.330 3.744,14.119 4.770,-12.388 39.771,-1.209 14.618,-1.749 -7.145,3.486 -16.482,4.158 -20.348,0.124 -6.550,3.787 -10.464,6.510 -14.374,13.790 l -2.708,1.422 -0.690,-0.317 z m -8.377,-4.065 c 0.827,-8.140 0.456,-11.937 -2.319,-18.162 5.918,-6.337 7.921,-3.272 4.724,1.493 9.340,1.928 14.342,-19.394 20.879,-11.799 -8.082,3.510 -9.121,12.286 -7.851,15.015 -9.192,2.120 -11.276,11.140 -15.432,13.452 z m -149.036,-3.885 c -11.496,-14.142 7.069,-7.007 0,0 z m 6.414,-0.203 c 9.130,-12.838 -21.934,-10.241 -4.802,-13.550 6.781,0.780 15.159,12.549 4.802,13.550 z m 203.410,-2.971 c -2.566,-5.412 3.077,1.422 0,0 z M 235.269,191.359 c -1.699,-6.889 21.868,-7.430 11.639,-0.828 -4.056,-2.966 -7.529,2.088 -11.639,0.828 z m -7.661,-0.114 c -1.536,-3.158 3.420,-1.553 0,0 z M 90.496,190.125 c 1.136,-8.643 10.955,-1.076 0,0 z M 407.458,188.044 c -6.151,-1.914 -24.342,-2.923 -7.849,-5.441 5.526,-6.946 18.577,10.503 7.849,5.441 z m 8.643,-0.229 c -5.145,-11.751 15.235,-9.283 2.726,-4.502 -0.716,1.455 -0.342,4.696 -2.726,4.502 z M 0,184.208 c -1.289,-10.262 3.380,-13.657 0,-20.059 10.538,-8.087 5.453,12.093 7.606,11.069 5.770,1.052 26.747,7.197 10.287,8.512 C 10.191,172.543 4.678,186.423 0,185.697 v -0.971 z m 285.934,1.460 c -1.334,-5.131 5.143,1.459 0,0 z m 88.979,-0.339 c -6.688,-5.512 -14.836,-4.733 -20.036,-7.997 7.518,3.918 20.935,-2.340 9.641,-7.706 -6.210,-3.176 -13.297,-21.994 -1.325,-10.914 2.387,12.142 2.455,4.486 1.264,-2.499 -0.360,-2.852 -7.328,-19.326 0.250,-14.812 0.290,7.179 4.429,13.826 4.118,21.321 2.595,-1.112 23.314,-10.526 11.114,-0.139 -12.472,6.041 -3.838,18.110 6.941,8.093 3.955,7.513 21.586,-1.230 18.917,6.012 -8.427,8.632 -26.728,-7.912 -28.315,5.312 8.021,0.262 0.649,5.154 -2.571,3.329 z m -146.513,-0.445 c -0.753,-3.191 0.403,-11.005 4.942,-3.402 0.155,2.565 -2.521,4.738 -4.942,3.402 z m 60.674,-5.245 c -3.888,-4.079 -22.938,-24.386 -6.019,-13.734 5.260,5.106 9.621,11.569 4.106,-0.203 4.417,3.099 22.501,6.855 7.008,8.929 -4.749,-2.224 -0.947,6.905 -5.094,5.008 z m -107.307,-0.610 c 1.493,-2.547 1.155,1.213 0,0 z m 227.980,0.033 c -1.395,-9.673 12.593,-0.534 0,0 z m -229.791,-0.733 c -4.420,-8.112 -3.525,-24.521 1.652,-9.305 0.450,2.014 -0.021,10.784 -1.652,9.305 z m 38.936,-1.169 c -10.745,-14.776 15.313,3.082 0,0 z m 33.070,-1.469 c -5.777,-7.878 11.321,2.788 0,0 z m 166.863,-0.274 c 3.083,-10.607 8.990,2.642 0,0 z m -270.855,-3.451 c -5.889,-6.489 -3.918,-7.902 -1.686,-11.321 -8.829,1.854 0.411,-22.853 -5.527,-24.237 9.765,2.073 2.963,15.194 11.699,17.218 -10.852,12.758 25.914,11.045 7.011,15.029 -6.459,-0.634 -11.864,-2.570 -11.497,3.311 z m 181.527,-1.024 c -9.122,-3.496 -2.995,-25.578 0.436,-9.273 0.837,4.991 9.993,11.774 -0.436,9.273 z m -207.067,0.095 c -14.941,-4.690 8.136,-25.318 5.858,-5.173 0.094,2.876 -2.810,6.253 -5.858,5.173 z m 2.415,-5.202 c 0.768,-12.097 -6.414,2.439 0,0 z m -99.182,4.049 c 2.462,-4.008 1.406,1.839 0,0 z m 66.673,-1.909 c 0.070,-7.310 -30.423,0.641 -14.243,-6.101 6.215,-5.243 22.503,0.168 14.243,6.101 z M 255.235,167.229 c -2.646,-13.532 21.538,-3.035 4.544,-3.803 -1.882,0.720 -1.771,5.687 -4.544,3.803 z m 47.169,-0.417 c -0.193,-7.945 -18.604,-0.064 -4.074,-6.082 4.024,-3.451 8.666,8.059 4.074,6.082 z M 18.732,166.549 c -12.182,-17.591 20.937,-4.994 0,0 z m 2.598,-3.571 c 0.070,-6.217 -5.649,2.884 0,0 z m 14.057,3.444 c -2.595,-7.135 13.853,-2.762 1.721,0.269 z M 169.451,164.245 c -2.693,-6.846 4.147,-24.866 4.227,-8.701 0.132,0.268 -3.788,12.348 -4.227,8.701 z m 55.924,-0.259 c -4.930,-3.942 -7.745,-15.616 -0.226,-3.768 7.333,-4.962 5.679,0.778 0.226,3.768 z m 83.104,-2.705 c -9.497,-5.894 -3.396,-5.487 3.155,-5.203 2.926,-10.551 11.536,-10.823 4.495,0.495 -1.289,2.980 -4.264,5.262 -7.650,4.708 z m 38.784,-0.236 c -6.439,-4.333 5.894,-19.536 -7.656,-11.032 -6.979,-3.654 -17.654,-16.196 -13.758,0.117 -5.707,7.749 -6.231,-21.775 5.071,-10.804 5.437,9.060 16.896,4.570 9.332,-5.111 -1.306,-11.398 19.684,-10.335 12.455,-6.904 -16.781,4.188 0.155,17.053 -2.237,25.761 0.235,2.229 1.638,9.920 -3.206,7.974 z m -77.753,-0.706 c 1.712,-3.969 5.045,1.046 0,0 z m -91.287,-2.926 c 1.245,-6.876 14.755,-6.018 0,0 z m 56.478,-1.380 c -2.334,-10.588 23.273,-12.957 18.509,-5.330 -6.734,-9.539 -12.471,6.778 -18.509,5.330 z M 0,153.825 c -0.085,-6.086 21.547,-2.767 5.291,-7.170 -7.121,0.902 -6.873,-8.404 -0.010,-6.473 -7.037,-8.409 -2.114,-25.336 6.492,-30.367 6.746,1.963 -5.411,9.194 -4.214,15.499 -10.749,14.748 14.701,8.854 14.077,16.577 C 4.001,134.402 24.473,154.634 9.792,155.467 7.268,153.950 -1.885,159.568 0,153.825 Z m 119.194,0.255 c -10.741,-4.936 -1.245,-18.741 -0.338,-5.574 2.543,1.072 5.553,6.947 0.338,5.574 z m 271.991,-0.358 c -13.928,-4.795 7.057,-5.082 12.382,-7.191 -0.978,3.850 -8.132,9.121 -12.382,7.191 z m 28.425,-1.170 c -3.514,-11.478 10.943,4.857 0,0 z m -392.624,0.083 c -8.520,1.171 -8.348,-13.577 -1.427,-4.440 11.007,0.275 -6.235,-9.807 1.703,-15.561 -8.155,-11.349 13.973,3.295 2.898,8.112 6.571,4.492 5.375,11.964 -3.174,11.889 z m 328.877,-0.219 c 3.317,-9.368 4.684,1.963 0,0 z m -87.306,-1.325 c -1.637,-8.250 7.394,-1.827 0,0 z m 31.655,-0.581 c -1.305,-3.702 2.543,0.858 0,0 z m -110.078,-1.094 c -0.672,-8.362 4.385,1.705 0,0 z m 110.607,-1.286 c 2.736,-7.868 0.821,-23.228 14.276,-21.094 15.552,5.323 -8.147,29.717 0.584,12.463 2.780,-16.536 -18.647,-6.022 -8.289,4.198 -0.513,2.902 -3.798,4.634 -6.571,4.432 z m -38.661,-0.334 c -10.917,-12.314 -28.446,-1.242 -40.923,-12.312 -4.598,-10.438 15.362,8.834 9.666,-5.853 7.749,12.263 30.344,-7.869 23.060,7.845 1.729,9.642 14.423,-6.659 12.475,4.591 -9.383,-2.617 -5.833,4.187 -0.238,2.736 0.072,1.905 -2.211,3.866 -4.040,2.993 z m -22.969,-11.026 c -1.047,-0.556 -0.247,0.596 0,0 z m 54.007,11.078 c -1.477,-3.817 -6.324,-9.185 3.328,-5.660 1.162,2.207 -0.659,5.801 -3.328,5.660 z M 44.979,145.370 c -11.911,-2.429 -5.031,-4.138 -1.112,-9.240 4.052,14.161 16.059,-7.440 1.168,-2.655 -10.276,4.246 -13.913,-3.039 -1.961,-4.496 15.012,-7.243 20.540,18.077 4.159,14.030 -0.636,1.186 0.084,3.676 -2.253,2.362 z m 105.745,-0.417 c -0.427,-6.408 5.192,-2.914 0,0 z m 6.230,-0.355 c -13.698,-13.042 15.099,2.752 0,0 z m 33.472,0.242 c -10.278,-10.349 5.967,-8.010 0,0 z m 16.079,-0.984 c -0.088,-5.847 2.988,-15.133 5.340,-16.215 -1.488,-16.708 21.244,-14.159 24.987,-28.165 9.349,-5.994 22.807,-1.127 22.597,8.349 13.185,0.507 -3.388,28.365 1.145,7.174 -4.982,-8.492 -19.893,16.112 -14.230,-3.313 -6.535,-2.407 -5.235,14.057 -8.481,0.631 0.017,-5.313 25.334,-6.169 10.911,-10.730 -13.879,-4.000 -15.555,15.459 -29.340,16.409 -8.306,7.487 2.170,24.354 -12.929,25.860 z m 210.211,-1.620 c 0.484,-2.729 0.758,2.353 0,0 z M 201.948,141.814 c -5.629,-8.026 -17.170,-18.672 -11.820,-22.792 -4.228,-12.038 2.843,-1.131 6.010,0.245 7.958,-5.906 -7.614,11.269 4.299,13.166 3.162,-0.129 4.227,10.206 1.510,9.380 z m 148.002,-0.513 c 0.042,-1.779 0.796,1.367 0,0 z m 46.964,-0.187 c -10.112,-4.343 -3.549,-23.157 0.244,-15.410 -13.697,1.584 11.984,16.657 -0.244,15.410 z M 118.008,139.585 c -0.389,-6.583 2.988,3.600 0,0 z m 60.153,-3.165 c 0.913,-9.591 -22.608,-9.865 -5.092,-11.001 2.949,1.910 20.171,14.154 5.092,11.001 z m 78.909,-0.175 c -0.211,-14.592 23.571,0.053 5.436,-1.582 -1.809,0.263 -3.702,2.877 -5.436,1.582 z m -51.423,-0.816 c -1.371,-1.262 2.346,-0.008 0,0 z m 124.964,-0.218 c -14.239,-4.573 15.548,-25.491 3.014,-9.527 -6.767,12.906 4.963,-0.910 7.282,-2.526 -0.515,4.035 -4.359,14.043 -10.296,12.053 z m -210.226,-0.493 c 1.127,-2.850 1.880,0.379 0,0 z M 67.385,130.722 c -7.198,-4.378 -9.390,-19.560 -0.294,-6.184 1.039,6.330 11.977,3.991 0.294,6.184 z m 51.943,-1.243 c -2.197,-6.493 4.744,3.958 0,0 z m 103.316,0.203 c -2.343,-10.064 6.892,-12.949 3.304,-1.783 -0.273,0.949 -2.091,2.860 -3.304,1.783 z m 185.417,-0.066 c -2.245,-3.736 11.808,-4.383 2.168,0.472 l -2.168,-0.472 z m -170.241,-0.856 c -8.359,-5.674 11.105,1.398 0,0 z m 45.944,0.218 c -8.008,1.125 -17.026,-14.144 -4.142,-5.866 2.800,5.255 13.962,2.206 4.142,5.866 z m -23.944,-1.433 c -7.982,-5.401 4.910,-4.012 0.890,0.341 z m -56.833,-2.073 c -2.575,-11.926 11.929,1.473 3.787,-1.442 -0.894,-3.472 -1.788,5.389 -3.787,1.442 z m -129.678,-0.089 c 0.376,-9.259 -4.110,-9.592 -11.327,-14.179 10.261,-6.395 16.990,10.708 11.327,14.179 z m 300.696,-1.051 c -16.680,2.507 -11.274,-14.461 -18.547,-21.254 6.730,0.747 23.238,3.609 23.473,-4.292 -13.693,-3.106 13.998,-17.240 5.971,-6.883 14.423,2.758 -5.388,-18.339 12.672,-12.444 7.838,4.094 -12.619,4.325 -2.591,12.226 12.443,7.558 6.089,7.627 0.474,6.753 11.095,4.591 13.398,28.578 -0.676,18.636 -6.600,0.870 -13.112,-2.631 -14.363,6.928 l -3.173,0.725 -3.238,-0.395 z m 1.438,-1.889 c 3.855,-9.286 11.247,-11.205 21.502,-6.957 10.636,-8.547 -11.814,-21.104 -17.488,-9.089 -10.575,-1.223 -22.866,9.975 -7.745,16.296 z m 9.007,-25.207 c 11.233,-0.921 0.416,-6.992 -1.299,0.535 z m -3.805,-3.848 c -0.526,-2.384 -1.990,1.410 0,0 z m 32.735,30.099 c -3.105,-3.402 3.630,-10.618 -5.074,-5.986 -5.536,-9.899 19.278,-4.023 13.847,0.253 -2.752,1.297 -6.147,7.375 -8.772,5.733 z m -236.995,-0.065 c -1.470,-4.433 -19.501,-10.846 -10.121,-11.508 3.082,2.173 20.690,7.367 10.121,11.508 z m -79.880,0.006 c 0.691,-4.343 6.593,0.076 0,0 z m 217.421,-1.808 c -11.985,-2.795 -10.276,-16.313 -2.400,-20.067 -5.264,-7.685 -15.991,15.779 -20.837,-1.753 -3.768,-9.885 18.806,-12.317 5.115,-2.740 1.536,12.049 14.242,-13.881 19.496,1.738 6.670,7.942 -17.904,14.253 -0.861,19.302 19.268,7.361 23.206,-25.451 4.127,-26.925 15.694,-7.902 24.373,23.238 8.984,31.419 -4.467,-0.143 -9.715,2.047 -13.623,-0.973 z M 35.032,121.429 c -8.213,-16.144 18.985,-1.928 0,0 z m 85.562,0.154 c -11.249,-7.850 6.032,-2.074 8.939,-9.914 9.696,4.842 16.013,1.576 6.573,-7.919 -5.373,4.400 -29.334,-9.825 -12.161,-5.603 8.730,2.574 16.583,1.677 20.627,11.126 6.676,0.422 5.892,11.241 15.698,8.799 1.572,8.832 -14.804,-3.800 -21.597,-0.741 -10.140,-3.742 -10.485,-0.163 -18.079,4.251 z m -26.662,-0.658 c -3.921,-7.027 8.076,-15.010 8.573,-6.527 -7.986,-4.328 -3.927,6.820 -8.573,6.527 z m 139.651,-0.652 c -8.855,-4.172 9.561,0.209 0,0 z M 44.723,119.910 c -3.726,-2.794 4.451,0.233 0,0 z m 2.835,-0.068 c 2.826,-4.116 4.496,-10.677 -2.129,-3.817 -10.260,-13.904 18.974,-6.326 2.129,3.817 z m 136.326,-0.226 c 3.412,-5.130 2.801,1.874 0,0 z m 88.635,-0.151 c -5.873,-7.046 10.496,-11.446 8.460,-2.985 -6.797,-4.128 -3.303,0.904 -8.460,2.985 z m 74.985,-1.254 c -14.529,-3.998 6.151,-12.790 1.399,-3.600 7.670,-13.339 9.951,7.977 -1.399,3.600 z M 201.546,117.430 c 0.862,-4.545 9.423,-2.579 1.481,0.123 z m -95.801,-4.491 c 1.359,-7.144 11.699,-1.288 0,0 z m -79.919,-0.506 c 9.359,-8.105 -14.022,-15.097 -13.062,-6.872 -2.296,-17.383 26.614,3.529 13.062,6.872 z m 161.863,-0.895 c -9.128,-13.629 2.733,-34.798 18.820,-23.480 5.776,7.851 -4.265,26.962 -3.039,8.429 4.655,-14.448 -20.895,-6.538 -13.482,4.839 -1.205,1.951 1.607,10.974 -2.298,10.211 z m 106.268,-0.412 c 1.245,-1.213 -0.495,1.347 0,0 z M 114.476,110.285 c -1.458,-7.496 3.179,1.017 0,0 z m -74.528,-0.570 c -7.795,-4.663 4.991,-9.847 2.057,-3.332 4.940,-2.065 0.842,6.041 -2.057,3.332 z m 139.439,-0.039 c 4.190,-3.637 1.125,-17.632 3.832,-4.513 -0.515,1.321 -1.560,5.551 -3.832,4.513 z m -3.625,-1.047 c -5.881,-6.592 6.117,1.260 0,0 z m 238.819,-0.473 c -1.482,-12.841 8.378,-1.615 0,0 z m -192.208,-0.582 c 0.338,-6.916 15.622,-2.962 2.475,0.214 l -2.475,-0.214 z m 50.803,-0.079 c 0.980,-11.786 -10.631,2.311 -4.677,-9.718 -10.103,1.303 -11.320,-8.529 -17.775,-11.234 0.400,-7.067 -8.821,-15.954 3.486,-7.095 -5.326,15.538 24.667,-8.264 19.462,11.768 -0.822,3.254 8.683,14.432 -0.495,16.280 z M 266.438,92.343 c 13.141,-8.080 -7.888,-5.187 -2.120,0.385 l 2.120,-0.385 z m 53.357,15.305 c -0.078,-4.071 4.751,-1.176 0,0 z M 68.322,105.766 c -12.995,-8.023 6.532,-19.192 3.351,-5.433 -12.252,-11.311 5.272,10.931 -3.351,5.433 z m -0.467,-8.772 c -0.096,-1.303 -0.843,0.880 0,0 z m 146.022,7.999 c 1.130,-5.797 3.734,-10.541 0.983,-15.391 10.537,-0.512 2.267,16.308 -0.983,15.391 z m -51.843,0.459 c -6.7,-6.283 -2.958,-9.405 1.431,-0.917 l -0.377,1.023 z m 65.834,-4.610 c -3.099,-9.497 17.134,-12.174 2.951,-20.557 -2.287,-5.968 -2.764,-23.547 -13.356,-10.846 -2.417,2.705 6.779,24.311 -3.698,16.946 -1.767,-11.679 0.595,-28.325 17.068,-23.751 0.144,-10.274 8.115,5.684 1.848,8.312 5.407,9.337 13.136,22.536 -2.046,28.543 -0.809,0.250 -1.812,3.913 -2.765,1.352 z m -59.857,-0.162 c -1.953,-4.958 3.561,2.317 0,0 z m -15.323,-2.016 c -7.637,-15.924 11.143,5.563 0,0 z M 17.594,96.405 c -9.069,-7.728 29.468,0.321 16.813,-14.905 -7.051,2.322 -14.782,-2.517 -17.616,7.120 -8.051,-6.400 5.724,-20.858 13.200,-8.843 12.509,6.402 8.188,-21.343 20.225,-7.442 -4.377,-2.252 -12.596,6.123 -2.750,4.982 13.080,-3.873 -3.578,7.806 -7.156,5.997 -0.782,9.058 -14.752,14.442 -22.715,13.091 z M 177.379,95.965 c -4.429,-7.026 11.919,-20.577 6.607,-6.026 -1.801,2.059 -3.888,5.271 -6.607,6.026 z M 129.116,94.948 c -14.102,-6.459 11.829,-20.294 -0.465,-5.552 12.124,8.860 21.139,-17.703 30.997,-23.972 9.971,-5.306 11.804,12.950 1.335,1.653 -13.062,16.512 13.237,6.682 21.353,9.363 -0.612,7.606 -28.354,-1.089 -26.233,8.422 6.844,3.604 8.482,15.234 -0.367,5.181 -9.555,-10.753 -13.977,12.047 -26.620,4.904 z m 232.473,-0.571 c 3.098,-2.808 9.788,-7.842 -1.574,-5.563 -6.706,-5.868 18.276,-7.381 9.287,4.284 -1.901,1.413 -5.621,3.072 -7.713,1.278 z M 0.386,90.249 C 5.824,83.607 3.519,81.394 0.066,76.469 3.304,66.613 16.944,93.158 0.386,90.249 Z M 6.746,80.309 c -1.541,-2.427 -2.124,2.415 0,0 z M 336.909,89.024 c -8.004,-2.140 -13.948,-11.019 -18.868,-3.014 1.721,-19.121 -14.152,6.529 -14.217,-1.315 3.743,-11.499 17.120,-4.308 19.515,-11.119 0.200,8.616 19.767,8.705 13.570,15.449 z M 100.673,88.551 c -8.031,-4.361 6.397,-0.587 0,0 z m 19.623,0.044 c -0.766,-4.151 5.391,0.102 0,0 z M 64.293,87.798 C 52.995,81.604 59.316,72.848 66.079,84.337 78.128,87.359 79.703,58.232 80.067,77.965 77.068,83.815 71.271,88.641 64.293,87.798 Z M 345.051,85.134 c -1.900,-3.474 -13.447,-12.029 -1.658,-8.000 8.913,4.768 -1.337,-11.553 -2.907,-9.717 -0.069,-11.360 2.090,-4.998 5.584,-1.485 4.875,-0.675 -2.444,12.321 8.396,12.267 5.006,1.514 12.765,-10.735 8.479,1.310 -6.586,7.869 -14.480,-2.576 -17.895,5.625 z m 70.334,0.396 c -0.375,-5.610 -11.528,-9.046 0.082,-8.300 3.988,0.304 3.227,11.296 -0.082,8.300 z m -137.095,-1.277 c -4.877,-8.056 -2.982,-3.713 2.350,-3.540 -4.057,-14.615 12.478,7.287 -2.350,3.540 z m -20.288,-1.659 c 2.127,-6.932 -19.314,-15.723 -3.088,-10.546 3.766,-0.428 5.931,11.261 3.088,10.546 z M 98.988,81.273 c -2.020,-6.558 10.030,0.009 0.903,0.355 z M 87.155,79.522 c -9.502,-10.061 16.168,-8.209 6.828,-3.597 -7.155,-5.224 -6.792,2.970 -3.226,3.229 -1.117,0.454 -2.378,1.522 -3.602,0.368 z m 48.125,-0.103 c -0.495,-5.835 11.284,-11.289 8.531,-20.410 8.424,-1.210 -1.751,23.683 -8.531,20.410 z m -12.159,-0.316 c -3.051,-10.801 18.638,-9.861 3.743,-4.326 -0.599,1.319 -1.403,5.650 -3.743,4.326 z m 80.871,0.042 c 1.123,-3.271 1.834,0.833 0,0 z m 94.495,-0.610 c -7.059,-5.610 2.808,-19.208 0.521,-3.834 2.653,2.425 6.743,5.444 -0.521,3.834 z m -100.368,-1.808 c -16.723,1.491 -0.177,-28.720 -2.032,-13.088 -6.702,8.251 5.483,8.924 2.032,13.088 z m 224.021,-1.046 c -8.632,-6.441 7.712,-12.333 0,0 z M 305.911,75.490 c -5.153,-7.520 4.095,-1.765 0,0 z m 68.938,-0.980 c -5.406,-4.901 26.715,-6.190 16.130,0.236 -5.898,-4.280 -9.813,-0.540 -16.130,-0.236 z M 97.647,72.170 C 86.032,69.451 94.749,49.706 95.713,64.573 c 1.353,9.459 19.630,-3.561 7.580,7.417 l -2.846,0.920 z m -72.855,0.281 c -8.660,-0.040 -11.946,-18.219 -3.461,-12.584 -1.564,12.294 13.144,7.861 9.360,-0.992 5.499,1.392 2.711,17.097 -5.899,13.576 z M 312.659,72.227 c -14.798,-12.381 20.457,0.768 0,4e-6 z m -142.400,-0.487 c 0.165,-2.697 4.349,0.784 0,0 z m -53.313,-0.958 c -8.403,-7.444 -3.598,-18.942 2.562,-5.152 0.068,1.413 0.570,7.395 -2.562,5.152 z m 85.284,0.250 c -10.632,-6.909 20.126,-11.325 3.483,-2.446 -2.088,-0.537 -1.717,3.108 -3.483,2.446 z M 67.909,70.869 c -0.467,-2.009 3.535,0.954 0,0 z m -6.075,-0.622 c -6.114,-11.251 10.838,2.227 0,-2e-6 z m -8.057,-1.590 c -2.173,-12.517 13.991,-7.059 0,0 z M 273.777,67.036 c -1.432,-7.486 20.297,-0.260 5.182,0.043 l -3.157,0.151 z m 126.342,-2.141 c 0.791,-12.222 7.520,-1.597 -0.014,1.394 l 0.014,-1.394 z M 172.233,64.507 c -5.900,-11.016 10.043,-4.223 0,0 z M 44.137,64.591 c -9.433,-6.874 -1.061,-4.910 3.405,-4.785 7.635,-4.855 1.435,8.068 -3.405,4.785 z M 237.045,64.127 c -1.747,-11.831 9.481,-0.854 0,0 z m 19.071,-0.247 c -14.018,-10.516 27.279,-0.575 7.914,0.262 -2.611,-0.865 -5.425,1.173 -7.914,-0.262 z m 158.748,0.287 c -12.323,-4.107 4.491,-8.292 1.871,-0.315 z M 358.894,63.945 c -10.612,2.442 -9.161,-8.184 -0.315,-4.343 0.429,0.600 3.968,5.682 0.315,4.343 z m -49.413,-1.300 c -2.565,-7.295 7.571,-2.893 0,0 z m 108.752,-1.852 c -4.411,-5.074 6.952,0.375 0,0 z M 100.642,60.078 c -2.805,-6.514 2.338,2.291 0,0 z"
				style="fill:#ccc;stroke-width:1;fill-opacity:1"/>
		<path
				id="path978"
				d="m 6.200,296.291 c 2.045,-4.540 1.545,2.914 0,0 z m 74.238,-0.416 c 0.497,-8.418 12.560,-1.652 3.613,-1.124 1.532,2.232 -4.781,3.464 -3.613,1.124 z m 13.762,0.437 c 11.028,-12.735 5.693,4.550 0,0 z m 307.713,0.488 c 1.226,-5.628 6.406,2.454 0,0 z m -28.984,-0.550 c -1.646,-2.782 6.103,-15.134 -4.652,-7.429 -11.175,13.718 1.178,-14.557 9.119,-1.226 2.349,3.299 -0.336,8.855 -4.466,8.655 z m -197.246,-0.250 c 1.524,-5.284 -0.080,-18.408 2.362,-5.101 -0.213,1.100 -0.479,5.394 -2.362,5.101 z M 73.167,295.516 c 2.211,-11.305 13.040,-3.182 0,0 z m 210.242,0.094 c 0.789,-7.545 6.700,-0.913 0,0 z m 27.020,-0.456 c -1.496,-6.779 17.360,-2.128 2.171,0.504 z m -85.605,0.097 c -1.800,-2.056 1.520,-0.407 0,0 z m 11.095,-0.281 c -0.565,-9.595 17.003,-5.647 1.859,-1.882 -1.155,-0.440 -0.693,2.680 -1.859,1.882 z m -123.926,-1.916 c -13.857,-18.961 11.247,1.055 0,0 z m 42.787,0.123 c 3.594,-11.272 14.169,-8.004 0,0 z m 36.647,-0.609 c -13.063,-7.721 7.746,-0.467 0,0 z m 29.892,-1.365 c -17.609,-8.396 10.757,1.935 0,0 z M 2.381,292.233 c 0.150,-2.158 4.495,1.225 0,0 z m 383.003,-0.676 c 3.109,-11.840 13.960,-2.156 0,0 z M 71.371,291.157 c -1.101,-5.362 5.431,-0.985 0,0 z m 272.166,-2.145 c -4.923,-6.095 7.900,3.931 0,0 z m -135.211,0.186 c -14.464,-8.218 15.854,1.044 0,0 z m -80.270,-0.648 c -2.686,-5.252 -25.357,-11.321 -8.120,-9.011 2.278,0.763 17.687,9.336 8.120,9.011 z m 91.365,-2.573 c -10.919,-8.999 13.055,-2.201 6.972,0.886 -2.249,0.235 -5.126,1.043 -6.972,-0.886 z m 120.500,0.396 c -2.614,-2.371 3.144,1.025 0,0 z m -30.745,-2.404 c -5.315,-10.144 5.543,-12.825 2.149,-0.247 -0.380,0.833 -1.545,0.670 -2.149,0.247 z m -126.093,-0.603 c 1.656,-12.953 9.318,-2.315 0,0 z M 60.721,283.160 c -2.514,-5.297 15.357,-5.504 2.355,0.151 z m 137.186,-0.120 c -5.747,-3.910 2.545,-3.399 0,0 z m -35.013,-0.504 c -4.057,-16.345 25.103,-13.981 14.079,-0.191 0.678,-16.699 -10.443,-8.967 -14.079,0.191 z M 45.239,280.415 c -1.536,-10.532 10.919,-4.089 0,0 z m 184.480,0.679 c 0.830,-9.104 24.474,-8.763 7.210,-2.063 -2.527,0.303 -4.604,2.178 -7.210,2.063 z m -95.972,-1.519 c -10.210,-2.312 -7.363,-15.744 -0.687,-4.279 3.947,-0.958 6.580,7.870 0.687,4.279 z m 56.491,-1.754 c -0.318,-3.439 3.593,1.858 0,0 z m 92.726,-1.469 c 4.099,-6.017 11.645,1.517 0,0 z m -64.222,-0.144 c -0.115,-6.378 9.154,-3.043 0,0 z m 161.991,-1.036 c -2.529,-7.895 4.273,3.910 0,0 z m -271.230,-0.494 c -9.075,-8.020 6.696,1.169 0,0 z m -16.633,0.166 c 2.477,-9.469 5.448,-0.788 0,0 z m 185.550,-0.896 c -2.794,-7.377 13.810,-11.091 0,0 z m 53.528,-1.745 c -5.889,-7.646 2.468,-14.271 1.562,-1.877 l -0.107,3.509 z M 51.064,271.350 c 1.323,-7.576 17.911,-8.688 4.501,-2.034 -0.580,0.064 -3.893,3.794 -4.501,2.034 z M 0,270.283 c 3.096,-6.340 0.164,5.895 0,0 z m 224.102,0.656 c 4.979,-7.713 16.363,0.917 2.401,0.181 z m -78.266,-0.409 c -0.880,-9.089 4.267,2.333 0,0 z m 143.579,0.208 c -6.305,-4.099 1.549,-3.684 0.681,0.296 z M 72.049,269.845 c 3.232,-9.790 12.318,-0.199 0,0 z m 85.245,0.076 c -7.573,-4.229 -2.046,-8.211 3.015,-3.084 3.464,-1.428 3.484,-9.884 3.902,0.529 -1.276,2.395 -4.411,3.373 -6.917,2.554 z M 3.881,267.703 c -3.859,-6.284 -4.900,-19.260 1.737,-6.422 -0.454,1.707 0.172,5.573 -1.737,6.422 z M 115.536,266.687 c -5.366,-4.369 -13.346,-20.386 -2.449,-6.532 0.646,4.639 12.223,7.230 2.449,6.532 z m -68.166,-0.362 c 2.275,-4.616 8.439,-15.588 7.650,-3.490 -1.681,1.614 -5.220,4.757 -7.650,3.490 z m 141.719,-0.722 c 2.823,-6.937 6.547,-0.042 0,0 z m -51.439,-3.024 c 2.062,-8.015 13.155,-5.338 1.711,-0.119 z M 28.249,261.611 c -11.751,-14.145 8.215,-1.083 0,0 z m 51.038,-0.241 c -9.245,0.847 -15.951,-11.484 -3.232,-4.621 0.178,1.203 5.551,4.473 3.232,4.621 z m 336.439,-2.921 c 0.896,-6.634 14.774,-1.326 0.832,0.150 l -0.832,-0.150 z M 91.994,258.177 c -0.632,-3.848 12.785,-8.517 5.474,-15.484 4.770,-15.586 6.104,20.276 -5.474,15.484 z m 62.639,-0.455 c 2.951,-9.576 19.286,-19.914 24.306,-7.993 -11.529,-6.572 -13.704,6.795 -24.306,7.993 z m -76.312,-2.301 c -13.727,-5.084 5.830,-18.656 5.985,-9.710 -16.718,-2.982 1.163,13.701 -5.985,9.710 z m 320.423,0.073 c -0.417,-11.007 10.893,-4.842 0,0 z m -90.357,-0.628 c 4.134,-9.787 6.343,1.019 0,0 z m -178.940,-0.901 c -4.961,-5.589 6.814,2.646 0,0 z M 273.978,251.759 c -1.911,-3.683 5.102,3.152 0,0 z M 49.279,251.614 c 1.229,-8.071 -14.540,-13.703 -2.443,-11.152 0.905,2.286 7.401,10.586 2.443,11.152 z m 369.291,-0.848 c -7.152,-6.686 11.109,2.284 0,3e-5 z m -273.683,0.306 c -0.414,-4.327 1.055,1.506 0,0 z m 223.075,-1.192 c -5.981,1.684 -18.468,-6.373 -5.540,-3.808 2.423,-4.215 9.178,6.411 5.540,3.808 z m 5.681,-2.675 c -1.450,-4.618 2.118,1.239 0,0 z m -149.743,-0.474 c -8.507,-7.802 8.382,1.265 0,0 z m 114.790,-0.691 c -1.606,-10.308 6.756,-0.488 0,0 z m -158.816,-2.286 c -10.595,-25.051 8.339,-1.878 0,0 z m 99.966,0.948 c 6.949,-3.692 10.365,-10.928 15.180,-17.940 0.660,9.983 -4.413,17.915 -15.180,17.940 z M 20.968,243.114 c 3.925,-4.985 4.155,-19.254 8.105,-7.111 -1.920,2.750 -4.815,6.370 -8.105,7.111 z M 240.366,242.748 c 0.741,-3.165 3.901,1.389 0,0 z m -87.614,-0.405 c 2.416,-5.575 17.565,-17.912 20.319,-11.555 -7.818,2.745 -12.755,10.173 -20.319,11.555 z m 93.908,0.012 c -3.342,-7.407 -30.116,-10.743 -9.477,-8.407 4.978,-3.370 14.610,5.882 9.477,8.407 z m 27.225,-0.269 c 0.918,-6.427 -4.572,-28.475 1.441,-11.496 -0.001,2.958 3.042,12.130 -1.441,11.496 z M 74.408,239.585 c -4.708,-4.444 13.473,-1.802 0,0 z M 408.328,238.592 c -7.873,-10.788 9.251,3.339 0,0 z m -31.490,0.030 c -6.739,-2.849 -9.385,-19.135 -1.671,-7.238 4.768,7.757 20.006,0.945 4.556,6.903 l -1.984,0.761 z m -168.611,0.067 c -4.098,-10.547 20.990,-17.899 5.109,-7.265 -2.376,2.003 -1.081,7.012 -5.109,7.265 z m 145.785,-0.702 c 2.282,-6.582 2.906,0.756 0,0 z m -46.831,-0.805 c -7.775,-4.311 -6.717,-19.599 0.400,-5.187 4.174,3.114 13.426,-6.310 5.848,4.807 -1.883,1.041 -4.257,1.266 -6.249,0.379 z m -105.682,-1.367 c -1.142,-3.560 2.357,1.258 0,0 z m -57.820,-0.420 c -4.293,-4.939 7.327,0.924 0,0 z m -65.698,-0.754 c -0.667,-3.543 1.616,2.417 0,0 z m 289.217,0.174 c -9.388,-10.357 7.397,-1.314 0,0 z M 82.483,231.896 c -6.002,-10.938 5.855,-3.813 0,0 z m 58.357,0.072 c -5.027,-10.298 19.378,-25.602 7.686,-10.935 -4.959,3.011 -5.757,6.765 -7.686,10.935 z m 279.061,-0.853 c -5.764,-5.901 10.444,0.460 0,0 z m -221.404,-0.746 c -3.917,-7.071 -2.226,-16.425 0.993,-4.513 -2.494,-1.302 1.757,6.078 -0.993,4.513 z m 127.963,-0.481 c 0.929,-7.915 2.700,-15.710 -2.441,-3.378 -16.061,12.252 11.644,-27.219 7.607,-10.011 6.824,-2.524 18.265,-15.989 10.472,-3.104 -6.978,2.479 -13.296,11.561 -15.639,16.495 z m 68.566,-2.009 c -10.142,-6.393 10.833,-14.787 1.529,-6.785 -5.620,9.196 12.727,4.630 -1.529,6.785 z m -236.992,-0.107 c 6.285,-4.572 11.275,-3.987 0.879,0.412 l -0.879,-0.413 z m 197.041,0.048 c 2.422,-13.640 -17.380,3.841 -7.800,-8.470 6.161,-6.124 31.480,3.133 13.888,1.894 -5.351,-0.526 7.231,10.311 -2.980,3.749 -1.237,0.434 -1.962,3.958 -3.107,2.826 z m -94.069,-0.145 c -0.038,-5.904 4.603,-1.208 0,0 z m 119.475,-0.904 c 1.024,-10.028 5.799,-3.818 0,0 z M 90.173,225.381 c 1.159,-0.379 0.114,0.509 0,0 z m 200.247,-1.177 c -4.355,-5.321 7.451,-13.630 -5.568,-12.014 -7.552,-5.471 -0.177,-16.473 1.268,-3.117 12.677,-1.934 7.256,14.446 4.300,15.132 z M 63.500,220.835 c 1.337,-4.212 0.792,3.497 0,0 z m 158.044,-0.186 c -1.069,-8.619 5.218,-0.694 0,0 z M 246.38,220.482 c -1.045,-2.358 2.820,1.583 0,0 z m 169.868,-0.169 c -5.120,-5.626 3.652,-12.308 0.175,-2.747 0.040,-0.492 1.369,4.041 -0.175,2.747 z m -229.139,-0.628 c -1.157,-2.285 1.487,0.757 0,0 z m -50.742,-2.458 c 1.309,-4.332 6.893,-5.590 1.138,0.662 z m -23.301,-1.706 c -6.660,-5.985 -8.169,-9.685 -16.629,-12.412 -3.681,-9.916 3.540,-8.179 5.356,-0.476 3.819,1.117 22.075,11.754 11.273,12.888 z m 94.897,-1.776 c -15.263,-2.163 6.399,-5.659 2.248,0.678 z m 108.738,-0.489 c 4.401,-7.984 13.795,-0.732 0,0 z m 69.855,-0.486 c 5.270,-9.795 9.375,0.091 0,0 z M 5.688,211.841 c -8.960,-11.116 5.617,0.387 0,0 z m 80.292,-0.175 c -6.561,-9.564 7.530,3.929 0,0 z m 63.089,0.009 c -4.061,-5.794 4.963,3.630 0,0 z m 19.734,-0.079 c 0.686,-1.884 1.217,0.360 0,0 z m 208.227,-0.096 c -12.052,0.614 -21.854,-12.192 -31.952,-9.862 15.215,-9.757 25.088,12.324 41.198,5.398 1.405,2.365 -7.003,5.761 -9.246,4.463 z m 24.604,-1.264 c -6.911,-3.978 16.663,-3.076 1.877,0.181 z m -382.319,-0.686 c -9.307,-9.488 9.970,-0.859 15.873,-4.423 9.852,7.542 -12.894,2.366 -15.873,4.423 z m 47.953,-0.154 c -0.386,-9.089 12.903,-8.758 3.683,-0.555 l -2.162,0.731 z m -5.886,-0.795 c -13.304,-7.588 15.949,-23.742 2.422,-10.774 -10.596,7.286 5.396,10.368 -2.422,10.774 z M 260.653,208.422 c 0.423,-4.662 12.824,-11.647 7.681,-14.185 4.657,-4.045 5.643,-17.743 7.731,-4.069 -11.904,10.876 7.675,3.587 2.925,-5.652 9.586,-1.441 -5.956,20.309 -13.483,21.183 -0.384,2.109 -2.915,3.797 -4.855,2.724 z m -112.493,-0.736 c 0.124,-8.070 15.899,-8.306 4.239,-1.954 -1.128,-4.189 -3.298,5.055 -4.239,1.954 z m 159.180,-0.203 c 3.927,-6.094 2.853,1.460 0,0 z m -259.934,-0.259 c -1.119,-10.859 6.801,-1.481 0,0 z m 74.242,0.149 c 0.627,-10.929 -22.736,-11.172 -19.677,-17.918 6.640,8.058 28.272,3.278 19.677,17.918 z m 78.693,-0.580 c 1.381,-6.217 18.817,-15.111 21.599,-18.808 -0.453,11.304 -14.134,11.508 -19.800,18.912 z m 95.776,-1.189 c -5.184,-3.620 -7.422,-17.824 0.780,-13.372 -10.167,3.293 6.881,11.728 -0.780,13.372 z m 100.600,-0.826 c 1.527,-16.162 1.899,1.491 0,0 z m 14.579,-0.374 c 1.870,-3.231 7.204,0.053 0,0 z m -76.298,-0.505 c 1.474,-6.801 10.091,-13.229 3.989,-1.660 -0.795,1.019 -2.535,2.458 -3.989,1.660 z m -191.860,-1.693 c -4.738,-6.900 9.451,-23.498 10.316,-15.797 -5.034,2.606 -4.152,16.227 -10.316,15.797 z m 278.891,-0.342 c -2.832,-5.177 5.365,1.696 0,0 z m -95.654,-1.762 c -7.148,-13.400 23.927,-13.328 3.693,-6.602 -2.171,1.115 -1.843,6.444 -3.693,6.602 z m -13.692,-0.339 c -16.859,-4.609 -0.607,-10.254 1.155,0.141 z M 50.806,194.487 c 3.912,-4.487 -7.864,-21.763 2.184,-12.699 4.305,2.597 2.057,16.972 -2.184,12.699 z m 140.210,0.890 c -2.296,-11.657 5.610,-3.731 0,0 z m -5.951,-1.234 c -3.261,-9.708 5.101,0.014 0,0 z m 100.853,0.279 c -0.772,-8.860 9.145,-4.805 0,0 z m 75.627,-3.242 c 2.103,-9.269 23.085,0.367 6.246,-1.294 0.253,-1.580 -7.695,4.202 -6.246,1.294 z m -7.068,-1.137 c -6.514,-11.042 4.870,-1.666 0,0 z m -109.076,-1.161 c -5.696,-5.775 7.638,0.434 0,0 z m 161.263,-1.974 c -8.744,-0.287 -16.982,-2.518 -2.698,-3.915 2.669,-1.497 9.456,6.906 2.698,3.915 z m -307.067,-0.837 c -7.428,-14.458 15.110,7.533 0,0 z m 109.027,0.695 c -4.317,-7.636 -9.404,-5.853 -12.962,-2.908 1.243,-7.654 -11.311,-7.795 -0.279,-9.104 6.778,-7.494 2.101,3.737 11.357,4.844 3.996,5.048 17.040,3.976 3.578,7.492 l -1.694,-0.324 z m 120.128,-0.318 c 7.794,-0.972 23.107,-24.842 12.013,-5.751 -0.828,4.788 -10.123,6.636 -12.013,5.751 z M 0,184.636 C -1.781,165.093 33.019,187.982 12.947,180.049 6.865,172.819 2.443,191.006 0,184.636 Z m 60.223,0.586 c 3.114,-1.784 12.900,-17.558 15.772,-11.025 -7.147,-0.107 -8.798,12.551 -15.772,11.025 z m 66.603,-0.550 c 1.790,-8.193 17.336,-4.251 15.347,-10.098 4.681,3.530 21.742,1.760 15.628,9.728 -3.394,-7.710 -19.082,0.576 -27.313,-1.135 -1.102,-1.656 -2.679,3.248 -3.662,1.506 z m 246.765,-0.372 c -15.817,-12.272 14.231,2.021 0,0 z M 57.611,183.497 c -8.941,-14.459 2.008,-10.072 0,0 z m 47.860,-1.093 c -4.036,-3.725 5.502,-2.684 2.492,-8.905 5.252,8.864 24.177,-2.619 24.446,4.063 -10.070,1.916 -18.869,2.370 -24.963,5.641 l -1.975,-0.800 z m 220.025,0.510 c 0.961,-1.388 0.889,1.177 0,0 z m 94.990,-1.448 c -1.963,-5.105 9.282,1.608 0,0 z m -169.399,-0.676 c -5.902,-1.458 -19.235,0.003 -6.446,-5.320 1.621,-1.251 12.931,5.811 6.446,5.320 z m 9.525,-0.316 c 4.413,-6.133 6.604,2.339 0,0 z m 15.213,-0.798 c -15.190,-10.747 10.176,0.39 0,0 z m 97.136,-1.058 c -14.355,-4.666 9.293,-26.697 5.846,-16.187 -11.190,5.786 -3.872,19.920 6.396,8.996 6.690,2.859 10.616,5.525 18.098,2.662 -3.712,12.338 -18.854,-6.078 -26.863,4.602 z m 37.778,-1.243 c 1.154,-3.990 4.232,-0.041 0,0 z M 0,174.604 c 6.667,-12.951 10.365,2.455 0,0 z m 84.754,0.197 c -10.977,-6.288 9.999,0.820 0,0 z m 146.908,-0.008 c -2.760,-5.610 10.074,1.167 0,0 z m 53.898,-0.532 c -6.456,-3.324 -13.003,-14.959 -1.207,-6.770 1.205,1.396 8.298,11.143 1.207,6.770 z m 135.438,0.485 c -0.555,-8.302 6.274,1.882 0,0 z m -126.486,-1.064 c -11.550,-7.679 1.747,-4.621 5.099,-1.615 -0.863,1.809 -3.514,1.791 -5.099,1.615 z m -247.682,-1.801 c 0.683,-3.678 1.930,-0.578 0.169,0.764 z m 133.585,0.354 c -1.410,-5.261 1.696,0.352 0,0 z M 54.504,169.397 c 1.354,-6.357 1.458,3.513 0,0 z m 66.807,0.839 c -7.636,-2.653 0.663,-15.788 0.861,-3.885 5.493,0.206 4.175,5.541 -0.861,3.885 z M 328.961,169.716 c -8.466,-6.531 0.569,-20.570 0.925,-4.456 1.877,0.991 2.362,6.519 -0.925,4.456 z m -225.765,-0.449 c 2.143,-7.577 2.213,-11.630 -1.004,-20.829 4.586,-1.744 9.013,19.668 1.004,20.829 z m 127.650,-0.063 c 2.143,-4.535 3.519,0.546 0,0 z M 2.778,167.740 c -11.213,-6.441 8.937,-3.720 0,0 z m 150.742,-0.013 c -5.748,-3.420 -7.187,-10.528 -9.316,-11.491 -0.734,-12.408 -1.206,-7.836 4.874,-2.600 5.057,-0.927 -1.091,15.639 10.998,10.699 10.201,3.683 -3.660,4.565 -6.556,3.393 z m 210.365,0.136 c -7.965,-4.409 -2.168,-18.658 -2.469,-4.752 -0.189,1.035 6.384,5.270 2.469,4.752 z m -107.652,-1.933 c 1.275,-9.097 14.508,-4.195 1.716,-1.653 0.163,-0.042 -1.262,3.746 -1.716,1.653 z M 36.921,165.521 c 1.074,-5.452 8.147,-0.343 0,0 z m 24.069,-0.419 c -7.037,-3.684 13.884,-0.185 0,0 z m -38.880,-0.101 c 1.673,-5.511 -4.096,-9.429 2.689,-2.726 -0.313,1.257 -1.230,2.725 -2.689,2.726 z m 58.196,-0.587 c -3.964,-5.410 14.435,-0.253 0,-2e-5 z m 266.903,-4.758 c -3.354,-5.868 3.340,-21.845 2.519,-5.632 1.302,1.556 0.808,9.090 -2.519,5.632 z m -37.169,0.067 c -10.836,-3.016 6.503,-1.401 6.830,-9.540 0.987,3.239 -2.544,11.515 -6.830,9.540 z M 169.680,158.720 c 0.086,-12.648 6.848,-2.688 0,0 z m 196.238,-1.266 c 0.759,-4.843 0.982,2.704 0,0 z M 3.241,155.250 c -12.979,-3.428 22.912,-5.199 3.108,-8.557 -20.128,-6.141 16.806,-7.286 6.867,6.501 -2.346,3.017 -6.701,1.994 -9.976,2.056 z M 235.845,154.537 c 3.007,-9.207 6.711,0.350 0,0 z m 156.166,-1.681 c -0.472,-4.965 17.122,-4.719 1.833,0.730 z m -26.341,-0.288 c -6.907,-8.061 3.388,-2.011 0,0 z m 56.081,0.203 c -5.804,-4.697 5.533,-0.231 0,0 z m -303.747,-1.027 c -2.281,-5.990 6.677,3.102 0,0 z m -92.452,-0.680 c 1.997,-7.417 12.755,0.452 0,0 z M 337.419,148.566 c -5.301,-5.812 18.288,-5.977 3.848,0.617 l -1.943,0.068 z m -94.400,-0.263 c 0.166,-1.937 3.681,1.635 0,0 z m 80.840,-0.245 c -1.538,-7.656 3.248,2.27 0,0 z m -21.440,-1.750 c 3.867,-8.124 6.460,-0.080 0,0 z m -187.723,-0.693 c 0.448,-3.873 1.682,0.341 0,0 z m -84.873,-1.340 c -10.952,-3.518 5.601,-13.985 -0.742,-2.973 0.638,0.737 4.881,3.997 0.742,2.973 z m 128.531,-0.994 c 0.984,-0.993 1.446,0.968 0,0 z M 43.813,142.509 c -1.673,-5.575 4.438,2.723 0,0 z M 330.286,142.081 c -3.470,-6.771 5.790,4.437 0,0 z m -123.270,0.312 c 0.746,-5.963 13.382,-15.488 6.210,-3.889 -1.717,0.138 -3.965,5.451 -6.210,3.889 z M 51.716,141.674 c 11.720,-14.886 -27.994,-5.556 -7.907,-12.054 9.378,-3.946 20.883,7.700 7.907,12.054 z m 138.276,-0.609 c -1.937,-4.621 3.046,2.294 0,0 z m 46.589,-0.145 c -8.157,-5.842 29.680,-3.754 10.827,-0.942 -3.492,1.079 -7.194,1.894 -10.827,0.942 z m 80.647,-0.296 c -1.193,-7.920 -7.004,-18.190 2.199,-6.259 0.060,1.065 -0.047,7.845 -2.199,6.259 z M 7.805,140.272 c -10.505,-3.596 -2.798,-22.189 -1.449,-5.022 4.636,3.434 13.056,4.935 1.449,5.022 z m 254.191,0.211 c -2.297,-5.081 8.377,0.484 0.995,0.383 z m 81.351,-0.769 c -6.982,-6.748 6.835,-16.742 0.761,-4.925 0.115,1.167 2.915,9.074 -0.761,4.925 z m -323.569,0.236 c -2.493,-2.462 3.564,1.312 0,0 z m 207.281,-1.783 c -2.079,-5.469 6.140,3.363 0,0 z m 168.776,-0.891 c -0.687,-4.135 1.607,2.953 0,0 z M 258.068,135.481 c 0.549,-11.139 20.107,0.038 3.116,-0.965 l -2.859,1.352 z m -11.624,-0.797 c 2.918,-1.293 -1.228,1.496 0,0 z m -49.279,-0.452 c -8.597,-2.815 -5.295,-18.542 -0.461,-4.490 0.283,0.769 4.522,6.843 0.461,4.490 z m 132.587,-0.715 c -6.692,-5.720 6.477,-12.770 0.707,-2.075 3.804,1.441 3.219,4.135 -0.707,2.075 z M 29.397,132.167 c -5.742,-8.730 7.873,3.815 0,0 z m 148.928,0.651 c -1.061,-4.743 2.301,1.077 0,0 z m 157.429,-2.622 c 0.502,-1.332 0.821,0.959 0,0 z m -227.224,-1.523 c 1.688,-8.553 2.406,-1.416 0,0 z m 171.264,-1.781 c -16.745,-9.001 6.949,-3.594 0,0 z M 64.082,124.360 c -6.868,-11.268 9.392,7.199 0,0 z m 150.084,-0.792 c -1.949,-8.931 10.008,-7.049 0,0 z m 163.128,-0.007 c 2.906,-3.903 2.438,1.463 0,0 z M 5.153,121.465 c -3.188,-10.286 16.536,-13.456 3.188,-3.964 -0.122,0.051 -2.573,8.751 -3.188,3.964 z M 414.016,122.020 c 5.894,-9.691 -15.301,-6.126 0.387,-9.056 4.332,0.776 4.481,11.085 -0.387,9.056 z m -96.780,-0.131 c -15.961,-6.580 23.365,-0.831 1.754,0.360 z m 48.222,0.209 c -17.447,-4.975 7.156,-24.956 6.018,-14.302 -14.716,-0.509 -2.188,13.039 -6.018,14.302 z m -189.318,-1.377 c -4.901,-1.414 -18.840,-11.211 -6.048,-5.001 4.422,-3.247 12.893,8.346 6.048,5.001 z m 151.282,-1.256 c 1.953,-0.997 0.879,1.041 0,0 z m 52.424,-0.798 c -2.643,-9.068 13.576,-5.545 0.822,0.600 z m -227.431,0.154 c 1.230,-3.240 5.590,0.825 0,0 z m 176.610,-0.389 c 9.209,-11.604 -2.118,-24.954 -6.589,-28.096 13.067,1.736 16.720,21.056 6.589,28.096 z m -82.021,-0.877 c -1.073,-9.559 25.435,-11.262 14.238,0.040 2.614,-11.509 -11.754,-0.837 -14.238,-0.040 z m 101.585,0.202 c -9.947,-2.578 6.699,-3.205 6.183,-4.335 0.328,3.085 -3.425,5.402 -6.183,4.335 z m 49.227,-0.913 c 11.388,-10.226 -11.273,-23.199 -18.282,-11.160 -9.995,-0.725 16.111,-17.695 18.835,-3.432 5.170,2.599 9.131,15.377 -0.552,14.592 z m -250.518,-1.640 c -4.367,2.622 -7.792,-5.174 -6.376,-7.230 2.166,-0.326 14.933,9.516 6.376,7.230 z m 241.372,0.158 c -1.238,-3.153 2.817,2.203 0,0 z m -81.575,-0.078 c -8.826,-9.079 15.423,-12.736 0.793,-17.435 -3.936,14.083 -24.881,4.242 -13.286,-5.276 7.823,-4.873 -5.625,13.712 5.816,8.025 7.693,-16.718 23.381,6.251 6.613,9.988 -0.380,0.616 2.247,6.352 0.063,4.698 z m -172.092,0.038 c -0.291,-1.707 3.775,0.251 0,0 z m 2.978,-0.088 c 0.335,-1.078 1.546,1.263 0,0 z m -70.086,-0.947 c 0.198,-2.640 4.016,1.529 0,0 z m 171.547,-1.235 c -0.743,-7.677 10.882,-4.405 0,0 z M 45.500,112.444 c 1.199,-6.700 11.351,0.724 0,0 z m 185.809,-1.913 c 0.965,-6.237 11.530,-14.756 3.666,-3.318 0.535,0.505 -3.959,6.514 -3.666,3.318 z m 17.250,-1.230 c 8.019,-3.151 6.929,-10.253 -3.586,-8.611 -10.236,-7.420 27.831,1.621 5.477,8.987 l -1.891,-0.375 z m -61.299,-1.443 c -5.137,-9.255 1.934,-27.660 10.978,-19.306 -18.654,-1.595 -3.304,13.989 -10.978,19.306 z m -48.437,-1.946 c -8.753,-10.119 4.242,-1.441 0,0 z m 134.252,-2.559 c -9.080,-7.060 8.011,-10.876 0.782,1.827 z m -142.585,0.616 c -1.404,-5.540 10.988,-0.745 0,0 z m 75.550,-1.063 c -5.544,-4.364 0.716,-23.906 0.561,-6.078 0.389,0.893 1.927,6.081 -0.561,6.078 z m -80.099,-1.727 c -11.632,-0.483 -4.371,-4.793 2.381,0.611 l -0.764,0.147 z M 20.059,100.934 c -3.667,-3.276 4.512,1.678 0,0 z m 45.665,-1.413 c -0.326,-1.825 1.554,0.684 0,0 z m 162.484,-0.674 c 0.883,-10.790 17.631,-10.182 3.738,-2.241 -1.271,0.083 -2.234,3.915 -3.738,2.241 z M 70.173,98.150 c -3.109,-5.382 3.705,1.987 0,0 z M 399.131,97.438 c -0.452,-2.652 3.912,2.446 0,0 z M 261.718,96.897 c -12.333,-6.304 11.440,-20.115 5.355,-10.384 -14.085,8.506 8.059,8.047 5.019,-0.919 5.506,4.475 -5.725,13.073 -10.374,11.304 z m 118.017,-0.863 c 2.200,-0.856 0.813,-0.375 0,0 z m 17.006,-0.106 c -7.014,-4.995 4.721,0.555 0,0 z M 18.388,95.664 c -5.156,-5.852 10.948,0.773 0,0 z M 131.497,94.153 c 8.542,-0.805 15.096,-17.653 24.961,-21.697 -0.961,2.792 -7.122,7.145 3.819,5.074 8.670,3.186 -16.467,4.430 -2.123,9.866 1.797,11.014 -9.317,-13.458 -9.784,-1.276 -3.936,5.032 -10.034,10.003 -16.872,8.033 z m 231.775,-0.486 c 2.869,-6.301 8.986,1.890 0,0 z m -185.737,-0.623 c 1.593,-10.014 11.276,-10.341 3.633,-0.978 -0.340,0.247 -3.589,3.109 -3.633,0.978 z m 39.299,-0.330 c -3.421,-5.432 5.369,3.491 0,0 z m -90.356,-2.476 c -1.423,-6.536 9.026,-8.833 0,0 z m 240.327,-2.275 c -17.965,-1.287 8.150,-5.818 0,0 z M 2.925,87.994 c 2.728,-12.321 8.236,-0.839 0,0 z M 16.074,86.193 c -6.731,-12.693 17.344,-8.564 8.903,-4.669 -6.474,-5.243 -4.893,9.186 -8.903,4.669 z m 316.683,0.609 c -9.086,-0.285 -14.985,-19.736 -4.732,-5.885 3.116,0.108 15.482,7.563 4.732,5.885 z m -117.375,0.125 c -3.290,-9.723 4.546,-14.484 3.648,-1.816 -0.623,1.314 -2.218,2.208 -3.648,1.816 z M 63.632,86.290 c -9.147,-8.065 -2.158,-7.226 3.530,-0.778 7.759,-2.453 1.084,3.173 -3.530,0.778 z M 235.569,85.472 c -5.928,-4.157 -8.582,-16.495 0.618,-6.779 1.804,1.468 5.091,9.483 -0.618,6.779 z m 70.554,-1.263 c 1.244,-7.073 7.239,-2.318 0,0 z m 13.292,-0.529 c -5.270,-8.607 4.243,0.182 0,0 z m 71.505,-0.122 c -2.941,-6.719 9.624,-1.275 0,0 z m 25.045,-0.827 c -9.857,-8.735 4.000,-4.702 0,0 z M 252.105,82.099 c -2.601,-8.817 5.400,2.615 0,0 z M 74.083,82.273 c 0.708,-3.359 1.860,1.024 0,0 z M 354.806,81.925 c -9.731,-6.098 -5.496,-6.553 2.833,-2.727 8.861,-10.096 5.372,5.166 -2.833,2.727 z M 42.950,81.260 c -10.156,-9.233 15.411,1.636 -1.4e-5,0 z M 343.296,80.667 c -8.248,-6.123 9.347,1.392 0,-2e-6 z M 1.967,77.893 c -2.204,-2.532 4.703,2.646 0,0 z M 176.597,77.640 c 2.019,-4.538 8.112,2.462 0,0 z m -40.408,-0.404 c 7.465,-12.715 11.306,0.340 0,0 z m 252.616,-3.775 c -6.580,-4.419 6.979,-1.394 1.191,0.468 z M 89.539,73.127 c 2.198,-3.021 4.507,1.324 0,0 z M 40.657,72.986 c -0.151,-5.217 6.317,-0.977 0,0 z m 86.606,-0.345 c 3.770,-3.307 2.643,1.375 0,0 z m -28.712,-0.904 c -11.843,-2.514 -1.609,-21.689 -4.045,-7.216 1.345,10.680 19.046,-1.202 5.983,7.519 z M 230.028,71.128 c -5.325,-13.095 5.358,-2.397 0,0 z m 82.790,0.683 c -10.919,-9.255 15.773,0.812 0,0 z M 25.135,71.604 c -1.710,-5.131 11.230,-0.315 0,0 z M 192.338,70.762 c -5.146,-8.727 8.396,-15.577 2.306,-2.784 1.599,0.597 -1.314,5.395 -2.306,2.784 z M 46.836,70.919 c -0.495,-1.347 1.245,1.213 0,0 z M 164.874,68.783 c -7.480,-6.011 6.968,-2.390 1.917,1.087 z m 50.496,-0.049 c 4.771,-5.074 3.457,-0.057 0,0 z M 31.071,65.754 c 0.937,-7.831 0.704,8.616 0,0 z m 171.160,2.234 c 5.425,-6.919 9.697,0.244 0,0 z M 18.520,67.536 c -6.955,-7.944 4.181,-13.017 2.607,-2.049 3.312,2.988 -1.565,2.468 -2.607,2.049 z m 35.993,-0.314 c 1.032,-6.527 6.953,-1.343 0,0 z M 115.174,65.999 c -10.096,-17.682 9.805,3.836 0,0 z m 28.724,0.375 c -2.530,-12.795 4.570,-0.968 0,0 z m 197.868,-0.253 c -1.739,-6.965 2.789,-1.058 0,0 z m -61.553,-0.431 c -2.174,-2.764 5.581,1.207 0,0 z m -22.576,-2.320 c -0.079,-7.785 16.520,1.684 2.579,0.108 z M 42.796,63.004 c 3.396,-2.934 11.402,-3.626 2.050,0.359 z M 357.078,61.917 c -12.455,-0.001 3.026,-4.042 0,0 z m 56.730,-0.164 c -6.316,-4.586 4.403,0.091 0,0 z M 30.030,59.139 c 0.675,-0.949 0.675,0.949 0,0 z m 142.213,0.009 c 2.412,-0.992 1.545,0.767 0,0 z m 66.569,0.035 c 0.608,-0.793 0.608,0.793 0,0 z"
				style="fill:#bbb;stroke-width:1;fill-opacity:1"/>
		<path
				id="path976"
				d="m 81.230,296.272 c 1.477,-6.382 2.285,3.323 0,0 z m 14.205,0.544 c 2.403,-7.075 6.578,-1.385 0,0 z m 279.273,-3.568 c 2.250,-2.654 0.742,1.464 0,0 z m -261.623,-1.114 c -10.955,-6.623 3.588,-6.274 0,0 z m 262.800,-2.082 c -1.805,-7.792 3.052,4.209 0,0 z m 10.822,0.714 c 1.587,-8.132 9.892,-1.925 0,0 z m -19.891,-2.804 c 1.516,-3.514 3.183,0.968 0,0 z m -240.287,-0.812 c -8.546,-8.242 6.027,0.507 0,0 z m 94.207,-1.652 c -3.715,-4.678 7.791,1.589 0,0 z m -2.544,-2.167 c -1.179,-3.052 2.608,0.976 0,0 z m -33.943,-1.532 c 0.683,-6.567 4.027,0.914 0,0 z m -20.120,-2.147 c 0.931,-7.009 3.355,-1.495 0,0 z m 67.925,-1.419 c 23.314,-11.137 -1.338,6.535 0,0 z m 77.625,0.389 c -1.714,-7.884 3.485,3.140 0,0 z m -175.802,0.159 c -11.925,-7.491 -2.640,-7.313 2.751,-0.122 l -0.878,0.517 z M 177.8,277.981 c 0.477,-4.173 0.686,3.357 0,0 z m -7.143,-6.381 c 0.652,-0.942 0.319,0.967 0,0 z m 160.941,-1.380 c -5.011,-12.189 3.284,-3.226 0,0 z m -104.180,-0.458 c 1.536,-2.370 2.669,0.796 0,0 z M 73.898,268.249 c 1.058,-3.181 3.462,0.720 0,0 z m -19.415,-0.313 c 7.264,-6.085 4.811,0.013 0,0 z m -6.179,-2.395 c 2.793,-8.625 10.019,-6.694 1.970,-0.257 l -1.265,0.412 z M 3.774,264.720 c -2.992,-4.696 -5.470,-13.834 0.746,-4.447 -0.909,-3.248 0.703,6.536 -0.746,4.447 z M 113.662,264.172 c -2.744,-4.969 3.774,2.492 0,0 z m -39.602,-4.855 c -11.194,-4.576 3.483,-5.525 1.759,0.910 z m -45.867,0.053 c -1.809,-5.691 2.881,2.522 0,0 z M 156.469,254.811 c 4.998,-5.743 14.657,-16.640 20.995,-5.542 -11.632,-7.826 -9.283,5.830 -20.995,5.542 z m 243.845,-2.174 c 2.486,-4.426 0.624,1.655 0,0 z M 75.686,251.318 c -5.210,-7.739 13.134,-8.920 0.873,-4.490 -0.029,0.744 1.137,6.697 -0.873,4.490 z m 283.089,-3.614 c -4.249,-4.658 15.428,2.895 0,0 z M 282.575,243.293 c 1.938,-2.187 1.336,0.458 0,0 z M 22.878,240.055 c 3.803,-10.506 8.507,-0.830 0,0 z m 222.721,-1.061 c -5.486,-9.295 6.057,4.536 0,0 z m 44.161,-1.467 c 5.209,-19.213 4.250,8.095 0,0 z m 18.741,-0.290 c -8.120,-3.704 -4.752,-13.898 0.999,-3.224 10.534,-7.244 5.919,4.949 -0.999,3.224 z m 68.131,-0.263 c -7.463,-5.316 -4.898,-11.417 1.274,-2.017 4.151,0.620 -0.099,3.545 -1.274,2.017 z m -214.532,-1.267 c 0.034,-7.818 19.266,-8.287 0,0 z m 204.467,-2.751 c -0.279,-1.385 1.418,1.049 0,0 z m 55.573,-2.294 c -4.343,-2.201 4.392,-0.470 0,0 z m -209.682,-0.699 c 0.317,-1.717 0.973,0.964 0,0 z m -14.002,-5.874 c 0.381,-0.704 0.117,1.140 0,0 z m -53.434,-1.242 c -0.971,-9.160 13.272,-7.852 1.074,-0.141 l -0.649,0.315 z m 184.953,-1.786 c 8.535,-13.885 8.546,-0.498 0,0 z m 21.589,0.424 c -6.992,-7.855 27.914,0.843 8.635,-1.617 -2.999,0.011 -5.557,3.027 -8.635,1.617 z m -25.103,-4.061 c 7.673,-11.747 5.268,1.090 0,0 z m -213.827,-2.552 c -14.255,-9.856 4.385,-9.202 1.563,0.330 l -1.563,-0.330 z m 172.130,-3.453 c -6.884,-12.714 2.039,-6.008 0,0 z m 4.224,-0.320 c 2.049,-0.411 0.393,0.425 0,0 z m 87.596,-0.218 c -7.250,2.233 -24.881,-9.241 -21.394,-11.406 7.786,4.910 18.883,7.802 25.799,11.153 -1.088,1.302 -3.153,0.231 -4.405,0.253 z M 67.841,208.530 c 2.686,-10.322 8.417,-0.220 0,0 z m -41.201,-0.169 c -2.609,-5.625 17.354,-1.569 1.352,0.208 l -1.352,-0.208 z m 236.620,-1.656 c 1.896,-5.375 1.809,2.101 0,0 z M 100.673,205.664 c -8.069,-2.229 -3.246,-14.256 -0.473,-3.683 2.116,1.029 6.652,5.353 0.473,3.683 z m 101.996,-0.356 c 2.461,-8.023 8.869,-3.081 0,0 z m -52.591,-0.169 c 3.355,-4.045 6.297,-0.517 0,0 z m -28.844,-0.279 c -1.917,-6.732 -14.217,-10.628 -1.287,-7.542 1.607,1.027 3.794,7.275 1.287,7.542 z m -61.791,-2.227 c -0.142,-10.392 13.763,-10.949 1.442,-1.477 l -0.878,1.478 z m 208.186,-0.347 c 6.686,-9.688 14.361,-4.000 0,0 z M 143.482,200.890 c -4.258,-7.714 13.762,-24.473 5.053,-7.455 -2.088,1.845 -1.477,8.062 -5.053,7.455 z m 164.730,-2.835 c -8.893,-8.462 10.615,1.826 0,0 z m -16.238,-1.318 c 2.241,-9.530 2.672,-0.439 0,0 z m -74.374,-2.003 c 2.807,-0.893 -1.721,1.386 0,0 z M 52.122,192.262 c 0.558,-11.202 5.157,-2.910 0,0 z m 53.048,0.632 c -1.753,-2.439 3.643,2.514 0,0 z m 222.911,0.236 c 4.895,-7.236 13.677,-1.603 0,0 z m -57.15,-0.252 c 1.495,-12.715 8.482,-1.806 0,0 z m 15.875,-1.050 c 2.175,-4.628 1.673,1.854 0,0 z m -7.430,-2.555 c -0.466,-9.115 5.172,-1.179 0,0 z m -70.453,-3.004 c -5.073,-7.417 -6.743,-9.320 -12.827,-4.251 0.404,-13.428 20.650,5.552 18.061,3.657 l -1.564,0.559 -3.669,0.033 z m 196.814,-0.296 c -11.942,-2.161 6.569,-1.889 0,0 z M 0,184.771 c 1.461,-8.584 17.085,-10.223 5.160,-3.727 C 5.455,182.320 0.882,186.922 0,184.771 Z m 52.044,-0.101 c -8.290,-8.402 4.281,-0.192 0,0 z m 321.608,-1.043 c -3.614,-4.851 6.285,1.878 0,0 z m -232.763,-1.297 c -18.876,-3.893 22.568,-4.670 3.891,-0.219 l -1.907,0.165 -1.984,0.053 z m -9.164,-0.960 c 7.169,-1.864 -2.800,2.299 0,0 z m 115.876,-1.722 c -18.983,-7.438 12.979,-0.326 0,0 z m 125.942,-1.813 c -13.563,-5.976 13.959,-26.673 -0.073,-11.151 -7.157,9.920 6.913,8.266 5.261,10.006 l -2.718,1.365 z m -259.113,-0.952 c 0.328,-1.043 0.949,1.007 0,0 z m 283.302,0.002 c -1.670,-5.339 11.436,0.173 0,0 z M 69.056,176.501 c 1.072,-2.837 1.104,1.289 0,0 z M 0.841,174.178 c 5.792,-6.434 4.107,1.435 0,0 z M 386.291,173.922 c -5.810,-5.396 9.365,1.056 0,0 z M 284.797,172.943 c -9.629,-5.836 -4.986,-10.752 1.275,-2.179 0.917,1.078 1.240,4.687 -1.275,2.179 z m 137.789,0.186 c 0.892,-2.318 0.927,2.087 0,0 z m -127.841,-0.401 c -8.240,-3.774 10.323,0.231 0,0 z m -174.038,-3.432 c -4.865,-8.182 1.003,-6.336 2.604,-0.105 l -1.106,0.514 z m 207.158,-2.271 c -6.498,-11.444 4.898,-12.681 0,0 z m -173.399,0.237 c -6.926,-2.927 -5.381,-16.919 -2.689,-3.673 4.201,0.864 16.557,2.888 4.856,3.868 z M 1.455,167.114 c -7.829,-5.876 9.654,-0.129 0,0 z m 81.202,-3.504 c 1.491,-2.714 4.657,0.488 0,0 z m 265.317,-4.803 c -4.740,-11.831 6.109,-1.944 0,0 z M 2.711,154.721 c -9.024,-5.442 20.981,-1.367 2.481,0.076 z M 104.626,152.771 c -1.953,-6.720 3.249,1.049 0,0 z m 233.709,-4.402 c 1.152,-8.806 14.349,0.293 0,0 z M 10.847,146.995 c -9.208,2.240 -16.195,-8.467 -3.167,-3.918 0.722,-0.083 8.472,5.284 3.167,3.918 z M 237.815,140.636 c -3.827,-3.799 10.176,0.645 0,0 z M 26.511,140.313 c -0.732,-8.259 7.786,-0.572 0,0 z m 216.508,-0.476 c 0.675,-0.949 0.676,0.949 0,0 z m -31.882,-0.778 c 3.679,-6.403 5.31,-3.444 0,0 z m 37.173,-0.015 c 1.277,-1.735 4.508,1.361 0,0 z M 5.902,137.597 c -6.862,-10.585 5.316,3.905 0,0 z m 48.195,-2.106 c -3.833,-5.707 -18.219,-4.524 -3.277,-5.470 4.134,-1.893 7.633,7.899 3.277,5.470 z M 259.291,134.135 c 2.685,-6.732 13.207,0.280 1.742,-0.185 l -1.198,0.573 z m -66.388,-5.772 c -1.773,-7.786 3.117,2.847 0,0 z m 85.116,-3.356 c -4.674,-4.105 4.760,1.452 0,0 z m 84.902,-5.774 c -12.862,-10.456 19.545,-17.912 1.263,-8.833 -3.148,1.416 2.505,11.246 -1.263,8.833 z M 175.352,118.636 c -4.146,-3.709 5.002,2.625 0,0 z M 6.618,117.943 c 0.378,-2.837 0.759,1.854 0,0 z m 374.116,-2.833 c 2.167,-4.000 3.061,1.063 0,0 z M 8.645,113.842 c 7.996,-6.088 1.342,2.468 0,0 z M 330.993,113.307 c 3.342,-8.492 2.441,3.076 0,0 z m -68.328,0.448 c -0.811,-1.865 1.124,-0.695 0,0 z m 33.645,-9.113 c -11.374,-2.696 4.840,-17.374 -3.945,-6.512 4.070,13.102 23.935,-12.177 12.724,0.444 -1.755,3.079 -4.746,6.755 -8.778,6.068 z m 81.641,-0.004 c 2.581,-5.028 7.150,-1.008 0,0 z m 14.802,-3.199 c -7.962,0.449 -11.508,-3.628 -1.274,-4.430 2.601,-0.164 7.302,7.873 1.274,4.430 z M 204.787,100.811 c -3.062,-9.564 5.123,0.945 0,0 z m 45.171,-0.504 c -6.683,-3.731 10.694,1.364 0,0 z m 62.661,-1.273 c -1.709,-3.848 2.991,2.103 0,0 z m 17.084,-2.206 c -2.709,-5.175 3.205,2.298 0,0 z m -66.797,-0.556 c 0.961,-6.944 11.692,-0.686 0,0 z m -31.397,-1.313 c 6.672,-11.763 7.671,0.583 0,0 z m -93.927,-2.305 c 4.325,-8.113 16.819,-14.725 6.428,-3.082 0.403,1.398 -10.280,5.371 -6.428,3.082 z m 121.799,-0.318 c -1.305,-9.621 16.413,-11.160 3.414,-2.633 -0.319,0.453 -1.943,4.281 -3.414,2.633 z m 64.864,0.144 c 1.299,-1.000 1.852,0.979 0,0 z M 179.122,91.477 c 3.291,-11.212 8.223,-2.721 0,0 z m -23.944,-3.542 c -6.416,-5.501 7.225,0.824 0,0 z m 210.740,-1.014 c -10.344,-0.989 6.446,-2.127 0,0 z m -33.554,-1.074 c -12.600,-7.333 9.860,0.483 0,0 z M 16.739,85.615 c -5.142,-9.648 16.508,-7.898 3.221,-3.925 -1.099,-1.785 -1.258,6.230 -3.221,3.925 z M 216.296,85.267 c -2.267,-13.326 6.619,-0.403 0,3e-6 z M 62.616,84.863 c -4.613,-4.102 2.403,-1.932 1.158,0.445 z M 235.698,84.208 c -6.617,-4.619 -6.054,-12.799 0.858,-3.806 1.438,0.270 1.596,5.515 -0.858,3.806 z M 152.811,82.181 c -0.464,-8.301 15.589,-1.945 2.304,-0.808 l -2.304,0.808 z m -14.826,-5.836 c 1.324,-5.148 6.807,-0.824 0,0 z m 175.149,-5.136 c -4.135,-3.927 8.867,0.766 0,0 z M 192.919,69.371 c -3.978,-10.172 6.558,-8.147 0,0 z M 165.118,67.493 c -1.724,-4.261 3.710,3.012 0,0 z M 18.474,66.361 c -5.486,-11.284 6.878,-9.084 0,0 z m 75.585,-7.221 c 1.299,-1.000 1.852,0.979 0,0 z"
				style="fill:#aaa;stroke-width:1;fill-opacity:1"/>
	</g>
</svg>
