<?xml version="1.0" encoding="UTF-8" standalone="no"?>
<svg
		xmlns="http://www.w3.org/2000/svg"
		version="1.1"
		viewBox="1 0 12 12"
		height="16"
		width="16">
	<path
			style="fill:#6699ff;fill-opacity:1"
			id="path12"
			d="M7.002 3.01h-5v8h8v-5h-1v4h-6v-6h4z"/>
	<path
			style="fill:#5588ee;fill-opacity:1"
			id="path10"
			d="M5.002 1.01h7v7l-2-2-3 2v-1l3-2.25 1 1V2.01h-3.75l1 1-2.25 3h-1l2-3z"/>
	<path
			style="fill:#4477dd;fill-opacity:1"
			id="path14"
			d="M4.082 5.51c0-.621.621-.621.621-.621 1.864.621 3.107 1.864 3.728 3.728 0 0 0 .621-.62.621-1.245-1.864-1.866-2.485-3.73-3.728z"/>
</svg>
