<?xml version="1.0" encoding="UTF-8" standalone="no"?>
<svg
		xmlns="http://www.w3.org/2000/svg"
		version="1.1"
		viewBox="0 0 256 256"
		height="16px"
		width="16px">
	<g
			style="stroke-width:0.5"
			transform="matrix(2,0,0,2,-273.92968,182.39844)"
			id="g1664">
		<path
				style="color:#000000;font-style:normal;font-variant:normal;font-weight:normal;font-stretch:normal;font-size:medium;line-height:normal;font-family:sans-serif;font-variant-ligatures:normal;font-variant-position:normal;font-variant-caps:normal;font-variant-numeric:normal;font-variant-alternates:normal;font-feature-settings:normal;text-indent:0;text-align:start;text-decoration:none;text-decoration-line:none;text-decoration-style:solid;text-decoration-color:#000000;letter-spacing:normal;word-spacing:normal;text-transform:none;writing-mode:lr-tb;direction:ltr;text-orientation:mixed;dominant-baseline:auto;baseline-shift:baseline;text-anchor:start;white-space:normal;shape-padding:0;clip-rule:nonzero;display:inline;overflow:visible;visibility:visible;opacity:1;isolation:auto;mix-blend-mode:normal;color-interpolation:sRGB;color-interpolation-filters:linearRGB;solid-color:#000000;solid-opacity:1;vector-effect:none;fill:#993333;fill-opacity:1;fill-rule:nonzero;stroke:none;stroke-width:3.75;stroke-linecap:square;stroke-linejoin:miter;stroke-miterlimit:4;stroke-dasharray:none;stroke-dashoffset:0;stroke-opacity:1;paint-order:normal;color-rendering:auto;image-rendering:auto;shape-rendering:auto;text-rendering:auto;enable-background:accumulate"
				d="m 165.96484,-62.199219 -1.33929,3.75 -8.92857,25 -5.80357,16.25 h 25 l -1.78571,5 h -25 l -7.14286,20.0000002 h 28.75 16.25 l 16.07143,-45.0000002 h -16.25 -8.75 l 1.78571,-5 h 25 l 7.14286,-20 h -28.75 z m 50,0 -1.33929,3.75 -4.46428,12.5 -19.19643,53.7500002 h 20 l 8.92857,-25.0000002 h 12.5 l 7.14286,-20 h -12.5 l 1.78571,-5 h 25 l 7.14286,-20 z m -45.17857,7.5 h 8.75 21.25 l -1.78572,5 h -25 l -7.14285,20 h 16.25 8.75 L 181.14341,0.30078125 h -8.75 -21.25 l 1.78572,-5.00000005 h 25 l 7.14285,-20.0000002 h -25 l 3.125,-8.75 z m 50,0 h 30 l -1.78572,5 h -25 l -7.14285,20 h 12.5 l -1.78572,5 h -12.5 l -8.92857,25.00000025 h -5 L 217.66127,-45.949219 Z"
				id="rect1519-0"/>
		<path
				style="fill:#ff5555;fill-opacity:1;fill-rule:nonzero;stroke:none;stroke-width:3.75;stroke-linecap:round;stroke-linejoin:round;stroke-miterlimit:4;stroke-dasharray:none;stroke-dashoffset:0;stroke-opacity:1;paint-order:normal"
				d="m 168.37481,-58.448486 -8.92857,25 -4.46429,12.5 h 25 l -4.46428,12.4999997 h -25 l -4.46429,12.5 h 25 12.5 l 13.39286,-37.4999997 h -12.5 -12.5 l 4.46428,-12.5 h 25 l 4.46429,-12.5 h -25 z m 50,0 -4.46429,12.5 -17.85714,49.9999997 h 12.5 l 8.92857,-24.9999997 h 12.5 l 4.46429,-12.5 h -12.5 l 4.46428,-12.5 h 25 l 4.46429,-12.5 z"
				id="rect1519"/>
	</g>
</svg>
