<?xml version="1.0" encoding="UTF-8" standalone="no"?>
<svg
		xmlns="http://www.w3.org/2000/svg"
		version="1.1"
		viewBox="0 0 150 50"
		height="320px"
		width="960px">
	<g
			transform="translate(0,-246.99999)"
			id="layer1">
		<rect
				transform="scale(1,-1)"
				y="-277.72339"
				x="25.203785"
				height="11.446767"
				width="99.592209"
				id="rect822"
				style="fill:#ff0000;fill-opacity:1;fill-rule:evenodd;stroke:none;stroke-width:8.99623299;stroke-linecap:round;stroke-linejoin:round;stroke-miterlimit:4;stroke-dasharray:none;stroke-dashoffset:0;stroke-opacity:1;paint-order:markers stroke fill"/>
		<path
				id="rect821-5-0-5"
				d="m 10.000102,266.99992 c -1.11e-4,2.76159 2.238632,5.00033 5.000212,5.00023 h 50.000048 15.000118 54.99973 c 2.76158,10e-5 5.00032,-2.23864 5.00021,-5.00023 h -5.00021 -4.9997 H 80.00048 65.000362 20.000008 15.000314 Z"
				style="fill:#dddddd;fill-opacity:1;stroke:#555555;stroke-width:0.75;stroke-linecap:square;stroke-linejoin:miter;stroke-miterlimit:4;stroke-dasharray:none;stroke-opacity:1;paint-order:normal"/>
		<path
				id="rect821-5-0-3-2"
				d="m 4.99989,261.99972 c -1.08e-4,2.76159 2.238632,5.00033 5.000212,5.0002 h 55.00026 9.999906 64.999632 c 2.76159,1.3e-4 5.00033,-2.23861 5.00021,-5.0002 H 139.9999 135.00021 75.000268 65.000362 14.999796 10.000102 Z"
				style="fill:#dddddd;fill-opacity:1;stroke:#555555;stroke-width:0.75;stroke-linecap:square;stroke-linejoin:miter;stroke-miterlimit:4;stroke-dasharray:none;stroke-opacity:1;paint-order:normal"/>
		<path
				id="rect821-5-2"
				d="m 15.000314,272.00015 c -1.11e-4,2.76158 2.238627,5.0003 5.000213,5.0002 H 65.000362 70.000574 130 c 2.76158,1.3e-4 5.00032,-2.23862 5.00021,-5.0002 H 130 125.0003 70.000574 65.000362 25.00022 20.000527 Z"
				style="fill:#dddddd;fill-opacity:1;stroke:#555555;stroke-width:0.75;stroke-linecap:square;stroke-linejoin:miter;stroke-miterlimit:4;stroke-dasharray:none;stroke-opacity:1;paint-order:normal"/>
		<path
				id="rect821-9"
				d="m 20.000007,276.99985 c -1.11e-4,2.76158 2.238616,5.0003 5.000189,5.0002 h 39.99996 9.999861 49.999803 c 2.76158,1.3e-4 5.0003,-2.23864 5.00019,-5.0002 h -5.00019 -4.99967 -45.000133 -9.999861 -35.000288 -4.999672 z"
				style="fill:#dddddd;fill-opacity:1;stroke:#555555;stroke-width:0.74999839;stroke-linecap:square;stroke-linejoin:miter;stroke-miterlimit:4;stroke-dasharray:none;stroke-opacity:1;paint-order:normal"/>
		<path
				d="M 74.999894,251.99999 84.9999,262.00001 89.999895,267 l 4.999995,5 -5.000001,5 -5.000001,5 -10.000002,10 -10.000005,-10 -4.999995,-5 -4.999996,-5 5.000001,-5 5.000001,-5.00001 z"
				style="fill:#aaaaaa;fill-opacity:1;stroke:#555555;stroke-width:1;stroke-linecap:round;stroke-linejoin:round;stroke-miterlimit:4;stroke-dasharray:none;stroke-opacity:1;paint-order:normal"
				id="rect815"/>
		<path
				id="path819"
				d="M 74.999894,251.99999 64.999892,282 74.999894,292 84.999896,282 Z"
				style="fill:#ffcc33;fill-opacity:1;stroke:#555555;stroke-width:1;stroke-linecap:round;stroke-linejoin:round;stroke-miterlimit:4;stroke-dasharray:none;stroke-opacity:1"/>
		<path
				id="rect829-0"
				d="m 34.564453,265.52539 -0.150391,0.55664 -0.865234,3.23242 h 1.71875 l -2.455078,9.15821 h 3.269531 l 2.453125,-9.15821 h 1.716797 l 1.015625,-3.78906 z m 6.867188,0 -0.148438,0.55664 -3.320312,12.39063 h 3.269531 l 1.228516,-4.57813 h 0.162109 l -1.224609,4.57813 h 3.269531 l 3.46875,-12.94727 z m 6.86914,0 -3.46875,12.94727 h 3.269531 l 0.333985,-1.2461 0.132812,1.2461 h 3.13086 0.0957 6.609375 l 2.242187,-8.36719 h -3.435546 l 0.21289,-0.79102 h 3.433594 l 1.015625,-3.78906 h -6.703125 l -0.150391,0.55664 -2.091797,7.8125 h 3.433594 l -0.210937,0.78906 h -3.435547 l -0.947266,3.53321 -0.46289,-4.32227 h 1.458984 l 2.242187,-8.36914 z m 13.736328,0 -0.148437,0.55664 -3.320313,12.39063 h 3.269532 l 1.226562,-4.57813 h 0.164063 l -1.226563,4.57813 h 3.271485 l 3.46875,-12.94727 h -3.269532 l -1.228515,4.58008 h -0.164063 l 1.226563,-4.58008 z m 6.869141,0 -0.150391,0.55664 -0.865234,3.23242 h 1.716797 l -1.439453,5.36914 h -1.716797 l -1.015625,3.78907 h 6.705078 l 1.015625,-3.78907 H 71.4375 l 1.439453,-5.36914 h 1.716797 l 1.015625,-3.78906 z m 6.867188,0 -0.148438,0.55664 -3.320312,12.39063 h 3.269531 l 1.226562,-4.57813 h 3.435547 l 2.242188,-8.36914 z m 12.019531,0 -0.148438,0.55664 -3.320312,12.39063 h 3.269531 l 1.228516,-4.57813 h 1.716796 l 1.015626,-3.78906 h -1.71875 l 0.21289,-0.79102 h 3.433594 l 1.015625,-3.78906 z m 6.86914,0 -0.148437,0.55664 -0.867188,3.23242 h 1.71875 l -1.439453,5.36914 h -1.71875 l -1.013672,3.78907 h 6.703125 l 1.015625,-3.78907 h -1.71875 l 1.439453,-5.36914 h 1.718748 l 1.01563,-3.78906 z m 6.869141,0 -0.15039,0.55664 -3.320313,12.39063 h 6.705073 l 2.24219,-8.36719 h -3.26953 l -1.22656,4.57812 h -0.16602 l 1.43946,-5.36914 h 3.43359 l 1.01563,-3.78906 z m 6.86719,0 -0.14844,0.55664 -3.32031,12.39063 h 3.26953 l 1.22851,-4.57813 h 0.16211 l -1.22461,4.57813 h 3.26954 l 3.46875,-12.94727 h -3.26954 l -1.22656,4.58008 h -0.16601 l 1.22851,-4.58008 z m 6.86914,0 -0.14844,0.55664 -0.86719,3.23242 h 1.71875 l -2.45508,9.15821 h 3.26954 l 2.45507,-9.15821 h 1.7168 l 1.01563,-3.78906 z m 6.86914,0 -0.14844,0.55664 -2.09375,7.8125 h 3.43359 l -0.21093,0.78906 h -3.43555 l -1.01367,3.78907 h 6.70312 l 2.24219,-8.36719 h -3.43359 l 0.21093,-0.78906 3.43555,-0.002 1.01367,-3.78906 z m -94.441408,0.002 -0.148437,0.55469 -2.09375,7.8125 h 3.433594 l -0.210938,0.78906 h -3.433593 l -1.015626,3.78907 h 6.703126 l 2.242187,-8.36719 h -3.433594 l 0.210938,-0.78906 h 3.435547 l 1.015625,-3.78907 z m 8.019532,1.49805 H 39.3125 l -0.210938,0.78906 h -1.716796 l -2.453125,9.15821 h -0.166016 l 2.455078,-9.15821 h -1.716797 z m 6.86914,0 h 3.59961 l -2.667969,9.94727 h -0.162109 l 1.226562,-4.57813 h -3.271484 l -1.226563,4.57813 h -0.164062 z m 6.867188,0 h 3.599609 l -1.439453,5.36914 h -1.976562 l 0.08984,0.82813 0.402344,3.75 h -0.210937 l -0.417969,-3.90821 -1.46875,-0.11523 -1.078125,4.02344 h -0.166016 z m 6.86914,0 h 3.597657 l -0.210938,0.78906 h -3.433593 l -1.015626,3.79102 h 3.433594 l -1.4375,5.36719 H 53.65625 l 0.210938,-0.78907 h 3.433593 l 1.015625,-3.78906 h -3.435547 z m 6.869141,0 h 0.164063 L 62.125,271.60547 h 3.271484 l 1.226563,-4.58008 h 0.164062 l -2.666015,9.94727 h -0.164063 l 1.226563,-4.57813 h -3.269532 l -1.226562,4.57813 h -0.166016 z m 6.867188,0 h 3.597656 l -0.210938,0.78906 h -1.716797 l -2.242187,8.36914 h 1.716797 l -0.210938,0.78907 h -3.599609 l 0.210937,-0.78907 h 1.71875 l 2.242188,-8.36914 h -1.716797 z m 6.86914,0 h 3.59961 l -1.439453,5.36914 h -3.435547 l -1.226563,4.57813 h -0.166016 z m 12.019531,0 h 3.597657 l -0.210938,0.78906 h -3.435547 l -1.013672,3.79102 h 1.716797 l -0.210937,0.78906 h -1.71875 l -1.226563,4.57813 h -0.164062 z m 6.869141,0 h 3.595703 l -0.210937,0.78906 h -1.716797 l -2.242188,8.36914 h 1.716797 l -0.210937,0.78907 h -3.597656 l 0.210937,-0.78907 h 1.716797 l 2.242187,-8.36914 h -1.716797 z m 6.867187,0 h 3.59766 l -0.21094,0.78906 h -3.43359 l -2.24219,8.36914 h 3.26953 l 1.22656,-4.57812 h 0.16406 l -1.4375,5.36719 h -3.59961 z m 6.86914,0 h 0.16406 l -1.22656,4.58008 h 3.26953 l 1.22657,-4.58008 h 0.16601 l -2.66797,9.94727 h -0.16211 l 1.22657,-4.57813 h -3.27149 l -1.22656,4.57813 h -0.16406 z m 6.86914,0 h 3.59766 l -0.21094,0.78906 h -1.71875 l -2.45312,9.15821 h -0.16602 l 2.45508,-9.15821 h -1.71485 z m 6.86719,0 h 3.59766 l -0.21094,0.78906 -3.4336,0.002 -1.01562,3.78906 h 3.43359 l -1.4375,5.36719 h -3.59765 l 0.21093,-0.78907 h 3.4336 l 1.01562,-3.78906 h -3.43554 z m -94.439454,0.002 h 3.597656 l -0.210937,0.78907 h -3.435547 l -1.015625,3.78906 h 3.435547 l -1.439453,5.36719 h -3.597656 l 0.210937,-0.78907 h 3.435547 l 1.013672,-3.78906 h -3.433594 z m 13.6875,0.78711 -0.148437,0.55664 -0.865235,3.23438 h 3.269532 l 1.015625,-3.79102 z m 6.869141,0 -0.148438,0.55664 -0.867187,3.23438 h 3.271484 l 1.013672,-3.79102 z m 27.472656,0 -0.148437,0.55664 -0.865235,3.23438 h 3.269531 l 1.015626,-3.79102 z m -33.189453,1.5 h 0.164062 l -0.210937,0.79102 h -0.166016 z m 6.869141,0 h 0.164062 l -0.212891,0.79102 H 50.34375 Z m 27.472656,0 h 0.164062 l -0.210937,0.79102 h -0.166016 z"
				style="color:#000000;font-style:normal;font-variant:normal;font-weight:normal;font-stretch:normal;font-size:medium;line-height:normal;font-family:sans-serif;font-variant-ligatures:normal;font-variant-position:normal;font-variant-caps:normal;font-variant-numeric:normal;font-variant-alternates:normal;font-feature-settings:normal;text-indent:0;text-align:start;text-decoration:none;text-decoration-line:none;text-decoration-style:solid;text-decoration-color:#000000;letter-spacing:normal;word-spacing:normal;text-transform:none;writing-mode:lr-tb;direction:ltr;text-orientation:mixed;dominant-baseline:auto;baseline-shift:baseline;text-anchor:start;white-space:normal;shape-padding:0;clip-rule:nonzero;display:inline;overflow:visible;visibility:visible;opacity:1;isolation:auto;mix-blend-mode:normal;color-interpolation:sRGB;color-interpolation-filters:linearRGB;solid-color:#000000;solid-opacity:1;vector-effect:none;fill:#993333;fill-opacity:1;fill-rule:evenodd;stroke:none;stroke-width:1.5;stroke-linecap:square;stroke-linejoin:miter;stroke-miterlimit:5;stroke-dasharray:none;stroke-dashoffset:0;stroke-opacity:1;paint-order:markers stroke fill;color-rendering:auto;image-rendering:auto;shape-rendering:auto;text-rendering:auto;enable-background:accumulate"/>
		<path
				id="rect829"
				d="m 35.139434,266.27603 -0.613398,2.28923 h 1.716974 l -2.453754,9.15754 h 1.716975 l 2.453754,-9.15754 h 1.717418 l 0.613398,-2.28923 z m 6.868342,0 -3.067152,11.44677 h 1.716973 l 1.226877,-4.57877 1.717275,-2.9e-4 -1.226734,4.57906 h 1.716975 l 3.067152,-11.44677 z m 8.462313,6.86771 h 1.717196 l 1.840197,-6.86771 h -5.151366 l -3.067152,11.44677 h 1.716974 l 1.226877,-4.57877 0.490098,4.57877 h 1.717196 z m 5.274367,-6.86771 -1.840275,6.868 h 3.434171 l -0.61297,2.28924 -3.43468,3e-4 -0.613398,2.28923 h 5.151367 l 1.840275,-6.868 h -3.43417 l 0.613258,-2.28954 3.434469,-2.9e-4 0.61332,-2.28894 z m 6.868342,0 -3.067152,11.44677 h 1.716973 l 1.226877,-4.57877 h 1.717419 l -1.226877,4.57877 h 1.716973 l 3.067152,-11.44677 H 66.04719 l -1.226877,4.57877 h -1.717419 l 1.226877,-4.57877 z m 6.86834,0 -0.613397,2.28923 h 1.716975 l -1.840356,6.86831 h -1.717418 l -0.613398,2.28923 h 5.151365 l 0.613397,-2.28923 h -1.716975 l 1.840356,-6.86831 h 1.717418 l 0.613398,-2.28923 z m 6.86834,0 -3.067151,11.44677 h 1.716975 l 1.226877,-4.57877 3.434471,-2.9e-4 1.840198,-6.86771 z m 12.019707,0 -3.067154,11.44677 h 1.716972 l 1.226877,-4.57877 1.717499,-2.9e-4 0.613402,-2.28924 h -1.717196 l 0.613172,-2.28924 h 3.434398 l 0.613401,-2.28923 z m 6.868344,0 -0.613401,2.28923 h 1.716978 l -1.840352,6.86831 h -1.717419 l -0.613401,2.28923 h 5.151364 l 0.613401,-2.28923 h -1.716978 l 1.840352,-6.86831 h 1.717419 l 0.613408,-2.28923 z m 6.868351,0 -3.067163,11.44677 h 5.151373 l 1.84035,-6.8683 h -1.71697 l -1.22696,4.57907 h -1.71742 l 1.84035,-6.86831 h 3.4344 l 0.6134,-2.28923 z m 6.86878,0 -3.06715,11.44677 h 1.71697 l 1.22688,-4.57877 h 1.71741 l -1.22687,4.57877 h 1.71697 l 3.06715,-11.44677 h -1.71697 l -1.22688,4.57877 h -1.71741 l 1.22688,-4.57877 z m 6.86878,0 -0.6134,2.28923 h 1.71698 l -2.45376,9.15754 h 1.71697 l 2.45376,-9.15754 h 1.71742 l 0.6134,-2.28923 z m 6.86835,0 -1.84028,6.868 h 3.43417 l -0.61326,2.28954 -3.43447,2.9e-4 -0.61332,2.28894 h 5.15137 l 1.84027,-6.868 h -3.43416 l 0.61317,-2.28924 3.43447,-3e-4 0.6134,-2.28923 z m -94.44085,5.7e-4 -1.840277,6.86801 h 3.434171 l -0.613177,2.28923 -3.434472,3e-4 -0.613399,2.28924 h 5.151367 l 1.840276,-6.86801 h -3.43417 l 0.613256,-2.28953 3.434471,-3e-4 0.61332,-2.28894 z m 14.840416,2.28865 h 1.717197 l -0.613178,2.28924 h -1.717196 z m 6.868341,0 h 1.717196 l -0.613178,2.28924 h -1.717196 z m 27.473364,0 h 1.717196 l -0.613178,2.28924 h -1.717194 z"
				style="fill:#ff5555;fill-opacity:1;fill-rule:evenodd;stroke:none;stroke-width:1.5;stroke-linecap:square;stroke-linejoin:miter;stroke-miterlimit:5;stroke-dasharray:none;stroke-dashoffset:0;stroke-opacity:1;paint-order:markers stroke fill"/>
	</g>
</svg>
