<?xml version="1.0" encoding="UTF-8" standalone="no"?>
<svg
		xmlns="http://www.w3.org/2000/svg"
		version="1.1"
		viewBox="0 0 64 64"
		height="64px"
		width="64px">
	<path
			d="M 24,8 A 16,16 0 0 1 8,24 v 16 A 16,16 0 0 1 24,56 H 40 A 16,16 0 0 1 56,40 V 24 A 16,16 0 0 1 40,8 Z"
			style="fill:#333333;opacity:0.9;stroke:none"/>
	<path
			d="M 20 4 L 20 8 C 20 14.67 14.67 20 8 20 L 4 20 L 4 44 L 8 44 C 14.67 44 20 49.33 20 56 L 20 60 L 44 60 L 44 56 C 44 49.33 49.33 44 56 44 L 60 44 L 60 20 L 56 20 C 49.33 20 44 14.67 44 8 L 44 4 L 20 4 z M 24 8 L 40 8 A 16 16 0 0 0 56 24 L 56 40 A 16 16 0 0 0 40 56 L 24 56 A 16 16 0 0 0 8 40 L 8 24 A 16 16 0 0 0 24 8 z"
			style="fill:#99ccff;opacity:1;fill-rule:evenodd;stroke:none"/>
</svg>
