<?xml version="1.0" encoding="UTF-8" standalone="no"?>
<svg
		xmlns="http://www.w3.org/2000/svg"
		id="svg8"
		version="1.1"
		viewBox="0 0 64 64"
		height="64px"
		width="64px">
	<g
			transform="translate(0,-233)"
			id="layer1">
		<path
				transform="matrix(0.26458333,0,0,0.26458333,0,233)"
				id="rect815"
				d="M 75.589844 15.119141 L 75.591797 30.236328 C 75.591888 55.464032 55.464031 75.591872 30.236328 75.591797 L 15.119141 75.589844 L 15.119141 166.29883 L 30.236328 166.29883 C 55.464035 166.29871 75.591891 186.42659 75.591797 211.6543 L 75.589844 226.77148 L 166.30078 226.77148 L 166.29883 211.6543 C 166.29874 186.42659 186.42659 166.29871 211.6543 166.29883 L 226.77148 166.30078 L 226.77148 75.589844 L 211.6543 75.591797 C 186.42659 75.591872 166.29874 55.464032 166.29883 30.236328 L 166.29883 15.119141 L 75.589844 15.119141 z M 90.708984 30.236328 L 151.18164 30.236328 A 60.472441 60.472441 0 0 0 211.6543 90.708984 L 211.6543 151.18164 A 60.472441 60.472441 0 0 0 151.18164 211.6543 L 90.708984 211.6543 A 60.472441 60.472441 0 0 0 30.236328 151.18164 L 30.236328 90.708984 A 60.472441 60.472441 0 0 0 90.708984 30.236328 z "
				style="fill:#003366;font-style:normal;font-variant:normal;font-weight:normal;font-stretch:normal;font-size:medium;line-height:normal;font-family:sans-serif;font-variant-ligatures:normal;font-variant-position:normal;font-variant-caps:normal;font-variant-numeric:normal;font-variant-alternates:normal;font-feature-settings:normal;text-indent:0;text-align:start;text-decoration:none;text-decoration-line:none;text-decoration-style:solid;text-decoration-color:#000000;letter-spacing:normal;word-spacing:normal;text-transform:none;writing-mode:lr-tb;direction:ltr;text-orientation:mixed;dominant-baseline:auto;baseline-shift:baseline;text-anchor:start;white-space:normal;shape-padding:0;clip-rule:nonzero;display:inline;overflow:visible;visibility:visible;opacity:1;isolation:auto;mix-blend-mode:normal;color-interpolation:sRGB;color-interpolation-filters:linearRGB;solid-color:#000000;solid-opacity:1;vector-effect:none;fill-opacity:1;fill-rule:evenodd;stroke:none;stroke-width:30.23622131;stroke-linecap:square;stroke-linejoin:miter;stroke-miterlimit:4;stroke-dasharray:none;stroke-dashoffset:0;stroke-opacity:1;paint-order:markers stroke fill;color-rendering:auto;image-rendering:auto;shape-rendering:auto;text-rendering:auto;enable-background:accumulate"/>
		<path
				id="rect815-8"
				d="M 24.000085,241.00003 A 16,16 0 0 1 8.0000287,257.00009 v 16.00005 A 16,16 0 0 1 24.000085,289.0002 H 40.000141 A 16,16 0 0 1 56.000199,273.00014 V 257.00009 A 16,16 0 0 1 40.000141,241.00003 Z"
				style="fill:#cccccc;fill-opacity:1;fill-rule:evenodd;stroke:none;stroke-width:8;stroke-linecap:square;stroke-linejoin:miter;stroke-miterlimit:4;stroke-dasharray:none;stroke-dashoffset:0;stroke-opacity:1;paint-order:markers stroke fill"/>
	</g>
</svg>
