<?xml version="1.0" encoding="UTF-8" standalone="no"?>
<!-- Created with Inkscape (http://www.inkscape.org/) -->

<svg
   xmlns:dc="http://purl.org/dc/elements/1.1/"
   xmlns:cc="http://creativecommons.org/ns#"
   xmlns:rdf="http://www.w3.org/1999/02/22-rdf-syntax-ns#"
   xmlns:svg="http://www.w3.org/2000/svg"
   xmlns="http://www.w3.org/2000/svg"
   xmlns:sodipodi="http://sodipodi.sourceforge.net/DTD/sodipodi-0.dtd"
   xmlns:inkscape="http://www.inkscape.org/namespaces/inkscape"
   width="160mm"
   height="56mm"
   viewBox="0 0 160 56"
   version="1.1"
   id="svg8"
   inkscape:version="0.92.4 (5da689c313, 2019-01-14)"
   sodipodi:docname="strike-craft.svg">
  <defs
     id="defs2" />
  <sodipodi:namedview
     id="base"
     pagecolor="#ffffff"
     bordercolor="#666666"
     borderopacity="1.0"
     inkscape:pageopacity="0"
     inkscape:pageshadow="2"
     inkscape:zoom="1.4"
     inkscape:cx="200.70005"
     inkscape:cy="-7.9111033"
     inkscape:document-units="mm"
     inkscape:current-layer="layer1"
     showgrid="false"
     inkscape:snap-bbox="true"
     inkscape:bbox-nodes="true"
     inkscape:snap-bbox-edge-midpoints="true"
     inkscape:pagecheckerboard="false"
     inkscape:window-width="1920"
     inkscape:window-height="1017"
     inkscape:window-x="-8"
     inkscape:window-y="-8"
     inkscape:window-maximized="1"
     fit-margin-top="0"
     fit-margin-left="0"
     fit-margin-right="0"
     fit-margin-bottom="0" />
  <metadata
     id="metadata5">
    <rdf:RDF>
      <cc:Work
         rdf:about="">
        <dc:format>image/svg+xml</dc:format>
        <dc:type
           rdf:resource="http://purl.org/dc/dcmitype/StillImage" />
        <dc:title></dc:title>
      </cc:Work>
    </rdf:RDF>
  </metadata>
  <g
     inkscape:label="Layer 1"
     inkscape:groupmode="layer"
     id="layer1"
     transform="translate(0,-241.00007)">
    <path
       style="fill:#000000;fill-opacity:1;fill-rule:evenodd;stroke:none;stroke-width:0.49999997;stroke-linecap:round;stroke-linejoin:round;stroke-miterlimit:4;stroke-dasharray:none;stroke-dashoffset:0;stroke-opacity:1;paint-order:normal"
       d="m 31.852089,241.17562 c -0.333967,0.012 -0.660635,0.14934 -0.949947,0.39976 -0.182112,0.15909 -0.346242,0.36045 -0.486309,0.59658 h -3.499967 v 0.99631 h 3.10639 c -0.07632,0.32005 -0.115665,0.6574 -0.116421,0.99733 v 1.99366 l -9.968267,1.99365 v 3.98731 h 9.968267 l 0.99734,7.97563 -2.989964,0.99632 v 1.99465 l 2.989964,0.99633 0.797461,-0.79745 0.198852,1.79378 0.19988,-1.79378 0.797461,0.79745 2.989965,-0.99633 v -1.99465 l -2.989965,-0.99632 0.997341,-7.97563 h 9.968268 v -3.98731 l -9.968272,-1.99365 v -1.99366 h -9.96e-4 c -4.07e-4,-0.33988 -0.03945,-0.67718 -0.115398,-0.99733 h 3.10639 v -0.99631 h -3.501001 c -0.140381,-0.23629 -0.304877,-0.43769 -0.487337,-0.59658 -0.316851,-0.27421 -0.67795,-0.41262 -1.043706,-0.39976 z m -19.937563,15.95025 c -0.333969,0.012 -0.659605,0.14932 -0.948918,0.3998 -0.182111,0.1591 -0.346241,0.36046 -0.486306,0.59653 h -3.501 v 0.99632 h 3.107421 c -0.07632,0.32009 -0.1156681,0.65744 -0.1164258,0.99733 v 1.99366 L 0,264.10315 v 3.98731 h 9.9692972 l 0.9963108,7.97562 -2.9899642,0.99634 v 1.9947 l 2.9899642,0.99627 0.797463,-0.79846 0.198849,1.7948 0.199881,-1.7948 0.797461,0.79846 2.989964,-0.99627 v -1.9947 l -2.989964,-0.99634 0.997341,-7.97562 h 9.968267 v -3.98731 l -9.968267,-1.99364 v -1.99366 h -0.0011 c -4.06e-4,-0.33984 -0.03945,-0.67714 -0.115398,-0.99733 h 3.106414 v -0.99632 h -3.500996 c -0.14038,-0.23623 -0.304877,-0.4377 -0.487337,-0.59653 -0.316848,-0.27432 -0.67795,-0.41278 -1.043705,-0.3998 z m 39.875127,0 c -0.333958,0.012 -0.660652,0.14932 -0.949948,0.3998 -0.182032,0.1591 -0.346244,0.36046 -0.486307,0.59653 h -3.499969 v 0.99632 h 3.10639 c -0.07636,0.32009 -0.115625,0.65739 -0.116422,0.99733 v 1.99366 l -9.968265,1.99364 v 3.98731 h 9.968265 l 0.997341,7.97562 -2.990994,0.99634 v 1.99365 l 2.990994,0.99732 0.797463,-0.79846 0.198849,1.7948 0.199881,-1.7948 0.797461,0.79846 2.989966,-0.99732 v -1.99365 l -2.989966,-0.99634 0.997345,-7.97562 h 9.968265 v -3.98731 l -9.968265,-1.99364 v -1.99366 h -0.0011 c -4.23e-4,-0.33989 -0.03947,-0.67714 -0.115398,-0.99733 h 3.10639 v -0.99632 h -3.501002 c -0.140356,-0.23623 -0.30489,-0.4377 -0.487332,-0.59653 -0.316854,-0.27432 -0.677948,-0.41278 -1.043708,-0.3998 z m -19.937564,15.95029 c -0.333967,0.012 -0.660635,0.14933 -0.949947,0.39975 -0.182112,0.1591 -0.346242,0.36042 -0.486309,0.59653 h -3.499967 v 0.99631 h 3.10639 c -0.07632,0.32005 -0.115665,0.65739 -0.116421,0.99733 v 1.99367 l -9.968267,1.99364 v 3.98732 h 9.968267 l 0.99734,7.97567 -2.989964,0.99627 v 1.99471 l 2.989964,0.99633 0.797461,-0.7975 0.198852,1.79377 0.19988,-1.79377 0.797461,0.7975 2.989965,-0.99633 v -1.99471 l -2.989965,-0.99627 0.997341,-7.97567 h 9.968268 v -3.98732 l -9.968268,-1.99364 v -1.99367 h -9.96e-4 c -4.07e-4,-0.33989 -0.03945,-0.67717 -0.115398,-0.99733 h 3.10639 v -0.99631 h -3.501001 c -0.140381,-0.23627 -0.304877,-0.43764 -0.487337,-0.59653 -0.316851,-0.2742 -0.67795,-0.41262 -1.043706,-0.39975 z"
       id="path862"
       inkscape:connector-curvature="0" />
    <path
       style="fill:#000000;fill-opacity:1;fill-rule:evenodd;stroke:none;stroke-width:0.5;stroke-linecap:round;stroke-linejoin:round;stroke-miterlimit:4;stroke-dasharray:none;stroke-dashoffset:0;stroke-opacity:1;paint-order:normal"
       d="m 127.99931,241.00026 c -1.4728,8e-5 -2.66665,1.79116 -2.66649,4.00035 v 0 10.66568 l -7.9995,0.72764 v -2.06015 h -2.66649 v 2.30265 l -2.66649,0.24266 v -2.54521 h -2.66649 v 2.78637 l -2.66649,0.2424 v -3.02887 h -2.66649 v 3.27143 l -8.000872,0.72753 v 5.33287 h 8.000872 v 4.0003 h 2.66649 v -4.0003 h 2.66649 v 4.0003 h 2.66649 v -4.0003 h 2.66649 v 4.0003 h 2.66649 v -4.0003 h 7.9995 l 1.33393,24.00061 -5.33294,1.33346 v 3.33385 l 5.33332,0.66667 1.33218,3.99987 1.33447,-3.99987 5.33332,-0.66667 v -3.33385 l -5.33386,-1.33346 1.33394,-24.00061 h 7.99949 v 4.0003 h 2.66649 v -4.0003 h 2.66787 v 4.0003 h 2.66651 v -4.0003 h 2.66647 v 4.0003 h 2.66651 v -4.0003 H 160 v -5.33287 l -7.99948,-0.72753 v -3.27143 h -2.66651 v 3.02887 l -2.66647,-0.2424 v -2.78637 h -2.66651 v 2.54521 l -2.66787,-0.24266 v -2.30265 h -2.66649 v 2.06015 l -7.99949,-0.72764 v -10.66568 0 c 1.6e-4,-2.20997 -1.19454,-4.00139 -2.66787,-4.00035 z"
       id="path954"
       inkscape:connector-curvature="0"
       sodipodi:nodetypes="ccccccccccccccccccccccccccccccccccccccccccccccccccccccccccccccccccccccc"
       inkscape:export-filename="D:\webstuff\kriegsspiel-online\src\main\resources\uniticons\player\air_bombers.png"
       inkscape:export-xdpi="253.99979"
       inkscape:export-ydpi="253.99979" />
  </g>
</svg>
