<?xml version="1.0" encoding="UTF-8" standalone="no"?>
<!-- Created with Inkscape (http://www.inkscape.org/) -->

<svg
   xmlns:dc="http://purl.org/dc/elements/1.1/"
   xmlns:cc="http://creativecommons.org/ns#"
   xmlns:rdf="http://www.w3.org/1999/02/22-rdf-syntax-ns#"
   xmlns:svg="http://www.w3.org/2000/svg"
   xmlns="http://www.w3.org/2000/svg"
   xmlns:sodipodi="http://sodipodi.sourceforge.net/DTD/sodipodi-0.dtd"
   xmlns:inkscape="http://www.inkscape.org/namespaces/inkscape"
   width="80mm"
   height="28mm"
   viewBox="0 0 80.000002 28"
   version="1.1"
   id="svg8"
   inkscape:version="0.92.4 (5da689c313, 2019-01-14)"
   sodipodi:docname="strike-craft.svg">
  <defs
     id="defs2" />
  <sodipodi:namedview
     id="base"
     pagecolor="#888888"
     bordercolor="#666666"
     borderopacity="1.0"
     inkscape:pageopacity="0"
     inkscape:pageshadow="2"
     inkscape:zoom="3.959798"
     inkscape:cx="113.57249"
     inkscape:cy="65.82835"
     inkscape:document-units="mm"
     inkscape:current-layer="layer1"
     showgrid="false"
     inkscape:snap-bbox="true"
     inkscape:bbox-nodes="true"
     inkscape:snap-bbox-edge-midpoints="true"
     inkscape:pagecheckerboard="false"
     inkscape:window-width="1920"
     inkscape:window-height="1017"
     inkscape:window-x="-8"
     inkscape:window-y="-8"
     inkscape:window-maximized="1"
     fit-margin-top="0"
     fit-margin-left="0"
     fit-margin-right="0"
     fit-margin-bottom="0" />
  <metadata
     id="metadata5">
    <rdf:RDF>
      <cc:Work
         rdf:about="">
        <dc:format>image/svg+xml</dc:format>
        <dc:type
           rdf:resource="http://purl.org/dc/dcmitype/StillImage" />
        <dc:title></dc:title>
      </cc:Work>
    </rdf:RDF>
  </metadata>
  <g
     inkscape:label="Layer 1"
     inkscape:groupmode="layer"
     id="layer1"
     transform="translate(0,-269.00008)">
    <path
       style="fill:#ffffff;fill-opacity:1;fill-rule:evenodd;stroke:none;stroke-width:1.88976383;stroke-linecap:round;stroke-linejoin:round;stroke-miterlimit:4;stroke-dasharray:none;stroke-dashoffset:0;stroke-opacity:1;paint-order:normal"
       d="m 60.380859,1016.6953 c -0.633089,0.023 -1.252341,0.2831 -1.800781,0.7578 -0.345222,0.3016 -0.656359,0.6833 -0.921875,1.1309 h -6.634765 v 1.8887 h 5.888671 c -0.14468,0.6067 -0.219267,1.2462 -0.220703,1.8906 v 3.7793 l -18.896484,3.7793 v 7.5586 h 18.896484 l 1.890625,15.1191 -5.667969,1.8887 v 3.7812 l 5.667969,1.8887 1.511719,-1.5117 0.376953,3.4004 0.378906,-3.4004 1.511719,1.5117 5.667969,-1.8887 v -3.7812 l -5.667969,-1.8887 1.890625,-15.1191 h 18.896485 v -7.5586 l -18.896485,-3.7793 v -3.7793 H 64.25 c -7.71e-4,-0.6443 -0.07479,-1.2837 -0.21875,-1.8906 h 5.888672 v -1.8887 h -6.636719 c -0.266116,-0.4479 -0.577945,-0.8297 -0.923828,-1.1309 -0.600643,-0.5198 -1.285165,-0.7822 -1.978516,-0.7578 z m -37.794921,30.2363 c -0.633094,0.023 -1.25039,0.2831 -1.798829,0.7579 -0.345222,0.3016 -0.656356,0.6833 -0.921875,1.1308 h -6.636718 v 1.8887 h 5.890625 c -0.144681,0.6068 -0.219267,1.2463 -0.220703,1.8906 v 3.7793 L 0,1060.1582 v 7.5586 h 18.898438 l 1.888671,15.1191 -5.667968,1.8887 v 3.7813 l 5.667968,1.8886 1.511719,-1.5136 0.376953,3.4023 0.378907,-3.4023 1.511718,1.5136 5.667969,-1.8886 v -3.7813 l -5.667969,-1.8887 1.890625,-15.1191 h 18.896485 v -7.5586 l -18.896485,-3.7793 v -3.7793 h -0.002 c -7.71e-4,-0.6442 -0.07478,-1.2836 -0.21875,-1.8906 H 32.125 v -1.8887 h -6.636719 c -0.266116,-0.4478 -0.577944,-0.8297 -0.923828,-1.1308 -0.600638,-0.52 -1.285166,-0.7825 -1.978515,-0.7579 z m 75.589843,0 c -0.633071,0.023 -1.252372,0.2831 -1.800781,0.7579 -0.345071,0.3016 -0.656363,0.6833 -0.921875,1.1308 h -6.634766 v 1.8887 h 5.888672 c -0.144756,0.6068 -0.219191,1.2462 -0.220703,1.8906 v 3.7793 l -18.896484,3.7793 v 7.5586 h 18.896484 l 1.890625,15.1191 -5.669922,1.8887 v 3.7793 l 5.669922,1.8906 1.511719,-1.5136 0.376953,3.4023 0.378906,-3.4023 1.511719,1.5136 5.66797,-1.8906 v -3.7793 l -5.66797,-1.8887 1.89063,-15.1191 h 18.89648 v -7.5586 l -18.89648,-3.7793 v -3.7793 h -0.002 c -8e-4,-0.6443 -0.0748,-1.2836 -0.21875,-1.8906 h 5.88867 v -1.8887 h -6.63672 c -0.26607,-0.4478 -0.57797,-0.8297 -0.92382,-1.1308 -0.600649,-0.52 -1.285161,-0.7825 -1.978519,-0.7579 z m -37.794922,30.2364 c -0.633089,0.023 -1.252341,0.2831 -1.800781,0.7578 -0.345222,0.3016 -0.656359,0.6832 -0.921875,1.1308 h -6.634765 v 1.8887 h 5.888671 c -0.14468,0.6067 -0.219267,1.2462 -0.220703,1.8906 v 3.7793 l -18.896484,3.7793 v 7.5586 h 18.896484 l 1.890625,15.1192 -5.667969,1.8886 v 3.7813 l 5.667969,1.8887 1.511719,-1.5118 0.376953,3.4004 0.378906,-3.4004 1.511719,1.5118 5.667969,-1.8887 v -3.7813 l -5.667969,-1.8886 1.890625,-15.1192 h 18.896485 v -7.5586 l -18.896485,-3.7793 v -3.7793 H 64.25 c -7.71e-4,-0.6443 -0.07479,-1.2837 -0.21875,-1.8906 h 5.888672 v -1.8887 h -6.636719 c -0.266116,-0.4479 -0.577945,-0.8296 -0.923828,-1.1308 -0.600643,-0.5198 -1.285165,-0.7822 -1.978516,-0.7578 z"
       transform="scale(0.26458333)"
       id="path862"
       inkscape:connector-curvature="0" />
    <path
       style="fill:#ffffff;fill-opacity:1;fill-rule:evenodd;stroke:none;stroke-width:0.5;stroke-linecap:round;stroke-linejoin:round;stroke-miterlimit:4;stroke-dasharray:none;stroke-dashoffset:0;stroke-opacity:1;paint-order:normal"
       d="m 63.999712,269.00008 c -0.736404,4e-5 -1.333331,0.89558 -1.333252,2.00018 v 0 5.33286 l -3.999755,0.36382 v -1.03008 h -1.333252 v 1.15133 l -1.333251,0.12133 v -1.27261 H 54.66695 v 1.39319 l -1.333254,0.1212 v -1.51444 h -1.33325 v 1.63572 L 48,277.66635 v 2.66644 h 4.000446 v 2.00016 h 1.33325 v -2.00016 h 1.333254 v 2.00016 h 1.333252 v -2.00016 h 1.333251 v 2.00016 h 1.333252 v -2.00016 h 3.999755 l 0.666971,12.00035 -2.666476,0.66673 v 1.66693 l 2.666666,0.33334 0.666091,1.99994 0.667243,-1.99994 2.666666,-0.33334 v -1.66693 l -2.666938,-0.66673 0.66697,-12.00035 h 3.999755 v 2.00016 h 1.333253 v -2.00016 h 1.333941 v 2.00016 h 1.333254 v -2.00016 h 1.333249 v 2.00016 h 1.333253 v -2.00016 h 3.999755 v -2.66644 l -3.999755,-0.36377 v -1.63572 h -1.333253 v 1.51444 l -1.333249,-0.1212 v -1.39319 h -1.333254 v 1.27261 l -1.333941,-0.12133 v -1.15133 h -1.333253 v 1.03008 l -3.999755,-0.36382 v -5.33286 0 c 7.9e-5,-1.10499 -0.597269,-2.0007 -1.333941,-2.00018 z"
       id="path954"
       inkscape:connector-curvature="0"
       sodipodi:nodetypes="ccccccccccccccccccccccccccccccccccccccccccccccccccccccccccccccccccccccc"
       inkscape:export-filename="D:\webstuff\kriegsspiel-online\src\main\resources\uniticons\player\air_bombers.png"
       inkscape:export-xdpi="253.99979"
       inkscape:export-ydpi="253.99979" />
  </g>
</svg>
