<?xml version="1.0" encoding="UTF-8" standalone="no"?>
<!-- Created with Inkscape (http://www.inkscape.org/) -->

<svg
   xmlns:dc="http://purl.org/dc/elements/1.1/"
   xmlns:cc="http://creativecommons.org/ns#"
   xmlns:rdf="http://www.w3.org/1999/02/22-rdf-syntax-ns#"
   xmlns:svg="http://www.w3.org/2000/svg"
   xmlns="http://www.w3.org/2000/svg"
   xmlns:sodipodi="http://sodipodi.sourceforge.net/DTD/sodipodi-0.dtd"
   xmlns:inkscape="http://www.inkscape.org/namespaces/inkscape"
   width="144mm"
   height="144mm"
   viewBox="0 0 144 144"
   version="1.1"
   id="svg8"
   inkscape:version="0.92.4 (5da689c313, 2019-01-14)"
   sodipodi:docname="subsystems.svg">
  <defs
     id="defs2" />
  <sodipodi:namedview
     id="base"
     pagecolor="#888888"
     bordercolor="#666666"
     borderopacity="1.0"
     inkscape:pageopacity="0"
     inkscape:pageshadow="2"
     inkscape:zoom="1.4"
     inkscape:cx="248.01404"
     inkscape:cy="272.97214"
     inkscape:document-units="mm"
     inkscape:current-layer="layer1"
     showgrid="false"
     inkscape:snap-midpoints="true"
     inkscape:snap-bbox="true"
     inkscape:snap-bbox-midpoints="true"
     inkscape:snap-bbox-edge-midpoints="true"
     inkscape:bbox-nodes="true"
     showguides="false"
     inkscape:snap-smooth-nodes="true"
     inkscape:window-width="1920"
     inkscape:window-height="1017"
     inkscape:window-x="-8"
     inkscape:window-y="-8"
     inkscape:window-maximized="1"
     fit-margin-top="0"
     fit-margin-left="0"
     fit-margin-right="0"
     fit-margin-bottom="0" />
  <metadata
     id="metadata5">
    <rdf:RDF>
      <cc:Work
         rdf:about="">
        <dc:format>image/svg+xml</dc:format>
        <dc:type
           rdf:resource="http://purl.org/dc/dcmitype/StillImage" />
        <dc:title></dc:title>
      </cc:Work>
    </rdf:RDF>
  </metadata>
  <g
     inkscape:label="Layer 1"
     inkscape:groupmode="layer"
     id="layer1"
     transform="translate(0,-153.00018)">
    <path
       style="fill:#6699ff;fill-opacity:1;fill-rule:nonzero;stroke:none;stroke-width:3.17499971;stroke-linecap:square;stroke-linejoin:miter;stroke-miterlimit:4;stroke-dasharray:none;stroke-dashoffset:0;stroke-opacity:1;paint-order:normal"
       d="M 111.9996,152.99978 A 31.999996,31.999999 0 0 0 80,184.99989 31.999996,31.999999 0 0 0 111.9996,217 31.999996,31.999999 0 0 0 143.99971,184.99989 31.999996,31.999999 0 0 0 111.9996,152.99978 Z m 0,1.99988 a 30,30 0 0 1 30.00024,30.00023 30,30 0 0 1 -30.00024,30.00023 30,30 0 0 1 -29.999721,-30.00023 30,30 0 0 1 29.999721,-30.00023 z m 1.834,2.06654 -0.15038,1.99419 0.99632,0.0765 h 0.002 0.004 l 1.27537,0.16227 0.5979,0.10697 0.98443,0.17621 0.35347,-1.96887 -0.9865,-0.1757 -0.6227,-0.11162 -0.0238,-0.004 -0.0253,-0.004 -1.35134,-0.17208 -0.0253,-0.002 -0.0258,-0.002 h -0.004 z m -6.23218,0.28009 -0.98444,0.17518 -0.23461,0.0429 -0.0253,0.004 -0.0233,0.006 -1.3069,0.30075 -0.0233,0.006 -0.0253,0.008 -0.40411,0.11523 -0.96325,0.2713 0.54674,1.92392 0.96325,-0.2713 0.39636,-0.11369 0.008,-0.002 1.24023,-0.28526 0.0176,-0.004 0.18552,-0.0331 0.98444,-0.1757 z m 16.25379,2.26911 -0.91209,1.77922 0.88884,0.45682 0.56224,0.28732 0.0196,0.01 1.0666,0.61546 0.0155,0.01 0.84181,0.54105 1.08003,-1.68568 -0.84181,-0.53899 -0.0351,-0.0232 -0.0217,-0.0119 -0.0217,-0.0134 -1.12861,-0.64854 -0.0217,-0.014 -0.0212,-0.01 -0.58239,-0.29869 z m -25.994285,1.19321 -0.841809,0.54105 -0.654222,0.42013 -0.02119,0.0114 -0.01964,0.0155 -0.994254,0.70745 -0.816488,0.57981 1.160134,1.62884 0.814422,-0.57981 0.980818,-0.69556 0.0155,-0.0114 0.61495,-0.39274 0.841809,-0.54105 z m 14.138675,0.1912 -7.4998,7.4998 v 7.50032 h 3.75016 v 16.49976 h -2.25 v 1.87534 h -5.99963 l -5.16e-4,2.99982 6.000146,5.99964 v 1.87534 h 5.24982 v 3.75015 h 1.50016 v -3.75015 h 5.24929 v -1.87534 l 6.00067,-5.99964 -5.1e-4,-2.99982 h -6.00016 v -1.87534 h -2.24947 v -16.49976 h 3.74913 v -7.50032 z m 20.25613,4.63124 -1.51205,1.30845 0.65474,0.75603 0.67748,0.78289 0.002,0.002 0.56431,0.71882 0.61753,0.78703 1.57407,-1.2361 -0.61909,-0.78548 -0.59376,-0.75758 -0.0155,-0.0176 -0.016,-0.0196 -0.67955,-0.7829 z m -42.210864,1.93735 -0.580326,0.81442 -0.668177,0.94154 -0.01344,0.0196 -0.01344,0.0191 -0.457335,0.71314 -0.538986,0.84181 1.683618,1.07797 0.538986,-0.84181 0.429948,-0.66973 0.0098,-0.0139 0.659908,-0.92759 0.580327,-0.81649 z m 47.813624,6.6859 -1.8588,0.73225 0.36535,0.93121 0.0486,0.11937 0.006,0.0196 0.40411,1.18753 0.002,0.006 0.13488,0.47284 0.2713,0.96273 1.92391,-0.54673 -0.2713,-0.96274 -0.13694,-0.47852 -0.006,-0.0238 -0.0103,-0.0233 -0.42375,-1.25367 -0.008,-0.0238 -0.0103,-0.0232 -0.0646,-0.16588 z m -52.600929,2.42104 -0.27337,0.96118 -0.0956,0.3421 -0.0078,0.0253 -0.0062,0.0232 -0.300757,1.3069 -0.0057,0.0233 -0.0041,0.0253 -0.05478,0.2992 -0.175699,0.98392 1.968873,0.35192 0.177766,-0.98444 0.04289,-0.25011 0.0057,-0.0217 0.283188,-1.23609 0.0021,-0.01 0.09405,-0.33228 0.273368,-0.96273 z m 52.767839,7.29929 -0.0258,0.99994 -0.0331,1.33792 -0.002,0.0139 -0.0429,0.59531 -0.076,0.99838 1.99368,0.15039 0.0765,-0.99631 0.047,-0.60929 0.002,-0.0253 v -0.0253 l 0.0351,-1.38906 0.0253,-0.99993 z m -52.011813,2.72851 -1.984375,0.25218 0.125055,0.99219 0.163817,1.2909 0.0041,0.0253 0.0036,0.0232 0.122991,0.68937 0.1757,0.98444 1.968873,-0.3514 -0.175702,-0.98443 -0.119372,-0.66199 -0.159682,-1.26762 z m 50.591753,6.7717 -0.36742,0.92964 -0.28526,0.72451 -0.006,0.0134 -0.47853,1.05471 -0.41031,0.91209 1.82211,0.82423 0.41238,-0.91207 0.4961,-1.09969 0.01,-0.0232 0.0103,-0.0212 0.29094,-0.73845 0.3669,-0.92964 z m -48.180015,2.52695 -1.781286,0.9121 0.457338,0.88884 0.267684,0.52348 0.0098,0.0217 0.01344,0.0191 0.648539,1.1312 0.01344,0.0212 0.01188,0.0196 0.05839,0.092 0.541054,0.84183 1.683618,-1.0785 -0.541052,-0.8418 -0.03307,-0.0506 -0.0078,-0.0119 -0.619085,-1.0759 -0.0098,-0.0196 -0.01395,-0.0233 -0.243912,-0.48058 z m 43.465055,5.80277 -0.68937,0.72501 -0.79891,0.83767 -0.0176,0.0176 -0.0176,0.0176 -0.53899,0.51366 -0.7245,0.68935 1.38079,1.44745 0.72244,-0.68934 0.57412,-0.54726 0.0176,-0.0176 0.0176,-0.0176 0.83199,-0.87281 0.68988,-0.72244 z m -37.900537,1.98231 -1.310513,1.51204 0.756026,0.65423 0.734322,0.63664 0.01964,0.0155 0.01757,0.016 0.808736,0.63458 0.787032,0.61701 1.234033,-1.572 -0.784966,-0.61754 -0.771528,-0.60512 -0.0021,-0.002 -0.732252,-0.63457 z m 12.760467,2.21279 v 2.24999 h 3.75016 v -2.24999 z m 6.74894,0 v 2.24999 h 3.74965 v -2.24999 z m 10.91406,1.85155 -0.88986,0.45527 -0.23048,0.11938 -0.0103,0.004 -1.14049,0.51728 -0.014,0.006 -0.33951,0.13488 -0.92966,0.36483 0.73432,1.86137 0.92966,-0.36689 0.35347,-0.13902 0.0217,-0.01 0.0233,-0.01 1.19527,-0.54104 0.0233,-0.0104 0.0217,-0.0113 0.27337,-0.13901 0.89038,-0.45683 z m -22.36453,1.17306 -0.73484,1.86034 0.93173,0.36536 0.10387,0.0408 0.0233,0.0104 0.0233,0.008 1.25419,0.42373 0.0233,0.008 0.0238,0.008 0.5426,0.15451 0.96118,0.27337 0.54674,-1.92392 -0.96067,-0.27337 -0.49609,-0.14057 -0.006,-0.002 -1.23455,-0.41807 -0.0134,-0.004 -0.0584,-0.0238 z m 13.28292,1.79006 -0.99787,0.0765 -1.00614,0.0744 -0.0134,0.002 -0.92604,0.0238 -0.99994,0.0253 0.0512,1.99781 0.99787,-0.0253 0.97669,-0.0233 0.0253,-0.002 0.0253,-0.002 1.02164,-0.076 0.99581,-0.0765 z"
       id="path945"
       inkscape:connector-curvature="0" />
    <path
       style="fill:#ff6633;fill-opacity:1;fill-rule:nonzero;stroke:none;stroke-width:3.17500019;stroke-linecap:square;stroke-linejoin:miter;stroke-miterlimit:4;stroke-dasharray:none;stroke-dashoffset:0;stroke-opacity:1;paint-order:normal"
       d="M 3.0000002e-6,200.99995 9.999913,210.99985 h 9.9999 v -5.00021 h 22.0002 v 3.00033 h 2.50013 v 7.99952 l 3.99973,5.1e-4 8.00005,-8.00003 h 2.5001 v -7.00008 h 5.0002 v -1.99988 h -5.0002 v -6.99957 h -2.5001 l -8.00005,-8.00055 -3.99973,5.2e-4 v 8.00003 h -2.50013 v 2.99981 h -22.0002 v -4.99918 h -9.9999 z M 0.824243,165.54991 c 0.0549,2.6629 0.88256,5.63967 2.51354,8.46461 l 1.64693,-6.14743 17.39739,21.13307 -9.60304,-25.63306 6.14743,1.64745 c -3.72795,-6.457 -10.23967,-9.6766 -14.54433,-7.1913 -2.42137,1.39799 -3.62855,4.30294 -3.55792,7.72666 z m 21.55786,0.95034 4.49947,-4.50051 4.50049,27.00042 4.49999,-27.00042 4.49998,4.50051 c 0,-7.4559 -4.02937,-13.50047 -8.99997,-13.50047 -4.97061,0 -8.99996,6.04457 -8.99996,13.50047 z m 17.99993,22.49991 17.39739,-21.13307 1.64745,6.14743 c 3.72795,-6.457 3.25975,-13.70597 -1.04489,-16.19127 -4.30469,-2.4853 -10.81588,0.7343 -14.54383,7.1913 l 6.14691,-1.64745 z m 19.61793,18.99884 h 2.99982 v -4.99969 h -2.99982 z m 0,-8.99841 h 2.99982 v -4.9997 h -2.99982 z"
       id="path888"
       inkscape:connector-curvature="0" />
    <path
       style="fill:#ffcc33;fill-opacity:1;fill-rule:nonzero;stroke:none;stroke-width:12.00000095;stroke-linecap:square;stroke-linejoin:miter;stroke-miterlimit:4;stroke-dasharray:none;stroke-dashoffset:0;stroke-opacity:1;paint-order:normal"
       d="m 60.472656,880.62891 -37.794922,37.79492 v 37.79492 h 18.898438 v 83.15035 H 30.236328 v 9.4493 H 0.00195313 L 0,1063.9355 l 30.236328,30.2364 v 9.4492 h 26.457031 v 18.8984 h 7.558594 v -18.8984 h 26.455078 v -9.4492 l 30.238279,-30.2364 -0.002,-15.1171 H 90.707031 v -9.4493 H 79.369141 V 956.21875 H 98.263672 V 918.42383 Z M 188.97461,884.4082 136.0625,929.76367 V 960 L 188.97461,914.64453 241.88867,960 v -30.23633 z m 0,52.91407 -52.91211,45.35546 v 30.23637 l 52.91211,-45.35551 52.91406,45.35551 v -30.23637 z m 0,52.91211 -52.91211,45.35542 v 30.2364 l 52.91211,-45.3555 52.91406,45.3555 v -30.2364 z m 0,52.91402 -52.91211,45.3555 v 30.2363 l 52.91211,-45.3554 52.91406,45.3554 v -30.2363 z m -154.955079,64.252 v 11.3379 h 18.896485 v -11.3379 z m 34.009766,0 v 11.3379 h 18.896484 v -11.3379 z"
       transform="scale(0.26458333)"
       id="path888-4"
       inkscape:connector-curvature="0" />
    <path
       style="fill:#33ff66;fill-opacity:1;fill-rule:nonzero;stroke:none;stroke-width:12.00000095;stroke-linecap:square;stroke-linejoin:miter;stroke-miterlimit:4;stroke-dasharray:none;stroke-dashoffset:0;stroke-opacity:1;paint-order:normal"
       d="M 423.5332 302.36328 A 120.94488 120.94488 0 0 0 345.56445 330.6582 L 355.2832 342.23828 A 105.82677 105.82677 0 0 1 459.50195 323.86328 L 464.67188 309.65625 A 120.94488 120.94488 0 0 0 423.5332 302.36328 z M 423.47656 332.59766 A 90.708658 90.708658 0 0 0 365 353.82031 L 374.71875 365.40039 A 75.590549 75.590549 0 0 1 449.16016 352.27539 L 454.33008 338.06836 A 90.708658 90.708658 0 0 0 423.47656 332.59766 z M 423.41992 362.83398 A 60.472439 60.472439 0 0 0 384.43555 376.98242 L 394.1543 388.56445 A 45.354329 45.354329 0 0 1 438.81836 380.6875 L 443.99023 366.48242 A 60.472439 60.472439 0 0 0 423.41992 362.83398 z M 485.66797 362.83398 L 470.55078 362.83594 L 470.55078 393.07227 L 461.10156 393.07227 L 461.10156 404.41016 L 377.95117 404.41016 L 377.95117 385.51562 L 340.15625 385.51562 L 302.36133 423.30664 L 340.15625 461.10156 L 377.95117 461.10156 L 377.95117 442.20312 L 461.10156 442.20312 L 461.10156 453.54297 L 470.55078 453.54297 L 470.55078 483.77734 L 485.66797 483.7793 L 515.9043 453.54297 L 525.35352 453.54297 L 525.35352 427.08594 L 544.25195 427.08594 L 544.25195 419.52734 L 525.35352 419.52734 L 525.35352 393.07227 L 515.9043 393.07227 L 485.66797 362.83398 z M 529.13281 396.85352 L 529.13281 415.75 L 540.4707 415.75 L 540.4707 396.85352 L 529.13281 396.85352 z M 529.13281 430.86328 L 529.13281 449.75977 L 540.4707 449.75977 L 540.4707 430.86328 L 529.13281 430.86328 z M 394.15234 458.05078 L 384.43555 469.63086 A 60.47272 60.47272 0 0 0 443.99023 480.13281 L 438.81836 465.92578 A 45.354542 45.354542 0 0 1 394.15234 458.05078 z M 374.7168 481.21289 L 365 492.79492 A 90.709083 90.709083 0 0 0 454.33008 508.54492 L 449.16016 494.33984 A 75.590901 75.590901 0 0 1 374.7168 481.21289 z M 355.28125 504.375 L 345.56445 515.95703 A 120.94546 120.94546 0 0 0 464.67188 536.95898 L 459.50195 522.75195 A 105.82726 105.82726 0 0 1 355.28125 504.375 z "
       transform="matrix(0.26458333,0,0,0.26458333,0,153.00018)"
       id="path1169" />
  </g>
</svg>
