<?xml version="1.0" encoding="UTF-8" standalone="no"?>
<!-- Created with Inkscape (http://www.inkscape.org/) -->

<svg
   xmlns:dc="http://purl.org/dc/elements/1.1/"
   xmlns:cc="http://creativecommons.org/ns#"
   xmlns:rdf="http://www.w3.org/1999/02/22-rdf-syntax-ns#"
   xmlns:svg="http://www.w3.org/2000/svg"
   xmlns="http://www.w3.org/2000/svg"
   xmlns:sodipodi="http://sodipodi.sourceforge.net/DTD/sodipodi-0.dtd"
   xmlns:inkscape="http://www.inkscape.org/namespaces/inkscape"
   width="144mm"
   height="144mm"
   viewBox="0 0 144 144"
   version="1.1"
   id="svg8"
   inkscape:version="0.92.4 (5da689c313, 2019-01-14)"
   sodipodi:docname="subsystems.svg">
  <defs
     id="defs2" />
  <sodipodi:namedview
     id="base"
     pagecolor="#888888"
     bordercolor="#666666"
     borderopacity="1.0"
     inkscape:pageopacity="0"
     inkscape:pageshadow="2"
     inkscape:zoom="0.98994949"
     inkscape:cx="489.74695"
     inkscape:cy="214.06125"
     inkscape:document-units="mm"
     inkscape:current-layer="layer1"
     showgrid="false"
     inkscape:snap-midpoints="true"
     inkscape:snap-bbox="true"
     inkscape:snap-bbox-midpoints="true"
     inkscape:snap-bbox-edge-midpoints="true"
     inkscape:bbox-nodes="true"
     showguides="false"
     inkscape:snap-smooth-nodes="true"
     inkscape:window-width="1920"
     inkscape:window-height="1017"
     inkscape:window-x="-8"
     inkscape:window-y="-8"
     inkscape:window-maximized="1"
     fit-margin-top="0"
     fit-margin-left="0"
     fit-margin-right="0"
     fit-margin-bottom="0" />
  <metadata
     id="metadata5">
    <rdf:RDF>
      <cc:Work
         rdf:about="">
        <dc:format>image/svg+xml</dc:format>
        <dc:type
           rdf:resource="http://purl.org/dc/dcmitype/StillImage" />
        <dc:title />
      </cc:Work>
    </rdf:RDF>
  </metadata>
  <g
     inkscape:label="Layer 1"
     inkscape:groupmode="layer"
     id="layer1"
     transform="translate(0,-153.00018)">
    <path
       style="fill:#6699ff;fill-opacity:1;fill-rule:nonzero;stroke:none;stroke-width:3.17499971;stroke-linecap:square;stroke-linejoin:miter;stroke-miterlimit:4;stroke-dasharray:none;stroke-dashoffset:0;stroke-opacity:1;paint-order:normal"
       d="m 89.372179,162.37257 a 31.999999,31.999996 45 0 0 3.57e-4,45.25463 31.999999,31.999996 45 0 0 45.254634,3.6e-4 31.999999,31.999996 45 0 0 0,-45.25499 31.999999,31.999996 45 0 0 -45.254991,0 z m 1.414129,1.41413 a 30,30 0 0 1 42.426732,-1e-5 30,30 0 0 1 0,42.42674 30,30 0 0 1 -42.426382,-3.5e-4 30,30 0 0 1 -3.5e-4,-42.42638 z m 2.758098,0.16443 1.303771,1.51644 0.758598,-0.65041 0.0014,-0.001 0.0028,-0.003 1.016565,-0.78708 0.498418,-0.34714 0.820696,-0.5715 -1.14226,-1.64214 -0.821799,0.57332 -0.519243,0.36139 -0.01966,0.014 -0.02072,0.0151 -1.07722,0.83386 -0.0193,0.0165 -0.01966,0.0168 -0.0028,0.003 z m -4.208763,4.60487 -0.572233,0.81998 -0.13556,0.19623 -0.01506,0.0207 -0.01223,0.0207 -0.711456,1.13678 -0.01223,0.0207 -0.01223,0.0236 -0.204269,0.36723 -0.489283,0.87296 1.74702,0.97381 0.489283,-0.87296 0.199878,-0.36066 0.0042,-0.007 0.675265,-1.07869 0.0096,-0.0153 0.107777,-0.15459 0.571866,-0.82034 z m 13.097667,-9.88866 0.61315,1.90304 0.95153,-0.30548 0.60073,-0.1944 0.0209,-0.007 1.1894,-0.319 0.018,-0.004 0.97783,-0.21267 -0.42826,-1.95565 -0.97638,0.21412 -0.0412,0.008 -0.0238,0.007 -0.0248,0.006 -1.25663,0.33946 -0.0252,0.005 -0.0221,0.008 -0.62302,0.20061 z m -17.537011,19.22447 -0.212669,0.97783 -0.165527,0.75968 -0.0069,0.023 -0.0029,0.0248 -0.202798,1.20328 -0.167358,0.98733 1.9721,0.33143 0.165894,-0.98587 0.201709,-1.18538 0.0029,-0.019 0.157126,-0.71254 0.212669,-0.97783 z m 10.132756,-9.86236 v 10.60632 l 5.303525,5.30352 2.65176,-2.65176 11.66709,11.66709 -1.59099,1.59099 1.32607,1.32606 -4.24238,4.24238 2.12083,2.12156 8.48513,-3.6e-4 1.32606,1.32607 3.71219,-3.71218 2.65175,2.65175 1.06078,-1.06077 -2.65176,-2.65176 3.71181,-3.71181 -1.32607,-1.32606 7.3e-4,-8.4855 -2.12156,-2.12083 -4.24275,4.24275 -1.32606,-1.32607 -1.59062,1.59062 -11.66709,-11.66709 2.65104,-2.65104 -5.30353,-5.30352 z m 17.598025,-11.04847 -0.14396,1.9944 0.99756,0.0716 1.03264,0.0745 h 0.003 l 0.90731,0.10925 0.99317,0.11986 0.23898,-1.98709 -0.99318,-0.11766 -0.95554,-0.11584 -0.0234,-0.001 -0.0252,-0.003 -1.03411,-0.0731 z m -28.477676,31.21751 0.165526,0.98624 0.193302,1.13823 0.0044,0.0233 0.004,0.023 0.180878,0.82765 0.214133,0.97637 1.952739,-0.42826 -0.214133,-0.97637 -0.169551,-0.77759 -0.0028,-0.0169 -0.189279,-1.12253 -0.166997,-0.98769 z m 38.536986,-29.0817 -0.79659,1.83215 0.9168,0.40012 0.11878,0.05 0.0181,0.01 1.12546,0.55397 0.006,0.003 0.42972,0.23896 0.87259,0.48892 0.97381,-1.74701 -0.8726,-0.48892 -0.43519,-0.24153 -0.0211,-0.0126 -0.0238,-0.009 -1.18612,-0.58685 -0.0225,-0.0112 -0.0237,-0.009 -0.16297,-0.0716 z m -35.482536,38.90641 0.486355,0.87296 0.174302,0.3095 0.01223,0.0236 0.01216,0.0207 0.711448,1.13678 0.01223,0.0207 0.01506,0.0207 0.172817,0.25032 0.571498,0.81997 1.641046,-1.14336 -0.570402,-0.8218 -0.14652,-0.20719 -0.0111,-0.0196 -0.673802,-1.07429 -0.0057,-0.008 -0.168489,-0.30142 -0.487459,-0.87405 z m 42.473876,-32.15112 0.68882,0.72531 0.92265,0.96946 0.008,0.0112 0.39061,0.45128 0.65223,0.7597 1.51608,-1.3034 -0.6504,-0.75859 -0.3976,-0.46407 -0.0165,-0.0193 -0.0179,-0.0179 -0.95739,-1.00703 -0.68917,-0.72495 z m -34.848564,38.70726 -1.224843,1.58148 0.790008,0.61316 1.028642,0.79697 0.02072,0.0151 0.01923,0.0136 0.574425,0.40049 0.820343,0.57186 1.143724,-1.64068 -0.820343,-0.57186 -0.552505,-0.38369 -1.009246,-0.78343 z m 40.562094,-30.98546 0.39754,0.91717 0.3106,0.714 0.005,0.0137 0.40741,1.08417 0.35481,0.93508 1.87125,-0.70561 -0.35333,-0.93653 -0.4268,-1.12839 -0.009,-0.0235 -0.008,-0.0223 -0.31644,-0.72789 -0.39792,-0.91679 z m -32.2816,35.85524 -0.61461,1.90452 0.9519,0.30511 0.55944,0.18087 0.0224,0.008 0.023,0.004 1.25846,0.3413 0.0245,0.006 0.0223,0.005 0.10635,0.0238 0.97785,0.21267 0.42789,-1.95311 -0.97783,-0.21266 -0.0592,-0.0124 -0.0141,-0.003 -1.19854,-0.32301 -0.0209,-0.007 -0.0263,-0.007 -0.51229,-0.16736 z m 34.83762,-26.63126 0.0252,1.00012 0.0274,1.15724 v 0.0249 l 0,0.0249 -0.0179,0.74433 -0.0249,0.99974 1.99987,0.0471 0.0234,-0.99828 0.019,-0.79292 v -0.0249 -0.0249 l -0.0289,-1.20548 -0.023,-0.99866 z m -25.39802,28.20143 0.14249,1.99586 0.99721,-0.072 0.96941,-0.0691 0.0248,-0.003 0.0238,-0.001 1.02058,-0.12315 0.99281,-0.12022 -0.23898,-1.98416 -0.99172,0.11838 -0.97344,0.11767 h -0.003 l -0.96649,0.0691 z m 10.58769,-7.45833 1.59098,1.59098 2.65177,-2.65176 -1.59099,-1.59098 z m 4.77222,-4.77222 1.59098,1.59098 2.65141,-2.6514 -1.59099,-1.59099 z m 9.02665,-6.40816 -0.3073,0.95115 -0.0786,0.24738 -0.004,0.0101 -0.44067,1.17222 -0.006,0.0141 -0.14469,0.33544 -0.3994,0.91535 1.83543,0.79694 0.39793,-0.91679 0.15165,-0.34825 0.008,-0.0224 0.009,-0.0235 0.46261,-1.22776 0.009,-0.0238 0.007,-0.0233 0.095,-0.2916 0.30656,-0.95262 z m -14.98463,16.64358 0.79584,1.83508 0.91719,-0.40049 0.10229,-0.0446 0.0238,-0.009 0.0221,-0.0108 1.18647,-0.58722 0.0221,-0.0108 0.0225,-0.0112 0.49293,-0.27442 0.87296,-0.48635 -0.97382,-1.74702 -0.87259,0.48599 -0.45018,0.25139 -0.006,0.003 -1.16857,0.57734 -0.0123,0.007 -0.0581,0.0245 z m 10.6582,-8.12667 -0.6515,0.75969 -0.65884,0.76406 -0.008,0.0109 -0.63798,0.67163 -0.68918,0.72496 1.44887,1.37646 0.68772,-0.7235 0.67415,-0.7071 0.0165,-0.0193 0.0165,-0.0193 0.66866,-0.77614 0.65006,-0.75824 z"
       id="path945"
       inkscape:connector-curvature="0" />
    <path
       style="fill:#ff6633;fill-opacity:1;fill-rule:nonzero;stroke:none;stroke-width:3.17500019;stroke-linecap:square;stroke-linejoin:miter;stroke-miterlimit:4;stroke-dasharray:none;stroke-dashoffset:0;stroke-opacity:1;paint-order:normal"
       d="M 3.0000002e-6,200.99995 9.999913,210.99985 h 9.9999 v -5.00021 h 22.0002 v 3.00033 h 2.50013 v 7.99952 l 3.99973,5.1e-4 8.00005,-8.00003 h 2.5001 v -7.00008 h 5.0002 v -1.99988 h -5.0002 v -6.99957 h -2.5001 l -8.00005,-8.00055 -3.99973,5.2e-4 v 8.00003 h -2.50013 v 2.99981 h -22.0002 v -4.99918 h -9.9999 z M 0.824243,165.54991 c 0.0549,2.6629 0.88256,5.63967 2.51354,8.46461 l 1.64693,-6.14743 17.39739,21.13307 -9.60304,-25.63306 6.14743,1.64745 c -3.72795,-6.457 -10.23967,-9.6766 -14.54433,-7.1913 -2.42137,1.39799 -3.62855,4.30294 -3.55792,7.72666 z m 21.55786,0.95034 4.49947,-4.50051 4.50049,27.00042 4.49999,-27.00042 4.49998,4.50051 c 0,-7.4559 -4.02937,-13.50047 -8.99997,-13.50047 -4.97061,0 -8.99996,6.04457 -8.99996,13.50047 z m 17.99993,22.49991 17.39739,-21.13307 1.64745,6.14743 c 3.72795,-6.457 3.25975,-13.70597 -1.04489,-16.19127 -4.30469,-2.4853 -10.81588,0.7343 -14.54383,7.1913 l 6.14691,-1.64745 z m 19.61793,18.99884 h 2.99982 v -4.99969 h -2.99982 z m 0,-8.99841 h 2.99982 v -4.9997 h -2.99982 z"
       id="path888"
       inkscape:connector-curvature="0" />
    <path
       style="fill:#ffcc33;fill-opacity:1;fill-rule:nonzero;stroke:none;stroke-width:3.17500019;stroke-linecap:square;stroke-linejoin:miter;stroke-miterlimit:4;stroke-dasharray:none;stroke-dashoffset:0;stroke-opacity:1;paint-order:normal"
       d="m 56.000057,232.99996 -9.999907,9.99991 v 9.9999 h 5.000212 v 22.0002 h -3.000334 v 2.50013 H 40.000517 L 40,281.49983 l 8.000028,8.00005 v 2.5001 h 7.00009 v 5.0002 h 1.999878 v -5.0002 h 6.999572 v -2.5001 l 8.000545,-8.00005 -5.29e-4,-3.99973 h -8.000016 v -2.50013 h -2.999816 v -22.0002 h 4.999178 v -9.9999 z m 33.999475,0.99994 -13.999663,12.0003 v 8.00003 l 13.999663,-12.0003 14.000178,12.0003 v -8.00003 z m 0,14.00018 -13.999663,12.0003 v 8.00004 l 13.999663,-12.00032 14.000178,12.00032 v -8.00004 z m 0,13.99966 -13.999663,12.00029 v 8.00005 l 13.999663,-12.00031 14.000178,12.00031 v -8.00005 z m 0,14.00017 -13.999663,12.00031 v 8.00002 l 13.999663,-12.00028 14.000178,12.00028 v -8.00002 z m -40.998531,17.00001 v 2.99982 h 4.999695 v -2.99982 z m 8.998417,0 v 2.99982 h 4.999695 v -2.99982 z"
       id="path888-4"
       inkscape:connector-curvature="0" />
  </g>
</svg>
