<?xml version="1.0" encoding="UTF-8" standalone="no"?>
<!-- Created with Inkscape (http://www.inkscape.org/) -->

<svg
   width="384"
   height="224"
   viewBox="0 0 384 224"
   version="1.1"
   id="svg8"
   inkscape:version="1.2 (dc2aedaf03, 2022-05-15)"
   sodipodi:docname="weapons.svg"
   xmlns:inkscape="http://www.inkscape.org/namespaces/inkscape"
   xmlns:sodipodi="http://sodipodi.sourceforge.net/DTD/sodipodi-0.dtd"
   xmlns="http://www.w3.org/2000/svg"
   xmlns:svg="http://www.w3.org/2000/svg"
   xmlns:rdf="http://www.w3.org/1999/02/22-rdf-syntax-ns#"
   xmlns:cc="http://creativecommons.org/ns#"
   xmlns:dc="http://purl.org/dc/elements/1.1/">
  <defs
     id="defs2" />
  <sodipodi:namedview
     id="base"
     pagecolor="#ffffff"
     bordercolor="#666666"
     borderopacity="1.0"
     inkscape:pageopacity="0"
     inkscape:pageshadow="2"
     inkscape:zoom="8.5459431"
     inkscape:cx="297.68511"
     inkscape:cy="165.80967"
     inkscape:document-units="px"
     inkscape:current-layer="layer1"
     showgrid="false"
     inkscape:snap-midpoints="true"
     inkscape:snap-bbox="true"
     inkscape:snap-bbox-midpoints="true"
     inkscape:snap-bbox-edge-midpoints="true"
     inkscape:bbox-nodes="false"
     showguides="false"
     inkscape:snap-smooth-nodes="true"
     inkscape:window-width="2560"
     inkscape:window-height="1529"
     inkscape:window-x="-8"
     inkscape:window-y="-8"
     inkscape:window-maximized="1"
     fit-margin-top="0"
     fit-margin-left="0"
     fit-margin-right="0"
     fit-margin-bottom="0"
     inkscape:snap-center="false"
     inkscape:snap-intersection-paths="true"
     inkscape:showpageshadow="2"
     inkscape:pagecheckerboard="0"
     inkscape:deskcolor="#d1d1d1" />
  <metadata
     id="metadata5">
    <rdf:RDF>
      <cc:Work
         rdf:about="">
        <dc:format>image/svg+xml</dc:format>
        <dc:type
           rdf:resource="http://purl.org/dc/dcmitype/StillImage" />
      </cc:Work>
    </rdf:RDF>
  </metadata>
  <g
     inkscape:label="Layer 1"
     inkscape:groupmode="layer"
     id="layer1"
     transform="translate(0,-73.00018)">
    <path
       style="fill:#000000;fill-opacity:1;fill-rule:nonzero;stroke:none;stroke-width:7.5;stroke-linecap:round;stroke-linejoin:round;stroke-miterlimit:4;stroke-dasharray:none;stroke-dashoffset:0;stroke-opacity:1;paint-order:normal"
       d="m 515.74414,302.36133 -2.76172,24.85547 -28.86328,3.20703 -3.20703,28.86328 -28.86328,3.20703 -3.20703,28.86328 -28.86328,3.20703 -3.20704,28.86328 6.41407,6.41407 28.86328,-3.20703 3.20703,-28.86329 28.86328,-3.20703 3.20703,-28.86328 28.86328,-3.20703 3.20703,-28.86328 24.85547,-2.76172 v -28.50781 h -0.002 l -2.4043,21.64844 -21.64843,2.40625 2.40625,-21.64844 21.64648,-2.40625 z m -3.56445,32.07031 -2.4043,21.64844 -21.64844,2.40625 2.40625,-21.64844 z m -32.07031,32.07031 -2.4043,21.64844 -21.64844,2.40625 2.40625,-21.64844 z m -32.07032,32.07227 -2.40429,21.64648 -21.64844,2.40625 2.40625,-21.64843 z m -113.60547,17.39453 -32.07226,32.07227 v 42.76171 l 5.34765,-5.34765 10.68946,10.68945 -16.03711,16.03711 v 32.07031 h 32.07031 l 16.03711,-16.03711 10.68945,10.68946 -5.34765,5.34765 h 42.76172 l 32.07226,-32.07226 -0.002,-42.75977 -10.68946,10.68946 -10.6875,-10.68946 21.37891,-21.3789 -32.07226,-32.07227 -21.37891,21.37891 -10.68945,-10.68946 10.68945,-10.68945 z m 26.72461,16.03516 10.68946,10.68945 -5.34375,5.34375 -10.68946,-10.68945 z m -10.68945,10.68945 10.68945,10.68945 -5.3457,5.34571 -10.68945,-10.68946 z m -10.68945,10.68945 10.68945,10.68946 -5.3457,5.3457 -10.68946,-10.68945 z m -10.69141,10.69141 10.68945,10.68945 -5.34375,5.34375 -10.68945,-10.68945 z m -10.68945,10.68945 10.68945,10.68945 -5.34375,5.34571 -10.69141,-10.68945 z m 85.52148,0 10.68946,10.68945 -5.34571,5.34571 -10.68945,-10.68945 z m -10.68945,10.69141 10.6875,10.68945 -5.34375,5.34375 -10.68945,-10.68945 z m -10.69141,10.68945 10.68946,10.68945 -5.34571,5.34571 -10.6875,-10.68946 z m -10.68945,10.68945 10.68945,10.68946 -5.3457,5.3457 -10.68945,-10.68945 z m -10.68945,10.69141 10.6875,10.68945 -5.34375,5.34375 -10.68946,-10.68945 z"
       transform="matrix(0.26458333,0,0,0.26458333,0,73.00018)"
       id="rect1420" />
    <path
       style="fill:#000000;fill-opacity:1;fill-rule:nonzero;stroke:none;stroke-width:1.98438;stroke-linecap:round;stroke-linejoin:round;stroke-miterlimit:4;stroke-dasharray:none;stroke-dashoffset:0;stroke-opacity:1;paint-order:normal"
       d="m 142.07476,72.99995 -4.59817,4.59869 h -5.13509 l 5.3e-4,5.13405 -5.13457,5.13457 -5.13405,-5.3e-4 v 5.13508 l -5.13457,5.13406 -5.13406,-5.3e-4 v 5.13509 l -5.13457,5.13405 h -5.13405 v 5.13457 l 1.92495,1.92495 5.13457,-5.13406 5.13405,-5.3e-4 v -5.13405 l 5.13457,-5.13405 5.13406,-5.3e-4 v -5.13406 l 5.13457,-5.13405 h 5.13405 l 5.3e-4,-5.13457 5.13405,-5.13457 h 4.59817 V 72.9999 Z m 0.53537,3.31504 v 1.28365 H 141.327 Z m -8.34317,3.20859 h 1.28417 l -1.28417,1.28416 z m -1.92546,7.06004 v 1.28364 h -1.28312 z m -8.34316,3.20858 h 1.28416 l -1.28416,1.28417 z m -1.92494,7.06004 v 1.28313 h -1.28365 z m -8.34368,3.20859 h 1.28416 l -1.28416,1.28416 z m -1.92495,7.06003 v 1.28365 h -1.28364 z M 94.24254,107.20096 80,121.4435 v 8.48579 l 18.48517,-18.48518 z m 9.21855,3.12849 h 1.28416 l -1.28416,1.28416 z m -2.50113,3.58945 -7.07089,7.07088 -1.76785,-1.76785 -8.48527,8.48579 5.6565,5.6565 8.48579,-8.48475 -1.76785,-1.76785 7.0714,-7.0714 -1.06143,-1.06092 z m 4.5961,4.5961 -18.48518,18.48518 11.31404,-5.3e-4 12.82816,-12.82764 z"
       id="rect1156"
       inkscape:connector-curvature="0" />
    <path
       style="fill:#000000;fill-opacity:1;fill-rule:nonzero;stroke:none;stroke-width:1.98438;stroke-linecap:round;stroke-linejoin:round;stroke-miterlimit:4;stroke-dasharray:none;stroke-dashoffset:0;stroke-opacity:1;paint-order:normal"
       d="m 54.051476,73.00047 -5.2e-4,5.1e-4 a 2.2108731,2.2109005 0 0 0 -2.21071,2.21072 2.2108731,2.2109005 0 0 0 0.003,0.0801 c -5.97455,0.63875 -13.66063,4.76962 -20.39927,11.50834 l 10.94041,-1.56321 -20.38428,29.76304 29.76252,-20.38532 -1.56321,10.94145 c 6.7394,-6.73946 10.86846,-14.42425 11.50679,-20.39927 a 2.2108731,2.2109005 0 0 0 0.0827,0.004 2.2108731,2.2109005 0 0 0 2.21123,-2.21124 2.2108731,2.2109005 0 0 0 -2.21123,-2.21071 2.2108731,2.2109005 0 0 0 -0.33849,0.0274 c -0.14681,-0.54904 -0.34232,-1.06636 -0.58549,-1.54977 a 2.2108731,2.2109005 0 0 0 0.92398,-1.79421 2.2108731,2.2109005 0 0 0 -2.21072,-2.21072 2.2108731,2.2109005 0 0 0 -1.79524,0.92294 c -0.48347,-0.24308 -1.0007,-0.43874 -1.54978,-0.58549 a 2.2108731,2.2109005 0 0 0 0.0289,-0.33745 2.2108731,2.2109005 0 0 0 -2.21072,-2.21071 z m -5.2e-4,1.10587 a 1.1054365,1.1054502 0 0 1 1.10537,1.10536 1.1054365,1.1054502 0 0 1 -1.10537,1.10536 1.1054365,1.1054502 0 0 1 -1.10535,-1.10536 1.1054365,1.1054502 0 0 1 1.10535,-1.10536 z m 5.52732,2.21072 a 1.1054365,1.1054502 0 0 1 1.10535,1.10536 1.1054365,1.1054502 0 0 1 -1.10535,1.10536 1.1054365,1.1054502 0 0 1 -1.10536,-1.10536 1.1054365,1.1054502 0 0 1 1.10536,-1.10536 z m -9.57358,2.21382 v 5.2e-4 a 3.8853033,2.8332184 45.001162 0 1 0.65681,0.0372 l 6.71845,1.05265 1.05213,6.71845 a 3.8853033,2.8332184 45.001162 0 1 -2.83393,2.83291 3.8853033,2.8332184 45.001162 0 1 -3.88504,-3.88504 3.8853033,2.8332184 45.001162 0 1 -3.88503,-3.88606 3.8853033,2.8332184 45.001162 0 1 2.17661,-2.87063 z m 11.7843,3.31349 a 1.1054365,1.1054502 0 0 1 1.10588,1.10536 1.1054365,1.1054502 0 0 1 -1.10588,1.10536 1.1054365,1.1054502 0 0 1 -1.10537,-1.10536 1.1054365,1.1054502 0 0 1 1.10537,-1.10536 z M 0,105.00006 8.574666,137.00018 h 16.56437 l -7.12617,-26.59631 z m 11.362096,7.34271 c 2.52646,0.0382 5.06621,2.45143 5.99343,5.91126 1.05959,3.95432 -0.38833,7.77807 -3.23391,8.54005 -2.84513,0.76208 -6.01046,-1.82569 -7.06985,-5.77949 -1.05918,-3.95364 0.38855,-7.77641 3.23339,-8.53901 0.35565,-0.0954 0.71602,-0.13826 1.07694,-0.13281 z M 0,120.45338 v 16.5468 h 4.433836 z"
       id="rect1048"
       inkscape:connector-curvature="0" />
    <path
       style="fill:#000000;fill-opacity:1;fill-rule:nonzero;stroke:none;stroke-width:1.98437;stroke-linecap:round;stroke-linejoin:round;stroke-miterlimit:4;stroke-dasharray:none;stroke-dashoffset:0;stroke-opacity:1;paint-order:normal"
       d="m 56.64202,233.00202 c -5.583446,-0.10305 -13.364231,3.75293 -20.099033,10.48773 l 9.897071,-1.41386 -18.440218,26.92393 26.923939,-18.44073 -1.414385,9.89759 c 9.370165,-9.37017 13.16936,-20.76498 8.484237,-25.45013 -1.317696,-1.3177 -3.166782,-1.9642 -5.351611,-2.00453 z m -39.421883,31.99805 c -1.577657,-0.01 -2.955118,0.45282 -3.939294,1.43712 -2.862869,2.86327 -1.314701,9.05261 3.457153,13.82448 4.771912,4.77182 10.961185,6.31948 13.82448,3.45664 2.863458,-2.86304 1.316029,-9.05285 -3.45612,-13.825 -3.131759,-3.1317 -6.874325,-4.87434 -9.886219,-4.89324 z M 10.776086,268.94298 0,279.71907 v 17.28111 h 17.280599 l 10.780736,-10.78022 c -3.697039,0.61713 -8.460898,-1.37436 -12.187369,-5.09426 -3.719173,-3.72426 -5.711589,-8.48541 -5.09788,-12.18272 z m 9.33018,2.10478 c 1.193335,0.0314 2.659243,0.72614 3.889685,1.95647 1.909227,1.90906 2.528139,4.38477 1.382345,5.5299 -1.145382,1.14518 -3.621119,0.52605 -5.529895,-1.38287 -1.908609,-1.90874 -2.527444,-4.38411 -1.382345,-5.52937 0.357824,-0.35805 0.845223,-0.54366 1.405082,-0.57155 0.07699,-0.004 0.155573,-0.005 0.235128,-0.002 z"
       id="path1620"
       inkscape:connector-curvature="0" />
    <path
       style="fill:#000000;fill-opacity:1;fill-rule:nonzero;stroke:none;stroke-width:1.98437;stroke-linecap:round;stroke-linejoin:round;stroke-miterlimit:4;stroke-dasharray:none;stroke-dashoffset:0;stroke-opacity:1;paint-order:normal"
       d="m 138.64448,232.99995 -37.89226,39.71127 1.76785,1.76785 5.05034,-7.87911 7.8791,-5.05034 5.05086,-7.8791 7.87859,-5.05086 5.05085,-7.8791 7.87962,-5.05086 1.72393,-2.68975 z m 5.35575,2.1115 -1.27693,1.99212 -7.8791,5.05086 -5.05086,7.87962 -7.87859,5.05085 -5.05085,7.87911 -7.87911,5.05034 -5.05085,7.8791 0.35295,0.35399 39.71334,-37.89433 z M 93.511836,267.8433 c -3.210684,-0.0384 -8.529938,2.96178 -13.411584,7.84345 -0.03397,0.034 -0.06646,0.0683 -0.100252,0.10231 v 14.14023 l 7.171139,-7.17166 11.314037,-11.31352 -2.828251,-2.82825 c -0.51254,-0.51261 -1.246097,-0.7618 -2.145089,-0.77256 z m 7.448124,6.07559 -7.070885,7.07089 -1.767851,-1.76785 -8.485787,8.48579 5.657019,5.6565 8.485787,-8.48527 -1.767851,-1.76785 7.070888,-7.07089 -1.06092,-1.06091 z m 4.5961,4.59611 -18.485174,18.48517 h 16.970544 l 9.9999,-9.9999 z"
       id="path1631"
       inkscape:connector-curvature="0" />
    <path
       style="fill:#000000;fill-opacity:1;fill-rule:nonzero;stroke:none;stroke-width:7.5;stroke-linecap:round;stroke-linejoin:round;stroke-miterlimit:4;stroke-dasharray:none;stroke-dashoffset:0;stroke-opacity:1;paint-order:normal"
       d="m 191.9996,232.99995 -1.13534,18.15961 a 11.992506,19.18801 45 0 0 -7.34425,5.3604 11.992506,19.18801 45 0 0 -5.35884,7.34529 L 160,265.00006 l 17.19688,1.07487 a 11.992506,19.18801 45 0 0 0.51677,11.64942 l -11.71402,13.27568 13.28291,-11.72022 a 11.992506,19.18801 45 0 0 11.6427,0.52658 l 1.07436,17.19379 1.13533,-18.15962 a 11.992506,19.18801 45 0 0 7.34477,-5.3604 11.992506,19.18801 45 0 0 5.35833,-7.34528 l 18.16168,-1.13482 -17.1974,-1.07487 a 11.992506,19.18801 45 0 0 -0.51625,-11.64993 l 11.7135,-13.27516 -13.28239,11.7197 a 11.992506,19.18801 45 0 0 -11.64322,-0.52658 z m 5.98103,18.00097 a 10.493442,16.78951 45 0 1 5.89111,2.127 10.493442,16.78951 45 0 1 -4.45192,19.29185 10.493442,16.78951 45 0 1 -19.29185,4.45192 10.493442,16.78951 45 0 1 4.45192,-19.29185 10.493442,16.78951 45 0 1 13.40074,-6.57892 z m -1.70894,3.99975 a 7.4953158,11.992508 45 0 0 -9.57203,4.69946 7.4953158,11.992508 45 0 0 -3.17965,13.78003 7.4953158,11.992508 45 0 0 13.77952,-3.18016 7.4953158,11.992508 45 0 0 3.18017,-13.78004 7.4953158,11.992508 45 0 0 -4.20801,-1.51929 z"
       id="path1811"
       inkscape:connector-curvature="0" />
    <path
       style="fill:#000000;fill-opacity:1;fill-rule:nonzero;stroke:none;stroke-width:1.98438;stroke-linecap:round;stroke-linejoin:round;stroke-miterlimit:4;stroke-dasharray:none;stroke-dashoffset:0;stroke-opacity:1;paint-order:normal"
       d="M 59.37351,153.00019 43.95168,168.42202 42.40989,166.87966 26.98806,182.30093 25.44627,180.75914 10.02444,196.18097 8.48152,194.63861 0,203.12014 v 13.87948 5.6e-4 h 5.6e-4 13.87948 l 8.48152,-8.48152 -1.54235,-1.54292 15.42183,-15.42183 -1.54179,-1.54179 15.42127,-15.42183 -1.54235,-1.54179 15.42182,-15.42183 z"
       id="rect1163"
       inkscape:connector-curvature="0" />
    <path
       style="fill:#000000;fill-opacity:1;fill-rule:nonzero;stroke:none;stroke-width:1.98438;stroke-linecap:round;stroke-linejoin:round;stroke-miterlimit:4;stroke-dasharray:none;stroke-dashoffset:0;stroke-opacity:1;paint-order:normal"
       d="m 194.26819,152.99996 -8.26823,10.6872 5.49217,-0.29094 -1.5353,7.60419 8.04344,-10.77144 -5.42602,0.88677 z m -19.94762,4.22403 1.71049,13.40332 3.6773,-4.08968 4.29172,6.46266 -1.92908,-13.30358 -3.20962,4.46329 z m 38.41315,2.34352 -12.50413,5.12114 4.90202,2.49339 -5.13146,5.81825 12.35117,-5.30666 -5.14231,-1.9451 z M 160,169.00001 l 3.93051,26.94409 7.22178,-8.0641 8.84804,13.12013 -4.36511,-26.75186 -6.2699,8.83202 z m 64.00024,0 -9.36533,14.08028 -6.26991,-8.83202 -4.36459,26.75186 8.84753,-13.12013 7.22228,8.0641 z m -40.00016,8.00003 v 4.5713 h 3.42873 v 6.85746 h -3.42873 v 3.42822 h 3.42873 v 2.85719 h -3.42873 v 3.42873 h 3.42873 v 2.85719 h -3.42873 v 3.42821 h 3.42873 v 2.85771 h -3.42873 v 3.42873 h 3.42873 v 2.85667 h -3.42873 v 3.42873 h 16.00007 v -3.42873 h -3.42874 v -2.85667 h 3.42874 v -3.42873 h -3.42874 v -2.85771 h 3.42874 v -3.42821 h -3.42874 v -2.85719 h 3.42874 v -3.42873 h -3.42874 v -2.85719 h 3.42874 v -3.42822 h -3.42874 v -6.85746 h 3.42874 v -4.5713 h -6.85694 v 2.28565 h -2.28619 v -2.28565 z"
       id="rect1424"
       inkscape:connector-curvature="0" />
    <path
       style="fill:#000000;fill-opacity:1;fill-rule:nonzero;stroke:none;stroke-width:2.83465;stroke-linecap:round;stroke-linejoin:round;stroke-miterlimit:4;stroke-dasharray:none;stroke-dashoffset:0;stroke-opacity:1;paint-order:markers stroke fill"
       d="m 725.66992,0 -26.29492,22.8125 -34.17773,-6.609375 -11.36524,32.904297 -32.9043,11.365234 6.60938,34.177735 -22.8125,26.294919 22.8125,26.29492 -6.60938,34.17774 32.9043,11.36523 11.36524,32.90235 34.17773,-6.60938 26.29492,22.81445 26.29297,-22.81445 34.17969,6.60938 11.36523,-32.90235 32.90235,-11.36523 -6.60938,-34.17774 22.8125,-26.29492 -22.8125,-26.294919 6.60938,-34.177735 L 797.50781,49.107422 786.14258,16.203125 751.96289,22.8125 Z m 0,22.677734 a 98.267715,98.267722 0 0 1 81.47461,43.47461 L 637.4668,164.11719 a 98.267715,98.267722 0 0 1 -10.06446,-43.17188 98.267715,98.267722 0 0 1 98.26758,-98.267576 z m -0.002,26.457032 c -4.17487,2.26e-4 -7.55905,5.077567 -7.55859,11.339843 v 30.232422 l -22.67579,2.0625 V 86.929688 H 687.875 v 6.527343 l -7.55859,0.6875 v -7.214843 h -7.5586 v 7.898437 l -7.55859,0.6875 v -8.585937 h -7.5586 v 9.273437 l -22.67968,2.0625 v 15.117185 h 22.67968 v 11.33985 h 7.5586 v -11.33985 h 7.55859 v 11.33985 h 7.5586 v -11.33985 h 7.55859 v 11.33985 h 7.55859 V 113.38281 H 717.7793 L 753.8125,92.580078 733.23047,90.707031 V 60.474609 c 3.8e-4,-6.264487 -3.38605,-11.342791 -7.5625,-11.339843 z M 813.873,77.771484 a 98.267715,98.267722 0 0 1 10.06445,43.173826 98.267715,98.267722 0 0 1 -98.26758,98.26758 98.267715,98.267722 0 0 1 -81.47461,-43.47656 z m -57.9668,9.158204 v 4.441406 l 7.55859,-4.365235 v -0.07617 z m 37.79687,6.851562 -37.79687,21.82227 v 9.11914 h 7.55859 v -11.33985 h 7.5625 v 11.33985 h 7.5586 v -11.33985 h 7.55859 v 11.33985 h 7.55859 v -11.33985 h 22.67579 V 98.265625 l -22.67579,-2.0625 z m -61.35156,35.42187 -12.94726,7.47461 2.48632,44.73829 -15.11718,3.77929 v 9.45117 l 15.11718,1.88868 3.77735,11.33789 3.78125,-11.33789 15.11914,-1.88868 v -9.45117 l -15.11914,-3.77929 z"
       id="path822"
       transform="matrix(0.26458333,0,0,0.26458333,0,73.00018)" />
    <path
       style="fill:#000000;fill-opacity:1;fill-rule:evenodd;stroke:none;stroke-width:0.501566;stroke-linecap:round;stroke-linejoin:round;stroke-miterlimit:4;stroke-dasharray:none;stroke-dashoffset:0;stroke-opacity:1;paint-order:normal"
       d="m 271.95194,197.001 c -0.33502,0.012 -0.66271,0.1498 -0.95293,0.40101 -0.18268,0.15959 -0.34732,0.36158 -0.48783,0.59845 h -3.51094 v 0.99943 h 3.11613 c -0.0766,0.32106 -0.11603,0.65946 -0.11679,1.00046 v 1.99991 l -9.99951,1.9999 v 3.99981 h 9.99951 l 1.00047,8.00063 -2.99934,0.99944 v 2.00091 l 2.99934,0.99945 0.79996,-0.79995 0.19948,1.7994 0.2005,-1.7994 0.79996,0.79995 2.99934,-0.99945 v -2.00091 l -2.99934,-0.99944 1.00047,-8.00063 h 9.99952 v -3.99981 l -9.99952,-1.9999 v -1.99991 h -0.001 c -5.4e-4,-0.34095 -0.0396,-0.6793 -0.11576,-1.00046 h 3.11612 v -0.99943 h -3.51197 c -0.14082,-0.23703 -0.30583,-0.43906 -0.48887,-0.59845 -0.31784,-0.27507 -0.68007,-0.41391 -1.04697,-0.40101 z m -20.00006,16.00025 c -0.33502,0.012 -0.66168,0.14978 -0.9519,0.40105 -0.18268,0.1596 -0.34732,0.36159 -0.48783,0.5984 h -3.51197 v 0.99944 h 3.11716 c -0.0766,0.3211 -0.11603,0.6595 -0.11679,1.00046 v 1.99991 L 240,220.0004 v 3.99981 h 10.00055 l 0.99943,8.00062 -2.99933,0.99946 v 2.00096 l 2.99933,0.99939 0.79996,-0.80096 0.19948,1.80042 0.2005,-1.80042 0.79997,0.80096 2.99933,-0.99939 v -2.00096 l -2.99933,-0.99946 1.00046,-8.00062 h 9.99952 v -3.99981 l -9.99952,-1.99989 v -1.99991 h -0.001 c -5.3e-4,-0.34091 -0.0396,-0.67926 -0.11576,-1.00046 h 3.11616 v -0.99944 h -3.51202 c -0.14082,-0.23697 -0.30583,-0.43907 -0.48886,-0.5984 -0.31784,-0.27518 -0.68008,-0.41407 -1.04698,-0.40105 z m 40.00012,0 c -0.335,0.012 -0.66272,0.14978 -0.95292,0.40105 -0.18261,0.1596 -0.34733,0.36159 -0.48784,0.5984 h -3.51094 v 0.99944 h 3.11613 c -0.0766,0.3211 -0.11599,0.65945 -0.11679,1.00046 v 1.99991 l -9.99951,1.99989 v 3.99981 h 9.99951 l 1.00047,8.00062 -3.00037,0.99946 v 1.9999 l 3.00037,1.00045 0.79997,-0.80096 0.19947,1.80042 0.20051,-1.80042 0.79995,0.80096 2.99934,-1.00045 v -1.9999 l -2.99934,-0.99946 1.00048,-8.00062 H 304 v -3.99981 l -9.99951,-1.99989 v -1.99991 h -0.001 c -5.3e-4,-0.34096 -0.0396,-0.67926 -0.11576,-1.00046 h 3.11612 v -0.99944 h -3.51197 c -0.1408,-0.23697 -0.30585,-0.43907 -0.48886,-0.5984 -0.31785,-0.27518 -0.68008,-0.41407 -1.04698,-0.40105 z m -20.00006,16.00029 c -0.33502,0.012 -0.66271,0.1498 -0.95293,0.401 -0.18268,0.1596 -0.34732,0.36155 -0.48783,0.5984 h -3.51094 v 0.99943 h 3.11613 c -0.0766,0.32106 -0.11603,0.65946 -0.11679,1.00046 v 1.99992 l -9.99951,1.99989 v 3.99982 h 9.99951 l 1.00047,8.00067 -2.99934,0.99939 v 2.00097 l 2.99934,0.99945 0.79996,-0.8 0.19948,1.79939 0.2005,-1.79939 0.79996,0.8 2.99934,-0.99945 v -2.00097 l -2.99934,-0.99939 1.00047,-8.00067 h 9.99952 v -3.99982 l -9.99952,-1.99989 v -1.99992 h -0.001 c -5.3e-4,-0.34095 -0.0396,-0.67929 -0.11576,-1.00046 h 3.11612 v -0.99943 h -3.51197 c -0.14082,-0.23701 -0.30583,-0.43901 -0.48887,-0.5984 -0.31784,-0.27506 -0.68007,-0.41391 -1.04697,-0.401 z"
       id="path862"
       inkscape:connector-curvature="0" />
    <path
       style="fill:#000000;fill-opacity:1;fill-rule:evenodd;stroke:none;stroke-width:0.499999;stroke-linecap:round;stroke-linejoin:round;stroke-miterlimit:4;stroke-dasharray:none;stroke-dashoffset:0;stroke-opacity:1;paint-order:normal"
       d="m 271.99931,117.00018 c -1.4728,8e-5 -2.66665,1.79116 -2.66649,4.00035 v 0 10.66568 l -7.9995,0.72763 v -2.06014 h -2.66649 v 2.30265 l -2.66649,0.24266 v -2.54521 h -2.66649 v 2.78637 l -2.66649,0.2424 v -3.02887 h -2.66649 v 3.27143 L 240,134.33266 v 5.33286 h 8.00087 v 4.0003 h 2.66649 v -4.0003 h 2.66649 v 4.0003 h 2.66649 v -4.0003 h 2.66649 v 4.0003 h 2.66649 v -4.0003 h 7.9995 l 1.33393,24.00061 -5.33294,1.33346 v 3.33385 l 5.33332,0.66667 1.33218,3.99987 1.33447,-3.99987 5.33332,-0.66667 v -3.33385 l -5.33386,-1.33346 1.33394,-24.00061 h 7.99949 v 4.0003 h 2.66649 v -4.0003 h 2.66787 v 4.0003 h 2.66651 v -4.0003 h 2.66647 v 4.0003 h 2.66651 v -4.0003 H 304 v -5.33286 l -7.99948,-0.72753 v -3.27143 h -2.66651 v 3.02887 l -2.66647,-0.2424 v -2.78637 h -2.66651 v 2.54521 l -2.66787,-0.24266 v -2.30265 h -2.66649 v 2.06014 l -7.99949,-0.72763 v -10.66568 0 c 1.6e-4,-2.20997 -1.19454,-4.00139 -2.66787,-4.00035 z"
       id="path954"
       inkscape:connector-curvature="0"
       sodipodi:nodetypes="ccccccccccccccccccccccccccccccccccccccccccccccccccccccccccccccccccccccc"
       inkscape:export-filename="D:\webstuff\kriegsspiel-online\src\main\resources\uniticons\player\air_bombers.png"
       inkscape:export-xdpi="253.99979"
       inkscape:export-ydpi="253.99979" />
    <path
       style="fill:#000008;fill-opacity:1;fill-rule:nonzero;stroke:none;stroke-width:0.529168;stroke-linecap:round;stroke-linejoin:round;stroke-miterlimit:4;stroke-dasharray:none;stroke-dashoffset:0;stroke-opacity:1;paint-order:normal"
       d="m 376,289.00011 -10.13331,-3.19995 -23.4666,1.4e-4 v -0.69067 c 0.80531,-0.32581 1.33263,-1.10739 1.33325,-1.9761 0,-1.17822 -0.95513,-2.13336 -2.13334,-2.13335 -1.17821,-10e-6 -2.13335,0.95513 -2.13334,2.13335 5.3e-4,0.86879 0.52797,1.65046 1.33339,1.97623 v 2.0238 l -7.78041,0.48616 -1.81956,-1.81956 -3.20008,3.19995 3.20008,3.20008 1.81956,-1.8197 7.78041,0.48631 v 2.02392 c -0.80537,0.32576 -1.33275,1.10736 -1.33339,1.97611 -10e-6,1.17821 0.95513,2.13335 2.13334,2.13334 1.17821,10e-6 2.13334,-0.95513 2.13334,-2.13334 -5.4e-4,-0.86877 -0.5279,-1.65042 -1.33325,-1.97624 v -0.6904 h 23.4666 z m -11.20001,-0.53317 v 1.0666 h -21.33328 v -1.0666 z m -22,-5.33342 c 0,0.66274 -0.53725,1.19999 -1.19999,1.19999 -0.66274,0 -1.19999,-0.53725 -1.19999,-1.19999 0,-0.66274 0.53725,-1.19999 1.19999,-1.19999 0.66274,0 1.19999,0.53725 1.19999,1.19999 z m 0,11.73331 c 0,0.66274 -0.53725,1.19999 -1.19999,1.19999 -0.66274,0 -1.19999,-0.53725 -1.19999,-1.19999 0,-0.66274 0.53725,-1.2 1.19999,-1.2 0.66274,0 1.19999,0.53726 1.19999,1.2 z m -9.73322,-5.86672 -1.86669,1.86668 -1.86669,-1.86668 1.86669,-1.86656 z"
       id="rect10"
       inkscape:connector-curvature="0"
       sodipodi:nodetypes="ccccccccccccccccccccccccccccccccccccccccccc" />
    <path
       style="fill:#0f0008;fill-opacity:1;fill-rule:nonzero;stroke:none;stroke-width:0.99219;stroke-linecap:round;stroke-linejoin:round;stroke-miterlimit:4;stroke-dasharray:none;stroke-dashoffset:0;stroke-opacity:1;paint-order:normal"
       d="m 320.00001,153.00018 9.2444,17.77773 31.28906,31.28854 -0.92088,0.92114 c -1.50815,-0.63935 -3.25328,-0.30042 -4.4124,0.85705 -1.57095,1.57095 -1.57095,4.11785 0,5.6888 1.57095,1.57096 4.11786,1.57096 5.68881,0 1.15769,-1.15912 1.49657,-2.9044 0.85705,-4.41265 l 2.69855,-2.69854 11.02207,9.72576 v 4.85216 H 384 v -8.53333 h -4.85242 l -9.72526,-11.02233 2.69856,-2.69855 c 1.50817,0.63948 3.25345,0.3007 4.41264,-0.85679 1.57097,-1.57095 1.57097,-4.11811 0,-5.68906 -1.57095,-1.57096 -4.1181,-1.57096 -5.68906,0 -1.15764,1.15907 -1.4967,2.90441 -0.8573,4.41265 l -0.92037,0.92062 -31.28905,-31.2888 z m 63.99999,0 -17.77773,9.24466 -12.8,12.8 3.55559,3.55559 11.37786,-11.3776 1.42214,1.42214 -11.37786,11.3776 3.5556,3.5556 12.8,-12.8 z m -48.35547,14.22214 28.44454,28.44452 -1.42214,1.42214 -28.44453,-28.44453 z m 6.40039,19.20012 -7.11119,7.1112 -0.92088,-0.92088 c 0.63935,-1.50815 0.30042,-3.25327 -0.85705,-4.41239 -1.57095,-1.57096 -4.11812,-1.57096 -5.68906,0 -1.57096,1.57094 -1.57096,4.11785 0,5.6888 1.15912,1.15769 2.90466,1.49683 4.41291,0.85731 l 2.69828,2.69829 -9.7255,11.02207 h -4.85217 L 320,217.00017 h 8.53359 l -2.6e-4,-4.85216 11.02233,-9.72551 2.69854,2.69855 c -0.63948,1.50816 -0.30043,3.25346 0.85705,4.41265 1.57095,1.57096 4.11786,1.57096 5.6888,0 1.57096,-1.57095 1.57096,-4.11785 0,-5.6888 -1.15907,-1.15765 -2.9044,-1.4967 -4.41265,-0.85731 l -0.92061,-0.92062 7.11145,-7.11119 v -2.7e-4 l -3.5556,-3.55534 -5.68906,5.68906 -1.42213,-1.42213 5.68906,-5.68907 z m -11.73365,2.35955 c 0.57908,0 1.15807,0.22092 1.5999,0.66275 0.88365,0.88365 0.88365,2.31641 0,3.20006 -0.88366,0.88365 -2.31641,0.88365 -3.20006,0 -0.88365,-0.88365 -0.88365,-2.31641 0,-3.20006 0.44182,-0.44183 1.02107,-0.66275 1.60016,-0.66275 z m 43.37773,0 c 0.57908,0 1.15808,0.22092 1.5999,0.66275 0.88365,0.88365 0.88365,2.31615 0,3.1998 -0.88365,0.88364 -2.31616,0.88365 -3.19981,0 -0.88364,-0.88365 -0.88364,-2.31615 0,-3.1998 0.44183,-0.44183 1.02083,-0.66275 1.59991,-0.66275 z m -15.64453,15.64427 c 0.57908,0 1.15833,0.22093 1.60016,0.66275 0.88365,0.88365 0.88365,2.31641 0,3.20007 -0.88365,0.88365 -2.31641,0.88365 -3.20007,0 -0.88365,-0.88366 -0.88365,-2.31642 0,-3.20007 0.44184,-0.44182 1.02082,-0.66275 1.59991,-0.66275 z m -12.08893,2.6e-4 c 0.57908,0 1.15833,0.22093 1.60016,0.66275 0.88365,0.88366 0.88365,2.31642 0,3.20007 -0.88365,0.88365 -2.31641,0.88364 -3.20006,0 -0.88365,-0.88365 -0.88365,-2.31641 0,-3.20007 0.44182,-0.44182 1.02082,-0.66275 1.5999,-0.66275 z m -19.19987,5.818 v 4.97799 h -4.97774 v -4.97774 z m 50.48867,0 h 4.97772 v 4.97799 l -4.97747,-2.7e-4 z"
       id="rect10-6-0"
       inkscape:connector-curvature="0" />
    <path
       style="color:#000000;font-style:normal;font-variant:normal;font-weight:normal;font-stretch:normal;font-size:medium;line-height:normal;font-family:sans-serif;font-variant-ligatures:normal;font-variant-position:normal;font-variant-caps:normal;font-variant-numeric:normal;font-variant-alternates:normal;font-feature-settings:normal;text-indent:0;text-align:start;text-decoration:none;text-decoration-line:none;text-decoration-style:solid;text-decoration-color:#000000;letter-spacing:normal;word-spacing:normal;text-transform:none;writing-mode:lr-tb;direction:ltr;text-orientation:mixed;dominant-baseline:auto;baseline-shift:baseline;text-anchor:start;white-space:normal;shape-padding:0;clip-rule:nonzero;display:inline;overflow:visible;visibility:visible;isolation:auto;mix-blend-mode:normal;color-interpolation:sRGB;color-interpolation-filters:linearRGB;solid-color:#000000;solid-opacity:1;fill:#000000;fill-opacity:1;fill-rule:nonzero;stroke:none;stroke-width:5.99999;stroke-linecap:round;stroke-linejoin:round;stroke-miterlimit:8;stroke-dasharray:none;stroke-dashoffset:0;stroke-opacity:1;paint-order:normal;color-rendering:auto;image-rendering:auto;shape-rendering:auto;text-rendering:auto;enable-background:accumulate"
       d="m 352,233.00018 a 47.999831,67.177051 0 0 1 -24,8.99987 47.999827,45.033518 0 0 0 24,39.00013 47.999827,45.033518 0 0 0 24,-39.00013 47.999831,67.177051 0 0 1 -24,-8.99987 z m 4e-4,7.26276 v 33.6698 c -9.66409,-6.26773 -15.98033,-15.86852 -17.57795,-26.52718 6.18064,-0.9999 12.10754,-3.48585 17.57794,-7.14262 z"
       id="rect849-4"
       inkscape:connector-curvature="0" />
  </g>
</svg>
