<?xml version="1.0" encoding="UTF-8" standalone="no"?>
<!-- Created with Inkscape (http://www.inkscape.org/) -->

<svg
   xmlns:dc="http://purl.org/dc/elements/1.1/"
   xmlns:cc="http://creativecommons.org/ns#"
   xmlns:rdf="http://www.w3.org/1999/02/22-rdf-syntax-ns#"
   xmlns:svg="http://www.w3.org/2000/svg"
   xmlns="http://www.w3.org/2000/svg"
   xmlns:sodipodi="http://sodipodi.sourceforge.net/DTD/sodipodi-0.dtd"
   xmlns:inkscape="http://www.inkscape.org/namespaces/inkscape"
   width="224mm"
   height="224mm"
   viewBox="0 0 224 224"
   version="1.1"
   id="svg8"
   inkscape:version="0.92.4 (5da689c313, 2019-01-14)"
   sodipodi:docname="weapons.svg">
  <defs
     id="defs2" />
  <sodipodi:namedview
     id="base"
     pagecolor="#ffffff"
     bordercolor="#666666"
     borderopacity="1.0"
     inkscape:pageopacity="0"
     inkscape:pageshadow="2"
     inkscape:zoom="0.75536179"
     inkscape:cx="111.98297"
     inkscape:cy="653.66933"
     inkscape:document-units="mm"
     inkscape:current-layer="layer1"
     showgrid="false"
     inkscape:snap-midpoints="true"
     inkscape:snap-bbox="true"
     inkscape:snap-bbox-midpoints="true"
     inkscape:snap-bbox-edge-midpoints="true"
     inkscape:bbox-nodes="false"
     showguides="false"
     inkscape:snap-smooth-nodes="true"
     inkscape:window-width="1920"
     inkscape:window-height="1017"
     inkscape:window-x="-8"
     inkscape:window-y="-8"
     inkscape:window-maximized="1"
     fit-margin-top="0"
     fit-margin-left="0"
     fit-margin-right="0"
     fit-margin-bottom="0"
     inkscape:snap-center="false"
     inkscape:snap-intersection-paths="true" />
  <metadata
     id="metadata5">
    <rdf:RDF>
      <cc:Work
         rdf:about="">
        <dc:format>image/svg+xml</dc:format>
        <dc:type
           rdf:resource="http://purl.org/dc/dcmitype/StillImage" />
        <dc:title></dc:title>
      </cc:Work>
    </rdf:RDF>
  </metadata>
  <g
     inkscape:label="Layer 1"
     inkscape:groupmode="layer"
     id="layer1"
     transform="translate(0,-73.00018)">
    <path
       style="fill:#000000;fill-opacity:1;fill-rule:nonzero;stroke:none;stroke-width:7.5;stroke-linecap:round;stroke-linejoin:round;stroke-miterlimit:4;stroke-dasharray:none;stroke-dashoffset:0;stroke-opacity:1;paint-order:normal"
       d="M 515.74414 302.36133 L 512.98242 327.2168 L 484.11914 330.42383 L 480.91211 359.28711 L 452.04883 362.49414 L 448.8418 391.35742 L 419.97852 394.56445 L 416.77148 423.42773 L 423.18555 429.8418 L 452.04883 426.63477 L 455.25586 397.77148 L 484.11914 394.56445 L 487.32617 365.70117 L 516.18945 362.49414 L 519.39648 333.63086 L 544.25195 330.86914 L 544.25195 302.36133 L 544.25 302.36133 L 541.8457 324.00977 L 520.19727 326.41602 L 522.60352 304.76758 L 544.25 302.36133 L 515.74414 302.36133 z M 512.17969 334.43164 L 509.77539 356.08008 L 488.12695 358.48633 L 490.5332 336.83789 L 512.17969 334.43164 z M 480.10938 366.50195 L 477.70508 388.15039 L 456.05664 390.55664 L 458.46289 368.9082 L 480.10938 366.50195 z M 448.03906 398.57422 L 445.63477 420.2207 L 423.98633 422.62695 L 426.39258 400.97852 L 448.03906 398.57422 z M 334.43359 415.96875 L 302.36133 448.04102 L 302.36133 490.80273 L 307.70898 485.45508 L 318.39844 496.14453 L 302.36133 512.18164 L 302.36133 544.25195 L 334.43164 544.25195 L 350.46875 528.21484 L 361.1582 538.9043 L 355.81055 544.25195 L 398.57227 544.25195 L 430.64453 512.17969 L 430.64258 469.41992 L 419.95312 480.10938 L 409.26562 469.41992 L 430.64453 448.04102 L 398.57227 415.96875 L 377.19336 437.34766 L 366.50391 426.6582 L 377.19336 415.96875 L 334.43359 415.96875 z M 361.1582 432.00391 L 371.84766 442.69336 L 366.50391 448.03711 L 355.81445 437.34766 L 361.1582 432.00391 z M 350.46875 442.69336 L 361.1582 453.38281 L 355.8125 458.72852 L 345.12305 448.03906 L 350.46875 442.69336 z M 339.7793 453.38281 L 350.46875 464.07227 L 345.12305 469.41797 L 334.43359 458.72852 L 339.7793 453.38281 z M 329.08789 464.07422 L 339.77734 474.76367 L 334.43359 480.10742 L 323.74414 469.41797 L 329.08789 464.07422 z M 318.39844 474.76367 L 329.08789 485.45312 L 323.74414 490.79883 L 313.05273 480.10938 L 318.39844 474.76367 z M 403.91992 474.76367 L 414.60938 485.45312 L 409.26367 490.79883 L 398.57422 480.10938 L 403.91992 474.76367 z M 393.23047 485.45508 L 403.91797 496.14453 L 398.57422 501.48828 L 387.88477 490.79883 L 393.23047 485.45508 z M 382.53906 496.14453 L 393.22852 506.83398 L 387.88281 512.17969 L 377.19531 501.49023 L 382.53906 496.14453 z M 371.84961 506.83398 L 382.53906 517.52344 L 377.19336 522.86914 L 366.50391 512.17969 L 371.84961 506.83398 z M 361.16016 517.52539 L 371.84766 528.21484 L 366.50391 533.55859 L 355.81445 522.86914 L 361.16016 517.52539 z "
       transform="matrix(0.26458333,0,0,0.26458333,0,73.00018)"
       id="rect1420" />
    <path
       style="fill:#000000;fill-opacity:1;fill-rule:nonzero;stroke:none;stroke-width:1.984375;stroke-linecap:round;stroke-linejoin:round;stroke-miterlimit:4;stroke-dasharray:none;stroke-dashoffset:0;stroke-opacity:1;paint-order:normal"
       d="m 142.07476,72.99995 -4.59817,4.59869 h -5.13509 l 5.3e-4,5.13405 -5.13457,5.13457 -5.13405,-5.3e-4 v 5.13508 l -5.13457,5.13406 -5.13406,-5.3e-4 v 5.13509 l -5.13457,5.13405 h -5.13405 v 5.13457 l 1.92495,1.92495 5.13457,-5.13406 5.13405,-5.3e-4 v -5.13405 l 5.13457,-5.13405 5.13406,-5.3e-4 v -5.13406 l 5.13457,-5.13405 h 5.13405 l 5.3e-4,-5.13457 5.13405,-5.13457 h 4.59817 V 72.9999 Z m 0.53537,3.31504 v 1.28365 H 141.327 Z m -8.34317,3.20859 h 1.28417 l -1.28417,1.28416 z m -1.92546,7.06004 v 1.28364 h -1.28312 z m -8.34316,3.20858 h 1.28416 l -1.28416,1.28417 z m -1.92494,7.06004 v 1.28313 h -1.28365 z m -8.34368,3.20859 h 1.28416 l -1.28416,1.28416 z m -1.92495,7.06003 v 1.28365 h -1.28364 z M 94.24254,107.20096 80,121.4435 v 8.48579 l 18.48517,-18.48518 z m 9.21855,3.12849 h 1.28416 l -1.28416,1.28416 z m -2.50113,3.58945 -7.07089,7.07088 -1.76785,-1.76785 -8.48527,8.48579 5.6565,5.6565 8.48579,-8.48475 -1.76785,-1.76785 7.0714,-7.0714 -1.06143,-1.06092 z m 4.5961,4.5961 -18.48518,18.48518 11.31404,-5.3e-4 12.82816,-12.82764 z"
       id="rect1156"
       inkscape:connector-curvature="0" />
    <path
       style="fill:#000000;fill-opacity:1;fill-rule:nonzero;stroke:none;stroke-width:1.98437512;stroke-linecap:round;stroke-linejoin:round;stroke-miterlimit:4;stroke-dasharray:none;stroke-dashoffset:0;stroke-opacity:1;paint-order:normal"
       d="m 54.051476,73.00047 -5.2e-4,5.1e-4 a 2.2108731,2.2109005 0 0 0 -2.21071,2.21072 2.2108731,2.2109005 0 0 0 0.003,0.0801 c -5.97455,0.63875 -13.66063,4.76962 -20.39927,11.50834 l 10.94041,-1.56321 -20.38428,29.76304 29.76252,-20.38532 -1.56321,10.94145 c 6.7394,-6.73946 10.86846,-14.42425 11.50679,-20.39927 a 2.2108731,2.2109005 0 0 0 0.0827,0.004 2.2108731,2.2109005 0 0 0 2.21123,-2.21124 2.2108731,2.2109005 0 0 0 -2.21123,-2.21071 2.2108731,2.2109005 0 0 0 -0.33849,0.0274 c -0.14681,-0.54904 -0.34232,-1.06636 -0.58549,-1.54977 a 2.2108731,2.2109005 0 0 0 0.92398,-1.79421 2.2108731,2.2109005 0 0 0 -2.21072,-2.21072 2.2108731,2.2109005 0 0 0 -1.79524,0.92294 c -0.48347,-0.24308 -1.0007,-0.43874 -1.54978,-0.58549 a 2.2108731,2.2109005 0 0 0 0.0289,-0.33745 2.2108731,2.2109005 0 0 0 -2.21072,-2.21071 z m -5.2e-4,1.10587 a 1.1054365,1.1054502 0 0 1 1.10537,1.10536 1.1054365,1.1054502 0 0 1 -1.10537,1.10536 1.1054365,1.1054502 0 0 1 -1.10535,-1.10536 1.1054365,1.1054502 0 0 1 1.10535,-1.10536 z m 5.52732,2.21072 a 1.1054365,1.1054502 0 0 1 1.10535,1.10536 1.1054365,1.1054502 0 0 1 -1.10535,1.10536 1.1054365,1.1054502 0 0 1 -1.10536,-1.10536 1.1054365,1.1054502 0 0 1 1.10536,-1.10536 z m -9.57358,2.21382 v 5.2e-4 a 3.8853033,2.8332184 45.001162 0 1 0.65681,0.0372 l 6.71845,1.05265 1.05213,6.71845 a 3.8853033,2.8332184 45.001162 0 1 -2.83393,2.83291 3.8853033,2.8332184 45.001162 0 1 -3.88504,-3.88504 3.8853033,2.8332184 45.001162 0 1 -3.88503,-3.88606 3.8853033,2.8332184 45.001162 0 1 2.17661,-2.87063 z m 11.7843,3.31349 a 1.1054365,1.1054502 0 0 1 1.10588,1.10536 1.1054365,1.1054502 0 0 1 -1.10588,1.10536 1.1054365,1.1054502 0 0 1 -1.10537,-1.10536 1.1054365,1.1054502 0 0 1 1.10537,-1.10536 z M 0,105.00006 8.574666,137.00018 h 16.56437 l -7.12617,-26.59631 z m 11.362096,7.34271 c 2.52646,0.0382 5.06621,2.45143 5.99343,5.91126 1.05959,3.95432 -0.38833,7.77807 -3.23391,8.54005 -2.84513,0.76208 -6.01046,-1.82569 -7.06985,-5.77949 -1.05918,-3.95364 0.38855,-7.77641 3.23339,-8.53901 0.35565,-0.0954 0.71602,-0.13826 1.07694,-0.13281 z M 0,120.45338 v 16.5468 h 4.433836 z"
       id="rect1048"
       inkscape:connector-curvature="0" />
    <path
       style="fill:#000000;fill-opacity:1;fill-rule:nonzero;stroke:none;stroke-width:1.98437488;stroke-linecap:round;stroke-linejoin:round;stroke-miterlimit:4;stroke-dasharray:none;stroke-dashoffset:0;stroke-opacity:1;paint-order:normal"
       d="m 56.64202,233.00202 c -5.583446,-0.10305 -13.364231,3.75293 -20.099033,10.48773 l 9.897071,-1.41386 -18.440218,26.92393 26.923939,-18.44073 -1.414385,9.89759 c 9.370165,-9.37017 13.16936,-20.76498 8.484237,-25.45013 -1.317696,-1.3177 -3.166782,-1.9642 -5.351611,-2.00453 z m -39.421883,31.99805 c -1.577657,-0.01 -2.955118,0.45282 -3.939294,1.43712 -2.862869,2.86327 -1.314701,9.05261 3.457153,13.82448 4.771912,4.77182 10.961185,6.31948 13.82448,3.45664 2.863458,-2.86304 1.316029,-9.05285 -3.45612,-13.825 -3.131759,-3.1317 -6.874325,-4.87434 -9.886219,-4.89324 z M 10.776086,268.94298 0,279.71907 v 17.28111 h 17.280599 l 10.780736,-10.78022 c -3.697039,0.61713 -8.460898,-1.37436 -12.187369,-5.09426 -3.719173,-3.72426 -5.711589,-8.48541 -5.09788,-12.18272 z m 9.33018,2.10478 c 1.193335,0.0314 2.659243,0.72614 3.889685,1.95647 1.909227,1.90906 2.528139,4.38477 1.382345,5.5299 -1.145382,1.14518 -3.621119,0.52605 -5.529895,-1.38287 -1.908609,-1.90874 -2.527444,-4.38411 -1.382345,-5.52937 0.357824,-0.35805 0.845223,-0.54366 1.405082,-0.57155 0.07699,-0.004 0.155573,-0.005 0.235128,-0.002 z"
       id="path1620"
       inkscape:connector-curvature="0" />
    <path
       style="fill:#000000;fill-opacity:1;fill-rule:nonzero;stroke:none;stroke-width:1.98437476;stroke-linecap:round;stroke-linejoin:round;stroke-miterlimit:4;stroke-dasharray:none;stroke-dashoffset:0;stroke-opacity:1;paint-order:normal"
       d="m 138.64448,232.99995 -37.89226,39.71127 1.76785,1.76785 5.05034,-7.87911 7.8791,-5.05034 5.05086,-7.8791 7.87859,-5.05086 5.05085,-7.8791 7.87962,-5.05086 1.72393,-2.68975 z m 5.35575,2.1115 -1.27693,1.99212 -7.8791,5.05086 -5.05086,7.87962 -7.87859,5.05085 -5.05085,7.87911 -7.87911,5.05034 -5.05085,7.8791 0.35295,0.35399 39.71334,-37.89433 z M 93.511836,267.8433 c -3.210684,-0.0384 -8.529938,2.96178 -13.411584,7.84345 -0.03397,0.034 -0.06646,0.0683 -0.100252,0.10231 v 14.14023 l 7.171139,-7.17166 11.314037,-11.31352 -2.828251,-2.82825 c -0.51254,-0.51261 -1.246097,-0.7618 -2.145089,-0.77256 z m 7.448124,6.07559 -7.070885,7.07089 -1.767851,-1.76785 -8.485787,8.48579 5.657019,5.6565 8.485787,-8.48527 -1.767851,-1.76785 7.070888,-7.07089 -1.06092,-1.06091 z m 4.5961,4.59611 -18.485174,18.48517 h 16.970544 l 9.9999,-9.9999 z"
       id="path1631"
       inkscape:connector-curvature="0" />
    <path
       style="fill:#000000;fill-opacity:1;fill-rule:nonzero;stroke:none;stroke-width:7.49999905;stroke-linecap:round;stroke-linejoin:round;stroke-miterlimit:4;stroke-dasharray:none;stroke-dashoffset:0;stroke-opacity:1;paint-order:normal"
       d="m 191.9996,232.99995 -1.13534,18.15961 a 11.992506,19.18801 45 0 0 -7.34425,5.3604 11.992506,19.18801 45 0 0 -5.35884,7.34529 L 160,265.00006 l 17.19688,1.07487 a 11.992506,19.18801 45 0 0 0.51677,11.64942 l -11.71402,13.27568 13.28291,-11.72022 a 11.992506,19.18801 45 0 0 11.6427,0.52658 l 1.07436,17.19379 1.13533,-18.15962 a 11.992506,19.18801 45 0 0 7.34477,-5.3604 11.992506,19.18801 45 0 0 5.35833,-7.34528 l 18.16168,-1.13482 -17.1974,-1.07487 a 11.992506,19.18801 45 0 0 -0.51625,-11.64993 l 11.7135,-13.27516 -13.28239,11.7197 a 11.992506,19.18801 45 0 0 -11.64322,-0.52658 z m 5.98103,18.00097 a 10.493442,16.78951 45 0 1 5.89111,2.127 10.493442,16.78951 45 0 1 -4.45192,19.29185 10.493442,16.78951 45 0 1 -19.29185,4.45192 10.493442,16.78951 45 0 1 4.45192,-19.29185 10.493442,16.78951 45 0 1 13.40074,-6.57892 z m -1.70894,3.99975 a 7.4953158,11.992508 45 0 0 -9.57203,4.69946 7.4953158,11.992508 45 0 0 -3.17965,13.78003 7.4953158,11.992508 45 0 0 13.77952,-3.18016 7.4953158,11.992508 45 0 0 3.18017,-13.78004 7.4953158,11.992508 45 0 0 -4.20801,-1.51929 z"
       id="path1811"
       inkscape:connector-curvature="0" />
    <path
       style="fill:#000000;fill-opacity:1;fill-rule:nonzero;stroke:none;stroke-width:1.984375;stroke-linecap:round;stroke-linejoin:round;stroke-miterlimit:4;stroke-dasharray:none;stroke-dashoffset:0;stroke-opacity:1;paint-order:normal"
       d="M 59.37351,153.00019 43.95168,168.42202 42.40989,166.87966 26.98806,182.30093 25.44627,180.75914 10.02444,196.18097 8.48152,194.63861 0,203.12014 v 13.87948 5.6e-4 h 5.6e-4 13.87948 l 8.48152,-8.48152 -1.54235,-1.54292 15.42183,-15.42183 -1.54179,-1.54179 15.42127,-15.42183 -1.54235,-1.54179 15.42182,-15.42183 z"
       id="rect1163"
       inkscape:connector-curvature="0" />
    <path
       style="fill:#000000;fill-opacity:1;fill-rule:nonzero;stroke:none;stroke-width:1.984375;stroke-linecap:round;stroke-linejoin:round;stroke-miterlimit:4;stroke-dasharray:none;stroke-dashoffset:0;stroke-opacity:1;paint-order:normal"
       d="m 194.26819,152.99996 -8.26823,10.6872 5.49217,-0.29094 -1.5353,7.60419 8.04344,-10.77144 -5.42602,0.88677 z m -19.94762,4.22403 1.71049,13.40332 3.6773,-4.08968 4.29172,6.46266 -1.92908,-13.30358 -3.20962,4.46329 z m 38.41315,2.34352 -12.50413,5.12114 4.90202,2.49339 -5.13146,5.81825 12.35117,-5.30666 -5.14231,-1.9451 z M 160,169.00001 l 3.93051,26.94409 7.22178,-8.0641 8.84804,13.12013 -4.36511,-26.75186 -6.2699,8.83202 z m 64.00024,0 -9.36533,14.08028 -6.26991,-8.83202 -4.36459,26.75186 8.84753,-13.12013 7.22228,8.0641 z m -40.00016,8.00003 v 4.5713 h 3.42873 v 6.85746 h -3.42873 v 3.42822 h 3.42873 v 2.85719 h -3.42873 v 3.42873 h 3.42873 v 2.85719 h -3.42873 v 3.42821 h 3.42873 v 2.85771 h -3.42873 v 3.42873 h 3.42873 v 2.85667 h -3.42873 v 3.42873 h 16.00007 v -3.42873 h -3.42874 v -2.85667 h 3.42874 v -3.42873 h -3.42874 v -2.85771 h 3.42874 v -3.42821 h -3.42874 v -2.85719 h 3.42874 v -3.42873 h -3.42874 v -2.85719 h 3.42874 v -3.42822 h -3.42874 v -6.85746 h 3.42874 v -4.5713 h -6.85694 v 2.28565 h -2.28619 v -2.28565 z"
       id="rect1424"
       inkscape:connector-curvature="0" />
    <path
       style="fill:#000000;fill-opacity:1;fill-rule:nonzero;stroke:none;stroke-width:2.83464575;stroke-linecap:round;stroke-linejoin:round;stroke-miterlimit:4;stroke-dasharray:none;stroke-dashoffset:0;stroke-opacity:1;paint-order:markers stroke fill"
       d="M 725.66992 0 L 699.375 22.8125 L 665.19727 16.203125 L 653.83203 49.107422 L 620.92773 60.472656 L 627.53711 94.650391 L 604.72461 120.94531 L 627.53711 147.24023 L 620.92773 181.41797 L 653.83203 192.7832 L 665.19727 225.68555 L 699.375 219.07617 L 725.66992 241.89062 L 751.96289 219.07617 L 786.14258 225.68555 L 797.50781 192.7832 L 830.41016 181.41797 L 823.80078 147.24023 L 846.61328 120.94531 L 823.80078 94.650391 L 830.41016 60.472656 L 797.50781 49.107422 L 786.14258 16.203125 L 751.96289 22.8125 L 725.66992 0 z M 725.66992 22.677734 A 98.267715 98.267722 0 0 1 807.14453 66.152344 L 637.4668 164.11719 A 98.267715 98.267722 0 0 1 627.40234 120.94531 A 98.267715 98.267722 0 0 1 725.66992 22.677734 z M 725.66797 49.134766 C 721.4931 49.134992 718.10892 54.212333 718.10938 60.474609 L 718.10938 90.707031 L 695.43359 92.769531 L 695.43359 86.929688 L 687.875 86.929688 L 687.875 93.457031 L 680.31641 94.144531 L 680.31641 86.929688 L 672.75781 86.929688 L 672.75781 94.828125 L 665.19922 95.515625 L 665.19922 86.929688 L 657.64062 86.929688 L 657.64062 96.203125 L 634.96094 98.265625 L 634.96094 113.38281 L 657.64062 113.38281 L 657.64062 124.72266 L 665.19922 124.72266 L 665.19922 113.38281 L 672.75781 113.38281 L 672.75781 124.72266 L 680.31641 124.72266 L 680.31641 113.38281 L 687.875 113.38281 L 687.875 124.72266 L 695.43359 124.72266 L 695.43359 113.38281 L 717.7793 113.38281 L 753.8125 92.580078 L 733.23047 90.707031 L 733.23047 60.474609 C 733.23085 54.210122 729.84442 49.131818 725.66797 49.134766 z M 813.87305 77.771484 A 98.267715 98.267722 0 0 1 823.9375 120.94531 A 98.267715 98.267722 0 0 1 725.66992 219.21289 A 98.267715 98.267722 0 0 1 644.19531 175.73633 L 813.87305 77.771484 z M 755.90625 86.929688 L 755.90625 91.371094 L 763.46484 87.005859 L 763.46484 86.929688 L 755.90625 86.929688 z M 793.70312 93.78125 L 755.90625 115.60352 L 755.90625 124.72266 L 763.46484 124.72266 L 763.46484 113.38281 L 771.02734 113.38281 L 771.02734 124.72266 L 778.58594 124.72266 L 778.58594 113.38281 L 786.14453 113.38281 L 786.14453 124.72266 L 793.70312 124.72266 L 793.70312 113.38281 L 816.37891 113.38281 L 816.37891 98.265625 L 793.70312 96.203125 L 793.70312 93.78125 z M 732.35156 129.20312 L 719.4043 136.67773 L 721.89062 181.41602 L 706.77344 185.19531 L 706.77344 194.64648 L 721.89062 196.53516 L 725.66797 207.87305 L 729.44922 196.53516 L 744.56836 194.64648 L 744.56836 185.19531 L 729.44922 181.41602 L 732.35156 129.20312 z "
       id="path822"
       transform="matrix(0.26458333,0,0,0.26458333,0,73.00018)" />
  </g>
</svg>
